# Blender v2.77 (sub 0) OBJ File: 'autominer.blend'
# www.blender.org
mtllib autominer.mtl
o Cube
v 0.062500 0.562500 0.937500
v 0.937500 0.562500 0.062500
v 0.062500 0.562500 0.062500
v 0.937500 0.562500 0.937500
v 0.937500 0.562500 0.562500
v 0.937498 0.562500 0.437500
v 0.562500 0.562500 0.937500
v 0.437500 0.562500 0.937500
v 0.062500 0.562500 0.437500
v 0.062500 0.562500 0.562500
v 0.562500 0.562500 0.062500
v 0.437500 0.562500 0.062500
v 0.437500 1.000000 0.062500
v 0.437500 0.000000 0.000000
v 0.437500 0.562500 0.000000
v 0.437500 0.437500 0.000000
v 0.437500 1.000000 0.000000
v 0.437500 0.000000 0.062500
v 0.562500 1.000000 0.062500
v 0.562500 0.000000 0.000000
v 0.562500 0.000000 0.062500
v 0.562500 1.000000 0.000000
v 0.562500 0.562500 0.000000
v 0.562500 0.437500 0.000000
v 0.000000 0.000000 0.562500
v 0.062500 1.000000 0.562500
v 0.062500 0.000000 0.562500
v 0.000000 0.562500 0.562500
v 0.000000 0.437500 0.562500
v 0.000000 1.000000 0.562500
v 0.000000 1.000000 0.437500
v 0.000000 0.000000 0.437500
v 0.062500 1.000000 0.437500
v 0.062500 0.000000 0.437500
v 0.000000 0.562500 0.437500
v 0.000000 0.437500 0.437500
v 0.437500 1.000000 0.937500
v 0.437500 1.000000 1.000000
v 0.437500 0.437500 1.000000
v 0.437500 0.562500 1.000000
v 0.437500 0.000000 1.000000
v 0.437500 0.000000 0.937500
v 0.562500 1.000000 0.937500
v 0.562500 1.000000 1.000000
v 0.562500 0.000000 0.937500
v 0.562500 0.000000 1.000000
v 0.562500 0.562500 1.000000
v 0.562500 0.437500 1.000000
v 0.999998 0.000000 0.437500
v 0.999998 0.562500 0.437500
v 0.999998 0.437500 0.437500
v 0.937498 1.000000 0.437500
v 0.937498 0.000000 0.437500
v 0.999998 1.000000 0.437500
v 1.000000 0.000000 0.562500
v 1.000000 1.000000 0.562500
v 0.937500 0.000000 0.562500
v 0.937500 1.000000 0.562500
v 1.000000 0.562500 0.562500
v 1.000000 0.437500 0.562500
v 0.000000 0.437500 0.000000
v 1.000000 0.437500 0.000000
v 1.000000 0.437500 1.000000
v 0.000000 0.437500 0.062500
v 1.000000 0.437500 0.062500
v 1.000000 0.437500 0.937500
v 0.000000 0.437500 0.937500
v 0.062500 0.437500 0.000000
v 0.062500 0.437500 1.000000
v 0.937500 0.437500 0.000000
v 0.937500 0.437500 1.000000
v 0.000000 0.437500 1.000000
v 0.000000 0.562500 1.000000
v 0.000000 0.562500 0.000000
v 1.000000 0.562500 0.000000
v 1.000000 0.562500 1.000000
v 0.000000 0.562500 0.062500
v 1.000000 0.562500 0.062500
v 1.000000 0.562500 0.937500
v 0.000000 0.562500 0.937500
v 0.062500 0.562500 0.000000
v 0.062500 0.562500 1.000000
v 0.937500 0.562500 0.000000
v 0.937500 0.562500 1.000000
v 0.937500 1.000000 0.000000
v 0.937500 0.000000 1.000000
v 0.937500 0.000000 0.062500
v 0.937500 0.000000 0.937500
v 0.937500 1.000000 0.937500
v 0.937500 1.000000 0.062500
v 0.937500 1.000000 1.000000
v 0.937500 0.000000 0.000000
v 0.062500 1.000000 0.000000
v 0.062500 0.000000 0.000000
v 0.062500 1.000000 1.000000
v 0.062500 0.000000 1.000000
v 0.062500 1.000000 0.062500
v 0.062500 0.000000 0.062500
v 0.062500 1.000000 0.937500
v 0.062500 0.000000 0.937500
v 0.000000 0.000000 0.937500
v 1.000000 1.000000 0.937500
v 1.000000 0.000000 0.937500
v 0.000000 1.000000 0.937500
v 0.000000 1.000000 0.062500
v 0.000000 0.000000 0.062500
v 1.000000 1.000000 0.062500
v 1.000000 0.000000 0.062500
v 1.000000 1.000000 0.000000
v 1.000000 0.000000 0.000000
v 1.000000 1.000000 1.000000
v 1.000000 0.000000 1.000000
v 0.000000 1.000000 0.000000
v 0.000000 0.000000 0.000000
v 0.000000 1.000000 1.000000
v 0.000000 0.000000 1.000000
v 0.062500 0.437500 0.937500
v 0.062500 0.437500 0.062500
v 0.562500 0.437500 0.937500
v 0.437500 0.437500 0.937500
v 0.562500 0.437500 0.062500
v 0.437500 0.437500 0.062500
v 0.062500 0.437500 0.562500
v 0.062500 0.437500 0.437500
v 0.937498 0.437500 0.437500
v 0.937500 0.437500 0.562500
v 0.937500 0.437500 0.937500
v 0.937500 0.437500 0.062500
v 0.250000 0.000000 0.750000
v 0.250000 1.000000 0.750000
v 0.250000 0.000000 0.250000
v 0.250000 1.000000 0.250000
v 0.750000 0.000000 0.750000
v 0.750000 1.000000 0.750000
v 0.750000 0.000000 0.250000
v 0.750000 1.000000 0.250000
v 0.312500 0.562500 0.562500
v 0.312500 0.562500 0.437500
v 0.312500 0.437500 0.562500
v 0.312500 0.437500 0.437500
v 0.562500 0.562500 0.312500
v 0.437500 0.562500 0.312500
v 0.562500 0.437500 0.312500
v 0.437500 0.437500 0.312500
v 0.687500 0.562500 0.562500
v 0.687498 0.562500 0.437500
v 0.687498 0.437500 0.437500
v 0.687500 0.437500 0.562500
v 0.562500 0.437500 0.687500
v 0.562500 0.562500 0.687500
v 0.437500 0.437500 0.687500
v 0.437500 0.562500 0.687500
vt 0.1094 0.8594
vt 0.1094 0.8906
vt 0.0156 0.8906
vt 0.0156 0.8594
vt 0.1094 0.6094
vt 0.1406 0.6094
vt 0.1406 0.6406
vt 0.1094 0.6406
vt 0.3906 0.1719
vt 0.3906 0.1406
vt 0.3281 0.1406
vt 0.3281 0.1719
vt 0.2344 0.6094
vt 0.1406 0.6094
vt 0.1406 0.5000
vt 0.2344 0.5000
vt 0.1406 0.9844
vt 0.1406 1.0000
vt 0.1094 1.0000
vt 0.1094 0.9844
vt 0.1406 0.8594
vt 0.2344 0.8594
vt 0.2344 0.8906
vt 0.1406 0.8906
vt 0.0000 0.0000
vt 0.0000 0.0000
vt 0.0000 0.0000
vt 0.0000 0.0000
vt 0.3906 0.2031
vt 0.3906 0.1719
vt 0.3281 0.1719
vt 0.3281 0.2031
vt 0.0156 0.6406
vt 0.1094 0.7500
vt 0.0156 0.7500
vt 0.2344 0.8594
vt 0.2344 0.8906
vt 0.1406 0.8906
vt 0.1406 0.8594
vt 0.0156 0.7656
vt 0.0156 0.8594
vt 0.0000 0.8594
vt 0.0000 0.7656
vt 0.1094 0.6094
vt 0.1406 0.6094
vt 0.1406 0.6406
vt 0.1094 0.6406
vt 0.2344 0.8594
vt 0.1406 0.8594
vt 0.1406 0.7500
vt 0.2344 0.7500
vt 0.1094 0.8594
vt 0.1094 0.7500
vt 0.1406 0.6406
vt 0.1094 0.6406
vt 0.1094 0.6094
vt 0.1406 0.6094
vt 0.2344 0.6406
vt 0.2344 0.6094
vt 0.1094 0.8594
vt 0.1094 0.7500
vt 0.1406 0.7500
vt 0.1406 0.8594
vt 0.0157 0.8594
vt 0.0157 0.7500
vt 0.2344 0.7500
vt 0.2344 0.7656
vt 0.1406 0.7656
vt 0.1406 0.7500
vt 0.1406 0.7500
vt 0.1094 0.7500
vt 0.1094 0.5000
vt 0.1406 0.5000
vt 0.1406 1.0000
vt 0.1094 1.0000
vt 0.2344 0.7500
vt 0.2344 0.8594
vt 0.2500 0.7656
vt 0.2500 0.8594
vt 0.2344 0.8594
vt 0.2500 0.8906
vt 0.2344 0.8906
vt 0.2500 0.6406
vt 0.2500 0.6094
vt 0.0000 0.0000
vt 0.0000 0.0000
vt 0.0000 0.0000
vt 0.0000 0.0000
vt 0.1094 0.6094
vt 0.1094 0.5000
vt 0.2344 1.0000
vt 0.0156 0.6406
vt 0.0000 0.6406
vt 0.0000 0.6094
vt 0.0156 0.6094
vt 0.2344 0.6094
vt 0.2344 0.6406
vt 0.1094 0.7500
vt 0.0156 0.7500
vt 0.1094 0.6406
vt 0.2344 0.6406
vt 0.1406 0.6406
vt 0.2344 0.6094
vt 0.2344 0.6406
vt 0.0156 0.6406
vt 0.0000 0.6406
vt 0.0000 0.6094
vt 0.0156 0.6094
vt 0.2500 0.6094
vt 0.2500 0.6406
vt 0.2500 0.6406
vt 0.2500 0.6094
vt 0.0000 0.6094
vt 0.0156 0.6094
vt 0.0156 0.6406
vt 0.0000 0.6406
vt 0.0000 0.5000
vt 0.0156 0.5000
vt 0.0156 0.6094
vt 0.0000 0.6094
vt 0.0000 0.7500
vt 0.1406 0.5000
vt 0.2344 0.5000
vt 0.1094 0.5000
vt 0.0157 0.8594
vt 0.1094 0.8594
vt 0.1094 0.8906
vt 0.0157 0.8906
vt 0.1094 0.5000
vt 0.1094 0.7500
vt 0.0156 0.7500
vt 0.1094 0.7656
vt 0.0000 0.6406
vt 0.1406 1.0000
vt 0.1406 0.8906
vt 0.2344 0.8906
vt 0.2344 1.0000
vt 0.0000 0.0000
vt 0.0000 0.0000
vt 0.0000 0.0000
vt 0.0000 0.0000
vt 0.0000 0.0000
vt 0.0000 0.0000
vt 0.1406 0.7500
vt 0.2344 1.0000
vt 0.1406 1.0000
vt 0.2500 0.7500
vt 0.2344 0.7500
vt 0.0000 0.5000
vt 0.0156 0.5000
vt 0.2500 0.5000
vt 0.2500 0.6094
vt 0.0000 0.7500
vt 0.2344 0.9844
vt 0.2344 1.0000
vt 0.0000 0.0000
vt 0.0000 0.0000
vt 0.0000 0.0000
vt 0.0156 0.7500
vt 0.2500 0.9844
vt 0.2344 0.5000
vt 0.2500 0.5000
vt 0.0000 0.0000
vt 0.0000 0.0000
vt 0.0000 0.0000
vt 0.0156 1.0000
vt 0.0000 0.0000
vt 0.0000 0.0000
vt 0.2344 0.7500
vt 0.1406 0.7500
vt 0.0000 0.0000
vt 0.1406 0.5000
vt 0.2344 0.5000
vt 0.1094 1.0000
vt 0.0157 1.0000
vt 0.2500 0.7500
vt 0.0000 0.0000
vt 0.0000 0.0000
vt 0.1094 1.0000
vt 0.0157 1.0000
vt 0.0157 0.8906
vt 0.1094 0.8906
vt 0.0156 1.0000
vt 0.0156 0.9844
vt 0.0000 0.0000
vt 0.0000 0.0000
vt 0.0157 0.8594
vt 0.0157 0.7500
vt 0.0156 0.5000
vt 0.0000 0.0000
vt 0.0000 0.0000
vt 0.2500 1.0000
vt 0.0157 1.0000
vt 0.0157 0.8906
vt 0.1094 0.8906
vt 0.1094 1.0000
vt 0.0000 0.0000
vt 0.0000 0.0000
vt 0.0000 0.7500
vt 0.0000 0.0000
vt 0.0000 0.5000
vt 0.2500 0.5000
vt 0.0156 0.8906
vt 0.0000 0.9844
vt 0.0000 0.8906
vt 0.2344 0.7500
vt 0.0000 1.0000
vt 0.0000 0.5000
vt 0.0156 0.5000
vt 0.2500 0.5000
vt 0.2500 0.7500
vt 0.2500 0.6406
vt 0.2500 0.7500
vt 0.0000 0.7500
vt 0.1406 1.0000
vt 0.1406 0.8906
vt 0.2344 1.0000
vt 0.2344 0.8906
vt 0.0157 0.7500
vt 0.1094 0.7500
vt 0.3594 0.1094
vt 0.3281 0.1094
vt 0.3281 0.1719
vt 0.3594 0.1719
vt 0.3594 0.1719
vt 0.3594 0.2031
vt 0.4219 0.2031
vt 0.4219 0.1719
vt 0.2344 0.7500
vt 0.1406 0.7500
vt 0.1094 0.7500
vt 0.1406 0.7500
vt 0.2344 0.7500
vt 0.0156 0.7500
vt 0.2500 0.5000
vt 0.3750 0.5000
vt 0.3750 0.2500
vt 0.2500 0.2500
vt 0.5000 0.5000
vt 0.5000 0.2500
vt 0.3750 0.5000
vt 0.3750 0.2500
vt 0.0625 0.0625
vt 0.0625 0.1875
vt 0.1875 0.1875
vt 0.1875 0.0625
vt 0.1875 0.7812
vt 0.1875 0.9062
vt 0.0625 0.9062
vt 0.0625 0.7812
vt 0.3594 0.2031
vt 0.3281 0.2031
vt 0.3281 0.1719
vt 0.3594 0.1719
vt 0.3594 0.2031
vt 0.3594 0.1719
vt 0.4219 0.1719
vt 0.4219 0.2031
vt 0.3594 0.0469
vt 0.3594 0.0781
vt 0.4219 0.0781
vt 0.4219 0.0469
vt 0.3594 0.0781
vt 0.3594 0.0469
vt 0.4219 0.0469
vt 0.4219 0.0781
vt 0.3906 0.1406
vt 0.4219 0.1406
vt 0.4219 0.1719
vt 0.3906 0.1719
vt 0.4219 0.1406
vt 0.3906 0.1406
vt 0.3906 0.0781
vt 0.4219 0.0781
vt 0.3906 0.1406
vt 0.3906 0.1719
vt 0.3281 0.1719
vt 0.3281 0.1406
vt 0.4219 0.1406
vt 0.4219 0.0781
vt 0.3906 0.0781
vt 0.3906 0.1719
vt 0.3906 0.2031
vt 0.4219 0.2031
vt 0.4219 0.1719
vt 0.3906 0.0469
vt 0.3906 0.0781
vt 0.3281 0.0781
vt 0.3281 0.0469
vt 0.3906 0.1719
vt 0.3906 0.2031
vt 0.3281 0.2031
vt 0.3281 0.1719
vt 0.3906 0.0781
vt 0.3906 0.0469
vt 0.3281 0.0469
vt 0.3281 0.0781
vt 0.3594 0.1094
vt 0.3594 0.0781
vt 0.3281 0.0781
vt 0.3281 0.1094
vt 0.3594 0.0781
vt 0.3594 0.1094
vt 0.4219 0.1094
vt 0.4219 0.0781
vt 0.3281 0.1094
vt 0.3594 0.1094
vt 0.3594 0.1719
vt 0.3281 0.1719
vt 0.3594 0.0781
vt 0.4219 0.0781
vt 0.4219 0.1094
vn -1.0000 0.0000 -0.0000
vn 0.0000 0.0000 -1.0000
vn 1.0000 0.0000 0.0000
vn 0.0000 1.0000 0.0000
vn 0.0000 0.0000 1.0000
vn 0.0000 -1.0000 0.0000
usemtl Material
s off
f 125/1/1 6/2/1 2/3/1 128/4/1
f 15/5/2 23/6/2 24/7/2 16/8/2
f 12/9/1 122/10/1 144/11/1 142/12/1
f 65/13/3 51/14/3 49/15/3 108/16/3
f 19/17/4 22/18/4 17/19/4 13/20/4
f 121/21/5 128/22/5 2/23/5 11/24/5
f 18/25/6 14/26/6 20/27/6 21/28/6
f 6/29/2 125/30/2 147/31/2 146/32/2
f 68/33/2 16/8/2 14/34/2 94/35/2
f 127/36/1 4/37/1 5/38/1 126/39/1
f 99/40/4 26/41/4 30/42/4 104/43/4
f 28/44/1 35/45/1 36/46/1 29/47/1
f 118/48/3 124/49/3 34/50/3 98/51/3
f 124/49/3 123/52/3 27/53/3 34/50/3
f 47/54/5 40/55/5 39/56/5 48/57/5
f 84/58/5 47/54/5 48/57/5 71/59/5
f 119/60/2 45/61/2 42/62/2 120/63/2
f 127/64/2 88/65/2 45/61/2 119/60/2
f 91/66/4 89/67/4 43/68/4 44/69/4
f 29/47/1 36/46/1 32/70/1 25/71/1
f 48/57/5 39/56/5 41/72/5 46/73/5
f 5/38/1 58/74/1 52/75/1 6/2/1
f 120/63/2 42/62/2 100/76/2 117/77/2
f 102/78/4 56/79/4 58/80/4 89/67/4
f 56/79/4 54/81/4 52/82/4 58/80/4
f 76/83/5 84/58/5 71/59/5 63/84/5
f 88/85/6 57/86/6 55/87/6 103/88/6
f 51/14/3 60/89/3 55/90/3 49/15/3
f 4/37/1 89/91/1 58/74/1 5/38/1
f 79/92/3 76/93/3 63/94/3 66/95/3
f 23/6/2 83/96/2 70/97/2 24/7/2
f 56/98/3 102/99/3 79/92/3 59/100/3
f 78/101/3 50/102/3 51/14/3 65/13/3
f 35/45/1 77/103/1 64/104/1 36/46/1
f 82/105/5 73/106/5 72/107/5 69/108/5
f 83/96/2 75/109/2 62/110/2 70/97/2
f 75/111/3 78/101/3 65/13/3 62/112/3
f 73/113/1 80/114/1 67/115/1 72/116/1
f 40/55/5 82/105/5 69/108/5 39/56/5
f 113/117/2 93/118/2 81/119/2 74/120/2
f 102/99/3 111/121/3 76/93/3 79/92/3
f 31/122/1 105/123/1 77/103/1 35/45/1
f 30/124/1 31/122/1 35/45/1 28/44/1
f 118/125/5 122/126/5 12/127/5 3/128/5
f 93/118/2 17/129/2 15/5/2 81/119/2
f 38/130/5 95/131/5 82/105/5 40/55/5
f 44/69/4 43/68/4 37/132/4 38/130/4
f 74/120/2 81/119/2 68/33/2 61/133/2
f 37/134/2 8/135/2 1/136/2 99/137/2
f 98/138/6 94/139/6 14/26/6 18/25/6
f 96/140/6 100/141/6 42/142/6 41/143/6
f 54/144/3 56/98/3 59/100/3 50/102/3
f 50/102/3 59/100/3 60/89/3 51/14/3
f 11/24/5 2/23/5 90/145/5 19/146/5
f 109/147/3 107/148/3 78/101/3 75/111/3
f 59/100/3 79/92/3 66/95/3 60/89/3
f 115/149/1 104/150/1 80/114/1 73/113/1
f 105/123/1 113/151/1 74/152/1 77/103/1
f 95/131/5 115/153/5 73/106/5 82/105/5
f 90/154/4 85/155/4 22/18/4 19/17/4
f 101/156/6 25/157/6 27/158/6 100/141/6
f 104/150/1 30/124/1 28/44/1 80/114/1
f 67/115/1 29/47/1 25/71/1 101/159/1
f 54/81/4 107/160/4 90/154/4 52/82/4
f 63/84/5 71/59/5 86/161/5 112/162/5
f 46/163/6 45/164/6 88/85/6 86/165/6
f 6/2/1 52/75/1 90/166/1 2/3/1
f 21/28/6 20/27/6 92/167/6 87/168/6
f 24/7/2 70/97/2 92/169/2 20/170/2
f 116/171/6 101/156/6 100/141/6 96/140/6
f 22/172/2 85/173/2 83/96/2 23/6/2
f 3/128/5 12/127/5 13/174/5 97/175/5
f 111/176/4 102/78/4 89/67/4 91/66/4
f 25/157/6 32/177/6 34/178/6 27/158/6
f 26/179/3 99/180/3 1/181/3 10/182/3
f 12/127/5 11/24/5 19/146/5 13/174/5
f 13/20/4 17/19/4 93/183/4 97/184/4
f 106/185/6 114/186/6 94/139/6 98/138/6
f 38/130/4 37/132/4 99/40/4 95/131/4
f 123/52/3 117/187/3 100/188/3 27/53/3
f 39/56/5 69/108/5 96/189/5 41/72/5
f 32/177/6 106/185/6 98/138/6 34/178/6
f 57/86/6 53/190/6 49/191/6 55/87/6
f 107/160/4 109/192/4 85/155/4 90/154/4
f 71/59/5 48/57/5 46/73/5 86/161/5
f 89/193/2 4/194/2 7/195/2 43/196/2
f 86/165/6 88/85/6 103/88/6 112/197/6
f 53/190/6 87/168/6 108/198/6 49/191/6
f 72/116/1 67/115/1 101/159/1 116/199/1
f 107/148/3 54/144/3 50/102/3 78/101/3
f 111/176/5 91/66/5 84/58/5 76/83/5
f 80/114/1 28/44/1 29/47/1 67/115/1
f 17/129/2 22/172/2 23/6/2 15/5/2
f 81/119/2 15/5/2 16/8/2 68/33/2
f 16/8/2 24/7/2 20/170/2 14/34/2
f 87/168/6 92/167/6 110/200/6 108/198/6
f 69/108/5 72/107/5 116/201/5 96/189/5
f 62/112/3 65/13/3 108/16/3 110/202/3
f 33/203/4 97/184/4 105/204/4 31/205/4
f 36/46/1 64/104/1 106/206/1 32/70/1
f 97/184/4 93/183/4 113/207/4 105/204/4
f 66/95/3 63/94/3 112/208/3 103/209/3
f 95/131/4 99/40/4 104/43/4 115/153/4
f 91/66/5 44/69/5 47/54/5 84/58/5
f 44/69/5 38/130/5 40/55/5 47/54/5
f 85/173/2 109/210/2 75/109/2 83/96/2
f 26/41/4 33/203/4 31/205/4 30/42/4
f 41/143/6 42/142/6 45/164/6 46/163/6
f 70/97/2 62/110/2 110/211/2 92/169/2
f 77/103/1 74/152/1 61/212/1 64/104/1
f 64/104/1 61/212/1 114/213/1 106/206/1
f 60/89/3 66/95/3 103/209/3 55/90/3
f 61/133/2 68/33/2 94/35/2 114/214/2
f 43/196/2 7/195/2 8/135/2 37/134/2
f 33/215/3 26/179/3 10/182/3 9/216/3
f 97/217/3 33/215/3 9/216/3 3/218/3
f 10/182/3 1/181/3 117/187/3 123/52/3
f 98/219/5 18/220/5 122/126/5 118/125/5
f 8/135/2 120/63/2 117/77/2 1/136/2
f 4/194/2 127/64/2 119/60/2 7/195/2
f 119/221/6 120/222/6 151/223/6 149/224/6
f 124/225/2 9/226/2 138/227/2 140/228/2
f 3/218/3 9/216/3 124/49/3 118/48/3
f 88/229/1 127/36/1 126/39/1 57/230/1
f 57/230/1 126/39/1 125/1/1 53/231/1
f 21/232/5 87/233/5 128/22/5 121/21/5
f 18/220/5 21/232/5 121/21/5 122/126/5
f 53/231/1 125/1/1 128/4/1 87/234/1
f 130/235/1 132/236/1 131/237/1 129/238/1
f 132/236/2 136/239/2 135/240/2 131/237/2
f 136/239/3 134/241/3 133/242/3 135/240/3
f 134/241/5 130/235/5 129/238/5 133/242/5
f 129/243/6 131/244/6 135/245/6 133/246/6
f 134/247/4 136/248/4 132/249/4 130/250/4
f 138/251/3 137/252/3 139/253/3 140/254/3
f 10/255/5 123/256/5 139/257/5 137/258/5
f 123/259/6 124/260/6 140/261/6 139/262/6
f 9/263/4 10/264/4 137/265/4 138/266/4
f 144/267/5 143/268/5 141/269/5 142/270/5
f 11/271/4 12/272/4 142/273/4 141/274/4
f 121/275/3 11/276/3 141/277/3 143/278/3
f 122/10/6 121/279/6 143/280/6 144/281/6
f 148/282/1 145/283/1 146/284/1 147/285/1
f 5/286/4 6/287/4 146/288/4 145/289/4
f 126/290/5 5/291/5 145/292/5 148/293/5
f 125/294/6 126/295/6 148/296/6 147/297/6
f 150/298/2 149/299/2 151/300/2 152/301/2
f 120/302/1 8/303/1 152/304/1 151/305/1
f 8/306/4 7/307/4 150/308/4 152/309/4
f 7/307/3 119/310/3 149/311/3 150/312/3
