# Blender v2.78 (sub 0) OBJ File: 'bottomhatch.blend'
# www.blender.org
mtllib bottomhatch.mtl
o Cube
v 1.000000 0.937500 0.000000
v 1.000000 0.937500 1.000000
v -0.000000 0.937500 1.000000
v 0.000000 0.937500 -0.000000
v 1.000000 1.000000 0.000000
v 1.000000 1.000000 1.000000
v -0.000000 1.000000 1.000000
v 0.000000 1.000000 0.000000
v 1.000000 0.937500 0.937500
v 0.000000 0.937500 0.937500
v 1.000000 1.000000 0.937500
v -0.000000 1.000000 0.937500
v 0.062500 0.937500 -0.000000
v 0.062500 0.937500 1.000000
v 0.062500 1.000000 0.000000
v 0.062500 1.000000 1.000000
v 0.062500 1.000000 0.937500
v 0.062500 0.937500 0.937500
v 0.937500 1.000000 0.937500
v 0.937500 0.937500 0.000000
v 0.937500 0.937500 1.000000
v 0.937500 1.000000 0.000000
v 0.937500 1.000000 1.000000
v 0.937500 0.937500 0.937500
v 1.000000 0.000000 0.937500
v 1.000000 0.000000 1.000000
v 0.062500 0.000000 -0.000000
v 0.000000 0.000000 -0.000000
v 0.062500 0.000000 1.000000
v -0.000000 0.000000 1.000000
v 0.000000 0.000000 0.937500
v 1.000000 0.000000 0.000000
v 0.062500 0.000000 0.937500
v 0.937500 0.000000 1.000000
v 0.937500 0.000000 0.937500
v 0.937500 0.000000 0.000000
v 0.062500 0.062500 -0.000000
v 0.062500 0.062500 0.937500
v 0.937500 0.062500 0.937500
v 0.937500 0.062500 0.000000
v 1.000000 0.062500 0.000000
v 0.000000 0.062500 0.937500
v -0.000000 0.062500 1.000000
v 0.062500 0.062500 1.000000
v 0.937500 0.062500 1.000000
v 1.000000 0.062500 1.000000
v 1.000000 0.062500 0.937500
v 0.000000 0.062500 -0.000000
v 0.000000 0.937500 0.062500
v 0.000000 1.000000 0.062500
v 1.000000 0.937500 0.062500
v 1.000000 1.000000 0.062500
v 0.062500 0.937500 0.062500
v 0.062500 1.000000 0.062500
v 0.937500 1.000000 0.062500
v 0.937500 0.937500 0.062500
v 0.000000 0.000000 0.062500
v 1.000000 0.000000 0.062500
v 0.062500 0.000000 0.062500
v 0.937500 0.000000 0.062500
v 1.000000 0.062500 0.062500
v 0.000000 0.062500 0.062500
v 0.937500 0.062500 0.062500
v 0.062500 0.062500 0.062500
vt 0.0156 0.7656
vt 0.0000 0.7656
vt 0.0000 0.7500
vt 0.0156 0.7500
vt 0.0156 0.7656
vt 0.0000 0.7656
vt 0.0000 0.7500
vt 0.0156 0.7500
vt 0.0156 0.9843
vt 0.0156 0.9999
vt 0.0000 0.9999
vt 0.0000 0.9843
vt 0.0156 0.9844
vt 0.0156 1.0000
vt 0.0000 1.0000
vt 0.0000 0.9844
vt 0.2344 0.9844
vt 0.2500 0.9844
vt 0.2500 1.0000
vt 0.2344 1.0000
vt 0.0156 0.7500
vt 0.0156 0.7656
vt 0.0000 0.7656
vt 0.0000 0.7500
vt 0.2344 0.7500
vt 0.2500 0.7500
vt 0.2500 0.7656
vt 0.2344 0.7656
vt 0.2343 0.9844
vt 0.2343 1.0000
vt 0.0156 0.9844
vt 0.0000 0.9844
vt 0.0156 0.7500
vt 0.0156 0.7656
vt 0.0000 0.7656
vt 0.2344 0.4844
vt 0.2344 0.2656
vt 0.0156 0.2656
vt 0.0156 0.4844
vt 0.2344 0.4844
vt 0.0156 0.4844
vt 0.0156 0.2656
vt 0.2344 0.2656
vt 0.2344 0.7500
vt 0.2344 0.7656
vt 0.2344 0.9844
vt 0.2344 1.0000
vt 0.2344 0.7656
vt 0.2344 0.7500
vt 0.2344 0.9844
vt 0.2500 0.9844
vt 0.2500 1.0000
vt 0.2344 1.0000
vt 0.2344 0.7656
vt 0.0156 0.7656
vt 0.0156 0.7500
vt 0.2344 0.7500
vt 0.2500 0.7656
vt 0.2500 0.7500
vt 0.2500 0.9844
vt 0.2500 1.0000
vt 0.2500 0.7500
vt 0.2500 0.7656
vt 0.2500 0.9844
vt 0.2344 0.9844
vt 0.0000 0.0000
vt 0.0000 0.0000
vt 0.0000 0.0000
vt 0.0000 0.0000
vt 0.0156 0.7656
vt 0.0000 0.7656
vt 0.0156 0.7500
vt 0.2344 0.7656
vt 0.2344 0.7500
vt 0.0156 0.9844
vt 0.0000 0.9844
vt 0.0156 1.0000
vt 0.0000 1.0000
vt 0.2344 1.0000
vt 0.2344 0.9844
vt 0.2500 0.7656
vt 0.2344 0.7656
vt 0.2344 0.7500
vt 0.2500 0.7500
vt 0.0157 0.7656
vt 0.0001 0.7656
vt 0.0001 0.7500
vt 0.0157 0.7500
vt 0.0000 0.9844
vt 0.0156 0.9844
vt 0.0156 1.0000
vt 0.0000 1.0000
vt 0.2344 0.7656
vt 0.2344 0.7500
vt 0.0156 0.9844
vt 0.0156 1.0000
vt 0.0000 0.9844
vt 0.2344 0.7657
vt 0.2344 0.7501
vt 0.2344 0.4844
vt 0.0156 0.4844
vt 0.0156 0.2656
vt 0.2344 0.2656
vt 0.0156 0.4844
vt 0.2344 0.4844
vt 0.2344 0.2656
vt 0.0156 0.2656
vt 0.2344 0.4844
vt 0.0156 0.4844
vt 0.0156 0.2656
vt 0.2344 0.2656
vt 0.2344 0.9844
vt 0.2500 0.9844
vt 0.2500 0.7656
vt 0.2344 0.7656
vt 0.2344 0.4844
vt 0.2344 0.2656
vt 0.2500 0.9844
vt 0.2344 0.9844
vt 0.2500 0.7656
vt 0.0156 0.4844
vt 0.2344 0.2656
vt 0.0156 0.2656
vt 0.0156 0.4844
vt 0.2344 0.4844
vt 0.2344 0.2656
vt 0.0156 0.2656
vt 0.2499 0.9844
vt 0.2500 0.7657
vt 0.2500 0.7501
vt 0.2500 0.9844
vt 0.2500 0.7656
vt 0.2500 0.7500
vt 0.0156 0.7506
vt 0.2344 0.7506
vt 0.2344 0.7662
vt 0.0156 0.7662
vt 0.2500 1.0000
vt 0.2344 1.0000
vt 0.0000 0.0000
vt 0.0000 0.0000
vt 0.0156 1.0000
vt 0.2344 1.0000
vt 0.0156 0.9844
vt 0.0156 1.0000
vt 0.0000 1.0000
vt 0.2499 1.0000
vt 0.2344 0.9844
vt 0.2344 1.0000
vt 0.0156 1.0000
vt 0.0156 0.9844
vn -0.0000 0.0000 1.0000
vn 0.0000 1.0000 0.0000
vn 1.0000 0.0000 0.0000
vn -1.0000 -0.0000 -0.0000
vn 0.0000 0.0000 -1.0000
vn 0.0000 -1.0000 0.0000
usemtl Material
s off
f 44/1/1 43/2/1 30/3/1 29/4/1
f 17/5/2 12/6/2 7/7/2 16/8/2
f 9/9/3 11/10/3 6/11/3 2/12/3
f 14/13/1 16/14/1 7/15/1 3/16/1
f 49/17/4 50/18/4 8/19/4 4/20/4
f 15/21/5 13/22/5 4/23/5 8/24/5
f 3/25/4 7/26/4 12/27/4 10/28/4
f 51/29/3 52/30/3 11/10/3 9/9/3
f 54/31/2 50/32/2 12/6/2 17/5/2
f 43/33/4 42/34/4 31/35/4 30/3/4
f 56/36/6 24/37/6 18/38/6 53/39/6
f 55/40/2 54/41/2 17/42/2 19/43/2
f 22/44/5 20/45/5 13/22/5 15/21/5
f 21/46/1 23/47/1 16/14/1 14/13/1
f 19/48/2 17/5/2 16/8/2 23/49/2
f 40/50/5 41/51/5 32/52/5 36/53/5
f 64/54/3 38/55/3 33/56/3 59/57/3
f 11/58/2 19/48/2 23/49/2 6/59/2
f 2/60/1 6/61/1 23/47/1 21/46/1
f 5/62/5 1/63/5 20/45/5 22/44/5
f 52/64/2 55/65/2 19/48/2 11/58/2
f 60/66/1 63/67/1 64/68/1 59/69/1
f 33/70/6 29/71/6 30/3/6 31/72/6
f 59/73/6 33/70/6 31/72/6 57/74/6
f 35/75/6 34/76/6 29/71/6 33/70/6
f 25/77/6 26/78/6 34/76/6 35/75/6
f 58/79/6 25/77/6 35/75/6 60/80/6
f 46/81/1 45/82/1 34/83/1 26/84/1
f 47/85/3 46/86/3 26/87/3 25/88/3
f 45/82/1 44/1/1 29/4/1 34/83/1
f 48/89/5 37/90/5 27/91/5 28/92/5
f 38/55/5 39/93/5 35/94/5 33/56/5
f 62/95/4 48/96/4 28/92/4 57/97/4
f 61/98/3 47/85/3 25/88/3 58/99/3
f 51/100/3 9/101/3 47/102/3 61/103/3
f 49/17/4 4/20/4 48/96/4 62/95/4
f 18/104/5 24/105/5 39/106/5 38/107/5
f 4/23/5 13/22/5 37/90/5 48/89/5
f 21/108/1 14/109/1 44/110/1 45/111/1
f 9/9/3 2/12/3 46/86/3 47/85/3
f 2/60/1 21/46/1 45/82/1 46/81/1
f 56/112/4 20/113/4 40/114/4 63/115/4
f 53/116/3 18/104/3 38/107/3 64/117/3
f 20/45/5 1/63/5 41/51/5 40/50/5
f 3/25/4 10/28/4 42/34/4 43/33/4
f 14/13/1 3/16/1 43/2/1 44/1/1
f 13/118/3 53/119/3 64/54/3 37/120/3
f 24/121/4 56/36/4 63/122/4 39/123/4
f 10/124/4 49/125/4 62/126/4 42/127/4
f 1/128/3 51/29/3 61/98/3 41/129/3
f 41/129/3 61/98/3 58/99/3 32/130/3
f 42/34/4 62/95/4 57/97/4 31/35/4
f 32/52/6 58/79/6 60/80/6 36/131/6
f 27/132/6 59/73/6 57/74/6 28/133/6
f 39/134/4 63/135/4 60/136/4 35/137/4
f 5/138/2 22/139/2 55/65/2 52/64/2
f 37/140/3 64/68/3 59/69/3 27/141/3
f 22/139/2 15/142/2 54/31/2 55/65/2
f 20/143/6 56/112/6 53/144/6 13/145/6
f 15/142/2 8/146/2 50/32/2 54/31/2
f 1/128/3 5/147/3 52/30/3 51/29/3
f 10/28/4 12/27/4 50/18/4 49/17/4
f 36/131/6 60/80/6 59/73/6 27/132/6
f 63/148/2 40/149/2 37/150/2 64/151/2
f 40/50/5 36/53/5 27/91/5 37/90/5
