# Blender v2.77 (sub 0) OBJ File: 'charger.blend'
# www.blender.org
mtllib charger.mtl
o Cube
v 1.000000 0.000000 0.000000
v 1.000000 0.000000 1.000000
v -0.000000 0.000000 1.000000
v 0.000000 0.000000 -0.000000
v 1.000000 0.250000 0.000000
v 1.000000 0.250000 1.000000
v -0.000000 0.250000 1.000000
v 0.000000 0.250000 0.000000
v 0.937500 0.000000 -0.000000
v 0.937500 0.000000 1.000000
v 0.937500 0.250000 0.000000
v 0.937500 0.250000 1.000000
v 1.000000 1.000000 0.000000
v 1.000000 1.000000 1.000000
v 0.937500 1.000000 0.000000
v 0.937500 1.000000 1.000000
v 0.875000 0.437500 0.687500
v 0.875000 0.750000 0.687500
v 0.875000 0.437500 0.375000
v 0.875000 0.750000 0.375000
v 0.937500 0.437500 0.687500
v 0.937500 0.750000 0.687500
v 0.937500 0.437500 0.375000
v 0.937500 0.750000 0.375000
v 0.875000 0.500000 0.625000
v 0.875000 0.687500 0.625000
v 0.875000 0.500000 0.437500
v 0.875000 0.687500 0.437500
v 0.937500 0.500000 0.625000
v 0.937500 0.687500 0.625000
v 0.937500 0.500000 0.437500
v 0.937500 0.687500 0.437500
v 0.937500 0.562500 0.000000
v 1.000000 0.562500 0.000000
v 1.000000 0.562500 1.000000
v 0.937500 0.562500 1.000000
v 0.937500 0.625000 0.000000
v 1.000000 0.625000 0.000000
v 1.000000 0.625000 1.000000
v 0.937500 0.625000 1.000000
v 1.000000 0.000000 0.375000
v 0.000000 0.000000 0.375000
v 1.000000 0.250000 0.375000
v -0.000000 0.250000 0.375000
v 0.937500 0.250000 0.375000
v 0.937500 0.000000 0.375000
v 1.000000 1.000000 0.375000
v 0.937500 1.000000 0.375000
v 0.937500 0.562500 0.375000
v 1.000000 0.562500 0.375000
v 0.937500 0.625000 0.375000
v 1.000000 0.625000 0.375000
v 1.000000 0.000000 0.687538
v 1.000000 0.250000 0.687538
v 0.937500 0.250000 0.687538
v 1.000000 1.000000 0.687538
v 0.937500 1.000000 0.687538
v 1.000000 0.562500 0.687538
v 1.000000 0.625000 0.687538
v 0.000000 0.000000 0.687538
v -0.000000 0.250000 0.687538
v 0.937500 0.000000 0.687538
v 0.937500 0.562500 0.687538
v 0.937500 0.625000 0.687538
v 0.875000 0.625000 1.000000
v 0.875000 0.562500 1.000000
v 0.875000 0.562500 0.375000
v 0.875000 0.562500 0.000000
v 0.875000 0.625000 0.000000
v 0.875000 0.625000 0.375000
v 0.875000 0.562500 0.687538
v 0.875000 0.625000 0.687538
v 0.000000 0.000000 0.062500
v 0.000000 0.250000 0.062500
v 0.937500 0.000000 0.062500
v 0.937500 0.562500 0.062500
v 0.937500 0.625000 0.062500
v 1.000000 0.000000 0.062500
v 1.000000 0.250000 0.062500
v 0.937500 0.250000 0.062500
v 1.000000 1.000000 0.062500
v 0.937500 1.000000 0.062500
v 1.000000 0.562500 0.062500
v 1.000000 0.625000 0.062500
v 0.875000 0.562500 0.062500
v 0.875000 0.625000 0.062500
v 1.000000 0.000000 0.937500
v 1.000000 0.250000 0.937500
v 0.937500 0.250000 0.937500
v 1.000000 1.000000 0.937500
v 0.937500 1.000000 0.937500
v 1.000000 0.562500 0.937500
v 1.000000 0.625000 0.937500
v 0.000000 0.000000 0.937500
v -0.000000 0.250000 0.937500
v 0.937500 0.000000 0.937500
v 0.937500 0.562500 0.937500
v 0.937500 0.625000 0.937500
v 0.875000 0.562500 0.937500
v 0.875000 0.625000 0.937500
v 0.875000 0.250000 0.937500
v 0.875000 0.250000 1.000000
v 0.875000 0.250000 0.000000
v 0.875000 0.250000 0.062500
v 0.625000 0.000000 -0.000000
v 0.625000 0.000000 1.000000
v 0.625000 0.250000 0.000000
v 0.625000 0.250000 1.000000
v 0.625000 0.250000 0.375000
v 0.625000 0.000000 0.375000
v 0.625000 0.250000 0.687538
v 0.625000 0.000000 0.687538
v 0.625000 0.000000 0.062500
v 0.625000 0.250000 0.062500
v 0.625000 0.250000 0.937500
v 0.625000 0.000000 0.937500
v 0.375000 0.000000 -0.000000
v 0.375000 0.000000 1.000000
v 0.375000 0.250000 0.000000
v 0.375000 0.250000 1.000000
v 0.375000 0.000000 0.375000
v 0.375000 0.000000 0.687538
v 0.375000 0.000000 0.062500
v 0.375000 0.000000 0.937500
v 0.375000 0.250000 0.375000
v 0.375000 0.250000 0.687538
v 0.375000 0.250000 0.062500
v 0.375000 0.250000 0.937500
v 0.375000 0.500000 0.375000
v 0.625000 0.500000 0.375000
v 0.375000 0.500000 0.687538
v 0.625000 0.500000 0.687538
vt 0.0156 0.5938
vt 0.0000 0.5938
vt 0.0000 0.5000
vt 0.0156 0.5000
vt 0.6875 0.5000
vt 0.5937 0.5000
vt 0.5937 0.4844
vt 0.6875 0.4844
vt 0.2031 0.7500
vt 0.2031 0.8125
vt 0.1875 0.8125
vt 0.1875 0.7500
vt 0.0937 0.5000
vt 0.0937 0.5625
vt -0.0000 0.5625
vt 0.0156 0.5000
vt 0.0156 0.5625
vt 0.0000 0.5625
vt 0.0000 0.5000
vt 0.1562 0.5631
vt 0.1562 0.5006
vt 0.2500 0.5006
vt 0.2500 0.5631
vt 0.0625 0.8125
vt 0.0625 0.7500
vt 0.0469 0.7500
vt 0.0469 0.8125
vt 0.0625 0.7500
vt 0.0625 0.8125
vt 0.0469 0.8125
vt 0.0469 0.7500
vt 0.0625 0.9062
vt 0.0469 0.9062
vt 0.0469 1.0000
vt 0.0625 1.0000
vt 0.0156 0.7500
vt 0.0000 0.7500
vt 0.0000 0.7344
vt 0.0156 0.7344
vt 0.0625 0.8906
vt 0.0469 0.8906
vt 0.0469 0.8750
vt 0.0625 0.8750
vt 0.1719 0.9062
vt 0.1875 0.9062
vt 0.1875 1.0000
vt 0.1719 1.0000
vt 0.0469 0.9062
vt 0.0625 0.9062
vt 0.0625 1.0000
vt 0.0469 1.0000
vt 0.2031 0.9062
vt 0.1875 0.9062
vt 0.1875 1.0000
vt 0.2031 1.0000
vt 0.6719 0.3359
vt 0.6719 0.4141
vt 0.6562 0.3984
vt 0.6562 0.3516
vt 0.6562 0.3828
vt 0.6719 0.3828
vt 0.6719 0.3047
vt 0.6562 0.3047
vt 0.0000 0.0000
vt 0.0000 0.0000
vt 0.0000 0.0000
vt 0.0000 0.0000
vt 0.6719 0.3828
vt 0.6562 0.3828
vt 0.6562 0.3047
vt 0.6719 0.3047
vt 0.6562 0.3281
vt 0.6562 0.4063
vt 0.6719 0.4063
vt 0.6719 0.3281
vt 0.6719 0.2500
vt 0.6719 0.3281
vt 0.6562 0.3281
vt 0.6562 0.2500
vt 0.6562 0.2734
vt 0.6562 0.3203
vt 0.6719 0.3203
vt 0.6719 0.2734
vt 0.5938 0.4141
vt 0.5938 0.3359
vt 0.6094 0.3516
vt 0.6094 0.3984
vt 0.0000 0.0000
vt 0.0000 0.0000
vt 0.0000 0.0000
vt 0.0000 0.0000
vt 0.6562 0.4297
vt 0.6719 0.4297
vt 0.6719 0.4766
vt 0.6562 0.4766
vt 0.6562 0.3203
vt 0.6562 0.2734
vt 0.6719 0.2734
vt 0.6719 0.3203
vt 0.6562 0.4297
vt 0.6562 0.4766
vt 0.6719 0.4766
vt 0.6719 0.4297
vt 0.5312 0.4062
vt 0.5312 0.3281
vt 0.5156 0.3281
vt 0.5156 0.4062
vt 0.0625 0.8906
vt 0.0469 0.8906
vt 0.1719 0.8125
vt 0.1875 0.8125
vt 0.1875 0.8906
vt 0.1719 0.8906
vt 0.0469 0.8906
vt 0.0625 0.8906
vt 0.0000 0.0000
vt 0.0000 0.0000
vt 0.0000 0.0000
vt 0.0000 0.0000
vt 0.3282 0.1406
vt 0.4063 0.1406
vt 0.4063 0.1562
vt 0.3282 0.1562
vt 0.6719 0.4375
vt 0.6719 0.5000
vt 0.6562 0.5000
vt 0.6562 0.4375
vt 0.3282 0.0625
vt 0.4063 0.0625
vt 0.4844 0.0312
vt 0.4062 0.0312
vt 0.4062 0.1094
vt 0.4844 0.1094
vt 0.4844 0.1250
vt 0.4062 0.1250
vt 0.4062 0.2188
vt 0.4844 0.2188
vt 0.4062 0.2499
vt 0.3281 0.2499
vt 0.3594 0.2344
vt 0.3437 0.2344
vt 0.3437 0.1562
vt 0.3594 0.1562
vt 0.2344 0.7500
vt 0.1562 0.7500
vt 0.1562 0.7344
vt 0.2344 0.7344
vt 0.1719 0.5000
vt 0.1719 0.5625
vt 0.0938 0.5625
vt 0.0938 0.5000
vt 0.4844 0.0001
vt 0.4844 0.0626
vt 0.4063 0.0001
vt 0.2187 0.9844
vt 0.1250 0.9844
vt 0.1250 0.9063
vt 0.2187 0.9063
vt 0.2344 0.5938
vt 0.1562 0.5938
vt 0.1562 0.5000
vt 0.2344 0.5000
vt 0.2344 0.5000
vt 0.2344 0.5625
vt 0.2657 0.1562
vt 0.2657 0.2499
vt 0.2658 0.0625
vt 0.2657 0.1406
vt 0.3281 0.1094
vt 0.3281 0.1250
vt 0.3281 0.0312
vt 0.3281 0.2188
vt 0.3437 0.0781
vt 0.3594 0.0781
vt 0.0781 0.7500
vt 0.0781 0.7344
vt 0.3282 0.0000
vt 0.1250 0.8281
vt 0.2187 0.8281
vt 0.0781 0.5938
vt 0.0781 0.5000
vt 0.7500 0.3359
vt 0.7344 0.3359
vt 0.7344 0.3516
vt 0.7500 0.3516
vt 0.7188 0.3359
vt 0.6406 0.3359
vt 0.6406 0.3516
vt 0.7188 0.3516
vt 0.5312 0.4062
vt 0.5312 0.4219
vt 0.5156 0.4219
vt 0.5156 0.4062
vt 0.0000 0.0000
vt 0.0000 0.0000
vt 0.0000 0.0000
vt 0.0000 0.0000
vt 0.6719 0.4062
vt 0.6719 0.4219
vt 0.6562 0.4219
vt 0.6562 0.4062
vt 0.5312 0.4219
vt 0.5312 0.4062
vt 0.5156 0.4062
vt 0.5156 0.4219
vt 0.0000 0.0000
vt 0.0000 0.0000
vt 0.0000 0.0000
vt 0.0000 0.0000
vt 0.6719 0.4844
vt 0.6719 0.4063
vt 0.6562 0.4063
vt 0.6562 0.4844
vt 0.0000 0.0000
vt 0.0000 0.0000
vt 0.0000 0.0000
vt 0.0000 0.0000
vt 0.6719 0.3281
vt 0.6562 0.3281
vt 0.7344 0.3359
vt 0.7344 0.3516
vt 0.2500 0.5938
vt 0.2500 0.5000
vt 0.6875 0.4844
vt 0.5938 0.4844
vt 0.5937 0.4688
vt 0.6875 0.4688
vt 0.1875 0.7500
vt 0.1719 0.7500
vt 0.2500 0.7500
vt 0.2500 0.7344
vt 0.0625 0.8750
vt 0.0469 0.8750
vt 0.0469 0.8594
vt 0.0625 0.8594
vt 0.1875 0.9062
vt 0.1719 0.9062
vt 0.1719 1.0000
vt 0.1875 1.0000
vt 0.0000 0.0000
vt 0.0000 0.0000
vt 0.0000 0.0000
vt 0.0000 0.0000
vt 0.4844 0.1407
vt 0.4844 0.1563
vt 0.4843 0.2500
vt 0.6719 0.3281
vt 0.6719 0.2656
vt 0.6562 0.2656
vt 0.6562 0.3281
vt 0.5625 0.3359
vt 0.5000 0.3359
vt 0.5000 0.3516
vt 0.5625 0.3516
vt 0.1875 0.8906
vt 0.2031 0.8906
vt 0.2031 0.9062
vt 0.1875 0.9062
vt 0.2031 1.0000
vt 0.1875 1.0000
vt 0.2500 0.5000
vt 0.2500 0.5625
vt 0.6719 0.4219
vt 0.6562 0.4219
vt 0.2656 0.0312
vt 0.2656 0.1094
vt 0.2656 0.1250
vt 0.2656 0.2188
vt 0.3437 0.0156
vt 0.3594 0.0156
vt 0.2658 0.0000
vt 0.1250 0.7656
vt 0.2187 0.7656
vt 0.6875 0.3281
vt 0.6719 0.3281
vt 0.6719 0.4062
vt 0.6875 0.4062
vt 0.6719 0.3281
vt 0.6562 0.3281
vt 0.6562 0.4062
vt 0.6719 0.4062
vt 0.5312 0.3281
vt 0.5312 0.4062
vt 0.5156 0.4062
vt 0.5156 0.3281
vt 0.0000 0.0000
vt 0.0000 0.0000
vt 0.0000 0.0000
vt 0.0000 0.0000
vt 0.5312 0.3281
vt 0.5156 0.3281
vt 0.5312 0.3281
vt 0.5156 0.3281
vt 0.0156 0.6562
vt 0.0781 0.6562
vt 0.1094 0.8281
vt 0.0312 0.8281
vt 0.0312 0.7656
vt 0.1094 0.7656
vt 0.5781 0.4844
vt 0.5000 0.4844
vt 0.5000 0.4688
vt 0.5781 0.4688
vt 0.2344 0.6562
vt 0.2500 0.6562
vt 0.1562 0.6562
vt 0.1094 0.9063
vt 0.0312 0.9063
vt 0.1094 0.9844
vt 0.0312 0.9844
vt 0.0156 0.5631
vt 0.0156 0.5006
vt 0.0938 0.5006
vt 0.0938 0.5631
vt 0.2344 0.5000
vt 0.2344 0.5625
vt 0.1562 0.5625
vt 0.1562 0.5000
vt 0.5781 0.5000
vt 0.5000 0.5000
vt 0.5000 0.4844
vt 0.5781 0.4844
vt 0.0000 0.6562
vt 0.7344 0.3281
vt 0.6719 0.3281
vt 0.6719 0.2656
vt 0.7344 0.2656
vt 0.7500 0.4844
vt 0.7500 0.4688
vt 0.3437 0.1719
vt 0.2656 0.1719
vt 0.2656 0.2344
vt 0.3437 0.2344
vt 0.7344 0.4844
vt 0.6719 0.4844
vt 0.6719 0.4063
vt 0.7344 0.4063
vt 0.7500 0.5000
vt 0.7500 0.4844
vt 0.4687 0.1406
vt 0.4062 0.1406
vt 0.4062 0.0625
vt 0.4687 0.0625
vt 0.4062 0.1719
vt 0.4687 0.1719
vt 0.4687 0.2344
vt 0.4062 0.2344
vt 0.2656 0.1719
vt 0.3437 0.1719
vt 0.3437 0.2344
vt 0.2656 0.2344
vt 0.4687 0.1719
vt 0.4062 0.1719
vt 0.4062 0.2344
vt 0.4687 0.2344
vn 0.0000 -1.0000 0.0000
vn 0.0000 1.0000 0.0000
vn 1.0000 0.0000 0.0000
vn 0.0000 0.0000 1.0000
vn -1.0000 -0.0000 -0.0000
vn 0.0000 0.0000 -1.0000
usemtl Material
s off
f 124/1/1 118/2/1 3/3/1 94/4/1
f 128/5/2 95/6/2 7/7/2 120/8/2
f 87/9/3 88/10/3 6/11/3 2/12/3
f 118/13/4 120/14/4 7/15/4 3/3/4
f 73/16/5 74/17/5 8/18/5 4/19/5
f 119/20/6 117/21/6 4/22/6 8/23/6
f 5/24/6 1/25/6 9/26/6 11/27/6
f 2/28/4 6/29/4 12/30/4 10/31/4
f 38/32/6 37/33/6 15/34/6 13/35/6
f 87/36/1 2/37/1 10/38/1 96/39/1
f 90/40/2 91/41/2 16/42/2 14/43/2
f 84/44/3 38/45/3 13/46/3 81/47/3
f 40/48/4 39/49/4 14/50/4 16/51/4
f 98/52/5 40/53/5 16/54/5 91/55/5
f 20/56/5 19/57/5 27/58/5 28/59/5
f 20/60/6 24/61/6 23/62/6 19/63/6
f 22/64/3 21/65/3 29/66/3 30/67/3
f 22/68/4 18/69/4 17/70/4 21/71/4
f 17/72/1 19/73/1 23/74/1 21/75/1
f 22/76/2 24/77/2 20/78/2 18/79/2
f 26/80/1 28/81/1 32/82/1 30/83/1
f 17/84/5 18/85/5 26/86/5 25/87/5
f 19/57/5 17/84/5 25/87/5 27/58/5
f 18/85/5 20/56/5 28/59/5 26/86/5
f 21/65/3 23/88/3 31/89/3 29/66/3
f 24/90/3 22/64/3 30/67/3 32/91/3
f 23/88/3 24/90/3 32/91/3 31/89/3
f 27/92/4 31/93/4 32/94/4 28/95/4
f 27/96/2 25/97/2 29/98/2 31/99/2
f 25/100/6 26/101/6 30/102/6 29/103/6
f 97/104/6 89/105/6 101/106/6 99/107/6
f 12/30/4 6/29/4 35/108/4 36/109/4
f 79/110/3 5/111/3 34/112/3 83/113/3
f 5/24/6 11/27/6 33/114/6 34/115/6
f 49/116/4 51/117/4 70/118/4 67/119/4
f 36/109/4 35/108/4 39/49/4 40/48/4
f 83/113/3 34/112/3 38/45/3 84/44/3
f 34/115/6 33/114/6 37/33/6 38/32/6
f 58/120/3 50/121/3 52/122/3 59/123/3
f 98/124/2 64/125/2 72/126/2 100/127/2
f 54/128/3 43/129/3 50/121/3 58/120/3
f 80/130/5 45/131/5 49/132/5 76/133/5
f 77/134/5 51/135/5 48/136/5 82/137/5
f 59/123/3 52/122/3 47/138/3 56/139/3
f 81/140/2 82/141/2 48/142/2 47/143/2
f 78/144/1 41/145/1 46/146/1 75/147/1
f 60/148/5 61/149/5 44/150/5 42/151/5
f 78/152/3 79/153/3 43/129/3 41/154/3
f 127/155/2 74/156/2 44/157/2 125/158/2
f 123/159/1 121/160/1 42/161/1 73/162/1
f 94/163/5 95/164/5 61/149/5 60/148/5
f 93/165/3 59/123/3 56/139/3 90/166/3
f 88/167/3 54/128/3 58/120/3 92/168/3
f 92/168/3 58/120/3 59/123/3 93/165/3
f 49/132/5 63/169/5 64/170/5 51/135/5
f 45/131/5 55/171/5 63/169/5 49/132/5
f 51/135/5 64/170/5 57/172/5 48/136/5
f 47/143/2 48/142/2 57/173/2 56/174/2
f 41/145/1 53/175/1 62/176/1 46/146/1
f 41/154/3 43/129/3 54/128/3 53/177/3
f 125/158/2 44/157/2 61/178/2 126/179/2
f 121/160/1 122/180/1 60/181/1 42/161/1
f 99/182/5 66/183/5 65/184/5 100/185/5
f 85/186/5 67/187/5 70/188/5 86/189/5
f 36/190/4 40/191/4 65/192/4 66/193/4
f 64/194/6 63/195/6 71/196/6 72/197/6
f 77/198/2 37/199/2 69/200/2 86/201/2
f 37/202/6 33/203/6 68/204/6 69/205/6
f 97/206/1 36/207/1 66/208/1 99/209/1
f 76/210/1 49/211/1 67/212/1 85/213/1
f 33/214/1 76/215/1 85/216/1 68/217/1
f 51/218/2 77/198/2 86/201/2 70/219/2
f 68/220/5 85/186/5 86/189/5 69/221/5
f 117/222/1 123/159/1 73/162/1 4/223/1
f 119/224/2 8/225/2 74/226/2 127/227/2
f 1/228/3 5/111/3 79/110/3 78/229/3
f 1/230/1 78/144/1 75/147/1 9/231/1
f 13/232/2 15/233/2 82/234/2 81/235/2
f 37/236/5 77/237/5 82/238/5 15/239/5
f 11/240/1 80/241/1 104/242/1 103/243/1
f 50/121/3 83/244/3 84/245/3 52/122/3
f 43/129/3 79/153/3 83/244/3 50/121/3
f 52/122/3 84/245/3 81/246/3 47/138/3
f 42/151/5 44/150/5 74/17/5 73/16/5
f 63/247/1 97/248/1 99/249/1 71/250/1
f 71/251/5 99/252/5 100/253/5 72/254/5
f 35/255/3 92/256/3 93/257/3 39/258/3
f 6/11/3 88/10/3 92/256/3 35/255/3
f 39/258/3 93/257/3 90/259/3 14/260/3
f 3/261/5 7/262/5 95/164/5 94/163/5
f 40/263/2 98/124/2 100/127/2 65/264/2
f 55/171/5 89/265/5 97/266/5 63/169/5
f 64/170/5 98/267/5 91/268/5 57/172/5
f 56/174/2 57/173/2 91/269/2 90/270/2
f 53/175/1 87/36/1 96/39/1 62/176/1
f 53/177/3 54/128/3 88/167/3 87/271/3
f 126/179/2 61/178/2 95/272/2 128/273/2
f 122/180/1 124/1/1 94/4/1 60/181/1
f 101/274/5 102/275/5 66/276/5 99/277/5
f 103/278/5 104/279/5 85/280/5 68/281/5
f 80/282/4 76/283/4 85/284/4 104/285/4
f 89/286/1 12/287/1 102/288/1 101/289/1
f 12/290/4 36/190/4 66/193/4 102/291/4
f 33/203/6 11/292/6 103/293/6 68/204/6
f 62/176/1 96/39/1 116/294/1 112/295/1
f 55/296/2 111/297/2 115/298/2 89/299/2
f 11/300/2 107/301/2 114/302/2 80/303/2
f 9/231/1 75/147/1 113/304/1 105/305/1
f 46/146/1 62/176/1 112/295/1 110/306/1
f 45/307/2 109/308/2 111/297/2 55/296/2
f 75/147/1 46/146/1 110/306/1 113/304/1
f 80/309/2 114/310/2 109/308/2 45/307/2
f 11/311/6 9/312/6 105/313/6 107/314/6
f 10/315/4 12/316/4 108/317/4 106/318/4
f 89/319/2 115/320/2 108/321/2 12/322/2
f 96/39/1 10/38/1 106/323/1 116/294/1
f 112/295/1 116/294/1 124/1/1 122/180/1
f 111/324/2 126/325/2 128/326/2 115/327/2
f 107/328/2 119/224/2 127/227/2 114/329/2
f 105/305/1 113/304/1 123/159/1 117/222/1
f 110/306/1 112/295/1 122/180/1 121/160/1
f 125/330/5 126/331/5 131/332/5 129/333/5
f 113/304/1 110/306/1 121/160/1 123/159/1
f 114/334/2 127/335/2 125/336/2 109/337/2
f 107/314/6 105/313/6 117/21/6 119/20/6
f 106/318/4 108/317/4 120/14/4 118/13/4
f 115/338/2 128/5/2 120/8/2 108/339/2
f 116/294/1 106/323/1 118/2/1 124/1/1
f 130/340/2 129/341/2 131/342/2 132/343/2
f 126/344/4 111/345/4 132/346/4 131/347/4
f 111/348/3 109/349/3 130/350/3 132/351/3
f 109/352/6 125/353/6 129/354/6 130/355/6
