# Blender v2.78 (sub 0) OBJ File: 'iondisperser.blend'
# www.blender.org
mtllib iondisperser.mtl
o Cube
v 1.000000 0.000000 0.000000
v 1.000000 0.000000 1.000000
v -0.000000 0.000000 1.000000
v 0.000000 0.000000 -0.000000
v 1.000000 0.500000 0.000000
v 1.000000 0.500000 1.000000
v -0.000000 0.500000 1.000000
v 0.000000 0.500000 0.000000
v 1.000000 0.000000 0.250000
v 0.000000 0.000000 0.250000
v 1.000000 0.500000 0.250000
v -0.000000 0.500000 0.250000
v 1.000000 0.000000 0.750000
v 1.000000 0.500000 0.750000
v 0.000000 0.000000 0.750000
v -0.000000 0.500000 0.750000
v 0.750000 0.000000 -0.000000
v 0.750000 0.000000 1.000000
v 0.750000 0.500000 0.000000
v 0.750000 0.500000 1.000000
v 0.750000 0.500000 0.250000
v 0.750000 0.000000 0.250000
v 0.750000 0.500000 0.750000
v 0.750000 0.000000 0.750000
v 0.250000 0.000000 -0.000000
v 0.250000 0.000000 1.000000
v 0.250000 0.500000 0.000000
v 0.250000 0.500000 1.000000
v 0.250000 0.000000 0.250000
v 0.250000 0.000000 0.750000
v 0.250000 0.500000 0.250000
v 0.250000 0.500000 0.750000
v 0.250000 1.000000 0.250000
v 0.750000 1.000000 0.250000
v 0.250000 1.000000 0.750000
v 0.750000 1.000000 0.750000
vt 0.0625 0.8125
vt 0.0000 0.8125
vt 0.0000 0.7500
vt 0.0625 0.7500
vt 0.3125 0.0625
vt 0.2500 0.0625
vt 0.2500 0.0000
vt 0.3125 0.0000
vt 0.0625 0.8125
vt 0.0625 0.9375
vt -0.0000 0.9375
vt -0.0000 0.8125
vt 0.0625 0.8125
vt 0.0625 0.9375
vt -0.0000 0.9375
vt -0.0000 0.8125
vt 0.1875 0.8125
vt 0.1875 0.9375
vt 0.2500 0.9375
vt 0.2500 0.8125
vt 0.0625 0.9375
vt 0.0625 0.8125
vt 0.0000 0.8125
vt -0.0000 0.9375
vt 0.0625 0.8125
vt 0.0625 0.9375
vt 0.2500 0.8125
vt 0.2500 0.9375
vt 0.1875 0.9375
vt 0.1875 0.8125
vt 0.3125 0.2500
vt 0.2500 0.2500
vt 0.2500 0.1875
vt 0.3125 0.1875
vt 0.2500 0.8125
vt 0.1875 0.8125
vt 0.1875 0.7500
vt 0.2500 0.7500
vt 0.1875 1.0000
vt 0.0625 1.0000
vt 0.0625 0.9375
vt 0.1875 0.9375
vt 0.5000 0.1875
vt 0.4375 0.1875
vt 0.4375 0.0625
vt 0.5000 0.0625
vt 0.2500 1.0000
vt 0.2500 0.9375
vt 0.5000 0.2500
vt 0.4375 0.2500
vt 0.1875 0.8125
vt 0.1875 0.9375
vt 0.2500 0.8125
vt 0.2500 0.9375
vt 0.1875 0.9375
vt 0.1875 0.8125
vt 0.4375 0.0000
vt 0.5000 0.0000
vt 0.0000 1.0000
vt 0.0000 0.9375
vt 0.7500 0.7500
vt 0.8750 0.7500
vt 0.8750 0.8750
vt 0.7500 0.8750
vt 0.8750 0.8750
vt 0.7500 0.8750
vt 0.7500 0.7500
vt 0.8750 0.7500
vt 0.8750 0.7500
vt 0.7500 0.7500
vt 1.0000 0.7500
vt 1.0000 0.8750
vt 0.8750 0.7500
vt 0.8750 0.8750
vn 0.0000 -1.0000 0.0000
vn 0.0000 1.0000 0.0000
vn 1.0000 0.0000 0.0000
vn -0.0000 0.0000 1.0000
vn -1.0000 -0.0000 -0.0000
vn 0.0000 0.0000 -1.0000
usemtl Material
s off
f 30/1/1 26/2/1 3/3/1 15/4/1
f 32/5/2 16/6/2 7/7/2 28/8/2
f 13/9/3 14/10/3 6/11/3 2/12/3
f 26/13/4 28/14/4 7/15/4 3/16/4
f 10/17/5 12/18/5 8/19/5 4/20/5
f 27/21/6 25/22/6 4/23/6 8/24/6
f 15/25/5 16/26/5 12/18/5 10/17/5
f 1/27/3 5/28/3 11/29/3 9/30/3
f 27/31/2 8/32/2 12/33/2 31/34/2
f 25/35/1 29/36/1 10/37/1 4/38/1
f 3/16/5 7/15/5 16/26/5 15/25/5
f 9/30/3 11/29/3 14/10/3 13/9/3
f 31/34/2 12/33/2 16/6/2 32/5/2
f 29/36/1 30/1/1 15/4/1 10/37/1
f 9/39/1 13/40/1 24/41/1 22/42/1
f 11/43/2 21/44/2 23/45/2 14/46/2
f 1/47/1 9/39/1 22/42/1 17/48/1
f 5/49/2 19/50/2 21/44/2 11/43/2
f 5/28/6 1/27/6 17/51/6 19/52/6
f 2/53/4 6/54/4 20/55/4 18/56/4
f 14/46/2 23/45/2 20/57/2 6/58/2
f 13/40/1 2/59/1 18/60/1 24/41/1
f 22/42/1 24/41/1 30/1/1 29/36/1
f 32/61/4 23/62/4 36/63/4 35/64/4
f 17/48/1 22/42/1 29/36/1 25/35/1
f 19/50/2 27/31/2 31/34/2 21/44/2
f 19/52/6 17/51/6 25/22/6 27/21/6
f 18/56/4 20/55/4 28/14/4 26/13/4
f 23/45/2 32/5/2 28/8/2 20/57/2
f 24/41/1 18/60/1 26/2/1 30/1/1
f 34/65/2 33/66/2 35/67/2 36/68/2
f 21/69/6 31/70/6 33/66/6 34/65/6
f 23/62/3 21/71/3 34/72/3 36/63/3
f 31/73/5 32/61/5 35/64/5 33/74/5
