# Blender v2.77 (sub 0) OBJ File: 'sluice.blend'
# www.blender.org
mtllib sluice.mtl
o Cube
v 1.000000 0.000000 0.000000
v 1.000000 0.000000 1.000000
v -0.000000 0.000000 1.000000
v 0.000000 0.000000 -0.000000
v 1.000000 0.062500 0.000000
v 1.000000 0.062500 1.000000
v -0.000000 0.062500 1.000000
v 0.000000 0.062500 0.000000
v 1.000000 0.000000 0.937500
v 0.000000 0.000000 0.937500
v 1.000000 0.062500 0.937500
v -0.000000 0.062500 0.937500
v 0.000000 0.000000 0.062500
v -0.000000 0.062500 0.062500
v 1.000000 0.000000 0.062500
v 1.000000 0.062500 0.062500
v 1.000000 1.000000 1.000000
v -0.000000 1.000000 1.000000
v 1.000000 1.000000 0.937500
v -0.000000 1.000000 0.937500
v 1.000000 1.000000 0.000000
v 0.000000 1.000000 0.000000
v -0.000000 1.000000 0.062500
v 1.000000 1.000000 0.062500
v 0.500000 0.000000 -0.000000
v 0.500000 0.000000 1.000000
v 0.500000 0.062500 0.000000
v 0.500000 0.062500 1.000000
v 0.500000 0.062500 0.937500
v 0.500000 0.000000 0.937500
v 0.500000 0.000000 0.062500
v 0.500000 0.062500 0.062500
v 0.500000 1.000000 1.000000
v 0.500000 1.000000 0.937500
v 0.500000 1.000000 0.000000
v 0.500000 1.000000 0.062500
vt 0.1250 0.4844
vt 0.1250 0.5000
vt 0.0000 0.5000
vt 0.0000 0.4844
vt 0.2344 0.3750
vt 0.2344 0.5000
vt 0.0000 0.5000
vt 0.0000 0.3750
vt 0.0156 0.2500
vt 0.0156 0.2656
vt 0.0000 0.2656
vt 0.0000 0.2500
vt 0.1250 0.2500
vt 0.1250 0.2656
vt 0.0000 0.2656
vt 0.0000 0.2500
vt 0.2343 0.5000
vt 0.2343 0.4844
vt 0.2500 0.4844
vt 0.2500 0.5000
vt 0.1250 0.4844
vt 0.1250 0.5000
vt 0.0000 0.5000
vt 0.0000 0.4844
vt 0.0000 0.4844
vt 0.0156 0.4844
vt 0.0156 0.5000
vt 0.2344 0.2500
vt 0.2344 0.2656
vt 0.1250 0.4844
vt 0.0000 0.4844
vt 0.0000 0.2657
vt 0.1250 0.2657
vt 0.1250 0.2656
vt 0.0000 0.2656
vt 0.1250 0.2500
vt 0.0000 0.2500
vt 0.2343 0.2500
vt 0.2500 0.2500
vt 0.2500 0.2500
vt 0.2500 0.2656
vt 0.1250 0.3126
vt 0.0000 0.3126
vt 0.0000 0.2970
vt 0.1250 0.2970
vt 0.2500 0.2656
vt 0.2500 0.5000
vt 0.1250 0.5000
vt 0.0156 0.5000
vt 0.0000 0.5000
vt 0.0000 0.2500
vt 0.0156 0.2500
vt 0.1250 0.3282
vt 0.0000 0.3282
vt 0.0000 0.3126
vt 0.1250 0.3126
vt 0.0000 0.2500
vt 0.1250 0.2500
vt 0.1250 0.2657
vt 0.2500 0.2657
vt 0.2500 0.5000
vt 0.1250 0.5000
vt 0.2500 0.5000
vt 0.2344 0.5000
vt 0.0000 0.2657
vt 0.0000 0.5000
vt 0.2500 0.4844
vt 0.2500 0.2500
vt 0.2500 0.3282
vt 0.2500 0.3126
vt 0.0000 0.5000
vt 0.2500 0.3126
vt 0.2500 0.2970
vt 0.2500 0.2656
vt 0.2500 0.4844
vt 0.2500 0.4844
vt 0.2500 0.2657
vt 0.2500 0.5000
vt 0.2500 0.2500
vt 0.2344 0.2500
vt 0.0000 0.2500
vt 0.2500 0.5000
vt 0.2657 0.7500
vt 0.2657 0.5313
vt 0.4698 0.5313
vt 0.4698 0.7500
vn 0.0000 -1.0000 0.0000
vn 0.0000 0.0000 -1.0000
vn 1.0000 0.0000 0.0000
vn -0.0000 -0.0000 1.0000
vn -1.0000 -0.0000 -0.0000
vn 0.0000 1.0000 0.0000
usemtl Material
s off
f 30/1/1 26/2/1 3/3/1 10/4/1
f 29/5/2 12/6/2 20/7/2 34/8/2
f 9/9/3 11/10/3 6/11/3 2/12/3
f 26/13/4 28/14/4 7/15/4 3/16/4
f 13/17/5 14/18/5 8/19/5 4/20/5
f 27/21/2 25/22/2 4/23/2 8/24/2
f 3/3/5 7/25/5 12/26/5 10/27/5
f 15/28/3 16/29/3 11/10/3 9/9/3
f 32/30/6 14/31/6 12/32/6 29/33/6
f 31/34/1 30/1/1 10/4/1 13/35/1
f 25/36/1 31/34/1 13/35/1 4/37/1
f 8/19/5 14/18/5 23/38/5 22/39/5
f 1/40/3 5/41/3 16/29/3 15/28/3
f 10/27/5 12/26/5 14/18/5 13/17/5
f 34/42/6 20/43/6 18/44/6 33/45/6
f 28/14/4 6/46/4 17/47/4 33/48/4
f 6/11/3 11/10/3 19/49/3 17/50/3
f 12/26/5 7/25/5 18/51/5 20/52/5
f 35/53/6 22/54/6 23/55/6 36/56/6
f 27/21/2 8/24/2 22/57/2 35/58/2
f 32/59/4 16/60/4 24/61/4 36/62/4
f 16/29/3 5/41/3 21/63/3 24/64/3
f 14/65/4 32/59/4 36/62/4 23/66/4
f 5/67/2 27/21/2 35/58/2 21/68/2
f 21/69/6 35/53/6 36/56/6 24/70/6
f 7/15/4 28/14/4 33/48/4 18/71/4
f 19/72/6 34/42/6 33/45/6 17/73/6
f 1/40/1 15/74/1 31/34/1 25/36/1
f 15/74/1 9/75/1 30/1/1 31/34/1
f 16/76/6 32/30/6 29/33/6 11/77/6
f 5/67/2 1/78/2 25/22/2 27/21/2
f 2/79/4 6/46/4 28/14/4 26/13/4
f 11/80/2 29/5/2 34/8/2 19/81/2
f 9/75/1 2/82/1 26/2/1 30/1/1
f 36/83/5 32/84/5 29/85/5 34/86/5
