# Blender v2.78 (sub 0) OBJ File: 'temperer.blend'
# www.blender.org
mtllib temperer.mtl
o Cube
v 1.000000 0.375000 0.000000
v 1.000000 0.375000 1.000000
v -0.000000 0.375000 1.000000
v 0.000000 0.375000 -0.000000
v 1.000000 1.000000 0.000000
v 1.000000 1.000000 1.000000
v -0.000000 1.000000 1.000000
v 0.000000 1.000000 0.000000
v 0.937500 0.375000 -0.000000
v 0.937500 0.375000 1.000000
v 0.937500 1.000000 0.000000
v 0.937500 1.000000 1.000000
v 0.062500 0.375000 -0.000000
v 0.062500 0.375000 1.000000
v 0.062500 1.000000 0.000000
v 0.062500 1.000000 1.000000
v 1.000000 0.937500 0.000000
v 1.000000 0.937500 1.000000
v -0.000000 0.937500 1.000000
v 0.000000 0.937500 -0.000000
v 0.937500 0.937500 0.000000
v 0.937500 0.937500 1.000000
v 0.062500 0.937500 0.000000
v 0.062500 0.937500 1.000000
v 0.937500 0.437500 1.000000
v 0.062500 0.437500 1.000000
v 1.000000 0.437500 0.000000
v 1.000000 0.437500 1.000000
v -0.000000 0.437500 1.000000
v 0.000000 0.437500 -0.000000
v 0.937500 0.437500 0.000000
v 0.062500 0.437500 -0.000000
v 0.937500 0.937500 0.250000
v 0.062500 0.937500 0.250000
v 0.937500 0.437500 0.250000
v 0.062500 0.437500 0.250000
v 1.000000 0.375000 0.937500
v 0.000000 0.375000 0.937500
v 1.000000 1.000000 0.937500
v -0.000000 1.000000 0.937500
v 0.937500 1.000000 0.937500
v 0.937500 0.375000 0.937500
v 0.062500 1.000000 0.937500
v 0.062500 0.375000 0.937500
v 0.000000 0.937500 0.937500
v 1.000000 0.937500 0.937500
v 1.000000 0.437500 0.937500
v 0.000000 0.437500 0.937500
v 0.000000 0.375000 0.062500
v 0.000000 1.000000 0.062500
v 0.937500 0.375000 0.062500
v 0.062500 0.375000 0.062500
v 0.000000 0.937500 0.062500
v 0.000000 0.437500 0.062500
v 1.000000 0.375000 0.062500
v 1.000000 1.000000 0.062500
v 0.937500 1.000000 0.062500
v 0.062500 1.000000 0.062500
v 1.000000 0.937500 0.062500
v 1.000000 0.437500 0.062500
v 1.000000 0.000000 0.937500
v 1.000000 0.000000 1.000000
v 0.062500 0.000000 -0.000000
v 0.000000 0.000000 -0.000000
v 0.062500 0.000000 1.000000
v -0.000000 0.000000 1.000000
v 0.000000 0.000000 0.062500
v 1.000000 0.000000 0.000000
v 0.937500 0.000000 -0.000000
v 0.937500 0.000000 1.000000
v 0.937500 0.000000 0.062500
v 0.062500 0.000000 0.062500
v 0.000000 0.000000 0.937500
v 0.937500 0.000000 0.937500
v 0.062500 0.000000 0.937500
v 1.000000 0.000000 0.062500
vt 0.0625 0.6094
vt 0.0781 0.6094
vt 0.0781 0.5156
vt 0.0625 0.5156
vt 0.0157 0.5156
vt 0.0001 0.5156
vt 0.0001 0.5000
vt 0.0157 0.5000
vt 0.0156 0.6250
vt 0.0156 0.6406
vt 0.0000 0.6406
vt 0.0000 0.6250
vt 0.0156 0.6563
vt 0.0156 0.6719
vt 0.0000 0.6719
vt 0.0000 0.6563
vt 0.2344 0.5157
vt 0.2344 0.5000
vt 0.2500 0.5000
vt 0.2500 0.5157
vt 0.0156 0.6406
vt 0.0156 0.6563
vt 0.0000 0.6563
vt 0.0000 0.6406
vt 0.2500 0.6406
vt 0.2500 0.6563
vt 0.2344 0.6563
vt 0.2344 0.6406
vt 0.2500 0.6563
vt 0.2500 0.6719
vt 0.2344 0.6719
vt 0.2344 0.6563
vt 0.2500 0.5157
vt 0.2344 0.5157
vt 0.2344 0.5001
vt 0.2500 0.5001
vt 0.0781 0.6094
vt 0.0625 0.6094
vt 0.0625 0.5156
vt 0.0781 0.5156
vt 0.2656 0.4844
vt 0.2500 0.4844
vt 0.2500 0.2656
vt 0.2656 0.2656
vt 0.0156 0.5938
vt 0.0156 0.7188
vt 0.2031 0.7188
vt 0.2031 0.5938
vt 0.2344 0.5000
vt 0.2344 0.5157
vt 0.0156 0.5157
vt 0.0156 0.5000
vt 0.2500 0.5313
vt 0.2344 0.5313
vt 0.2500 0.5000
vt 0.2500 0.5157
vt 0.0000 0.5157
vt 0.0000 0.5000
vt 0.2344 0.6406
vt 0.2500 0.6406
vt 0.0156 0.5313
vt 0.0000 0.5313
vt 0.0156 0.5000
vt 0.0000 0.5000
vt 0.0156 0.5000
vt 0.0156 0.5157
vt 0.0000 0.5157
vt 0.0000 0.5000
vt 0.0156 0.5157
vt 0.0000 0.5157
vt 0.2344 0.6563
vt 0.2500 0.6563
vt 0.2500 0.5157
vt 0.2344 0.5157
vt 0.2344 0.9062
vt 0.2344 0.7812
vt 0.0156 0.7812
vt 0.0156 0.9062
vt 0.2344 0.5938
vt 0.2344 0.7188
vt 0.0156 0.7188
vt 0.0156 0.5938
vt 0.2344 0.5312
vt 0.0156 0.5312
vt 0.0156 0.7188
vt 0.0156 0.5938
vt 0.2031 0.5938
vt 0.2031 0.7188
vt 0.0156 0.5312
vt 0.2344 0.5312
vt 0.2344 0.7188
vt 0.0156 0.7188
vt 0.0000 0.6563
vt 0.0000 0.6406
vt 0.0156 0.6406
vt 0.0156 0.6563
vt 0.2344 0.5000
vt 0.2344 0.5157
vt 0.2344 0.8594
vt 0.2344 0.9844
vt 0.0156 0.9844
vt 0.0156 0.8594
vt 0.0000 0.5157
vt 0.0156 0.5157
vt 0.4844 0.4844
vt 0.4844 0.2656
vt 0.2344 0.9844
vt 0.0156 0.9844
vt 0.0156 0.7656
vt 0.2344 0.7656
vt 0.4844 0.5000
vt 0.2656 0.5000
vt 0.2499 0.7344
vt 0.2343 0.7344
vt 0.0000 0.5000
vt 0.0156 0.5000
vt 0.2344 0.6250
vt 0.2344 0.6406
vt 0.0156 0.7343
vt 0.0000 0.7343
vt 0.2656 0.2500
vt 0.4844 0.2500
vt 0.2031 0.6094
vt 0.1875 0.6094
vt 0.1875 0.5156
vt 0.2031 0.5156
vt 0.0156 0.7499
vt 0.0000 0.7499
vt 0.2500 0.6250
vt 0.2500 0.6406
vt 0.2499 0.7500
vt 0.2343 0.7500
vt 0.1875 0.6094
vt 0.2031 0.6094
vt 0.2031 0.5156
vt 0.1875 0.5156
vt 0.5000 0.4844
vt 0.5000 0.2656
vt 0.2500 0.5000
vt 0.2344 0.5000
vt 0.2500 0.5000
vt 0.2500 0.5157
vt 0.0156 0.8594
vt 0.0156 0.9844
vt 0.2344 0.9844
vt 0.2344 0.8594
vt 0.3906 0.3906
vt 0.3906 0.3750
vt 0.3750 0.3750
vt 0.3750 0.3906
vt 0.3750 0.3906
vt 0.3750 0.3750
vt 0.3594 0.3750
vt 0.3594 0.3906
vt 0.3906 0.3750
vt 0.3906 0.3594
vt 0.3750 0.3594
vt 0.3750 0.3750
vt 0.3750 0.3750
vt 0.3750 0.3594
vt 0.3594 0.3594
vt 0.3594 0.3750
vt 0.2031 0.6094
vt 0.1875 0.6094
vt 0.1875 0.5156
vt 0.2031 0.5156
vt 0.1875 0.6094
vt 0.1719 0.6094
vt 0.1719 0.5156
vt 0.1875 0.5156
vt 0.0625 0.6094
vt 0.0781 0.6094
vt 0.0781 0.5156
vt 0.0625 0.5156
vt 0.1875 0.6094
vt 0.2031 0.6094
vt 0.2031 0.5156
vt 0.1875 0.5156
vt 0.0781 0.6094
vt 0.0625 0.6094
vt 0.0625 0.5156
vt 0.0781 0.5156
vt 0.1719 0.6094
vt 0.1875 0.6094
vt 0.1875 0.5156
vt 0.1719 0.5156
vt 0.0625 0.6094
vt 0.0469 0.6094
vt 0.0469 0.5156
vt 0.0625 0.5156
vt 0.0469 0.6094
vt 0.0625 0.6094
vt 0.0625 0.5156
vt 0.0469 0.5156
vt 0.0469 0.6094
vt 0.0625 0.6094
vt 0.0625 0.5156
vt 0.0469 0.5156
vt 0.1875 0.6094
vt 0.1719 0.6094
vt 0.1719 0.5156
vt 0.1875 0.5156
vt 0.1719 0.6094
vt 0.1875 0.6094
vt 0.1875 0.5156
vt 0.1719 0.5156
vt 0.0625 0.6094
vt 0.0469 0.6094
vt 0.0469 0.5156
vt 0.0625 0.5156
vn 0.0000 0.0000 -1.0000
vn 0.0000 1.0000 0.0000
vn 1.0000 0.0000 0.0000
vn -0.0000 0.0000 1.0000
vn -1.0000 -0.0000 -0.0000
vn 0.0000 -1.0000 -0.0000
usemtl Material
s off
f 4/1/1 13/2/1 63/3/1 64/4/1
f 43/5/2 40/6/2 7/7/2 16/8/2
f 46/9/3 39/10/3 6/11/3 18/12/3
f 24/13/4 16/14/4 7/15/4 19/16/4
f 53/17/5 50/18/5 8/19/5 20/20/5
f 32/21/1 13/22/1 4/23/1 30/24/1
f 27/25/1 1/26/1 9/27/1 31/28/1
f 18/29/4 6/30/4 12/31/4 22/32/4
f 39/33/2 41/34/2 12/35/2 6/36/2
f 52/37/4 49/38/4 67/39/4 72/40/4
f 31/28/1 9/27/1 13/22/1 32/21/1
f 22/32/4 12/31/4 16/14/4 24/13/4
f 41/34/2 43/5/2 16/8/2 12/35/2
f 42/41/6 10/42/6 14/43/6 44/44/6
f 25/45/5 22/46/5 33/47/5 35/48/5
f 11/49/1 21/50/1 23/51/1 15/52/1
f 28/53/4 18/29/4 22/32/4 25/54/4
f 5/55/1 17/56/1 21/50/1 11/49/1
f 15/52/1 23/51/1 20/57/1 8/58/1
f 54/59/5 53/17/5 20/20/5 30/60/5
f 26/61/4 24/13/4 19/16/4 29/62/4
f 47/63/3 46/9/3 18/12/3 28/64/3
f 37/65/3 47/66/3 28/67/3 2/68/3
f 14/69/4 26/61/4 29/62/4 3/70/4
f 49/71/5 54/59/5 30/60/5 4/72/5
f 2/73/4 28/53/4 25/54/4 10/74/4
f 10/74/4 25/54/4 26/61/4 14/69/4
f 21/75/1 31/76/1 32/77/1 23/78/1
f 17/56/1 27/25/1 31/28/1 21/50/1
f 23/51/1 32/21/1 30/24/1 20/57/1
f 35/79/4 33/80/4 34/81/4 36/82/4
f 22/83/6 24/84/6 34/81/6 33/80/6
f 24/85/3 26/86/3 36/87/3 34/88/3
f 26/89/2 25/90/2 35/91/2 36/92/2
f 3/93/5 29/94/5 48/95/5 38/96/5
f 55/97/3 60/98/3 47/66/3 37/65/3
f 60/99/3 59/100/3 46/101/3 47/102/3
f 29/94/5 19/103/5 45/104/5 48/95/5
f 51/105/6 42/41/6 44/44/6 52/106/6
f 57/107/2 58/108/2 43/109/2 41/110/2
f 55/111/6 37/112/6 42/41/6 51/105/6
f 56/113/2 57/114/2 41/34/2 39/33/2
f 19/103/5 7/115/5 40/116/5 45/104/5
f 59/117/3 56/118/3 39/10/3 46/9/3
f 58/119/2 50/120/2 40/6/2 43/5/2
f 52/106/6 44/44/6 38/121/6 49/122/6
f 37/123/3 2/124/3 62/125/3 61/126/3
f 15/127/2 8/128/2 50/120/2 58/119/2
f 17/129/3 5/130/3 56/118/3 59/117/3
f 5/131/2 11/132/2 57/114/2 56/113/2
f 10/133/5 42/134/5 74/135/5 70/136/5
f 11/132/2 15/127/2 58/119/2 57/114/2
f 9/137/6 51/105/6 52/106/6 13/138/6
f 27/139/3 17/129/3 59/117/3 60/140/3
f 1/141/3 27/142/3 60/98/3 55/97/3
f 38/96/5 48/95/5 54/59/5 49/71/5
f 48/143/5 45/144/5 53/145/5 54/146/5
f 45/104/5 40/116/5 50/18/5 53/17/5
f 75/147/6 65/148/6 66/149/6 73/150/6
f 61/151/6 62/152/6 70/153/6 74/154/6
f 63/155/6 72/156/6 67/157/6 64/158/6
f 68/159/6 76/160/6 71/161/6 69/162/6
f 44/163/3 14/164/3 65/165/3 75/166/3
f 1/167/3 55/168/3 76/169/3 68/170/3
f 38/171/1 44/172/1 75/173/1 73/174/1
f 3/175/5 38/176/5 73/177/5 66/178/5
f 14/179/4 3/180/4 66/181/4 65/182/4
f 51/183/5 9/184/5 69/185/5 71/186/5
f 55/187/4 51/188/4 71/189/4 76/190/4
f 9/191/1 1/192/1 68/193/1 69/194/1
f 42/195/1 37/196/1 61/197/1 74/198/1
f 13/199/3 52/200/3 72/201/3 63/202/3
f 49/203/5 4/204/5 64/205/5 67/206/5
f 2/207/4 10/208/4 70/209/4 62/210/4
