# Blender v2.78 (sub 0) OBJ File: ''
# www.blender.org
mtllib animblock_spin.mtl
o Cube
v 0.750000 0.000000 0.250000
v 0.750000 0.000000 0.750000
v 0.250000 0.000000 0.750000
v 0.250000 0.000000 0.250000
v 0.750000 1.000000 0.250000
v 0.750000 1.000000 0.750000
v 0.250000 1.000000 0.750000
v 0.250000 1.000000 0.250000
vt 0.0938 0.8438
vt 0.0938 0.7812
vt 0.0312 0.7812
vt 0.0312 0.8438
vt 0.0938 0.8438
vt 0.0312 0.8438
vt 0.0312 0.7812
vt 0.0937 0.7812
vt 0.0937 0.8125
vt 0.0937 0.9375
vt 0.0312 0.9375
vt 0.0312 0.8125
vt 0.2188 0.8125
vt 0.2187 0.9375
vt 0.1562 0.9375
vt 0.1562 0.8125
vt 0.0312 0.8125
vt 0.0312 0.9375
vt 0.0937 0.9375
vt 0.0937 0.8125
vt 0.2188 0.9375
vt 0.2188 0.8125
vt 0.1562 0.8125
vt 0.1562 0.9375
vn 0.0000 -1.0000 0.0000
vn 0.0000 1.0000 0.0000
vn 1.0000 -0.0000 0.0000
vn -0.0000 -0.0000 1.0000
vn -1.0000 -0.0000 -0.0000
vn 0.0000 0.0000 -1.0000
usemtl Material
s off
f 1/1/1 2/2/1 3/3/1 4/4/1
f 5/5/2 8/6/2 7/7/2 6/8/2
f 1/9/3 5/10/3 6/11/3 2/12/3
f 2/13/4 6/14/4 7/15/4 3/16/4
f 3/17/5 7/18/5 8/19/5 4/20/5
f 5/21/6 1/22/6 4/23/6 8/24/6
