# Blender v2.77 (sub 0) OBJ File: 'compressor.blend'
# www.blender.org
mtllib compressor.mtl
o Cube
v 1.000000 0.000000 0.000000
v 1.000000 0.000000 1.000000
v -0.000000 0.000000 1.000000
v 0.000000 0.000000 -0.000000
v 1.000000 0.125000 0.000000
v 1.000000 0.125000 1.000000
v -0.000000 0.125000 1.000000
v 0.000000 0.125000 0.000000
v 1.000000 0.000000 0.750000
v 0.000000 0.000000 0.750000
v 1.000000 0.125000 0.750000
v -0.000000 0.125000 0.750000
v 0.000000 0.000000 0.250000
v 0.000000 0.125000 0.250000
v 1.000000 0.000000 0.250000
v 1.000000 0.125000 0.250000
v 0.062500 0.000000 -0.000000
v 0.062500 0.000000 1.000000
v 0.062500 0.125000 0.000000
v 0.062500 0.125000 1.000000
v 0.062500 0.125000 0.750000
v 0.062500 0.000000 0.750000
v 0.062500 0.000000 0.250000
v 0.062500 0.125000 0.250000
v 0.937500 0.125000 0.750000
v 0.937500 0.125000 0.250000
v 0.937500 0.000000 0.000000
v 0.937500 0.000000 1.000000
v 0.937500 0.125000 0.000000
v 0.937500 0.125000 1.000000
v 0.937500 0.000000 0.750000
v 0.937500 0.000000 0.250000
v 0.062500 0.500000 0.250000
v 0.062500 0.500000 0.750000
v 0.937500 0.500000 0.750000
v 0.937500 0.500000 0.250000
v 0.406250 0.500000 0.500000
v 0.406250 0.500000 0.687500
v 0.843750 0.500000 0.687500
v 0.843750 0.500000 0.500000
v 0.406250 0.750000 0.500000
v 0.406250 0.750000 0.687500
v 0.843750 0.750000 0.687500
v 0.843750 0.750000 0.500000
v 0.843750 0.562500 0.625000
v 0.843750 0.562500 0.562500
v 0.843750 0.687500 0.625000
v 0.843750 0.687500 0.562500
v 0.968750 0.562500 0.625000
v 0.968750 0.562500 0.562500
v 0.968750 0.687500 0.625000
v 0.968750 0.687500 0.562500
v 0.406250 0.562500 0.562500
v 0.406250 0.562500 0.625000
v 0.406250 0.625000 0.562500
v 0.406250 0.625000 0.625000
v 0.281250 0.562500 0.562500
v 0.281250 0.562500 0.625000
v 0.281250 0.625000 0.562500
v 0.281250 0.625000 0.625000
v 0.343750 0.625000 0.625000
v 0.343750 0.562500 0.625000
v 0.343750 0.625000 0.562500
v 0.343750 0.562500 0.562500
v 0.281250 0.500000 0.562500
v 0.281250 0.500000 0.625000
v 0.343750 0.500000 0.562500
v 0.343750 0.500000 0.625000
v 1.000000 0.125000 0.250000
v 1.000000 0.125000 0.750000
v 1.000000 0.500000 0.250000
v 1.000000 0.500000 0.750000
v 0.000000 0.125000 0.250000
v -0.000000 0.125000 0.750000
v 0.000000 0.500000 0.250000
v -0.000000 0.500000 0.750000
vt 0.0156 0.8125
vt 0.0156 0.7500
vt 0.0000 0.7500
vt 0.0000 0.8125
vt 0.0156 1.0000
vt -0.0000 1.0000
vt -0.0000 0.9375
vt 0.0156 0.9375
vt 0.0625 0.7969
vt 0.0625 0.8281
vt -0.0000 0.8281
vt -0.0000 0.7969
vt 0.1406 0.7969
vt 0.1406 0.8281
vt 0.1250 0.8281
vt 0.1250 0.7969
vt 0.1875 0.7969
vt 0.1875 0.8281
vt 0.2500 0.8281
vt 0.2500 0.7969
vt 0.1406 0.8281
vt 0.1406 0.7969
vt 0.1250 0.7969
vt 0.1250 0.8281
vt -0.0000 0.7969
vt -0.0000 0.8281
vt 0.0625 0.8281
vt 0.0625 0.7969
vt 0.1875 0.7969
vt 0.1875 0.8281
vt 0.0156 0.8750
vt -0.0000 0.8750
vt -0.0000 0.7500
vt 0.0156 0.7500
vt 0.0156 0.9375
vt 0.0000 0.9375
vt 0.0156 1.0000
vt 0.0000 1.0000
vt 0.0156 0.9375
vt -0.0000 0.9375
vt 0.2500 0.7969
vt 0.2500 0.8281
vt 0.2344 0.3750
vt 0.0156 0.3750
vt 0.0156 0.3125
vt 0.2344 0.3125
vt 0.2344 0.5000
vt 0.2344 0.4375
vt 0.0156 0.4375
vt 0.0156 0.5000
vt 0.2344 0.3125
vt 0.0156 0.3125
vt 0.0156 0.7500
vt 0.0156 0.8750
vt 0.2344 0.3281
vt 0.2344 0.2969
vt 0.0156 0.2969
vt 0.0156 0.3281
vt 0.2344 0.2969
vt 0.2344 0.3281
vt 0.0156 0.3281
vt 0.0156 0.2969
vt 0.2344 0.4375
vt 0.0156 0.4375
vt 0.0156 0.3750
vt 0.2344 0.3750
vt 0.2344 0.2500
vt 0.0156 0.2500
vt 0.2500 0.8125
vt 0.2500 0.7500
vt 0.2344 0.7500
vt 0.2344 0.8125
vt 0.2500 1.0000
vt 0.2344 1.0000
vt 0.2344 0.9375
vt 0.2500 0.9375
vt 0.1250 0.7969
vt 0.1250 0.8281
vt 0.1094 0.8281
vt 0.1094 0.7969
vt 0.1250 0.8281
vt 0.1250 0.7969
vt 0.1094 0.7969
vt 0.1094 0.8281
vt 0.2500 0.8750
vt 0.2344 0.8750
vt 0.2344 0.7500
vt 0.2500 0.7500
vt 0.2500 0.9375
vt 0.2344 0.9375
vt 0.2500 1.0000
vt 0.2344 1.0000
vt 0.2500 0.9375
vt 0.2344 0.9375
vt 0.7344 0.2858
vt 0.7344 0.4107
vt 0.7109 0.3482
vt 0.7109 0.3014
vt 0.5000 0.3906
vt 0.7187 0.3906
vt 0.7187 0.4844
vt 0.5000 0.4844
vt 0.7344 0.3906
vt 0.5156 0.3906
vt 0.5156 0.4844
vt 0.7344 0.4844
vt -0.0000 0.9375
vt -0.0000 0.8125
vt 0.0156 0.8125
vt 0.0156 0.9375
vt 0.1875 0.5937
vt 0.0781 0.5937
vt 0.0781 0.6562
vt 0.1875 0.6562
vt 0.5156 0.2858
vt 0.6016 0.3014
vt 0.5156 0.4107
vt 0.6016 0.3482
vt 0.1797 0.5937
vt 0.0703 0.5937
vt 0.0703 0.5469
vt 0.1797 0.5469
vt 0.0938 0.6563
vt 0.0938 0.6094
vt 0.1094 0.6250
vt 0.1094 0.6406
vt 0.1094 0.6562
vt 0.1094 0.5938
vt 0.1250 0.6094
vt 0.1250 0.6406
vt 0.0703 0.5937
vt 0.1797 0.5937
vt 0.1797 0.6562
vt 0.0703 0.6562
vt 0.0938 0.9375
vt 0.0938 0.8750
vt 0.2188 0.8750
vt 0.2188 0.9375
vt 0.1563 0.5938
vt 0.1563 0.6562
vt 0.1406 0.6406
vt 0.1406 0.6094
vt 0.1250 0.8125
vt 0.1875 0.8125
vt 0.1875 0.9375
vt 0.1250 0.9375
vt 0.0938 0.8125
vt 0.2188 0.8125
vt 0.0938 0.8750
vt 0.0938 0.9375
vt 0.2188 0.9375
vt 0.2188 0.8750
vt 0.0938 0.9375
vt 0.0938 0.8125
vt 0.2188 0.8125
vt 0.2188 0.9375
vt 0.1875 0.9531
vt 0.1875 0.9687
vt 0.1719 0.9687
vt 0.1719 0.9531
vt 0.1562 0.6094
vt 0.1250 0.6250
vt 0.1562 0.6563
vt 0.1250 0.6406
vt 0.0938 0.9531
vt 0.0781 0.9531
vt 0.0781 0.9687
vt 0.0938 0.9687
vt 0.1875 0.7812
vt 0.1875 0.7969
vt 0.1719 0.7969
vt 0.1719 0.7812
vt 0.1875 0.9687
vt 0.1875 0.9531
vt 0.1719 0.9531
vt 0.1719 0.9687
vt 0.0938 0.9375
vt 0.0781 0.9375
vt 0.2031 0.7969
vt 0.2031 0.7812
vt 0.1875 0.7812
vt 0.1875 0.7969
vt 0.2031 0.9687
vt 0.2031 0.9531
vt 0.2031 0.7812
vt 0.2031 0.7969
vt 0.2031 0.9531
vt 0.2031 0.9687
vt 0.1094 0.6406
vt 0.1094 0.6250
vt 0.1094 0.6250
vt 0.1094 0.6406
vt 0.1719 0.9375
vt 0.1875 0.9375
vt 0.1875 0.9375
vt 0.1719 0.9375
vt 0.1094 0.6406
vt 0.1094 0.6250
vt 0.1250 0.9062
vt 0.2500 0.9062
vt 0.2500 1.0000
vt 0.1250 1.0000
vt -0.0000 1.0000
vt -0.0000 0.9062
vt 0.0156 0.9062
vt 0.0156 1.0000
vt 0.2344 0.8750
vt 0.2344 0.7500
vt -0.0000 0.9062
vt -0.0000 1.0000
vt 0.0156 1.0000
vt 0.0156 0.9062
vt 0.1250 0.7500
vt -0.0000 0.7500
vt -0.0000 0.8437
vt 0.1250 0.8437
vt 0.0156 0.8437
vt 0.0156 0.8125
vt 0.0156 0.9375
vt -0.0000 0.9375
vt -0.0000 0.8125
vt 0.0781 0.8437
vt 0.0781 0.7500
vt 0.0625 0.7500
vt 0.0625 0.8437
vn 0.0000 -1.0000 0.0000
vn 0.0000 1.0000 0.0000
vn 1.0000 0.0000 0.0000
vn -0.0000 -0.0000 1.0000
vn -1.0000 -0.0000 -0.0000
vn 0.0000 0.0000 -1.0000
usemtl Material
s off
f 22/1/1 18/2/1 3/3/1 10/4/1
f 21/5/2 12/6/2 7/7/2 20/8/2
f 9/9/3 11/10/3 6/11/3 2/12/3
f 18/13/4 20/14/4 7/15/4 3/16/4
f 13/17/5 14/18/5 8/19/5 4/20/5
f 19/21/6 17/22/6 4/23/6 8/24/6
f 3/25/5 7/26/5 12/27/5 10/28/5
f 15/29/3 16/30/3 11/10/3 9/9/3
f 24/31/2 14/32/2 12/33/2 21/34/2
f 23/35/1 22/1/1 10/4/1 13/36/1
f 17/37/1 23/35/1 13/36/1 4/38/1
f 19/39/2 8/40/2 14/32/2 24/31/2
f 1/41/3 5/42/3 16/30/3 15/29/3
f 10/28/5 12/27/5 14/18/5 13/17/5
f 29/43/2 19/44/2 24/45/2 26/46/2
f 27/47/1 32/48/1 23/49/1 17/50/1
f 32/48/1 31/51/1 22/52/1 23/49/1
f 24/31/1 21/34/1 74/53/1 73/54/1
f 29/55/6 27/56/6 17/57/6 19/58/6
f 28/59/4 30/60/4 20/61/4 18/62/4
f 25/63/2 21/64/2 20/65/2 30/66/2
f 31/51/1 28/67/1 18/68/1 22/52/1
f 9/69/1 2/70/1 28/71/1 31/72/1
f 11/73/2 25/74/2 30/75/2 6/76/2
f 2/77/4 6/78/4 30/79/4 28/80/4
f 5/81/6 1/82/6 27/83/6 29/84/6
f 16/85/2 26/86/2 25/87/2 11/88/2
f 15/89/1 9/69/1 31/72/1 32/90/1
f 1/91/1 15/89/1 32/90/1 27/92/1
f 5/93/2 29/94/2 26/86/2 16/85/2
f 35/95/2 36/96/2 40/97/2 39/98/2
f 21/99/4 25/100/4 35/101/4 34/102/4
f 26/103/6 24/104/6 33/105/6 36/106/6
f 36/107/2 35/108/2 72/109/2 71/110/2
f 40/111/6 37/112/6 41/113/6 44/114/6
f 34/115/2 35/95/2 39/98/2 38/116/2
f 36/96/2 33/117/2 37/118/2 40/97/2
f 33/117/2 34/115/2 38/116/2 37/118/2
f 44/119/2 41/120/2 42/121/2 43/122/2
f 37/123/5 38/124/5 54/125/5 53/126/5
f 43/127/3 39/128/3 45/129/3 47/130/3
f 38/131/4 39/132/4 43/133/4 42/134/4
f 48/135/2 47/136/2 51/137/2 52/138/2
f 40/139/3 44/140/3 48/141/3 46/142/3
f 44/140/3 43/127/3 47/130/3 48/141/3
f 39/128/3 40/139/3 46/142/3 45/129/3
f 49/143/3 50/144/3 52/145/3 51/146/3
f 46/147/6 48/135/6 52/138/6 50/148/6
f 45/149/1 46/150/1 50/151/1 49/152/1
f 47/153/4 45/154/4 49/155/4 51/156/4
f 62/157/4 61/158/4 60/159/4 58/160/4
f 38/124/5 42/161/5 56/162/5 54/125/5
f 41/163/5 37/123/5 53/126/5 55/164/5
f 42/161/5 41/163/5 55/164/5 56/162/5
f 57/165/5 58/166/5 60/167/5 59/168/5
f 61/169/2 63/170/2 59/171/2 60/172/2
f 63/173/6 64/174/6 57/175/6 59/176/6
f 58/166/5 57/165/5 65/177/5 66/178/5
f 53/179/1 54/180/1 62/181/1 64/182/1
f 55/183/6 53/184/6 64/174/6 63/173/6
f 56/185/2 55/186/2 63/170/2 61/169/2
f 54/187/4 56/188/4 61/158/4 62/157/4
f 67/189/1 68/190/1 66/191/1 65/192/1
f 62/157/4 58/160/4 66/193/4 68/194/4
f 57/175/6 64/174/6 67/195/6 65/196/6
f 64/197/3 62/198/3 68/190/3 67/189/3
f 70/199/3 69/200/3 71/201/3 72/202/3
f 35/203/4 25/204/4 70/205/4 72/206/4
f 25/87/1 26/86/1 69/207/1 70/208/1
f 26/209/6 36/210/6 71/211/6 69/212/6
f 73/213/5 74/214/5 76/215/5 75/216/5
f 21/34/4 34/217/4 76/215/4 74/214/4
f 34/218/2 33/219/2 75/220/2 76/221/2
f 33/222/6 24/223/6 73/224/6 75/225/6
