# Blender v2.78 (sub 0) OBJ File: ''
# www.blender.org
mtllib conveyor.mtl
o Cube.001
v 0.937500 -0.000000 0.937500
v 1.000000 -0.000000 0.937500
v 1.000000 -0.000000 1.000000
v 0.937500 -0.000000 1.000000
v 0.937500 0.125000 0.937500
v 0.937500 0.125000 1.000000
v 1.000000 0.125000 1.000000
v 1.000000 0.125000 0.937500
v 0.937500 0.000000 0.000000
v 0.937500 0.125000 0.000000
v 1.000000 0.125000 0.000000
v 1.000000 0.000000 0.000000
v 0.062500 -0.000000 1.000000
v 0.062500 0.125000 1.000000
v 0.000000 0.125000 1.000000
v 0.000000 -0.000000 1.000000
v 0.000000 0.125000 0.937500
v 0.000000 -0.000000 0.937500
v 0.937500 0.125000 0.062500
v 0.937500 0.062500 0.000000
v 0.937500 0.062500 0.062500
v 0.062500 -0.000000 0.937500
v 0.062500 0.125000 0.937500
v 0.000000 0.000000 0.000000
v 0.000000 0.125000 0.000000
v 0.062500 0.125000 0.000000
v 0.062500 0.000000 0.000000
v 0.062500 0.125000 0.875000
v 0.062500 0.062500 0.937500
v 0.062500 0.062500 0.875000
v 0.062500 0.062500 0.000000
v 0.062500 0.062500 1.000000
v 0.937500 0.062500 0.937500
v 0.937500 0.062500 0.875000
v 0.000000 0.125000 0.875000
v 0.000000 -0.000000 0.875000
v 0.062500 -0.000000 0.875000
v 0.937500 -0.000000 0.875000
v 0.937500 0.062500 1.000000
v 1.000000 -0.000000 0.875000
v 1.000000 0.125000 0.875000
v 0.937500 0.125000 0.875000
v 0.937500 -0.000000 0.812500
v 1.000000 -0.000000 0.812500
v 0.937500 0.125000 0.812500
v 1.000000 0.125000 0.812500
v 0.000000 0.125000 0.812500
v 0.000000 -0.000000 0.812500
v 0.062500 -0.000000 0.812500
v 0.062500 0.125000 0.812500
v 0.062500 0.062500 0.812500
v 0.062500 0.125000 0.750000
v 0.062500 0.062500 0.750000
v 0.937500 0.062500 0.812500
v 0.937500 0.062500 0.750000
v 0.000000 0.125000 0.750000
v 0.000000 -0.000000 0.750000
v 0.062500 -0.000000 0.750000
v 0.937500 -0.000000 0.750000
v 1.000000 -0.000000 0.750000
v 1.000000 0.125000 0.750000
v 0.937500 0.125000 0.750000
v 0.937500 -0.000000 0.687500
v 1.000000 -0.000000 0.687500
v 0.937500 0.125000 0.687500
v 1.000000 0.125000 0.687500
v 0.000000 0.125000 0.687500
v 0.000000 -0.000000 0.687500
v 0.062500 -0.000000 0.687500
v 0.062500 0.125000 0.687500
v 0.062500 0.062500 0.687500
v 0.062500 0.125000 0.625000
v 0.062500 0.062500 0.625000
v 0.937500 0.062500 0.687500
v 0.937500 0.062500 0.625000
v 0.000000 0.125000 0.625000
v 0.000000 -0.000000 0.625000
v 0.062500 -0.000000 0.625000
v 0.937500 -0.000000 0.625000
v 1.000000 -0.000000 0.625000
v 1.000000 0.125000 0.625000
v 0.937500 0.125000 0.625000
v 0.937500 -0.000000 0.562500
v 1.000000 -0.000000 0.562500
v 0.937500 0.125000 0.562500
v 1.000000 0.125000 0.562500
v 0.000000 0.125000 0.562500
v 0.000000 -0.000000 0.562500
v 0.062500 -0.000000 0.562500
v 0.062500 0.125000 0.562500
v 0.062500 0.062500 0.562500
v 0.062500 0.125000 0.500000
v 0.062500 0.062500 0.500000
v 0.937500 0.062500 0.562500
v 0.937500 0.062500 0.500000
v 0.000000 0.125000 0.500000
v 0.000000 -0.000000 0.500000
v 0.062500 -0.000000 0.500000
v 0.937500 -0.000000 0.500000
v 1.000000 -0.000000 0.500000
v 1.000000 0.125000 0.500000
v 0.937500 0.125000 0.500000
v 0.937500 -0.000000 0.437500
v 1.000000 -0.000000 0.437500
v 0.937500 0.125000 0.437500
v 1.000000 0.125000 0.437500
v 0.000000 0.125000 0.437500
v 0.000000 -0.000000 0.437500
v 0.062500 -0.000000 0.437500
v 0.062500 0.125000 0.437500
v 0.062500 0.062500 0.437500
v 0.062500 0.125000 0.375000
v 0.062500 0.062500 0.375000
v 0.937500 0.062500 0.437500
v 0.937500 0.062500 0.375000
v 0.000000 0.125000 0.375000
v 0.000000 -0.000000 0.375000
v 0.062500 -0.000000 0.375000
v 0.937500 -0.000000 0.375000
v 1.000000 -0.000000 0.375000
v 1.000000 0.125000 0.375000
v 0.937500 0.125000 0.375000
v 0.937500 -0.000000 0.312500
v 1.000000 -0.000000 0.312500
v 0.937500 0.125000 0.312500
v 1.000000 0.125000 0.312500
v 0.000000 0.125000 0.312500
v 0.000000 -0.000000 0.312500
v 0.062500 -0.000000 0.312500
v 0.062500 0.125000 0.312500
v 0.062500 0.062500 0.312500
v 0.062500 0.125000 0.125000
v 0.062500 0.125000 0.187500
v 0.062500 0.062500 0.187500
v 0.062500 0.062500 0.125000
v 0.937500 0.062500 0.187500
v 0.937500 0.062500 0.125000
v 0.000000 0.125000 0.125000
v 0.000000 0.125000 0.187500
v 0.000000 -0.000000 0.125000
v 0.062500 -0.000000 0.125000
v 0.062500 -0.000000 0.187500
v 0.000000 -0.000000 0.187500
v 0.937500 -0.000000 0.125000
v 0.937500 -0.000000 0.187500
v 1.000000 -0.000000 0.125000
v 1.000000 0.125000 0.125000
v 1.000000 0.125000 0.187500
v 1.000000 -0.000000 0.187500
v 0.937500 0.125000 0.125000
v 0.937500 0.125000 0.187500
v 0.937500 0.125000 0.250000
v 0.937500 0.062500 0.250000
v 0.937500 0.062500 0.312500
v 0.062500 0.125000 0.250000
v 0.062500 0.062500 0.250000
v 0.000000 0.125000 0.250000
v 0.000000 -0.000000 0.250000
v 0.062500 -0.000000 0.250000
v 0.937500 -0.000000 0.250000
v 1.000000 -0.000000 0.250000
v 1.000000 0.125000 0.250000
v 0.937500 -0.000000 0.062500
v 1.000000 -0.000000 0.062500
v 1.000000 0.125000 0.062500
v 0.000000 0.125000 0.062500
v 0.000000 -0.000000 0.062500
v 0.062500 -0.000000 0.062500
v 0.062500 0.125000 0.062500
v 0.062500 0.062500 0.062500
vt 0.0156 0.9688
vt 0.0156 0.9844
vt 0.0000 0.9844
vt 0.0000 0.9688
vt 0.0156 1.0000
vt 0.0000 1.0000
vt 0.0000 0.9844
vt 0.0156 0.9844
vt 0.0156 0.7499
vt 0.0156 0.7811
vt 0.0000 0.7811
vt 0.0000 0.7499
vt 0.0156 0.9532
vt 0.0000 0.9532
vt 0.0000 0.9688
vt 0.0000 1.0000
vt 0.0156 1.0000
vt 0.0156 0.9688
vt 0.0156 0.9532
vt 0.0156 0.9844
vt 0.0000 0.9844
vt 0.0000 0.9532
vt 0.0156 0.9688
vt 0.0156 1.0000
vt 0.0313 1.0000
vt 0.0313 0.9688
vt 0.2344 0.9688
vt 0.2500 0.9688
vt 0.2500 0.9844
vt 0.2344 0.9844
vt 0.0156 0.9688
vt 0.0156 0.9844
vt 0.0000 0.9844
vt 0.0000 0.9688
vt 0.0156 1.0000
vt 0.0000 1.0000
vt 0.0000 0.9844
vt 0.0156 0.9844
vt 0.0312 0.7499
vt 0.0312 0.7811
vt 0.0156 0.7811
vt 0.0156 0.7499
vt 0.0313 0.9845
vt 0.0156 0.9845
vt 0.0156 0.9689
vt 0.0313 0.9689
vt -0.0000 0.6406
vt 0.2187 0.6406
vt 0.2187 0.6562
vt -0.0000 0.6562
vt 0.0000 0.9845
vt 0.0000 0.9689
vt 0.7656 0.4844
vt 0.7656 0.5000
vt 0.9844 0.5000
vt 0.9844 0.4844
vt 0.0313 1.0000
vt 0.0313 0.9844
vt 0.0313 0.9688
vt 0.0313 0.9844
vt 0.1094 0.7500
vt 0.1094 0.5312
vt 0.0937 0.5312
vt 0.0937 0.7500
vt 0.0000 0.9688
vt 0.0156 0.9688
vt 0.0156 0.9844
vt 0.0000 0.9844
vt 0.0313 0.9532
vt 0.0313 0.9844
vt 0.0313 0.9532
vt 0.0313 0.9844
vt 0.0313 1.0000
vt 0.0313 0.9688
vt 0.0313 0.9844
vt 0.0469 0.9688
vt 0.0469 0.9844
vt 0.0469 1.0000
vt 0.0469 0.9844
vt 0.0469 0.9532
vt 0.0469 0.9532
vt 0.0469 0.9844
vt 0.0469 0.9688
vt 0.0469 0.9844
vt 0.0469 1.0000
vt 0.0469 0.9844
vt 0.0469 0.9845
vt 0.0469 0.9689
vt 0.0313 0.9688
vt 0.0313 0.9844
vt 0.0625 0.9845
vt 0.0625 0.9689
vt 0.7656 0.4531
vt 0.7656 0.4688
vt 0.9844 0.4688
vt 0.9844 0.4531
vt 0.0625 1.0000
vt 0.0625 0.9844
vt 0.0625 0.9688
vt 0.0625 0.9844
vt 0.1406 0.7500
vt 0.1406 0.5312
vt 0.1250 0.5312
vt 0.1250 0.7500
vt 0.0625 0.9532
vt 0.0625 0.9844
vt 0.0625 0.9532
vt 0.0625 0.9844
vt 0.0625 1.0000
vt 0.0625 0.9688
vt 0.0625 0.9844
vt 0.0469 0.9688
vt 0.0469 0.9844
vt 0.0781 0.9688
vt 0.0781 0.9844
vt 0.0781 1.0000
vt 0.0781 0.9844
vt 0.0781 0.9532
vt 0.0781 0.9532
vt 0.0781 0.9844
vt 0.0781 0.9688
vt 0.0781 0.9844
vt 0.0781 1.0000
vt 0.0781 0.9844
vt 0.0781 0.9846
vt 0.0781 0.9689
vt 0.0625 0.9688
vt 0.0625 0.9844
vt 0.0937 0.9846
vt 0.0938 0.9689
vt 0.7656 0.4219
vt 0.7656 0.4375
vt 0.9844 0.4375
vt 0.9844 0.4219
vt 0.0938 1.0000
vt 0.0938 0.9844
vt 0.0938 0.9688
vt 0.0938 0.9844
vt 0.1719 0.7500
vt 0.1719 0.5312
vt 0.1562 0.5312
vt 0.1562 0.7500
vt 0.0938 0.9532
vt 0.0938 0.9844
vt 0.0938 0.9532
vt 0.0938 0.9844
vt 0.0938 1.0000
vt 0.0938 0.9688
vt 0.0938 0.9844
vt 0.0781 0.9688
vt 0.0781 0.9844
vt 0.1094 0.9688
vt 0.1094 0.9844
vt 0.1094 1.0000
vt 0.1094 0.9844
vt 0.1094 0.9532
vt 0.1094 0.9532
vt 0.1094 0.9844
vt 0.1094 0.9688
vt 0.1094 0.9844
vt 0.1094 1.0000
vt 0.1094 0.9844
vt 0.1094 0.9846
vt 0.1094 0.9689
vt 0.0938 0.9688
vt 0.0938 0.9844
vt 0.1250 0.9846
vt 0.1250 0.9689
vt 0.7656 0.3906
vt 0.7656 0.4062
vt 0.9844 0.4062
vt 0.9844 0.3906
vt 0.1250 1.0000
vt 0.1250 0.9844
vt 0.1250 0.9688
vt 0.1250 0.9844
vt 0.2031 0.7500
vt 0.2031 0.5312
vt 0.1875 0.5312
vt 0.1875 0.7500
vt 0.1250 0.9532
vt 0.1250 0.9844
vt 0.1250 0.9532
vt 0.1250 0.9844
vt 0.1250 1.0000
vt 0.1250 0.9688
vt 0.1250 0.9844
vt 0.1094 0.9688
vt 0.1094 0.9844
vt 0.1406 0.9688
vt 0.1406 0.9844
vt 0.1406 1.0000
vt 0.1406 0.9844
vt 0.1406 0.9532
vt 0.1406 0.9532
vt 0.1406 0.9844
vt 0.1406 0.9688
vt 0.1406 0.9844
vt 0.1406 1.0000
vt 0.1406 0.9844
vt 0.1406 0.9846
vt 0.1406 0.9690
vt 0.1250 0.9688
vt 0.1250 0.9844
vt 0.1562 0.9846
vt 0.1563 0.9690
vt 0.7656 0.3594
vt 0.7656 0.3750
vt 0.9844 0.3750
vt 0.9844 0.3594
vt 0.1562 1.0000
vt 0.1562 0.9844
vt 0.1562 0.9688
vt 0.1562 0.9844
vt 0.2344 0.7500
vt 0.2344 0.5312
vt 0.2187 0.5312
vt 0.2187 0.7500
vt 0.1562 0.9532
vt 0.1562 0.9844
vt 0.1562 0.9532
vt 0.1562 0.9844
vt 0.1562 1.0000
vt 0.1562 0.9688
vt 0.1562 0.9844
vt 0.1406 0.9688
vt 0.1406 0.9844
vt 0.1719 0.9688
vt 0.1719 0.9844
vt 0.1719 1.0000
vt 0.1719 0.9844
vt 0.1719 0.9532
vt 0.1719 0.9532
vt 0.1719 0.9844
vt 0.1719 0.9688
vt 0.1719 0.9844
vt 0.1719 1.0000
vt 0.1719 0.9844
vt 0.1719 0.9846
vt 0.1719 0.9690
vt 0.1562 0.9688
vt 0.1562 0.9844
vt 0.2187 0.9846
vt 0.2031 0.9846
vt 0.2031 0.9690
vt 0.2187 0.9690
vt 0.7656 0.2969
vt 0.7656 0.3125
vt 0.9844 0.3125
vt 0.9844 0.2969
vt 0.2187 1.0000
vt 0.2031 1.0000
vt 0.2031 0.9844
vt 0.2187 0.9844
vt 0.2187 0.9688
vt 0.2187 0.9844
vt 0.2031 0.9844
vt 0.2031 0.9688
vt 0.0469 0.7500
vt 0.0469 0.5312
vt 0.0312 0.5312
vt 0.0312 0.7500
vt 0.2187 0.9532
vt 0.2187 0.9844
vt 0.2031 0.9844
vt 0.2031 0.9532
vt 0.2187 0.9532
vt 0.2187 0.9844
vt 0.2031 0.9844
vt 0.2031 0.9532
vt 0.2187 1.0000
vt 0.2031 1.0000
vt 0.2187 0.9688
vt 0.2187 0.9844
vt 0.2031 0.9844
vt 0.2031 0.9688
vt 0.1875 0.9688
vt 0.2031 0.9688
vt 0.2031 0.9844
vt 0.1875 0.9844
vt 0.1719 0.9688
vt 0.1719 0.9844
vt 0.1875 0.9846
vt 0.1875 0.9690
vt 0.7656 0.3281
vt 0.7656 0.3438
vt 0.9844 0.3438
vt 0.9844 0.3281
vt 0.1875 1.0000
vt 0.1875 0.9844
vt 0.1875 0.9688
vt 0.1875 0.9844
vt 0.0156 0.7500
vt 0.0156 0.5312
vt -0.0000 0.5312
vt -0.0000 0.7500
vt 0.1875 0.9532
vt 0.1875 0.9844
vt 0.1875 0.9532
vt 0.1875 0.9844
vt 0.1875 1.0000
vt 0.1875 0.9688
vt 0.1875 0.9844
vt 0.2344 0.9688
vt 0.2344 0.9844
vt 0.2344 1.0000
vt 0.2344 0.9844
vt 0.2344 0.9532
vt 0.2344 0.9532
vt 0.2344 0.9844
vt 0.2344 0.9688
vt 0.2344 0.9844
vt 0.2344 1.0000
vt 0.2344 0.9844
vt 0.2344 0.9846
vt 0.2344 0.9690
vt 0.2187 0.9688
vt 0.2187 0.9844
vt 0.2500 0.9846
vt 0.2500 0.9690
vt 0.7656 0.2656
vt 0.7656 0.2812
vt 0.9844 0.2812
vt 0.9844 0.2656
vt 0.2500 1.0000
vt 0.2500 0.9844
vt 0.2500 0.9688
vt 0.2500 0.9844
vt 0.0781 0.7500
vt 0.0781 0.5312
vt 0.0625 0.5312
vt 0.0625 0.7500
vt 0.2500 0.9532
vt 0.2500 0.9844
vt 0.2500 0.9532
vt 0.2500 0.9844
vt 0.2500 1.0000
vt 0.2500 0.9688
vt 0.2500 0.9844
vt 0.2187 0.6562
vt 0.2187 0.6406
vt -0.0000 0.6406
vt -0.0000 0.6562
vt 0.2187 0.6562
vt 0.2187 0.6406
vt -0.0000 0.6406
vt -0.0000 0.6562
vt 0.2187 0.6562
vt 0.2187 0.6406
vt -0.0000 0.6406
vt -0.0000 0.6562
vt 0.2187 0.6562
vt 0.2187 0.6406
vt -0.0000 0.6406
vt -0.0000 0.6562
vt 0.2187 0.6562
vt 0.2187 0.6406
vt -0.0000 0.6406
vt -0.0000 0.6562
vt 0.2187 0.6562
vt 0.2187 0.6406
vt -0.0000 0.6406
vt -0.0000 0.6562
vt 0.2187 0.6406
vt -0.0000 0.6406
vt -0.0000 0.6562
vt 0.2187 0.6562
vt 0.2187 0.6562
vt 0.2187 0.6406
vt -0.0000 0.6406
vt -0.0000 0.6562
vt -0.0000 0.6406
vt 0.2187 0.6406
vt 0.2187 0.6562
vt -0.0000 0.6562
vt -0.0000 0.6406
vt 0.2187 0.6406
vt 0.2187 0.6562
vt -0.0000 0.6562
vt -0.0000 0.6406
vt 0.2187 0.6406
vt 0.2187 0.6562
vt -0.0000 0.6562
vt -0.0000 0.6406
vt 0.2187 0.6406
vt 0.2187 0.6562
vt -0.0000 0.6562
vt -0.0000 0.6406
vt 0.2187 0.6406
vt 0.2187 0.6562
vt -0.0000 0.6562
vt 0.2187 0.6406
vt 0.2187 0.6562
vt -0.0000 0.6562
vt -0.0000 0.6406
vt 0.2187 0.6406
vt 0.2187 0.6562
vt -0.0000 0.6562
vt -0.0000 0.6406
vt 0.0781 0.9688
vt 0.0781 0.9844
vt 0.0625 0.9844
vt 0.0625 0.9688
vt 0.1094 0.9688
vt 0.1094 0.9844
vt 0.0938 0.9844
vt 0.0938 0.9688
vt 0.1250 0.9688
vt 0.1406 0.9688
vt 0.1406 0.9844
vt 0.1250 0.9844
vt 0.1719 0.9688
vt 0.1719 0.9844
vt 0.1563 0.9844
vt 0.1563 0.9688
vt 0.2031 0.9688
vt 0.2031 0.9844
vt 0.1875 0.9844
vt 0.1875 0.9688
vt 0.2344 0.9688
vt 0.2344 0.9844
vt 0.2188 0.9844
vt 0.2188 0.9688
vt 0.0000 0.9844
vt 0.0000 0.9688
vt 0.0156 0.9688
vt 0.0156 0.9844
vt 0.0469 0.9688
vt 0.0469 0.9844
vt 0.0313 0.9844
vt 0.0313 0.9688
vt 0.0156 0.9688
vt 0.0000 0.9688
vt 0.0000 0.9844
vt 0.0156 0.9844
vt 0.2188 0.9844
vt 0.2344 0.9844
vt 0.2344 0.9688
vt 0.2188 0.9688
vt 0.2031 0.9688
vt 0.1875 0.9688
vt 0.1875 0.9844
vt 0.2031 0.9844
vt 0.1719 0.9688
vt 0.1562 0.9688
vt 0.1562 0.9844
vt 0.1719 0.9844
vt 0.1406 0.9688
vt 0.1250 0.9688
vt 0.1250 0.9844
vt 0.1406 0.9844
vt 0.1094 0.9688
vt 0.0938 0.9688
vt 0.0938 0.9844
vt 0.1094 0.9844
vt 0.0781 0.9688
vt 0.0625 0.9688
vt 0.0625 0.9844
vt 0.0781 0.9844
vt 0.0469 0.9688
vt 0.0312 0.9688
vt 0.0312 0.9844
vt 0.0469 0.9844
vn 0.0000 -1.0000 -0.0000
vn 0.0000 1.0000 0.0000
vn 0.0000 0.0000 -1.0000
vn 1.0000 0.0000 0.0000
vn 0.0000 0.0000 1.0000
vn -1.0000 0.0000 0.0000
usemtl Material.001
s 1
f 1/1/1 2/2/1 3/3/1 4/4/1
f 5/5/2 6/6/2 7/7/2 8/8/2
f 9/9/3 10/10/3 11/11/3 12/12/3
f 2/13/4 8/8/4 7/7/4 3/14/4
f 13/15/5 14/16/5 15/17/5 16/18/5
f 17/19/6 18/20/6 16/21/6 15/22/6
f 3/23/5 7/24/5 6/25/5 4/26/5
f 19/27/6 10/28/6 20/29/6 21/30/6
f 18/31/1 22/32/1 13/33/1 16/34/1
f 17/35/2 15/36/2 14/37/2 23/38/2
f 24/39/3 25/40/3 26/41/3 27/42/3
f 28/43/4 23/44/4 29/45/4 30/46/4
f 9/47/3 27/48/3 31/49/3 20/50/3
f 23/44/4 14/51/4 32/52/4 29/45/4
f 30/53/2 29/54/2 33/55/2 34/56/2
f 35/57/2 17/35/2 23/38/2 28/58/2
f 36/59/1 37/60/1 22/32/1 18/31/1
f 37/61/1 38/62/1 1/63/1 22/64/1
f 6/65/6 5/66/6 33/67/6 39/68/6
f 35/69/6 36/70/6 18/20/6 17/19/6
f 40/71/4 41/72/4 8/8/4 2/13/4
f 42/73/2 5/5/2 8/8/2 41/72/2
f 38/74/1 40/75/1 2/2/1 1/1/1
f 43/76/1 44/77/1 40/75/1 38/74/1
f 45/78/2 42/73/2 41/72/2 46/79/2
f 44/80/4 46/79/4 41/72/4 40/71/4
f 47/81/6 48/82/6 36/70/6 35/69/6
f 48/83/1 49/84/1 37/60/1 36/59/1
f 47/85/2 35/57/2 28/58/2 50/86/2
f 50/87/4 28/43/4 30/46/4 51/88/4
f 5/66/6 42/89/6 34/90/6 33/67/6
f 52/91/4 50/87/4 51/88/4 53/92/4
f 53/93/2 51/94/2 54/95/2 55/96/2
f 56/97/2 47/85/2 50/86/2 52/98/2
f 57/99/1 58/100/1 49/84/1 48/83/1
f 58/101/1 59/102/1 43/103/1 49/104/1
f 56/105/6 57/106/6 48/82/6 47/81/6
f 60/107/4 61/108/4 46/79/4 44/80/4
f 62/109/2 45/78/2 46/79/2 61/108/2
f 59/110/1 60/111/1 44/77/1 43/76/1
f 42/89/6 45/112/6 54/113/6 34/90/6
f 63/114/1 64/115/1 60/111/1 59/110/1
f 65/116/2 62/109/2 61/108/2 66/117/2
f 64/118/4 66/117/4 61/108/4 60/107/4
f 67/119/6 68/120/6 57/106/6 56/105/6
f 68/121/1 69/122/1 58/100/1 57/99/1
f 67/123/2 56/97/2 52/98/2 70/124/2
f 70/125/4 52/91/4 53/92/4 71/126/4
f 45/112/6 62/127/6 55/128/6 54/113/6
f 72/129/4 70/125/4 71/126/4 73/130/4
f 73/131/2 71/132/2 74/133/2 75/134/2
f 76/135/2 67/123/2 70/124/2 72/136/2
f 77/137/1 78/138/1 69/122/1 68/121/1
f 78/139/1 79/140/1 63/141/1 69/142/1
f 76/143/6 77/144/6 68/120/6 67/119/6
f 80/145/4 81/146/4 66/117/4 64/118/4
f 82/147/2 65/116/2 66/117/2 81/146/2
f 79/148/1 80/149/1 64/115/1 63/114/1
f 62/127/6 65/150/6 74/151/6 55/128/6
f 83/152/1 84/153/1 80/149/1 79/148/1
f 85/154/2 82/147/2 81/146/2 86/155/2
f 84/156/4 86/155/4 81/146/4 80/145/4
f 87/157/6 88/158/6 77/144/6 76/143/6
f 88/159/1 89/160/1 78/138/1 77/137/1
f 87/161/2 76/135/2 72/136/2 90/162/2
f 90/163/4 72/129/4 73/130/4 91/164/4
f 65/150/6 82/165/6 75/166/6 74/151/6
f 92/167/4 90/163/4 91/164/4 93/168/4
f 93/169/2 91/170/2 94/171/2 95/172/2
f 96/173/2 87/161/2 90/162/2 92/174/2
f 97/175/1 98/176/1 89/160/1 88/159/1
f 98/177/1 99/178/1 83/179/1 89/180/1
f 96/181/6 97/182/6 88/158/6 87/157/6
f 100/183/4 101/184/4 86/155/4 84/156/4
f 102/185/2 85/154/2 86/155/2 101/184/2
f 99/186/1 100/187/1 84/153/1 83/152/1
f 82/165/6 85/188/6 94/189/6 75/166/6
f 103/190/1 104/191/1 100/187/1 99/186/1
f 105/192/2 102/185/2 101/184/2 106/193/2
f 104/194/4 106/193/4 101/184/4 100/183/4
f 107/195/6 108/196/6 97/182/6 96/181/6
f 108/197/1 109/198/1 98/176/1 97/175/1
f 107/199/2 96/173/2 92/174/2 110/200/2
f 110/201/4 92/167/4 93/168/4 111/202/4
f 85/188/6 102/203/6 95/204/6 94/189/6
f 112/205/4 110/201/4 111/202/4 113/206/4
f 113/207/2 111/208/2 114/209/2 115/210/2
f 116/211/2 107/199/2 110/200/2 112/212/2
f 117/213/1 118/214/1 109/198/1 108/197/1
f 118/215/1 119/216/1 103/217/1 109/218/1
f 116/219/6 117/220/6 108/196/6 107/195/6
f 120/221/4 121/222/4 106/193/4 104/194/4
f 122/223/2 105/192/2 106/193/2 121/222/2
f 119/224/1 120/225/1 104/191/1 103/190/1
f 102/203/6 105/226/6 114/227/6 95/204/6
f 123/228/1 124/229/1 120/225/1 119/224/1
f 125/230/2 122/223/2 121/222/2 126/231/2
f 124/232/4 126/231/4 121/222/4 120/221/4
f 127/233/6 128/234/6 117/220/6 116/219/6
f 128/235/1 129/236/1 118/214/1 117/213/1
f 127/237/2 116/211/2 112/212/2 130/238/2
f 130/239/4 112/205/4 113/206/4 131/240/4
f 105/226/6 122/241/6 115/242/6 114/227/6
f 132/243/4 133/244/4 134/245/4 135/246/4
f 135/247/2 134/248/2 136/249/2 137/250/2
f 138/251/2 139/252/2 133/253/2 132/254/2
f 140/255/1 141/256/1 142/257/1 143/258/1
f 141/259/1 144/260/1 145/261/1 142/262/1
f 138/263/6 140/264/6 143/265/6 139/266/6
f 146/267/4 147/268/4 148/269/4 149/270/4
f 150/271/2 151/272/2 148/269/2 147/268/2
f 144/273/1 146/274/1 149/275/1 145/276/1
f 152/277/6 151/278/6 136/279/6 153/280/6
f 122/241/6 125/281/6 154/282/6 115/242/6
f 155/283/4 130/239/4 131/240/4 156/284/4
f 156/285/2 131/286/2 154/287/2 153/288/2
f 157/289/2 127/237/2 130/238/2 155/290/2
f 158/291/1 159/292/1 129/236/1 128/235/1
f 159/293/1 160/294/1 123/295/1 129/296/1
f 157/297/6 158/298/6 128/234/6 127/233/6
f 161/299/4 162/300/4 126/231/4 124/232/4
f 152/301/2 125/230/2 126/231/2 162/300/2
f 160/302/1 161/303/1 124/229/1 123/228/1
f 145/276/1 149/275/1 161/303/1 160/302/1
f 151/272/2 152/301/2 162/300/2 148/269/2
f 149/270/4 148/269/4 162/300/4 161/299/4
f 139/266/6 143/265/6 158/298/6 157/297/6
f 143/258/1 142/257/1 159/292/1 158/291/1
f 139/252/2 157/289/2 155/290/2 133/253/2
f 133/244/4 155/283/4 156/284/4 134/245/4
f 125/281/6 152/277/6 153/280/6 154/282/6
f 163/304/1 164/305/1 146/274/1 144/273/1
f 19/306/2 150/271/2 147/268/2 165/307/2
f 164/308/4 165/307/4 147/268/4 146/267/4
f 166/309/6 167/310/6 140/264/6 138/263/6
f 167/311/1 168/312/1 141/256/1 140/255/1
f 166/313/2 138/251/2 132/254/2 169/314/2
f 169/315/4 132/243/4 135/246/4 170/316/4
f 151/278/6 150/317/6 137/318/6 136/279/6
f 26/319/4 169/315/4 170/316/4 31/320/4
f 31/321/2 170/322/2 21/323/2 20/324/2
f 25/325/2 166/313/2 169/314/2 26/326/2
f 24/327/1 27/328/1 168/312/1 167/311/1
f 27/329/1 9/330/1 163/331/1 168/332/1
f 25/333/6 24/334/6 167/310/6 166/309/6
f 12/335/4 11/336/4 165/307/4 164/308/4
f 10/337/2 19/306/2 165/307/2 11/336/2
f 9/338/1 12/339/1 164/305/1 163/304/1
f 150/317/6 19/27/6 21/30/6 137/318/6
f 170/340/5 168/341/5 163/342/5 21/343/5
f 134/344/5 142/345/5 145/346/5 136/347/5
f 131/348/5 129/349/5 123/350/5 154/351/5
f 111/352/5 109/353/5 103/354/5 114/355/5
f 91/356/5 89/357/5 83/358/5 94/359/5
f 71/360/5 69/361/5 63/362/5 74/363/5
f 49/364/5 43/365/5 54/366/5 51/367/5
f 29/368/5 22/369/5 1/370/5 33/371/5
f 144/372/3 141/373/3 135/374/3 137/375/3
f 160/376/3 159/377/3 156/378/3 153/379/3
f 119/380/3 118/381/3 113/382/3 115/383/3
f 99/384/3 98/385/3 93/386/3 95/387/3
f 79/388/3 78/389/3 73/390/3 75/391/3
f 58/392/3 53/393/3 55/394/3 59/395/3
f 37/396/3 30/397/3 34/398/3 38/399/3
f 22/400/4 29/401/4 32/402/4 13/403/4
f 49/404/4 51/405/4 30/406/4 37/407/4
f 58/408/4 69/409/4 71/410/4 53/411/4
f 89/412/4 91/413/4 73/414/4 78/415/4
f 109/416/4 111/417/4 93/418/4 98/419/4
f 129/420/4 131/421/4 113/422/4 118/423/4
f 156/424/4 159/425/4 142/426/4 134/427/4
f 168/428/4 170/429/4 135/430/4 141/431/4
f 163/432/6 144/433/6 137/434/6 21/435/6
f 153/436/6 136/437/6 145/438/6 160/439/6
f 123/440/6 119/441/6 115/442/6 154/443/6
f 103/444/6 99/445/6 95/446/6 114/447/6
f 83/448/6 79/449/6 75/450/6 94/451/6
f 63/452/6 59/453/6 55/454/6 74/455/6
f 43/456/6 38/457/6 34/458/6 54/459/6
f 1/460/6 4/461/6 39/462/6 33/463/6
