# Blender v2.78 (sub 0) OBJ File: 'conveyor_1.blend'
# www.blender.org
mtllib conveyor_1.mtl
o Cube
v 0.062500 0.125000 -0.000000
v 0.062500 0.000000 -0.000000
v 0.062500 0.125000 1.000000
v 0.062500 0.000000 1.000000
v 0.000000 0.125000 -0.000000
v 0.000000 0.000000 -0.000000
v -0.000000 0.125000 1.000000
v -0.000000 0.000000 1.000000
v 0.937500 0.000000 1.000000
v 0.937500 0.125000 1.000000
v 0.937500 0.000000 0.000000
v 0.937500 0.125000 0.000000
v 1.000000 0.000000 1.000000
v 1.000000 0.125000 1.000000
v 1.000000 0.000000 -0.000000
v 1.000000 0.125000 -0.000000
vt -0.0000 0.8203
vt -0.0000 0.8516
vt 0.2500 0.8516
vt 0.2500 0.8203
vt 0.1250 0.8203
vt 0.1250 0.8516
vt 0.1094 0.8516
vt 0.1094 0.8203
vt 0.2500 0.9297
vt 0.2500 0.9453
vt -0.0000 0.9453
vt -0.0000 0.9297
vt 0.2500 0.8203
vt 0.2500 0.8516
vt -0.0000 0.8516
vt -0.0000 0.8203
vt 0.2500 0.9453
vt 0.2500 0.9297
vt -0.0000 0.9297
vt -0.0000 0.9453
vt 0.1094 0.8203
vt 0.1094 0.8516
vt 0.1250 0.8516
vt 0.1250 0.8203
vt 0.2500 0.9062
vt 0.2500 0.9219
vt 0.0000 0.9219
vt 0.0000 0.9062
vt 0.2500 0.9219
vt 0.2500 0.9062
vt 0.0000 0.9062
vt 0.0000 0.9219
vt 0.1250 0.7812
vt 0.1250 0.8125
vt 0.1406 0.8125
vt 0.1406 0.7812
vt 0.2500 0.7812
vt 0.2500 0.8125
vt 0.0000 0.8125
vt 0.0000 0.7812
vt 0.1406 0.7812
vt 0.1406 0.8125
vt 0.1250 0.8125
vt 0.1250 0.7812
vt 0.0000 0.7812
vt 0.0000 0.8125
vt 0.2500 0.8125
vt 0.2500 0.7812
vn -1.0000 0.0000 -0.0000
vn -0.0000 0.0000 -1.0000
vn 0.0000 1.0000 0.0000
vn 1.0000 0.0000 -0.0000
vn 0.0000 -1.0000 0.0000
vn 0.0000 0.0000 1.0000
usemtl Material
s off
f 8/1/1 7/2/1 5/3/1 6/4/1
f 6/5/2 5/6/2 1/7/2 2/8/2
f 1/9/3 5/10/3 7/11/3 3/12/3
f 2/13/4 1/14/4 3/15/4 4/16/4
f 6/17/5 2/18/5 4/19/5 8/20/5
f 4/21/6 3/22/6 7/23/6 8/24/6
f 16/25/3 12/26/3 10/27/3 14/28/3
f 11/29/5 15/30/5 13/31/5 9/32/5
f 13/33/6 14/34/6 10/35/6 9/36/6
f 15/37/4 16/38/4 14/39/4 13/40/4
f 11/41/2 12/42/2 16/43/2 15/44/2
f 9/45/1 10/46/1 12/47/1 11/48/1
