# Blender v2.77 (sub 0) OBJ File: 'crucible.blend'
# www.blender.org
mtllib crucible.mtl
o Cube
v 1.000000 0.250000 0.000000
v 1.000000 0.250000 1.000000
v -0.000000 0.250000 1.000000
v 0.000000 0.250000 -0.000000
v 1.000000 1.000000 0.000000
v 1.000000 1.000000 1.000000
v -0.000000 1.000000 1.000000
v 0.000000 1.000000 0.000000
v 0.937500 1.000000 0.062500
v 0.937500 1.000000 0.937500
v 0.062500 1.000000 0.937500
v 0.062500 1.000000 0.062500
v 1.000000 0.250000 0.250000
v 0.000000 0.250000 0.250000
v 1.000000 1.000000 0.250000
v 0.000000 1.000000 0.250000
v 0.937500 1.000000 0.281250
v 0.062500 1.000000 0.281250
v 1.000000 0.250000 0.755208
v 1.000000 1.000000 0.755209
v 0.937500 1.000000 0.739584
v 0.000000 0.250000 0.755208
v -0.000000 1.000000 0.755208
v 0.062500 1.000000 0.739583
v 0.750000 0.250000 0.000000
v 0.750000 0.250000 1.000000
v 0.750000 1.000000 0.000000
v 0.750000 1.000000 1.000000
v 0.718750 1.000000 0.062500
v 0.718750 1.000000 0.937500
v 0.062500 0.375000 0.062500
v 0.750000 0.250000 0.250000
v 0.259375 0.375000 0.062500
v 0.750000 0.250000 0.755208
v 0.243750 0.250000 -0.000000
v 0.243750 0.250000 1.000000
v 0.243750 1.000000 0.000000
v 0.243750 1.000000 1.000000
v 0.259375 1.000000 0.062500
v 0.259375 1.000000 0.937500
v 0.243750 0.250000 0.250000
v 0.243750 0.250000 0.755208
v 0.937500 0.375000 0.937500
v 0.937500 0.375000 0.739584
v 1.000000 0.000000 0.755208
v 1.000000 0.000000 1.000000
v 0.243750 0.000000 -0.000000
v 0.000000 0.000000 -0.000000
v 0.243750 0.000000 1.000000
v -0.000000 0.000000 1.000000
v 0.000000 0.000000 0.250000
v 1.000000 0.000000 0.000000
v 1.000000 0.000000 0.250000
v 0.243750 0.000000 0.250000
v 0.000000 0.000000 0.755208
v 0.243750 0.000000 0.755208
v 0.750000 0.000000 0.000000
v 0.750000 0.000000 1.000000
v 0.750000 0.000000 0.250000
v 0.750000 0.000000 0.755208
v 0.937500 0.500000 0.739584
v 0.937500 0.500000 0.937500
v 0.259375 0.500000 0.062500
v 0.062500 0.500000 0.062500
v 0.259375 0.500000 0.937500
v 0.062500 0.500000 0.937500
v 0.062500 0.500000 0.281250
v 0.937500 0.500000 0.062500
v 0.937500 0.500000 0.281250
v 0.062500 0.500000 0.739583
v 0.718750 0.500000 0.062500
v 0.718750 0.500000 0.937500
v 0.259375 0.375000 0.937500
v 0.062500 0.375000 0.937500
v 0.062500 0.375000 0.281250
v 0.937500 0.375000 0.062500
v 0.937500 0.375000 0.281250
v 0.062500 0.375000 0.739583
v 0.718750 0.375000 0.281250
v 0.718750 0.375000 0.739583
v 0.718750 0.375000 0.062500
v 0.718750 0.375000 0.937500
v 0.259375 0.375000 0.281250
v 0.259375 0.375000 0.739583
vt 0.0609 0.3125
vt 0.0000 0.3125
vt 0.0000 0.2500
vt 0.0609 0.2500
vt 0.0000 0.8112
vt 0.0000 0.7500
vt 0.0156 0.7656
vt 0.0156 0.8151
vt 0.1888 0.7500
vt 0.1888 0.5625
vt 0.2500 0.5625
vt 0.2500 0.7500
vt 0.1891 0.7500
vt 0.1891 0.5625
vt 0.2500 0.5625
vt 0.2500 0.7500
vt 0.1875 0.7500
vt 0.1875 0.5625
vt 0.2500 0.5625
vt 0.2500 0.7500
vt 0.0609 0.5625
vt 0.0609 0.7500
vt 0.0000 0.7500
vt 0.0000 0.5625
vt 0.2341 0.6719
vt 0.1849 0.6719
vt 0.1849 0.5469
vt 0.2341 0.5469
vt 0.0609 1.0000
vt 0.0000 1.0000
vt 0.0156 0.9844
vt 0.0648 0.9844
vt 0.1875 0.7500
vt 0.2500 0.7500
vt 0.2344 0.7656
vt 0.1797 0.7656
vt 0.2500 0.9375
vt 0.2500 1.0000
vt 0.2344 0.9844
vt 0.2344 0.9297
vt 0.2500 0.8112
vt 0.2344 0.8151
vt 0.0703 0.6716
vt 0.0156 0.6716
vt 0.0156 0.5466
vt 0.0703 0.5466
vt 0.0612 0.7500
vt 0.0612 0.5625
vt 0.0000 0.7500
vt 0.0000 0.5625
vt 0.0625 0.5625
vt 0.0625 0.7500
vt 0.0000 0.9375
vt 0.0156 0.9297
vt 0.2500 0.3125
vt 0.1875 0.3125
vt 0.1875 0.2500
vt 0.2500 0.2500
vt 0.0000 0.7500
vt 0.0000 0.5625
vt 0.1849 0.6716
vt 0.1849 0.5466
vt 0.0609 0.5625
vt 0.0609 0.6888
vt 0.0000 0.6888
vt 0.0000 0.5625
vt 0.2500 0.5625
vt 0.2500 0.6888
vt 0.1875 0.6888
vt 0.1875 0.5625
vt 0.1797 0.6716
vt 0.0649 0.6716
vt 0.0649 0.5466
vt 0.1797 0.5466
vt 0.0612 0.3125
vt 0.0000 0.3125
vt 0.0000 0.2500
vt 0.0612 0.2500
vt 0.0651 0.6716
vt 0.0156 0.6716
vt 0.0156 0.5466
vt 0.0651 0.5466
vt 0.0609 0.7500
vt 0.0648 0.7656
vt 0.1875 1.0000
vt 0.1797 0.9844
vt 0.0156 0.6716
vt 0.0156 0.5466
vt 0.2500 0.5625
vt 0.2500 0.7500
vt 0.1875 0.7500
vt 0.1875 0.5625
vt 0.0000 0.7500
vt 0.0000 0.5625
vt 0.0625 0.5625
vt 0.0625 0.7500
vt 0.0609 0.3125
vt 0.0000 0.3125
vt 0.0000 0.2500
vt 0.0609 0.2500
vt 0.2344 0.6716
vt 0.2344 0.5466
vt 0.1875 0.5000
vt 0.0609 0.5000
vt 0.2344 0.6716
vt 0.1797 0.6716
vt 0.1797 0.5466
vt 0.2344 0.5466
vt 0.0701 0.6719
vt 0.0154 0.6719
vt 0.0154 0.5469
vt 0.0701 0.5469
vt 0.1875 0.7500
vt 0.0609 0.7500
vt 0.0609 0.4388
vt 0.0609 0.5000
vt 0.0000 0.5000
vt 0.0000 0.4388
vt 0.0609 0.2500
vt 0.0609 0.3125
vt 0.0000 0.3125
vt 0.0000 0.2500
vt 0.2500 0.2500
vt 0.2500 0.3125
vt 0.1875 0.3125
vt 0.1875 0.2500
vt 0.2500 0.4388
vt 0.2500 0.5000
vt 0.1875 0.5000
vt 0.1875 0.4388
vt 0.2500 0.3125
vt 0.1888 0.3125
vt 0.1888 0.2500
vt 0.2500 0.2500
vt 0.0625 0.3125
vt 0.0000 0.3125
vt 0.0000 0.2500
vt 0.0625 0.2500
vt 0.0625 0.3125
vt 0.0000 0.3125
vt 0.0625 0.2500
vt 0.0000 0.3125
vt 0.0625 0.3125
vt 0.0625 0.2500
vt 0.0000 0.2500
vt 0.2500 0.3125
vt 0.1888 0.3125
vt 0.1888 0.2500
vt 0.2500 0.2500
vt 0.2500 0.3125
vt 0.1891 0.3125
vt 0.1891 0.2500
vt 0.2500 0.2500
vt 0.2500 0.3125
vt 0.1875 0.3125
vt 0.1875 0.2500
vt 0.2500 0.2500
vt 0.0625 0.3125
vt 0.0625 0.2500
vt 0.1888 0.3125
vt 0.2500 0.3125
vt 0.2500 0.2500
vt 0.1888 0.2500
vt 0.1875 0.3125
vt 0.1875 0.2500
vt 0.2500 0.3125
vt 0.1891 0.3125
vt 0.1891 0.2500
vt 0.2500 0.2500
vt 0.0625 0.3125
vt 0.0000 0.3125
vt 0.0000 0.2500
vt 0.0625 0.2500
vt 0.1849 0.5154
vt 0.2344 0.5154
vt 0.0649 0.5154
vt 0.1797 0.5154
vt 0.2344 0.5466
vt 0.2344 0.5154
vt 0.1797 0.5154
vt 0.2344 0.5154
vt 0.1849 0.5156
vt 0.2341 0.5156
vt 0.0651 0.5154
vt 0.0156 0.5154
vt 0.0156 0.5154
vt 0.0701 0.5156
vt 0.2344 0.6716
vt 0.0648 0.5651
vt 0.0156 0.5651
vt 0.0156 0.5156
vt 0.0648 0.5156
vt 0.0648 0.7344
vt 0.0156 0.7344
vt 0.0156 0.6797
vt 0.0648 0.6797
vt 0.2344 0.6797
vt 0.1797 0.6797
vt 0.1797 0.5651
vt 0.2344 0.5651
vt 0.2344 0.7344
vt 0.1797 0.7344
vt 0.1797 0.5156
vt 0.2344 0.5156
vt 0.0703 0.5154
vt 0.0156 0.5154
vt 0.0154 0.5156
vn -0.0000 0.0000 1.0000
vn 0.0000 1.0000 0.0000
vn 1.0000 0.0000 0.0000
vn -1.0000 -0.0000 -0.0000
vn 0.0000 0.0000 -1.0000
vn 0.0000 -1.0000 0.0000
usemtl Material
s off
f 36/1/1 3/2/1 50/3/1 49/4/1
f 23/5/2 7/6/2 11/7/2 24/8/2
f 19/9/3 20/10/3 6/11/3 2/12/3
f 36/13/1 38/14/1 7/15/1 3/16/1
f 14/17/4 16/18/4 8/19/4 4/20/4
f 37/21/5 35/22/5 4/23/5 8/24/5
f 11/25/5 40/26/5 65/27/5 66/28/5
f 37/29/2 8/30/2 12/31/2 39/32/2
f 28/33/2 6/34/2 10/35/2 30/36/2
f 15/37/2 5/38/2 9/39/2 17/40/2
f 20/41/2 15/37/2 17/40/2 21/42/2
f 17/43/4 9/44/4 68/45/4 69/46/4
f 22/47/4 23/48/4 16/18/4 14/17/4
f 1/49/3 5/50/3 15/51/3 13/52/3
f 8/30/2 16/53/2 18/54/2 12/31/2
f 35/55/3 41/56/3 54/57/3 47/58/3
f 3/59/4 7/60/4 23/48/4 22/47/4
f 6/34/2 20/41/2 21/42/2 10/35/2
f 21/61/4 17/43/4 69/46/4 61/62/4
f 13/52/3 15/51/3 20/10/3 19/9/3
f 16/53/2 23/5/2 24/8/2 18/54/2
f 41/63/6 42/64/6 22/65/6 14/66/6
f 13/67/6 19/68/6 34/69/6 32/70/6
f 29/71/1 39/72/1 63/73/1 71/74/1
f 42/75/3 36/76/3 49/77/3 56/78/3
f 24/79/3 11/80/3 66/81/3 70/82/3
f 38/83/2 28/33/2 30/36/2 40/84/2
f 5/38/2 27/85/2 29/86/2 9/39/2
f 39/72/1 12/87/1 64/88/1 63/73/1
f 5/89/5 1/90/5 25/91/5 27/92/5
f 2/93/1 6/94/1 28/95/1 26/96/1
f 41/97/1 14/98/1 51/99/1 54/100/1
f 7/6/2 38/83/2 40/84/2 11/7/2
f 32/70/6 34/69/6 42/64/6 41/63/6
f 10/101/4 21/61/4 61/62/4 62/102/4
f 25/103/6 32/70/6 41/63/6 35/104/6
f 12/105/3 18/106/3 67/107/3 64/108/3
f 27/85/2 37/29/2 39/32/2 29/86/2
f 30/109/5 10/110/5 62/111/5 72/112/5
f 27/92/5 25/91/5 35/22/5 37/21/5
f 26/96/1 28/95/1 38/14/1 36/13/1
f 34/69/6 26/113/6 36/114/6 42/64/6
f 56/115/6 49/116/6 50/117/6 55/118/6
f 47/119/6 54/120/6 51/121/6 48/122/6
f 52/123/6 53/124/6 59/125/6 57/126/6
f 45/127/6 46/128/6 58/129/6 60/130/6
f 26/131/4 34/132/4 60/133/4 58/134/4
f 32/135/4 25/136/4 57/137/4 59/138/4
f 14/139/4 4/140/4 48/122/4 51/141/4
f 1/142/3 13/143/3 53/144/3 52/145/3
f 3/146/4 22/147/4 55/148/4 50/149/4
f 22/150/5 42/151/5 56/152/5 55/153/5
f 13/154/1 32/155/1 59/156/1 53/157/1
f 25/158/5 1/142/5 52/145/5 57/159/5
f 19/160/3 2/161/3 46/162/3 45/163/3
f 2/161/1 26/164/1 58/165/1 46/162/1
f 4/166/5 35/167/5 47/168/5 48/169/5
f 34/170/5 19/171/5 45/172/5 60/173/5
f 62/102/4 61/62/4 44/174/4 43/175/4
f 71/74/1 63/73/1 33/176/1 81/177/1
f 68/178/1 71/74/1 81/177/1 76/179/1
f 64/108/3 67/107/3 75/180/3 31/181/3
f 66/28/5 65/27/5 73/182/5 74/183/5
f 67/107/3 70/82/3 78/184/3 75/180/3
f 70/82/3 66/81/3 74/185/3 78/184/3
f 63/73/1 64/88/1 31/186/1 33/176/1
f 65/27/5 72/112/5 82/187/5 73/182/5
f 9/188/1 29/71/1 71/74/1 68/178/1
f 40/26/5 30/109/5 72/112/5 65/27/5
f 18/106/3 24/79/3 70/82/3 67/107/3
f 84/189/2 78/190/2 74/191/2 73/192/2
f 33/193/2 31/194/2 75/195/2 83/196/2
f 83/196/2 75/195/2 78/190/2 84/189/2
f 77/197/2 79/198/2 80/199/2 44/200/2
f 76/201/2 81/202/2 79/198/2 77/197/2
f 44/200/2 80/199/2 82/203/2 43/204/2
f 79/198/2 83/196/2 84/189/2 80/199/2
f 81/202/2 33/193/2 83/196/2 79/198/2
f 80/199/2 84/189/2 73/192/2 82/203/2
f 61/62/4 69/46/4 77/205/4 44/174/4
f 69/46/4 68/45/4 76/206/4 77/205/4
f 72/112/5 62/111/5 43/207/5 82/187/5
