# Blender v2.78 (sub 0) OBJ File: 'deepdrill.blend'
# www.blender.org
mtllib deepdrill.mtl
o Cube
v 1.000000 0.000000 0.000000
v 1.000000 0.000000 1.000000
v -0.000000 0.000000 1.000000
v 0.000000 0.000000 -0.000000
v 1.000000 1.000000 0.000000
v 1.000000 1.000000 1.000000
v -0.000000 1.000000 1.000000
v 0.000000 1.000000 0.000000
v 1.000000 0.000000 0.937500
v 0.000000 0.000000 0.937500
v 1.000000 1.000000 0.937500
v -0.000000 1.000000 0.937500
v 0.000000 0.000000 0.062500
v 0.000000 1.000000 0.062500
v 1.000000 0.000000 0.062500
v 1.000000 1.000000 0.062500
v 0.062500 0.000000 -0.000000
v 0.062500 0.000000 1.000000
v 0.062500 1.000000 0.000000
v 0.062500 1.000000 1.000000
v 0.062500 1.000000 0.937500
v 0.062500 0.000000 0.937500
v 0.062500 0.000000 0.062500
v 0.062500 1.000000 0.062500
v 0.937500 1.000000 0.937500
v 0.937500 1.000000 0.062500
v 0.937500 0.000000 0.000000
v 0.937500 0.000000 1.000000
v 0.937500 1.000000 0.000000
v 0.937500 1.000000 1.000000
v 0.937500 0.000000 0.937500
v 0.937500 0.000000 0.062500
v 0.062500 0.937500 0.937500
v 0.062500 0.937500 0.062500
v 0.937500 0.937500 0.937500
v 0.937500 0.937500 0.062500
v 1.000000 0.937500 0.062500
v 1.000000 0.937500 0.937500
v 1.000000 0.250000 0.062500
v 1.000000 0.250000 0.937500
v 1.000000 0.750000 0.062500
v 1.000000 0.750000 0.937500
v 0.500000 0.250000 0.062500
v 0.500000 0.250000 0.937500
v 0.500000 0.750000 0.062500
v 0.500000 0.750000 0.937500
v 0.625000 0.000000 0.625000
v 0.375000 0.000000 0.625000
v 0.625000 0.000000 0.375000
v 0.375000 0.000000 0.375000
v 0.625000 0.200000 0.625000
v 0.375000 0.200000 0.625000
v 0.625000 0.200000 0.375000
v 0.375000 0.200000 0.375000
vt 0.0156 0.7656
vt 0.0000 0.7656
vt 0.0000 0.7500
vt 0.0156 0.7500
vt 0.0156 0.7656
vt 0.0000 0.7656
vt 0.0000 0.7500
vt 0.0156 0.7500
vt 0.2657 0.2500
vt 0.2657 0.5000
vt 0.2501 0.5000
vt 0.2501 0.2500
vt 0.2656 0.2500
vt 0.2656 0.5000
vt 0.2500 0.5000
vt 0.2500 0.2500
vt 0.9844 0.7500
vt 0.9844 0.5000
vt 1.0000 0.5000
vt 1.0000 0.7500
vt 0.2656 0.2500
vt 0.2656 0.5000
vt 0.2500 0.5000
vt 0.2500 0.2500
vt 0.7500 0.7500
vt 0.7500 0.5000
vt 0.7656 0.5000
vt 0.7656 0.7500
vt 0.2656 0.3205
vt 0.4844 0.3205
vt 0.4844 0.3673
vt 0.2656 0.3673
vt 0.0156 0.9844
vt 0.0000 0.9844
vt 0.2344 0.7656
vt 0.2344 0.7500
vt 0.2500 0.7656
vt 0.2500 0.7500
vt 0.0156 1.0000
vt 0.0000 1.0000
vt 0.5001 0.2500
vt 0.5001 0.5000
vt 0.4845 0.5000
vt 0.4845 0.2500
vt 0.2344 1.0000
vt 0.2344 0.9844
vt 0.2500 0.9844
vt 0.2344 0.9844
vt 0.2500 0.2500
vt 0.0000 0.2500
vt 0.0893 0.1607
vt 0.1607 0.1607
vt 0.2344 0.9844
vt 0.0156 0.9844
vt 0.0156 0.9688
vt 0.2344 0.9688
vt 0.4844 0.2500
vt 0.4844 0.5000
vt 0.4844 0.2500
vt 0.4844 0.5000
vt 0.2344 0.7656
vt 0.2344 0.7500
vt 0.0156 0.9844
vt 0.0000 0.9844
vt 0.0156 1.0000
vt 0.0000 1.0000
vt 0.2500 0.7656
vt 0.2500 0.7500
vt 0.5000 0.2500
vt 0.5000 0.5000
vt 0.5000 0.2500
vt 0.5000 0.5000
vt 0.2656 0.2501
vt 0.4844 0.2501
vt 0.4844 0.3126
vt 0.2656 0.3126
vt 0.2344 1.0000
vt 0.2500 1.0000
vt 0.2500 1.0000
vt 0.2500 0.9844
vt 0.7656 0.4687
vt 0.7656 0.2500
vt 0.9844 0.2500
vt 0.9844 0.4687
vt 0.2344 0.9844
vt 0.2344 0.9688
vt 0.0156 0.9688
vt 0.2344 0.9688
vt 0.2344 0.9844
vt 0.2344 0.7656
vt 0.1094 0.7656
vt 0.1094 0.9844
vt 0.7656 0.4844
vt 0.9844 0.4844
vt 0.2500 0.9688
vt 0.0156 0.8125
vt 0.2344 0.8125
vt 0.2344 0.9375
vt 0.0156 0.9375
vt 0.2188 0.9844
vt 0.2344 0.9844
vt 0.2344 0.9688
vt 0.2188 0.9688
vt 0.2344 0.8125
vt 0.2344 0.9375
vt 0.1094 0.9375
vt 0.1094 0.8125
vt 0.2344 0.9375
vt 0.2344 0.8125
vt 0.1094 0.8125
vt 0.1094 0.9375
vt 0.9375 0.5156
vt 0.9375 0.7344
vt 0.8125 0.7344
vt 0.8125 0.5156
vt 0.0000 0.0000
vt 0.0000 0.0000
vt 0.0000 0.0000
vt 0.0000 0.0000
vt 0.0000 0.0000
vt 0.0893 0.0893
vt 0.2500 0.0000
vt 0.1607 0.0893
vt 0.4688 0.1094
vt 0.4688 0.0469
vt 0.4062 0.0469
vt 0.4062 0.1094
vt 0.4688 0.0781
vt 0.4062 0.0781
vt 0.4062 0.2031
vt 0.4688 0.2031
vt 0.3438 0.0781
vt 0.2812 0.0781
vt 0.2812 0.2031
vt 0.3438 0.2031
vt 0.4062 0.0781
vt 0.4688 0.0781
vt 0.4688 0.2031
vt 0.4062 0.2031
vn 0.0000 -1.0000 0.0000
vn 0.0000 1.0000 0.0000
vn 1.0000 0.0000 0.0000
vn -0.0000 -0.0000 1.0000
vn -1.0000 -0.0000 -0.0000
vn 0.0000 0.0000 -1.0000
usemtl Material
s off
f 22/1/1 18/2/1 3/3/1 10/4/1
f 21/5/2 12/6/2 7/7/2 20/8/2
f 9/9/3 11/10/3 6/11/3 2/12/3
f 18/13/4 20/14/4 7/15/4 3/16/4
f 13/17/5 14/18/5 8/19/5 4/20/5
f 19/21/6 17/22/6 4/23/6 8/24/6
f 3/25/5 7/26/5 12/27/5 10/28/5
f 42/29/3 41/30/3 37/31/3 38/32/3
f 24/33/2 14/34/2 12/6/2 21/5/2
f 23/35/1 22/1/1 10/4/1 13/36/1
f 17/37/1 23/35/1 13/36/1 4/38/1
f 19/39/2 8/40/2 14/34/2 24/33/2
f 1/41/3 5/42/3 16/43/3 15/44/3
f 10/28/5 12/27/5 14/18/5 13/17/5
f 29/45/2 19/39/2 24/33/2 26/46/2
f 27/47/1 32/48/1 23/35/1 17/37/1
f 32/49/1 31/50/1 47/51/1 49/52/1
f 24/53/3 21/54/3 33/55/3 34/56/3
f 29/57/6 27/58/6 17/22/6 19/21/6
f 28/59/4 30/60/4 20/14/4 18/13/4
f 25/61/2 21/5/2 20/8/2 30/62/2
f 31/63/1 28/64/1 18/2/1 22/1/1
f 9/65/1 2/66/1 28/64/1 31/63/1
f 11/67/2 25/61/2 30/62/2 6/68/2
f 2/69/4 6/70/4 30/60/4 28/59/4
f 5/71/6 1/72/6 27/58/6 29/57/6
f 9/73/3 15/74/3 39/75/3 40/76/3
f 15/77/1 9/65/1 31/63/1 32/48/1
f 1/78/1 15/77/1 32/48/1 27/47/1
f 5/79/2 29/45/2 26/46/2 16/80/2
f 36/81/2 34/82/2 33/83/2 35/84/2
f 21/54/6 25/85/6 35/86/6 33/55/6
f 26/46/4 24/33/4 34/87/4 36/88/4
f 41/89/1 42/90/1 46/91/1 45/92/1
f 37/93/2 36/81/2 35/84/2 38/94/2
f 16/80/4 26/46/4 36/88/4 37/95/4
f 44/96/3 43/97/3 45/98/3 46/99/3
f 25/100/6 11/101/6 38/102/6 35/103/6
f 39/104/4 41/105/4 45/106/4 43/107/4
f 42/108/6 40/109/6 44/110/6 46/111/6
f 40/112/2 39/113/2 43/114/2 44/115/2
f 48/116/3 50/117/3 54/118/3 52/119/3
f 31/50/1 22/120/1 48/121/1 47/51/1
f 22/120/1 23/122/1 50/123/1 48/121/1
f 23/122/1 32/49/1 49/52/1 50/123/1
f 53/124/1 51/125/1 52/126/1 54/127/1
f 47/128/6 48/129/6 52/130/6 51/131/6
f 49/132/5 47/133/5 51/134/5 53/135/5
f 50/136/4 49/137/4 53/138/4 54/139/4
