# Blender v2.77 (sub 0) OBJ File: 'electroplater.blend'
# www.blender.org
mtllib electroplater.mtl
o Cube
v 1.000000 1.000000 0.000000
v 1.000000 0.000000 0.000000
v 1.000000 1.000000 1.000000
v 1.000000 0.000000 1.000000
v 0.000000 1.000000 0.000000
v 0.000000 0.000000 0.000000
v 0.000000 1.000000 1.000000
v 0.000000 0.000000 1.000000
v 0.937500 1.000000 0.937500
v 0.062500 1.000000 0.937500
v 0.937500 1.000000 0.062500
v 0.062500 1.000000 0.062500
v 0.937500 0.062500 0.937500
v 0.062500 0.062500 0.937500
v 0.937500 0.062500 0.062500
v 0.062500 0.062500 0.062500
v 0.312500 0.906250 0.062500
v 0.312500 0.843750 0.062500
v 0.312500 0.906250 0.937500
v 0.312500 0.843750 0.937500
v 0.250000 0.906250 0.062500
v 0.250000 0.843750 0.062500
v 0.250000 0.906250 0.937500
v 0.250000 0.843750 0.937500
v 0.375000 0.843750 0.937500
v 0.375000 0.906250 0.937500
v 0.375000 0.843750 0.062500
v 0.375000 0.906250 0.062500
v 0.437500 0.843750 0.937500
v 0.437500 0.906250 0.937500
v 0.437500 0.843750 0.062500
v 0.437500 0.906250 0.062500
v 0.562500 0.906250 0.062500
v 0.562500 0.843750 0.062500
v 0.562500 0.906250 0.937500
v 0.562500 0.843750 0.937500
v 0.500000 0.906250 0.062500
v 0.500000 0.843750 0.062500
v 0.500000 0.906250 0.937500
v 0.500000 0.843750 0.937500
v 0.625000 0.843750 0.937500
v 0.625000 0.906250 0.937500
v 0.625000 0.843750 0.062500
v 0.625000 0.906250 0.062500
v 0.687500 0.843750 0.937500
v 0.687500 0.906250 0.937500
v 0.687500 0.843750 0.062500
v 0.687500 0.906250 0.062500
v 0.812500 0.906250 0.062500
v 0.812500 0.843750 0.062500
v 0.812500 0.906250 0.937500
v 0.812500 0.843750 0.937500
v 0.750000 0.906250 0.062500
v 0.750000 0.843750 0.062500
v 0.750000 0.906250 0.937500
v 0.750000 0.843750 0.937500
v 0.875000 0.843750 0.937500
v 0.875000 0.906250 0.937500
v 0.875000 0.843750 0.062500
v 0.875000 0.906250 0.062500
v 0.937500 0.843750 0.937500
v 0.937500 0.906250 0.937500
v 0.937500 0.843750 0.062500
v 0.937500 0.906250 0.062500
v 0.187500 0.906250 0.062500
v 0.187500 0.843750 0.062500
v 0.187500 0.906250 0.937500
v 0.187500 0.843750 0.937500
v 0.125000 0.906250 0.062500
v 0.125000 0.843750 0.062500
v 0.125000 0.906250 0.937500
v 0.125000 0.843750 0.937500
vt 0.2500 1.0000
vt 0.0000 1.0000
vt 0.0000 0.7500
vt 0.2500 0.7500
vt 0.2500 0.7500
vt 0.0000 0.7500
vt 0.0156 0.7344
vt 0.2344 0.7344
vt 0.0000 1.0000
vt 0.2500 1.0000
vt 0.2500 1.0000
vt 0.2500 0.7500
vt 0.0000 1.0000
vt 0.2500 1.0000
vt 0.2500 0.7500
vt 0.0000 0.7500
vt 0.0000 1.0000
vt 0.0000 0.7500
vt 0.2342 1.0000
vt 0.0155 1.0000
vt 0.0155 0.7656
vt 0.2342 0.7656
vt 0.0000 0.5000
vt 0.2500 0.5000
vt 0.2344 0.5156
vt 0.0156 0.5156
vt 0.2500 0.7500
vt 0.2500 1.0000
vt 0.0000 1.0000
vt 0.0000 0.7500
vt 0.2342 1.0000
vt 0.0155 1.0000
vt 0.0155 0.7656
vt 0.2342 0.7656
vt 0.2342 1.0000
vt 0.0155 1.0000
vt 0.0155 0.7656
vt 0.2342 0.7656
vt 0.2342 1.0000
vt 0.0155 1.0000
vt 0.0155 0.7656
vt 0.2342 0.7656
vt 0.2656 0.4141
vt 0.4844 0.4141
vt 0.4844 0.3984
vt 0.2656 0.3984
vt 0.2734 0.4141
vt 0.2891 0.4141
vt 0.2891 0.3984
vt 0.2734 0.3984
vt 0.4844 0.4141
vt 0.2656 0.4141
vt 0.2656 0.3984
vt 0.4844 0.3984
vt 0.2891 0.4141
vt 0.2734 0.4141
vt 0.2734 0.3984
vt 0.2891 0.3984
vt 0.2656 0.3828
vt 0.4844 0.3828
vt 0.4844 0.3672
vt 0.2656 0.3672
vt 0.2656 0.3672
vt 0.4844 0.3672
vt 0.4844 0.3828
vt 0.2656 0.3828
vt 0.4844 0.4141
vt 0.2656 0.4141
vt 0.2656 0.3984
vt 0.4844 0.3984
vt 0.2734 0.4141
vt 0.2891 0.4141
vt 0.2891 0.3984
vt 0.2734 0.3984
vt 0.2656 0.3672
vt 0.4844 0.3672
vt 0.4844 0.3828
vt 0.2656 0.3828
vt 0.2656 0.3828
vt 0.4844 0.3828
vt 0.4844 0.3672
vt 0.2656 0.3672
vt 0.2656 0.4141
vt 0.4844 0.4141
vt 0.4844 0.3984
vt 0.2656 0.3984
vt 0.2891 0.4141
vt 0.2734 0.4141
vt 0.2734 0.3984
vt 0.2891 0.3984
vt 0.2656 0.3672
vt 0.4844 0.3672
vt 0.4844 0.3828
vt 0.2656 0.3828
vt 0.2734 0.4141
vt 0.2891 0.4141
vt 0.2891 0.3984
vt 0.2734 0.3984
vt 0.2891 0.4141
vt 0.2734 0.4141
vt 0.2734 0.3984
vt 0.2891 0.3984
vt 0.2656 0.4141
vt 0.4844 0.4141
vt 0.4844 0.3984
vt 0.2656 0.3984
vt 0.4844 0.4141
vt 0.2656 0.4141
vt 0.2656 0.3984
vt 0.4844 0.3984
vt 0.2656 0.3828
vt 0.4844 0.3828
vt 0.4844 0.3672
vt 0.2656 0.3672
vt 0.2891 0.4141
vt 0.2734 0.4141
vt 0.2734 0.3984
vt 0.2891 0.3984
vt 0.2734 0.4141
vt 0.2891 0.4141
vt 0.2891 0.3984
vt 0.2734 0.3984
vt 0.2656 0.3828
vt 0.4844 0.3828
vt 0.4844 0.3672
vt 0.2656 0.3672
vt 0.4844 0.4141
vt 0.2656 0.4141
vt 0.2656 0.3984
vt 0.4844 0.3984
vt 0.2656 0.3672
vt 0.4844 0.3672
vt 0.4844 0.3828
vt 0.2656 0.3828
vt 0.2656 0.4141
vt 0.4844 0.4141
vt 0.4844 0.3984
vt 0.2656 0.3984
vt 0.2656 0.3828
vt 0.4844 0.3828
vt 0.4844 0.3672
vt 0.2656 0.3672
vt 0.2734 0.4141
vt 0.2891 0.4141
vt 0.2891 0.3984
vt 0.2734 0.3984
vt 0.2656 0.4141
vt 0.4844 0.4141
vt 0.4844 0.3984
vt 0.2656 0.3984
vt 0.2656 0.3672
vt 0.4844 0.3672
vt 0.4844 0.3828
vt 0.2656 0.3828
vt 0.2891 0.4141
vt 0.2734 0.4141
vt 0.2734 0.3984
vt 0.2891 0.3984
vt 0.4844 0.4141
vt 0.2656 0.4141
vt 0.2656 0.3984
vt 0.4844 0.3984
vt 0.2656 0.4141
vt 0.4844 0.4141
vt 0.4844 0.3984
vt 0.2656 0.3984
vt 0.2734 0.4141
vt 0.2891 0.4141
vt 0.2891 0.3984
vt 0.2734 0.3984
vt 0.4844 0.4141
vt 0.2656 0.4141
vt 0.2656 0.3984
vt 0.4844 0.3984
vt 0.2891 0.4141
vt 0.2734 0.4141
vt 0.2734 0.3984
vt 0.2891 0.3984
vt 0.2656 0.3828
vt 0.4844 0.3828
vt 0.4844 0.3672
vt 0.2656 0.3672
vt 0.2656 0.3672
vt 0.4844 0.3672
vt 0.4844 0.3828
vt 0.2656 0.3828
vt 0.2656 0.4141
vt 0.4844 0.4141
vt 0.4844 0.3984
vt 0.2656 0.3984
vt 0.2734 0.4141
vt 0.2891 0.4141
vt 0.2891 0.3984
vt 0.2734 0.3984
vt 0.4844 0.4141
vt 0.2656 0.4141
vt 0.2656 0.3984
vt 0.4844 0.3984
vt 0.2891 0.4141
vt 0.2734 0.4141
vt 0.2734 0.3984
vt 0.2891 0.3984
vt 0.2656 0.3828
vt 0.4844 0.3828
vt 0.4844 0.3672
vt 0.2656 0.3672
vt 0.2656 0.3672
vt 0.4844 0.3672
vt 0.4844 0.3828
vt 0.2656 0.3828
vn 0.0000 0.0000 1.0000
vn 0.0000 1.0000 0.0000
vn 0.0000 -1.0000 0.0000
vn -1.0000 0.0000 0.0000
vn 0.0000 0.0000 -1.0000
vn 1.0000 0.0000 0.0000
usemtl Material
s off
f 3/1/1 7/2/1 8/3/1 4/4/1
f 1/5/2 5/6/2 12/7/2 11/8/2
f 8/3/3 6/9/3 2/10/3 4/4/3
f 7/2/4 5/11/4 6/12/4 8/3/4
f 5/13/5 1/14/5 2/15/5 6/16/5
f 1/14/6 3/17/6 4/18/6 2/15/6
f 11/19/1 12/20/1 16/21/1 15/22/1
f 7/23/2 3/24/2 9/25/2 10/26/2
f 5/6/2 7/23/2 10/26/2 12/7/2
f 3/24/2 1/5/2 11/8/2 9/25/2
f 13/27/2 15/28/2 16/29/2 14/30/2
f 10/31/5 9/32/5 13/33/5 14/34/5
f 12/35/6 10/36/6 14/37/6 16/38/6
f 9/39/4 11/40/4 15/41/4 13/42/4
f 23/43/4 21/44/4 22/45/4 24/46/4
f 21/47/5 17/48/5 18/49/5 22/50/5
f 17/51/6 19/52/6 20/53/6 18/54/6
f 19/55/1 23/56/1 24/57/1 20/58/1
f 24/59/3 22/60/3 18/61/3 20/62/3
f 19/63/2 17/64/2 21/65/2 23/66/2
f 32/67/6 30/68/6 29/69/6 31/70/6
f 28/71/5 32/72/5 31/73/5 27/74/5
f 30/75/2 32/76/2 28/77/2 26/78/2
f 25/79/3 27/80/3 31/81/3 29/82/3
f 26/83/4 28/84/4 27/85/4 25/86/4
f 30/87/1 26/88/1 25/89/1 29/90/1
f 35/91/2 33/92/2 37/93/2 39/94/2
f 37/95/5 33/96/5 34/97/5 38/98/5
f 35/99/1 39/100/1 40/101/1 36/102/1
f 39/103/4 37/104/4 38/105/4 40/106/4
f 33/107/6 35/108/6 36/109/6 34/110/6
f 40/111/3 38/112/3 34/113/3 36/114/3
f 46/115/1 42/116/1 41/117/1 45/118/1
f 44/119/5 48/120/5 47/121/5 43/122/5
f 41/123/3 43/124/3 47/125/3 45/126/3
f 48/127/6 46/128/6 45/129/6 47/130/6
f 46/131/2 48/132/2 44/133/2 42/134/2
f 42/135/4 44/136/4 43/137/4 41/138/4
f 56/139/3 54/140/3 50/141/3 52/142/3
f 53/143/5 49/144/5 50/145/5 54/146/5
f 55/147/4 53/148/4 54/149/4 56/150/4
f 51/151/2 49/152/2 53/153/2 55/154/2
f 51/155/1 55/156/1 56/157/1 52/158/1
f 49/159/6 51/160/6 52/161/6 50/162/6
f 58/163/4 60/164/4 59/165/4 57/166/4
f 60/167/5 64/168/5 63/169/5 59/170/5
f 64/171/6 62/172/6 61/173/6 63/174/6
f 62/175/1 58/176/1 57/177/1 61/178/1
f 57/179/3 59/180/3 63/181/3 61/182/3
f 62/183/2 64/184/2 60/185/2 58/186/2
f 71/187/4 69/188/4 70/189/4 72/190/4
f 69/191/5 65/192/5 66/193/5 70/194/5
f 65/195/6 67/196/6 68/197/6 66/198/6
f 67/199/1 71/200/1 72/201/1 68/202/1
f 72/203/3 70/204/3 66/205/3 68/206/3
f 67/207/2 65/208/2 69/209/2 71/210/2
