# Blender v2.77 (sub 0) OBJ File: 'elevator.blend'
# www.blender.org
mtllib elevator.mtl
o Cube
v 1.000000 0.000000 0.000000
v 1.000000 0.000000 1.000000
v -0.000000 0.000000 1.000000
v 0.000000 0.000000 -0.000000
v 1.000000 1.000000 0.000000
v 1.000000 1.000000 1.000000
v -0.000000 1.000000 1.000000
v 0.000000 1.000000 0.000000
v 0.937500 0.000000 -0.000000
v 0.937500 0.000000 1.000000
v 0.937500 1.000000 0.000000
v 0.937500 1.000000 1.000000
v 0.062500 0.000000 -0.000000
v 0.062500 0.000000 1.000000
v 0.062500 1.000000 0.000000
v 0.062500 1.000000 1.000000
v 1.000000 0.000000 0.062500
v 0.000000 0.000000 0.062500
v 1.000000 1.000000 0.062500
v -0.000000 1.000000 0.062500
v 0.937500 1.000000 0.062500
v 0.937500 0.000000 0.062500
v 0.062500 1.000000 0.062500
v 0.062500 0.000000 0.062500
v 1.000000 0.000000 0.937500
v 1.000000 1.000000 0.937500
v 0.937500 1.000000 0.937500
v 0.062500 1.000000 0.937500
v 0.000000 0.000000 0.937500
v -0.000000 1.000000 0.937500
v 0.937500 0.000000 0.937500
v 0.062500 0.000000 0.937500
v 0.937500 0.937500 0.062500
v 0.062500 0.937500 0.062500
v 0.937500 0.937500 0.937500
v 0.062500 0.937500 0.937500
vt 0.2656 0.2656
vt 0.2500 0.2656
vt 0.2500 0.2500
vt 0.2656 0.2500
vt 0.2656 0.5156
vt 0.2500 0.5156
vt 0.2500 0.5000
vt 0.2656 0.5000
vt 0.0156 0.5000
vt 0.0156 0.7500
vt 0.0000 0.7500
vt 0.0000 0.5000
vt 0.0156 0.5000
vt 0.0156 0.7500
vt 0.0000 0.7500
vt 0.0000 0.5000
vt 0.2344 0.7500
vt 0.2344 0.5000
vt 0.2500 0.5000
vt 0.2500 0.7500
vt 0.0156 0.5000
vt 0.0156 0.7500
vt 0.0000 0.7500
vt 0.0000 0.5000
vt 0.2500 0.5000
vt 0.2500 0.7500
vt 0.2344 0.7500
vt 0.2344 0.5000
vt 0.2500 0.5000
vt 0.2500 0.7500
vt 0.2344 0.7500
vt 0.2344 0.5000
vt 0.5000 0.5156
vt 0.4844 0.5156
vt 0.4844 0.5000
vt 0.5000 0.5000
vt 0.2656 0.5000
vt 0.2500 0.4844
vt 0.2656 0.4844
vt 0.5000 0.4844
vt 0.4844 0.4844
vt 0.4844 0.2656
vt 0.5000 0.2656
vt 0.4844 0.7500
vt 0.2656 0.7500
vt 0.2656 0.7344
vt 0.4844 0.7344
vt 0.5000 0.5000
vt 0.4844 0.5000
vt 0.5000 0.7500
vt 0.5000 0.7344
vt 0.0156 0.7500
vt 0.0156 0.5000
vt 0.2500 0.5000
vt 0.2500 0.7500
vt 0.2344 0.7500
vt 0.2344 0.5000
vt 0.2500 0.7500
vt 0.2500 0.7344
vt 0.4844 0.2500
vt 0.5000 0.2500
vt 0.0000 0.7500
vt 0.0000 0.5000
vt 0.2344 0.7506
vt 0.0156 0.7506
vt 0.0156 0.7350
vt 0.2344 0.7350
vt 0.5156 0.0156
vt 0.7344 0.0156
vt 0.7344 0.2344
vt 0.5156 0.2344
vt 0.0156 0.7350
vt 0.2344 0.7350
vt 0.2344 0.7506
vt 0.0156 0.7506
vt 0.2344 0.7506
vt 0.0156 0.7506
vt 0.0156 0.7350
vt 0.2344 0.7350
vt 0.0156 0.7350
vt 0.2344 0.7350
vt 0.2344 0.7506
vt 0.0156 0.7506
vn 0.0000 -1.0000 0.0000
vn 0.0000 1.0000 0.0000
vn 1.0000 0.0000 0.0000
vn -0.0000 0.0000 1.0000
vn -1.0000 -0.0000 -0.0000
vn 0.0000 0.0000 -1.0000
usemtl Material
s off
f 32/1/1 14/2/1 3/3/1 29/4/1
f 28/5/2 30/6/2 7/7/2 16/8/2
f 25/9/3 26/10/3 6/11/3 2/12/3
f 14/13/4 16/14/4 7/15/4 3/16/4
f 18/17/5 20/18/5 8/19/5 4/20/5
f 15/21/6 13/22/6 4/23/6 8/24/6
f 5/25/6 1/26/6 9/27/6 11/28/6
f 2/29/4 6/30/4 12/31/4 10/32/4
f 26/33/2 27/34/2 12/35/2 6/36/2
f 25/37/1 2/29/1 10/38/1 31/39/1
f 11/28/6 9/27/6 13/22/6 15/21/6
f 10/32/4 12/31/4 16/14/4 14/13/4
f 27/34/2 28/5/2 16/8/2 12/35/2
f 31/39/1 10/38/1 14/2/1 32/1/1
f 9/40/1 22/41/1 24/42/1 13/43/1
f 11/44/2 15/45/2 23/46/2 21/47/2
f 1/48/1 17/49/1 22/41/1 9/40/1
f 5/50/2 11/44/2 21/47/2 19/51/2
f 29/52/5 30/53/5 20/18/5 18/17/5
f 1/54/3 5/55/3 19/56/3 17/57/3
f 15/45/2 8/58/2 20/59/2 23/46/2
f 13/43/1 24/42/1 18/60/1 4/61/1
f 3/62/5 7/63/5 30/53/5 29/52/5
f 22/41/1 31/39/1 32/1/1 24/42/1
f 21/64/4 23/65/4 34/66/4 33/67/4
f 17/49/1 25/37/1 31/39/1 22/41/1
f 19/51/2 21/47/2 27/34/2 26/33/2
f 17/57/3 19/56/3 26/10/3 25/9/3
f 23/46/2 20/59/2 30/6/2 28/5/2
f 24/42/1 32/1/1 29/4/1 18/60/1
f 33/68/2 34/69/2 36/70/2 35/71/2
f 27/72/5 21/73/5 33/74/5 35/75/5
f 23/76/3 28/77/3 36/78/3 34/79/3
f 28/80/6 27/81/6 35/82/6 36/83/6
