# Blender v2.77 (sub 0) OBJ File: 'energizer.blend'
# www.blender.org
mtllib energizer.mtl
o Cube
v 0.937500 0.062500 0.062500
v 0.937500 0.062500 0.937500
v 0.062500 0.062500 0.937500
v 0.062500 0.062500 0.062500
v 0.937500 0.937500 0.062500
v 0.937500 0.937500 0.937500
v 0.062500 0.937500 0.937500
v 0.062500 0.937500 0.062500
v 0.937500 0.882812 0.062500
v 0.937500 0.882812 0.937500
v 0.062500 0.882812 0.937500
v 0.062500 0.882812 0.062500
v 0.937500 0.117188 0.062500
v 0.937500 0.117188 0.937500
v 0.062500 0.117188 0.937500
v 0.062500 0.117188 0.062500
v 0.937500 0.062500 0.882812
v 0.062500 0.062500 0.882812
v 0.937500 0.937500 0.882813
v 0.062500 0.937500 0.882812
v 0.062500 0.882812 0.882812
v 0.937500 0.882812 0.882813
v 0.937500 0.117188 0.882813
v 0.062500 0.117188 0.882812
v 0.062500 0.062500 0.117187
v 0.062500 0.937500 0.117187
v 0.062500 0.882812 0.117187
v 0.062500 0.117188 0.117187
v 0.937500 0.062500 0.117188
v 0.937500 0.937500 0.117188
v 0.937500 0.882812 0.117188
v 0.937500 0.117188 0.117188
v 0.882813 0.062500 0.062500
v 0.882812 0.062500 0.937500
v 0.882813 0.937500 0.062500
v 0.882812 0.937500 0.937500
v 0.882813 0.882812 0.062500
v 0.882812 0.882812 0.937500
v 0.882812 0.117188 0.937500
v 0.882813 0.117188 0.062500
v 0.882812 0.937500 0.882813
v 0.882812 0.062500 0.882812
v 0.882813 0.062500 0.117187
v 0.882813 0.937500 0.117188
v 0.117188 0.062500 0.062500
v 0.117187 0.062500 0.937500
v 0.117188 0.937500 0.062500
v 0.117187 0.937500 0.937500
v 0.117188 0.882812 0.062500
v 0.117187 0.882812 0.937500
v 0.117187 0.117188 0.937500
v 0.117188 0.117188 0.062500
v 0.117188 0.062500 0.882812
v 0.117188 0.062500 0.117187
v 0.117187 0.937500 0.882812
v 0.117188 0.937500 0.117188
v 1.000000 0.882812 0.117188
v 1.000000 0.882812 0.882813
v 1.000000 0.117188 0.117188
v 1.000000 0.117188 0.882813
v 0.882812 0.882812 1.000000
v 0.882812 0.117188 1.000000
v 0.117187 0.882812 1.000000
v 0.117187 0.117188 1.000000
v 0.882813 0.117188 0.000000
v 0.882813 0.882812 0.000000
v 0.117188 0.882812 -0.000000
v 0.117188 0.117188 -0.000000
v 0.117187 1.000000 0.882812
v 0.882812 1.000000 0.882813
v 0.117188 1.000000 0.117188
v 0.882813 1.000000 0.117188
v 0.882812 0.000000 0.882812
v 0.882813 0.000000 0.117187
v 0.117188 0.000000 0.882812
v 0.117188 0.000000 0.117187
v 0.000000 0.882812 0.882812
v 0.000000 0.117188 0.882812
v 0.000000 0.882812 0.117187
v 0.000000 0.117188 0.117187
vt 0.0293 0.9707
vt 0.0293 0.9844
vt 0.0156 0.9844
vt 0.0156 0.9707
vt 0.0156 0.7656
vt 0.0000 0.7656
vt 0.0000 0.7500
vt 0.0156 0.7500
vt 0.0293 0.9707
vt 0.0293 0.9844
vt 0.0156 0.9844
vt 0.0156 0.9707
vt 0.0293 0.9707
vt 0.0293 0.9844
vt 0.0156 0.9844
vt 0.0156 0.9707
vt 0.0293 0.9707
vt 0.0293 0.9844
vt 0.0156 0.9844
vt 0.0156 0.9707
vt 0.2207 0.7793
vt 0.2207 0.7656
vt 0.2344 0.7656
vt 0.2344 0.7793
vt 0.2207 0.9844
vt 0.2207 0.9707
vt 0.2344 0.9707
vt 0.2344 0.9844
vt 0.0293 0.7793
vt 0.0156 0.7793
vt 0.0293 0.7793
vt 0.0156 0.7793
vt 0.0293 0.7793
vt 0.0156 0.7793
vt 0.0293 0.7656
vt 0.0156 0.7656
vt 0.0293 0.7656
vt 0.0156 0.7656
vt 0.0293 0.7656
vt 0.0156 0.7656
vt 0.2344 0.7656
vt 0.2344 0.7793
vt 0.2207 0.7793
vt 0.2207 0.7656
vt 0.2207 0.7656
vt 0.2207 0.7793
vt 0.6094 0.4707
vt 0.6094 0.2793
vt 0.6250 0.2793
vt 0.6250 0.4707
vt 0.2344 0.9707
vt 0.2207 0.9707
vt 0.2344 0.9844
vt 0.2207 0.9844
vt 0.2207 0.9707
vt 0.2207 0.9844
vt 0.0156 0.9844
vt 0.0000 0.9844
vt 0.0293 0.7793
vt 0.0156 0.7793
vt 0.0293 0.7656
vt 0.0156 1.0000
vt 0.0000 1.0000
vt 0.2344 0.9707
vt 0.2344 0.9844
vt 0.2344 0.7793
vt 0.2344 0.7656
vt 0.5781 0.2793
vt 0.5781 0.4707
vt 0.5625 0.4707
vt 0.5625 0.2793
vt 0.2500 1.0000
vt 0.2344 1.0000
vt 0.2344 0.9844
vt 0.2500 0.9844
vt 0.2344 0.7793
vt 0.2207 0.7793
vt 0.2207 0.7656
vt 0.2344 0.9707
vt 0.2207 0.9707
vt 0.2344 0.7656
vt 0.2500 0.7656
vt 0.0156 0.9707
vt 0.0156 0.7793
vt 0.0293 0.7793
vt 0.0293 0.9707
vt 0.2344 0.7656
vt 0.2344 0.7793
vt 0.2207 0.7793
vt 0.2207 0.7656
vt 0.2344 0.9707
vt 0.2207 0.9707
vt 0.0156 0.9844
vt 0.0293 0.9844
vt 0.0156 0.7656
vt 0.0293 0.7656
vt 0.2344 0.9844
vt 0.2207 0.9844
vt 0.2344 0.7500
vt 0.2500 0.7500
vt 0.2344 0.9844
vt 0.2207 0.9844
vt 0.5293 0.4531
vt 0.7207 0.4531
vt 0.7207 0.4375
vt 0.5293 0.4375
vt 0.5293 0.3594
vt 0.7207 0.3594
vt 0.7207 0.3750
vt 0.5293 0.3750
vt 0.6094 0.4707
vt 0.6094 0.2793
vt 0.6250 0.2793
vt 0.6250 0.4707
vt 0.5293 0.3906
vt 0.7207 0.3906
vt 0.7207 0.3750
vt 0.5293 0.3750
vt 0.7207 0.2793
vt 0.7207 0.4707
vt 0.5293 0.4707
vt 0.5293 0.2793
vt 0.6094 0.2793
vt 0.6250 0.2793
vt 0.6094 0.4707
vt 0.6094 0.2793
vt 0.6250 0.2793
vt 0.6250 0.4707
vt 0.6094 0.4707
vt 0.6250 0.4707
vt 0.7207 0.2793
vt 0.7207 0.4707
vt 0.5293 0.4707
vt 0.5293 0.2793
vt 0.5781 0.4707
vt 0.5781 0.2793
vt 0.5625 0.2793
vt 0.5625 0.4707
vt 0.5781 0.2793
vt 0.5781 0.4707
vt 0.5625 0.4707
vt 0.5625 0.2793
vt 0.7207 0.3906
vt 0.5293 0.3906
vt 0.5293 0.3750
vt 0.7207 0.3750
vt 0.7207 0.4707
vt 0.7207 0.2793
vt 0.5293 0.2793
vt 0.5293 0.4707
vt 0.5293 0.3594
vt 0.7207 0.3594
vt 0.7207 0.3750
vt 0.5293 0.3750
vt 0.7207 0.3594
vt 0.5293 0.3594
vt 0.5293 0.3750
vt 0.7207 0.3750
vt 0.6094 0.2793
vt 0.6094 0.4707
vt 0.6250 0.4707
vt 0.6250 0.2793
vt 0.7207 0.4707
vt 0.5293 0.4707
vt 0.5293 0.2793
vt 0.7207 0.2793
vt 0.7207 0.3594
vt 0.7207 0.3750
vt 0.5293 0.3594
vt 0.7207 0.3594
vt 0.7207 0.3750
vt 0.5293 0.3750
vt 0.5293 0.3594
vt 0.5293 0.3750
vt 0.7207 0.4707
vt 0.7207 0.2793
vt 0.5293 0.2793
vt 0.5293 0.4707
vt 0.7207 0.4531
vt 0.5293 0.4531
vt 0.5293 0.4375
vt 0.7207 0.4375
vt 0.7207 0.4531
vt 0.7207 0.4375
vt 0.5293 0.4531
vt 0.5293 0.4375
vt 0.5293 0.2793
vt 0.5293 0.4707
vt 0.7207 0.4707
vt 0.7207 0.2793
vt 0.5781 0.2793
vt 0.5781 0.4707
vt 0.5625 0.4707
vt 0.5625 0.2793
vt 0.5781 0.4707
vt 0.5625 0.4707
vt 0.5781 0.2793
vt 0.5625 0.2793
vn 0.0000 -1.0000 0.0000
vn 0.0000 1.0000 0.0000
vn 1.0000 0.0000 0.0000
vn -0.0000 -0.0000 1.0000
vn -1.0000 -0.0000 -0.0000
vn 0.0000 0.0000 -1.0000
usemtl Material
s off
f 53/1/1 46/2/1 3/3/1 18/4/1
f 55/5/2 20/6/2 7/7/2 48/8/2
f 22/9/3 19/10/3 6/11/3 10/12/3
f 50/13/4 48/14/4 7/15/4 11/16/4
f 27/17/5 26/18/5 8/19/5 12/20/5
f 52/21/6 45/22/6 4/23/6 16/24/6
f 47/25/6 49/26/6 12/27/6 8/28/6
f 28/29/5 27/17/5 12/20/5 16/30/5
f 51/31/4 50/13/4 11/16/4 15/32/4
f 23/33/3 22/9/3 10/12/3 14/34/3
f 17/35/3 23/33/3 14/34/3 2/36/3
f 46/37/4 51/31/4 15/32/4 3/38/4
f 25/39/5 28/29/5 16/30/5 4/40/5
f 49/26/6 52/21/6 16/24/6 12/27/6
f 3/41/5 15/42/5 24/43/5 18/44/5
f 29/45/3 32/46/3 23/33/3 17/35/3
f 31/47/2 22/48/2 58/49/2 57/50/2
f 15/42/5 11/51/5 21/52/5 24/43/5
f 11/51/5 7/53/5 20/54/5 21/52/5
f 31/55/3 30/56/3 19/10/3 22/9/3
f 56/57/2 26/58/2 20/6/2 55/5/2
f 54/59/1 53/1/1 18/4/1 25/60/1
f 45/61/1 54/59/1 25/60/1 4/40/1
f 47/62/2 8/63/2 26/58/2 56/57/2
f 9/64/3 5/65/3 30/56/3 31/55/3
f 13/66/3 9/64/3 31/55/3 32/46/3
f 1/67/3 13/66/3 32/46/3 29/45/3
f 18/44/5 24/43/5 28/29/5 25/39/5
f 24/68/4 21/69/4 77/70/4 78/71/4
f 21/52/5 20/54/5 26/18/5 27/17/5
f 5/72/2 35/73/2 44/74/2 30/75/2
f 1/67/1 29/76/1 43/77/1 33/78/1
f 29/76/1 17/79/1 42/80/1 43/77/1
f 30/75/2 44/74/2 41/81/2 19/82/2
f 9/83/6 13/84/6 40/85/6 37/86/6
f 2/87/4 14/88/4 39/89/4 34/90/4
f 14/88/4 10/91/4 38/92/4 39/89/4
f 5/93/6 9/83/6 37/86/6 35/94/6
f 13/84/6 1/95/6 33/96/6 40/85/6
f 10/91/4 6/97/4 36/98/4 38/92/4
f 19/82/2 41/81/2 36/99/2 6/100/2
f 17/79/1 2/101/1 34/102/1 42/80/1
f 35/73/2 47/62/2 56/57/2 44/74/2
f 33/78/1 43/77/1 54/59/1 45/61/1
f 53/103/5 54/104/5 76/105/5 75/106/5
f 55/107/4 41/108/4 70/109/4 69/110/4
f 37/111/3 40/112/3 65/113/3 66/114/3
f 34/90/4 39/89/4 51/31/4 46/37/4
f 51/115/1 39/116/1 62/117/1 64/118/1
f 35/94/6 37/86/6 49/26/6 47/25/6
f 40/85/6 33/96/6 45/22/6 52/21/6
f 38/92/4 36/98/4 48/14/4 50/13/4
f 41/81/2 55/5/2 48/8/2 36/99/2
f 42/80/1 34/102/1 46/2/1 53/1/1
f 59/119/3 57/120/3 58/121/3 60/122/3
f 32/123/6 31/47/6 57/50/6 59/124/6
f 22/125/4 23/126/4 60/127/4 58/128/4
f 23/126/1 32/129/1 59/130/1 60/127/1
f 62/131/4 61/132/4 63/133/4 64/134/4
f 50/135/5 51/136/5 64/137/5 63/138/5
f 39/139/3 38/140/3 61/141/3 62/142/3
f 38/143/2 50/144/2 63/145/2 61/146/2
f 66/147/6 65/148/6 68/149/6 67/150/6
f 49/151/2 37/152/2 66/153/2 67/154/2
f 40/155/1 52/156/1 68/157/1 65/158/1
f 52/159/5 49/160/5 67/161/5 68/162/5
f 72/163/2 71/164/2 69/165/2 70/166/2
f 56/167/5 55/107/5 69/110/5 71/168/5
f 41/169/3 44/170/3 72/171/3 70/172/3
f 44/170/6 56/173/6 71/174/6 72/171/6
f 74/175/1 73/176/1 75/177/1 76/178/1
f 43/179/3 42/180/3 73/181/3 74/182/3
f 42/183/4 53/103/4 75/106/4 73/184/4
f 54/185/6 43/179/6 74/182/6 76/186/6
f 78/187/5 77/188/5 79/189/5 80/190/5
f 21/191/2 27/192/2 79/193/2 77/194/2
f 28/195/1 24/68/1 78/71/1 80/196/1
f 27/192/6 28/197/6 80/198/6 79/193/6
