# Blender v2.77 (sub 0) OBJ File: 'fluidpuller.blend'
# www.blender.org
mtllib fluidpuller.mtl
o Cube
v 0.000000 0.000000 0.000000
v 1.000000 0.000000 0.000000
v 1.000000 0.000000 0.062500
v -0.000000 0.000000 0.062500
v 0.000000 1.000000 -0.000000
v 1.000000 1.000000 0.000001
v 1.000000 1.000000 0.062500
v 0.000000 1.000000 0.062500
v 0.875000 0.125000 0.062500
v 0.125000 0.125000 0.062500
v 0.875000 0.875000 0.062500
v 0.125000 0.875000 0.062500
v 0.875000 0.125000 0.312500
v 0.125000 0.125000 0.312500
v 0.875000 0.875000 0.312500
v 0.125000 0.875000 0.312500
v 0.750000 0.250000 0.312500
v 0.250000 0.250000 0.312500
v 0.750000 0.750000 0.312500
v 0.250000 0.750000 0.312500
v 0.750000 0.250000 0.562500
v 0.250000 0.250000 0.562500
v 0.750000 0.750000 0.562500
v 0.250000 0.750000 0.562500
v 0.625000 0.375000 0.562500
v 0.375000 0.375000 0.562500
v 0.625000 0.625000 0.562500
v 0.375000 0.625000 0.562500
v 0.625000 0.375000 1.000000
v 0.375000 0.375000 1.000000
v 0.625000 0.625000 1.000000
v 0.375000 0.625000 1.000000
vt 0.0000 0.7500
vt 0.2500 0.7500
vt 0.2500 0.7656
vt 0.0000 0.7656
vt 0.0000 1.0000
vt 0.0000 0.9844
vt 0.2500 0.9844
vt 0.2500 1.0000
vt 0.0000 0.0000
vt 0.2500 0.0000
vt 0.2500 0.2500
vt 0.0000 0.2500
vt 0.2344 1.0000
vt 0.2344 0.7500
vt 0.5000 0.7500
vt 0.5000 0.5000
vt 0.5312 0.5312
vt 0.5312 0.7188
vt 0.0156 0.7500
vt 0.0156 1.0000
vt 0.0156 0.9688
vt 0.0156 0.7812
vt 0.0781 0.7812
vt 0.0781 0.9688
vt 0.7500 0.5000
vt 0.7188 0.5312
vt 0.7500 0.7500
vt 0.7187 0.7188
vt 0.5312 0.5312
vt 0.7187 0.5312
vt 0.6875 0.5625
vt 0.5625 0.5625
vt 0.0312 0.7656
vt 0.2187 0.7656
vt 0.2187 0.8281
vt 0.0312 0.8281
vt 0.2187 0.9844
vt 0.0312 0.9844
vt 0.0312 0.9219
vt 0.2187 0.9219
vt 0.2344 0.7812
vt 0.2344 0.9688
vt 0.1719 0.9688
vt 0.1719 0.7812
vt 0.1875 0.9219
vt 0.0625 0.9219
vt 0.0625 0.8594
vt 0.1875 0.8594
vt 0.7187 0.7188
vt 0.5312 0.7188
vt 0.5625 0.6875
vt 0.6875 0.6875
vt 0.5625 0.6875
vt 0.5625 0.5625
vt 0.5937 0.5938
vt 0.5938 0.6563
vt 0.1719 0.8125
vt 0.1719 0.9375
vt 0.1094 0.9375
vt 0.1094 0.8125
vt 0.0781 0.9375
vt 0.0781 0.8125
vt 0.1406 0.8125
vt 0.1406 0.9375
vt 0.0625 0.8281
vt 0.1875 0.8281
vt 0.1875 0.8906
vt 0.0625 0.8906
vt 0.1562 0.8594
vt 0.0937 0.8594
vt 0.0937 0.7500
vt 0.1562 0.7500
vt 0.6875 0.5625
vt 0.6562 0.5938
vt 0.6875 0.6875
vt 0.6562 0.6563
vt 0.6562 0.5938
vt 0.6562 0.6563
vt 0.5937 0.6563
vt 0.5937 0.5938
vt 0.1094 0.8438
vt 0.1094 0.9062
vt 0.0000 0.9062
vt 0.0000 0.8437
vt 0.1406 0.9062
vt 0.1406 0.8438
vt 0.2500 0.8437
vt 0.2500 0.9062
vt 0.0937 0.8906
vt 0.1562 0.8906
vt 0.1562 1.0000
vt 0.0937 1.0000
vn 0.0000 -1.0000 0.0000
vn 0.0000 1.0000 0.0000
vn 0.0000 0.0000 -1.0000
vn 1.0000 -0.0000 0.0000
vn -0.0000 -0.0000 1.0000
vn -1.0000 0.0000 -0.0000
usemtl Material
s off
f 1/1/1 2/2/1 3/3/1 4/4/1
f 5/5/2 8/6/2 7/7/2 6/8/2
f 1/9/3 5/10/3 6/11/3 2/12/3
f 2/2/4 6/8/4 7/13/4 3/14/4
f 8/15/5 4/16/5 10/17/5 12/18/5
f 5/5/6 1/1/6 4/19/6 8/20/6
f 12/21/6 10/22/6 14/23/6 16/24/6
f 4/16/5 3/25/5 9/26/5 10/17/5
f 3/25/5 7/27/5 11/28/5 9/26/5
f 7/27/5 8/15/5 12/18/5 11/28/5
f 14/29/5 13/30/5 17/31/5 18/32/5
f 10/33/1 9/34/1 13/35/1 14/36/1
f 11/37/2 12/38/2 16/39/2 15/40/2
f 9/41/4 11/42/4 15/43/4 13/44/4
f 19/45/2 20/46/2 24/47/2 23/48/2
f 15/49/5 16/50/5 20/51/5 19/52/5
f 13/30/5 15/49/5 19/52/5 17/31/5
f 16/50/5 14/29/5 18/32/5 20/51/5
f 24/53/5 22/54/5 26/55/5 28/56/5
f 17/57/4 19/58/4 23/59/4 21/60/4
f 20/61/6 18/62/6 22/63/6 24/64/6
f 18/65/1 17/66/1 21/67/1 22/68/1
f 27/69/2 28/70/2 32/71/2 31/72/2
f 22/54/5 21/73/5 25/74/5 26/55/5
f 23/75/5 24/53/5 28/56/5 27/76/5
f 21/73/5 23/75/5 27/76/5 25/74/5
f 29/77/5 31/78/5 32/79/5 30/80/5
f 25/81/4 27/82/4 31/83/4 29/84/4
f 28/85/6 26/86/6 30/87/6 32/88/6
f 26/89/1 25/90/1 29/91/1 30/92/1
