# Blender v2.77 (sub 0) OBJ File: 'htfurnace.blend'
# www.blender.org
mtllib htfurnace.mtl
o Cube
v 1.000000 0.000000 0.000000
v 1.000000 0.000000 1.000000
v -0.000000 0.000000 1.000000
v 0.000000 0.000000 -0.000000
v 1.000000 0.437500 0.000000
v 1.000000 0.437500 1.000000
v -0.000000 0.437500 1.000000
v 0.000000 0.437500 0.000000
v 1.000000 0.000000 0.937500
v 0.000000 0.000000 0.937500
v 1.000000 0.437500 0.937500
v -0.000000 0.437500 0.937500
v 1.000000 1.000000 0.937500
v 1.000000 1.000000 1.000000
v -0.000000 1.000000 1.000000
v -0.000000 1.000000 0.937500
v 1.000000 0.750000 1.000000
v -0.000000 0.750000 1.000000
v 1.000000 0.750000 0.937500
v -0.000000 0.750000 0.937500
v 0.937500 0.000000 -0.000000
v 0.937500 0.000000 1.000000
v 0.937500 0.437500 0.000000
v 0.937500 0.437500 1.000000
v 0.937500 0.437500 0.937500
v 0.937500 0.000000 0.937500
v 0.937500 1.000000 1.000000
v 0.937500 1.000000 0.937500
v 0.937500 0.750000 0.937500
v 0.937500 0.750000 1.000000
v 0.062500 0.000000 -0.000000
v 0.062500 0.000000 1.000000
v 0.062500 0.437500 0.000000
v 0.062500 0.437500 1.000000
v 0.062500 0.000000 0.937500
v 0.062500 1.000000 1.000000
v 0.062500 0.750000 1.000000
v 0.062500 0.437500 0.937500
v 0.062500 1.000000 0.937500
v 0.062500 0.750000 0.937500
v 0.937500 0.500000 0.000000
v 0.937500 0.437500 0.000000
v 0.937501 1.000000 0.000000
v 1.000001 1.000000 0.000000
v 1.000001 0.750000 0.000000
v 0.000001 0.750000 -0.000000
v 0.937500 0.500000 0.937500
v 0.000001 1.000000 -0.000000
v 0.937501 0.750000 0.000000
v 0.062501 1.000000 0.000000
v 0.062501 0.750000 0.000000
v 0.937500 0.437500 0.937500
v 0.875000 0.500000 0.000000
v 0.875000 0.437500 0.000000
v 0.875000 0.500000 0.937500
v 0.875000 0.437500 0.937500
v 0.875000 0.437500 0.875000
v 0.875000 0.500000 0.875000
v 0.937500 0.500000 0.875000
v 0.937500 0.437500 0.875000
v 0.062500 0.437500 0.875000
v 0.062500 0.437500 0.937500
v 0.062500 0.500000 0.937500
v 0.062500 0.500000 0.875000
v 0.125000 0.500000 0.875000
v 0.125000 0.500000 0.937500
v 0.125000 0.437500 0.875000
v 0.125000 0.437500 0.937500
v 0.062500 0.500000 0.000000
v 0.062500 0.437500 0.000000
v 0.125000 0.500000 0.000000
v 0.125000 0.437500 0.000000
vt 0.0156 0.7656
vt 0.0000 0.7656
vt 0.0000 0.7500
vt 0.0156 0.7500
vt 0.7344 0.6875
vt 0.7500 0.6875
vt 0.7500 0.7500
vt 0.7344 0.7500
vt 0.0156 0.7500
vt 0.0156 0.8594
vt 0.0000 0.8594
vt 0.0000 0.7500
vt 0.5156 0.5000
vt 0.5156 0.6094
vt 0.5000 0.6094
vt 0.5000 0.5000
vt 0.0156 1.0000
vt 0.0156 0.8906
vt 0.2500 0.8906
vt 0.2500 1.0000
vt 0.2344 0.8594
vt 0.2344 0.7500
vt 0.2500 0.7500
vt 0.2500 0.8594
vt 0.0000 1.0000
vt 0.0000 0.8906
vt 0.2500 0.7500
vt 0.2500 0.8594
vt 0.0000 0.0000
vt 0.0000 0.0000
vt 0.0000 0.0000
vt 0.0000 0.0000
vt 0.2500 0.7656
vt 0.0156 0.7656
vt 0.0000 0.7656
vt 0.0000 0.7500
vt 0.0156 0.7500
vt 0.0000 0.9375
vt 0.0156 0.9375
vt 0.0156 1.0000
vt 0.0000 1.0000
vt 0.0156 0.8125
vt 0.0000 0.8125
vt 0.0156 0.7500
vt 0.0156 1.0000
vt 0.0000 1.0000
vt 0.2344 0.7656
vt 0.2500 0.7656
vt 0.2500 1.0000
vt 0.2344 1.0000
vt 0.7344 0.6094
vt 0.7500 0.6094
vt 0.5156 0.6875
vt 0.2500 0.9375
vt 0.2344 0.7500
vt 0.2500 0.7500
vt 0.2500 1.0000
vt 0.0156 1.0000
vt 0.0156 0.9844
vt 0.2500 0.9844
vt 0.0000 0.0000
vt 0.0000 0.0000
vt 0.0000 0.0000
vt 0.0000 0.0000
vt 0.0000 0.8594
vt 0.0000 0.7500
vt 0.0156 0.7500
vt 0.0156 0.8594
vt 0.7500 0.5000
vt 0.7344 0.5000
vt 0.5156 0.7500
vt 0.0000 1.0000
vt 0.0000 0.9844
vt 0.5000 0.6875
vt 0.5000 0.7500
vt 0.2344 0.5000
vt 0.0156 0.5000
vt 0.0156 0.5781
vt 0.2344 0.5781
vt 0.0000 0.0000
vt 0.0000 0.0000
vt 0.0000 0.0000
vt 0.0000 0.0000
vt 0.2344 0.7500
vt 0.0156 0.7500
vt 0.0156 0.5156
vt 0.2344 0.5156
vt 0.2344 0.9375
vt 0.2500 0.9375
vt 0.2500 1.0000
vt 0.2344 1.0000
vt 0.0156 0.9375
vt 0.0000 0.9375
vt 0.0156 1.0000
vt 0.0000 1.0000
vt 0.0156 0.5000
vt 0.0156 0.5781
vt 0.2500 0.5781
vt 0.2500 0.5000
vt 0.2500 0.8125
vt 0.2344 0.5156
vt 0.0156 0.5156
vt 0.0156 0.7500
vt 0.2344 0.7500
vt 0.2500 0.5000
vt 0.2500 0.5781
vt 0.2500 0.7500
vt 0.0000 0.0000
vt 0.0000 0.0000
vt 0.0000 0.0000
vt 0.0000 0.0000
vt 0.2656 0.2656
vt 0.4844 0.2656
vt 0.4844 0.2500
vt 0.2656 0.2500
vt 0.3438 0.3516
vt 0.3594 0.3516
vt 0.3594 0.3359
vt 0.3438 0.3359
vt 0.0000 0.0000
vt 0.4531 0.2656
vt 0.4531 0.4844
vt 0.4375 0.4844
vt 0.4375 0.2656
vt 0.4531 0.2500
vt 0.4375 0.2500
vt 0.0000 0.0000
vt 0.5000 0.2500
vt 0.5000 0.2656
vt 0.4844 0.2656
vt 0.4844 0.2500
vt 0.0000 0.0000
vt 0.0000 0.0000
vt 0.0000 0.0000
vt 0.0000 0.0000
vt 0.0000 0.0000
vt 0.0000 0.0000
vt 0.0000 0.0000
vt 0.0000 0.0000
vt 0.0000 0.0000
vt 0.4531 0.2656
vt 0.4531 0.2500
vt 0.2656 0.2500
vt 0.2656 0.2656
vt 0.2500 0.2656
vt 0.2500 0.2500
vt 0.4062 0.3516
vt 0.4062 0.3359
vt 0.3906 0.3359
vt 0.3906 0.3516
vt 0.5000 0.4844
vt 0.4844 0.4844
vt 0.0000 0.0000
vt 0.4844 0.2500
vt 0.4844 0.2656
vn 0.0000 -1.0000 0.0000
vn -0.0000 0.0000 1.0000
vn 1.0000 0.0000 0.0000
vn -1.0000 -0.0000 -0.0000
vn 0.0000 0.0000 -1.0000
vn 0.0000 1.0000 0.0000
usemtl Material
s off
f 35/1/1 32/2/1 3/3/1 10/4/1
f 30/5/2 17/6/2 14/7/2 27/8/2
f 9/9/3 11/10/3 6/11/3 2/12/3
f 32/13/2 34/14/2 7/15/2 3/16/2
f 10/17/4 12/18/4 8/19/4 4/20/4
f 33/21/5 31/22/5 4/23/5 8/24/5
f 3/25/4 7/26/4 12/18/4 10/17/4
f 1/27/3 5/28/3 11/10/3 9/9/3
f 33/29/6 8/30/6 12/31/6 38/32/6
f 31/33/1 35/1/1 10/4/1 4/23/1
f 39/34/6 16/35/6 15/36/6 36/37/6
f 17/38/3 19/39/3 13/40/3 14/41/3
f 20/42/4 18/43/4 15/36/4 16/44/4
f 16/35/6 39/34/6 50/45/6 48/46/6
f 28/47/6 13/48/6 44/49/6 43/50/6
f 12/18/4 7/26/4 18/43/4 20/42/4
f 6/11/3 11/10/3 19/39/3 17/38/3
f 24/51/2 6/52/2 17/6/2 30/5/2
f 34/14/2 24/51/2 30/5/2 37/53/2
f 39/34/6 28/47/6 43/50/6 50/45/6
f 13/40/3 19/39/3 45/54/3 44/49/3
f 13/48/6 28/47/6 27/55/6 14/56/6
f 1/57/1 9/58/1 26/59/1 21/60/1
f 5/61/6 23/62/6 25/63/6 11/64/6
f 5/65/5 1/66/5 21/67/5 23/68/5
f 2/69/2 6/52/2 24/51/2 22/70/2
f 37/53/2 30/5/2 27/8/2 36/71/2
f 9/58/1 2/72/1 22/73/1 26/59/1
f 18/74/2 37/53/2 36/71/2 15/75/2
f 7/15/2 34/14/2 37/53/2 18/74/2
f 25/76/5 38/77/5 40/78/5 29/79/5
f 47/80/2 55/81/2 56/82/2 52/83/2
f 28/47/6 39/34/6 36/37/6 27/55/6
f 21/60/1 26/59/1 35/1/1 31/33/1
f 23/84/6 33/85/6 38/86/6 25/87/6
f 23/68/5 21/67/5 31/22/5 33/21/5
f 22/70/2 24/51/2 34/14/2 32/13/2
f 26/59/1 22/73/1 32/2/1 35/1/1
f 51/88/5 46/89/5 48/90/5 50/91/5
f 33/21/5 8/24/5 46/89/5 51/88/5
f 5/65/5 23/68/5 49/92/5 45/93/5
f 45/93/5 49/92/5 43/94/5 44/95/5
f 49/92/5 51/88/5 50/91/5 43/94/5
f 25/96/4 29/97/4 49/98/4 23/99/4
f 19/39/3 11/10/3 5/28/3 45/54/3
f 12/18/4 20/42/4 46/100/4 8/19/4
f 29/101/1 40/102/1 51/103/1 49/104/1
f 40/78/3 38/77/3 33/105/3 51/106/3
f 20/42/4 16/44/4 48/107/4 46/100/4
f 57/108/1 54/109/1 42/110/1 60/111/1
f 58/112/4 53/113/4 54/114/4 57/115/4
f 53/116/5 41/117/5 42/118/5 54/119/5
f 59/120/3 47/80/3 52/83/3 60/111/3
f 59/121/6 41/122/6 53/123/6 58/124/6
f 47/125/6 59/121/6 58/124/6 55/126/6
f 41/127/3 59/120/3 60/111/3 42/110/3
f 66/128/6 65/129/6 64/130/6 63/131/6
f 56/82/1 57/108/1 60/111/1 52/83/1
f 63/132/4 64/133/4 61/134/4 62/135/4
f 67/136/1 61/134/1 70/137/1 72/138/1
f 67/136/1 68/139/1 62/135/1 61/134/1
f 68/139/2 66/140/2 63/132/2 62/135/2
f 56/82/2 55/81/2 66/140/2 68/139/2
f 57/108/1 56/82/1 68/139/1 67/136/1
f 58/141/5 57/142/5 67/143/5 65/144/5
f 55/126/6 58/124/6 65/145/6 66/146/6
f 71/147/5 72/148/5 70/149/5 69/150/5
f 64/130/6 65/129/6 71/151/6 69/152/6
f 61/134/4 64/133/4 69/153/4 70/137/4
f 65/144/3 67/143/3 72/154/3 71/155/3
