# Blender v2.78 (sub 0) OBJ File: 'inventorysensor.blend'
# www.blender.org
mtllib inventorysensor.mtl
o Cube
v 0.625000 0.375000 0.000000
v 0.625000 0.375000 1.000000
v 0.375000 0.375000 1.000000
v 0.375000 0.375000 -0.000000
v 0.625000 0.625000 0.000000
v 0.625000 0.625000 1.000000
v 0.375000 0.625000 1.000000
v 0.375000 0.625000 0.000000
v 0.625000 0.375000 0.062500
v 0.375000 0.375000 0.062500
v 0.625000 0.625000 0.062500
v 0.375000 0.625000 0.062500
v 0.750000 0.250000 0.000000
v 0.250000 0.250000 -0.000000
v 0.750000 0.750000 0.000000
v 0.250000 0.250000 0.062500
v 0.250000 0.750000 0.000000
v 0.250000 0.750000 0.062500
v 0.750000 0.250000 0.062500
v 0.750000 0.750000 0.062500
v 0.625000 0.375000 0.937500
v 0.625000 0.625000 0.937500
v 0.375000 0.375000 0.937500
v 0.375000 0.625000 0.937500
v 1.000000 0.000000 0.937500
v 1.000000 0.000000 1.000000
v 0.000000 0.000000 1.000000
v 1.000000 1.000000 1.000000
v -0.000000 1.000000 1.000000
v 1.000000 1.000000 0.937500
v 0.000000 0.000000 0.937500
v -0.000000 1.000000 0.937500
vt 0.9062 0.5938
vt 0.8438 0.5938
vt 0.7500 0.5000
vt 1.0000 0.5000
vt 0.3438 0.4062
vt 0.4062 0.4062
vt 0.5000 0.5000
vt 0.2500 0.5000
vt 0.9062 0.6562
vt 1.0000 0.7500
vt 0.4062 0.3438
vt 0.3438 0.3438
vt 0.1562 0.1562
vt 0.1562 0.0938
vt 0.1875 0.0625
vt 0.1875 0.1875
vt 0.0938 0.1562
vt 0.0938 0.0938
vt 0.2656 0.4141
vt 0.2656 0.4766
vt 0.4844 0.4766
vt 0.4844 0.4141
vt 0.9062 0.6562
vt 0.9062 0.5938
vt 0.9375 0.5625
vt 0.9375 0.6875
vt 0.8438 0.5938
vt 0.8125 0.5625
vt 0.0625 0.1875
vt 0.2031 0.8125
vt 0.2031 0.9375
vt 0.2188 0.9375
vt 0.2188 0.8125
vt 0.2188 0.8125
vt 0.2188 0.9375
vt 0.2031 0.9375
vt 0.2031 0.8125
vt 0.1563 0.8750
vt 0.0313 0.8750
vt 0.0313 0.8594
vt 0.1563 0.8594
vt 0.1563 0.8750
vt 0.1563 0.8594
vt 0.0313 0.8594
vt 0.0313 0.8750
vt 0.0625 0.0625
vt 0.8438 0.6562
vt 0.8125 0.6875
vt 0.2500 0.2500
vt 0.5000 0.2500
vt 0.4844 0.4141
vt 0.4844 0.4766
vt 0.2656 0.4766
vt 0.2656 0.4141
vt 0.4062 0.4766
vt 0.3437 0.4766
vt 0.3437 0.2578
vt 0.4062 0.2578
vt 0.4062 0.4766
vt 0.4062 0.2578
vt 0.3437 0.2578
vt 0.3437 0.4766
vt 0.2500 0.7656
vt 0.2500 0.7500
vt 0.0000 0.7500
vt 0.0000 0.7656
vt 0.2500 0.7656
vt -0.0000 0.7656
vt -0.0000 0.7500
vt 0.2500 0.7500
vt 0.2500 0.7500
vt 0.2500 1.0000
vt 0.2344 1.0000
vt 0.2344 0.7500
vt 0.2344 0.7500
vt 0.2344 1.0000
vt 0.2500 1.0000
vt 0.2500 0.7500
vt 0.8438 0.6562
vt 0.7500 0.7500
vn 0.0000 0.0000 -1.0000
vn -0.0000 -0.0000 1.0000
vn -1.0000 -0.0000 -0.0000
vn 1.0000 0.0000 0.0000
vn 0.0000 1.0000 0.0000
vn 0.0000 -1.0000 0.0000
usemtl Material
s off
f 21/1/1 22/2/1 30/3/1 25/4/1
f 7/5/2 6/6/2 28/7/2 29/8/2
f 23/9/1 21/1/1 25/4/1 31/10/1
f 2/11/2 6/6/2 7/5/2 3/12/2
f 1/13/1 5/14/1 15/15/1 13/16/1
f 5/14/1 1/13/1 4/17/1 8/18/1
f 23/19/3 24/20/3 12/21/3 10/22/3
f 11/23/2 9/24/2 19/25/2 20/26/2
f 9/24/2 10/27/2 16/28/2 19/25/2
f 4/17/1 1/13/1 13/16/1 14/29/1
f 16/30/3 18/31/3 17/32/3 14/33/3
f 13/34/4 15/35/4 20/36/4 19/37/4
f 15/38/5 17/39/5 18/40/5 20/41/5
f 13/42/6 19/43/6 16/44/6 14/45/6
f 5/14/1 8/18/1 17/46/1 15/15/1
f 12/47/2 11/23/2 20/26/2 18/48/2
f 8/18/1 4/17/1 14/29/1 17/46/1
f 10/27/2 12/47/2 18/48/2 16/28/2
f 2/11/2 3/12/2 27/49/2 26/50/2
f 9/51/4 11/52/4 22/53/4 21/54/4
f 11/55/5 12/56/5 24/57/5 22/58/5
f 9/59/6 21/60/6 23/61/6 10/62/6
f 25/63/6 26/64/6 27/65/6 31/66/6
f 30/67/5 32/68/5 29/69/5 28/70/5
f 25/71/4 30/72/4 28/73/4 26/74/4
f 27/75/3 29/76/3 32/77/3 31/78/3
f 3/12/2 7/5/2 29/8/2 27/49/2
f 6/6/2 2/11/2 26/50/2 28/7/2
f 22/2/1 24/79/1 32/80/1 30/3/1
f 24/79/1 23/9/1 31/10/1 32/80/1
