# Blender v2.77 (sub 0) OBJ File: 'magnetizer.blend'
# www.blender.org
mtllib magnetizer.mtl
o Cube.001
v 0.937500 0.125000 0.937500
v 0.937500 1.000000 0.937500
v 0.937500 0.125000 0.875000
v 0.937500 1.000000 0.875000
v 1.000000 0.125000 0.937500
v 1.000000 1.000000 0.937500
v 1.000000 0.125000 0.875000
v 1.000000 1.000000 0.875000
v 0.937500 0.187500 0.937500
v 0.937500 0.187500 0.875000
v 1.000000 0.187500 0.875000
v 1.000000 0.187500 0.937500
v 0.937500 0.125000 0.062500
v 1.000000 0.125000 0.062500
v 0.937500 0.187500 0.062500
v 1.000000 0.187500 0.062500
v 1.000000 0.187500 0.125000
v 0.937500 0.187500 0.125000
v 1.000000 0.125000 0.125000
v 0.937500 0.125000 0.125000
v 0.937500 1.000000 0.062500
v 1.000000 1.000000 0.062500
v 1.000000 1.000000 0.125000
v 0.937500 1.000000 0.125000
v 0.812500 0.125000 0.937500
v 0.812500 1.000000 0.937500
v 0.812500 0.125000 0.875000
v 0.812500 1.000000 0.875000
v 0.875000 0.125000 0.937500
v 0.875000 1.000000 0.937500
v 0.875000 0.125000 0.875000
v 0.875000 1.000000 0.875000
v 0.812500 0.187500 0.937500
v 0.812500 0.187500 0.875000
v 0.875000 0.187500 0.875000
v 0.875000 0.187500 0.937500
v 0.812500 0.125000 0.062500
v 0.875000 0.125000 0.062500
v 0.812500 0.187500 0.062500
v 0.875000 0.187500 0.062500
v 0.875000 0.187500 0.125000
v 0.812500 0.187500 0.125000
v 0.875000 0.125000 0.125000
v 0.812500 0.125000 0.125000
v 0.812500 1.000000 0.062500
v 0.875000 1.000000 0.062500
v 0.875000 1.000000 0.125000
v 0.812500 1.000000 0.125000
v 0.687500 0.125000 0.937500
v 0.687500 1.000000 0.937500
v 0.687500 0.125000 0.875000
v 0.687500 1.000000 0.875000
v 0.750000 0.125000 0.937500
v 0.750000 1.000000 0.937500
v 0.750000 0.125000 0.875000
v 0.750000 1.000000 0.875000
v 0.687500 0.187500 0.937500
v 0.687500 0.187500 0.875000
v 0.750000 0.187500 0.875000
v 0.750000 0.187500 0.937500
v 0.687500 0.125000 0.062500
v 0.750000 0.125000 0.062500
v 0.687500 0.187500 0.062500
v 0.750000 0.187500 0.062500
v 0.750000 0.187500 0.125000
v 0.687500 0.187500 0.125000
v 0.750000 0.125000 0.125000
v 0.687500 0.125000 0.125000
v 0.687500 1.000000 0.062500
v 0.750000 1.000000 0.062500
v 0.750000 1.000000 0.125000
v 0.687500 1.000000 0.125000
v 0.562500 0.125000 0.937500
v 0.562500 1.000000 0.937500
v 0.562500 0.125000 0.875000
v 0.562500 1.000000 0.875000
v 0.625000 0.125000 0.937500
v 0.625000 1.000000 0.937500
v 0.625000 0.125000 0.875000
v 0.625000 1.000000 0.875000
v 0.562500 0.187500 0.937500
v 0.562500 0.187500 0.875000
v 0.625000 0.187500 0.875000
v 0.625000 0.187500 0.937500
v 0.562500 0.125000 0.062500
v 0.625000 0.125000 0.062500
v 0.562500 0.187500 0.062500
v 0.625000 0.187500 0.062500
v 0.625000 0.187500 0.125000
v 0.562500 0.187500 0.125000
v 0.625000 0.125000 0.125000
v 0.562500 0.125000 0.125000
v 0.562500 1.000000 0.062500
v 0.625000 1.000000 0.062500
v 0.625000 1.000000 0.125000
v 0.562500 1.000000 0.125000
v 0.437500 0.125000 0.937500
v 0.437500 1.000000 0.937500
v 0.437500 0.125000 0.875000
v 0.437500 1.000000 0.875000
v 0.500000 0.125000 0.937500
v 0.500000 1.000000 0.937500
v 0.500000 0.125000 0.875000
v 0.500000 1.000000 0.875000
v 0.437500 0.187500 0.937500
v 0.437500 0.187500 0.875000
v 0.500000 0.187500 0.875000
v 0.500000 0.187500 0.937500
v 0.437500 0.125000 0.062500
v 0.500000 0.125000 0.062500
v 0.437500 0.187500 0.062500
v 0.500000 0.187500 0.062500
v 0.500000 0.187500 0.125000
v 0.437500 0.187500 0.125000
v 0.500000 0.125000 0.125000
v 0.437500 0.125000 0.125000
v 0.437500 1.000000 0.062500
v 0.500000 1.000000 0.062500
v 0.500000 1.000000 0.125000
v 0.437500 1.000000 0.125000
v 0.312500 0.125000 0.937500
v 0.312500 1.000000 0.937500
v 0.312500 0.125000 0.875000
v 0.312500 1.000000 0.875000
v 0.375000 0.125000 0.937500
v 0.375000 1.000000 0.937500
v 0.375000 0.125000 0.875000
v 0.375000 1.000000 0.875000
v 0.312500 0.187500 0.937500
v 0.312500 0.187500 0.875000
v 0.375000 0.187500 0.875000
v 0.375000 0.187500 0.937500
v 0.312500 0.125000 0.062500
v 0.375000 0.125000 0.062500
v 0.312500 0.187500 0.062500
v 0.375000 0.187500 0.062500
v 0.375000 0.187500 0.125000
v 0.312500 0.187500 0.125000
v 0.375000 0.125000 0.125000
v 0.312500 0.125000 0.125000
v 0.312500 1.000000 0.062500
v 0.375000 1.000000 0.062500
v 0.375000 1.000000 0.125000
v 0.312500 1.000000 0.125000
v 0.187500 0.125000 0.937500
v 0.187500 1.000000 0.937500
v 0.187500 0.125000 0.875000
v 0.187500 1.000000 0.875000
v 0.250000 0.125000 0.937500
v 0.250000 1.000000 0.937500
v 0.250000 0.125000 0.875000
v 0.250000 1.000000 0.875000
v 0.187500 0.187500 0.937500
v 0.187500 0.187500 0.875000
v 0.250000 0.187500 0.875000
v 0.250000 0.187500 0.937500
v 0.187500 0.125000 0.062500
v 0.250000 0.125000 0.062500
v 0.187500 0.187500 0.062500
v 0.250000 0.187500 0.062500
v 0.250000 0.187500 0.125000
v 0.187500 0.187500 0.125000
v 0.250000 0.125000 0.125000
v 0.187500 0.125000 0.125000
v 0.187500 1.000000 0.062500
v 0.250000 1.000000 0.062500
v 0.250000 1.000000 0.125000
v 0.187500 1.000000 0.125000
v 0.062500 0.125000 0.937500
v 0.062500 1.000000 0.937500
v 0.062500 0.125000 0.875000
v 0.062500 1.000000 0.875000
v 0.125000 0.125000 0.937500
v 0.125000 1.000000 0.937500
v 0.125000 0.125000 0.875000
v 0.125000 1.000000 0.875000
v 0.062500 0.187500 0.937500
v 0.062500 0.187500 0.875000
v 0.125000 0.187500 0.875000
v 0.125000 0.187500 0.937500
v 0.062500 0.125000 0.062500
v 0.125000 0.125000 0.062500
v 0.062500 0.187500 0.062500
v 0.125000 0.187500 0.062500
v 0.125000 0.187500 0.125000
v 0.062500 0.187500 0.125000
v 0.125000 0.125000 0.125000
v 0.062500 0.125000 0.125000
v 0.062500 1.000000 0.062500
v 0.125000 1.000000 0.062500
v 0.125000 1.000000 0.125000
v 0.062500 1.000000 0.125000
v 1.000000 0.000000 0.000000
v 1.000000 0.000000 1.000000
v -0.000000 0.000000 1.000000
v 0.000000 0.000000 -0.000000
v 1.000000 1.000000 0.000000
v 1.000000 1.000000 1.000000
v -0.000000 1.000000 1.000000
v 0.000000 1.000000 0.000000
v 1.000000 0.000000 0.062500
v 0.000000 0.000000 0.062500
v 1.000000 1.000000 0.062500
v -0.000000 1.000000 0.062500
v 1.000000 0.000000 0.937500
v 1.000000 1.000000 0.937500
v 0.000000 0.000000 0.937500
v -0.000000 1.000000 0.937500
v 1.000000 0.125000 0.062500
v -0.000000 0.125000 0.062500
v 1.000000 0.125000 0.937500
v -0.000000 0.125000 0.937500
v 1.000000 0.125000 0.000000
v 0.000000 0.125000 -0.000000
v 1.000000 0.125000 1.000000
v -0.000000 0.125000 1.000000
vt 0.2812 0.2969
vt 0.2969 0.2969
vt 0.2969 0.2812
vt 0.2812 0.2812
vt 0.5000 0.2969
vt 0.4844 0.2969
vt 0.4844 0.5000
vt 0.5000 0.5000
vt 0.2969 0.2969
vt 0.2812 0.2969
vt 0.2812 0.2812
vt 0.2969 0.2812
vt 0.2656 0.2969
vt 0.2500 0.2969
vt 0.2500 0.2812
vt 0.2656 0.2812
vt 0.4844 0.2656
vt 0.4844 0.2812
vt 0.5000 0.2812
vt 0.5000 0.2656
vt 0.2656 0.2656
vt 0.2656 0.2812
vt 0.2500 0.2812
vt 0.2500 0.2656
vt 0.2656 0.5000
vt 0.2500 0.5000
vt 0.2969 0.5000
vt 0.2812 0.5000
vt 0.4844 0.4844
vt 0.5000 0.4844
vt 0.5000 0.2812
vt 0.4844 0.2812
vt 0.2812 0.5000
vt 0.2969 0.5000
vt 0.4844 0.2969
vt 0.5000 0.2969
vt 0.5000 0.2812
vt 0.4844 0.2812
vt 0.4844 0.2969
vt 0.4844 0.2812
vt 0.2656 0.4688
vt 0.2500 0.4688
vt 0.2500 0.4844
vt 0.2656 0.4844
vt 0.4844 0.2812
vt 0.5000 0.2812
vt 0.2656 0.2812
vt 0.2500 0.2812
vt 0.4844 0.2969
vt 0.5000 0.2969
vt 0.5000 0.4844
vt 0.4844 0.4844
vt 0.4844 0.4688
vt 0.5000 0.4688
vt 0.5000 0.4844
vt 0.4844 0.4844
vt 0.2656 0.2969
vt 0.2500 0.2969
vt 0.2500 0.5000
vt 0.2656 0.5000
vt 0.5000 0.5000
vt 0.4844 0.5000
vt 0.5000 0.2969
vt 0.5000 0.5000
vt 0.2812 0.2969
vt 0.2969 0.2969
vt 0.2969 0.2812
vt 0.2812 0.2812
vt 0.5000 0.2969
vt 0.4844 0.2969
vt 0.4844 0.5000
vt 0.5000 0.5000
vt 0.2969 0.2969
vt 0.2812 0.2969
vt 0.2812 0.2812
vt 0.2969 0.2812
vt 0.4688 0.2969
vt 0.4531 0.2969
vt 0.4531 0.2812
vt 0.4688 0.2812
vt 0.4531 0.2969
vt 0.4688 0.2969
vt 0.4688 0.2656
vt 0.4688 0.2812
vt 0.4531 0.2812
vt 0.4531 0.2656
vt 0.4688 0.4844
vt 0.4531 0.4844
vt 0.4531 0.2812
vt 0.4688 0.2812
vt 0.2969 0.5000
vt 0.2812 0.5000
vt 0.4531 0.5000
vt 0.4688 0.5000
vt 0.4688 0.2969
vt 0.4531 0.2969
vt 0.2812 0.5000
vt 0.2969 0.5000
vt 0.4531 0.2969
vt 0.4688 0.2969
vt 0.4688 0.2812
vt 0.4531 0.2812
vt 0.4844 0.2969
vt 0.4844 0.2812
vt 0.5000 0.2812
vt 0.5000 0.2969
vt 0.4688 0.4844
vt 0.4531 0.4844
vt 0.4531 0.5000
vt 0.4688 0.5000
vt 0.4844 0.2812
vt 0.5000 0.2812
vt 0.4531 0.2812
vt 0.4688 0.2812
vt 0.4688 0.4688
vt 0.4531 0.4688
vt 0.4531 0.4688
vt 0.4688 0.4688
vt 0.4688 0.4844
vt 0.4531 0.4844
vt 0.4531 0.5000
vt 0.4688 0.5000
vt 0.5000 0.5000
vt 0.4844 0.5000
vt 0.4531 0.2969
vt 0.4688 0.2969
vt 0.4688 0.5000
vt 0.4531 0.5000
vt 0.2812 0.2969
vt 0.2969 0.2969
vt 0.2969 0.2812
vt 0.2812 0.2812
vt 0.5000 0.2969
vt 0.4844 0.2969
vt 0.4844 0.5000
vt 0.5000 0.5000
vt 0.2969 0.2969
vt 0.2812 0.2969
vt 0.2812 0.2812
vt 0.2969 0.2812
vt 0.4375 0.2969
vt 0.4219 0.2969
vt 0.4219 0.2812
vt 0.4375 0.2812
vt 0.4219 0.2656
vt 0.4219 0.2812
vt 0.4375 0.2812
vt 0.4375 0.2656
vt 0.4375 0.2656
vt 0.4375 0.2812
vt 0.4219 0.2812
vt 0.4219 0.2656
vt 0.4375 0.5000
vt 0.4219 0.5000
vt 0.2969 0.5000
vt 0.2812 0.5000
vt 0.4219 0.4844
vt 0.4375 0.4844
vt 0.4375 0.2812
vt 0.4219 0.2812
vt 0.2812 0.5000
vt 0.2969 0.5000
vt 0.4219 0.2969
vt 0.4375 0.2969
vt 0.4375 0.2812
vt 0.4219 0.2812
vt 0.4844 0.2969
vt 0.4844 0.2812
vt 0.5000 0.2812
vt 0.5000 0.2969
vt 0.4375 0.4688
vt 0.4219 0.4688
vt 0.4219 0.4844
vt 0.4375 0.4844
vt 0.4844 0.2812
vt 0.5000 0.2812
vt 0.4219 0.2969
vt 0.4375 0.2969
vt 0.4375 0.4844
vt 0.4219 0.4844
vt 0.4219 0.4688
vt 0.4375 0.4688
vt 0.4375 0.4844
vt 0.4219 0.4844
vt 0.4219 0.5000
vt 0.4375 0.5000
vt 0.5000 0.5000
vt 0.4844 0.5000
vt 0.4219 0.2969
vt 0.4375 0.2969
vt 0.4375 0.5000
vt 0.4219 0.5000
vt 0.2812 0.2969
vt 0.2969 0.2969
vt 0.2969 0.2812
vt 0.2812 0.2812
vt 0.5000 0.2969
vt 0.4844 0.2969
vt 0.4844 0.5000
vt 0.5000 0.5000
vt 0.2969 0.2969
vt 0.2812 0.2969
vt 0.2812 0.2812
vt 0.2969 0.2812
vt 0.4062 0.2969
vt 0.3906 0.2969
vt 0.3906 0.2812
vt 0.4062 0.2812
vt 0.3906 0.2969
vt 0.4062 0.2969
vt 0.4062 0.2656
vt 0.4062 0.2812
vt 0.3906 0.2812
vt 0.3906 0.2656
vt 0.4062 0.5000
vt 0.3906 0.5000
vt 0.2969 0.5000
vt 0.2812 0.5000
vt 0.3906 0.4844
vt 0.4062 0.4844
vt 0.4062 0.2812
vt 0.3906 0.2812
vt 0.2812 0.5000
vt 0.2969 0.5000
vt 0.3906 0.2969
vt 0.4062 0.2969
vt 0.4062 0.2812
vt 0.3906 0.2812
vt 0.4844 0.2969
vt 0.4844 0.2812
vt 0.5000 0.2812
vt 0.5000 0.2969
vt 0.4062 0.4844
vt 0.3906 0.4844
vt 0.3906 0.5000
vt 0.4062 0.5000
vt 0.4844 0.2812
vt 0.5000 0.2812
vt 0.4062 0.4688
vt 0.3906 0.4688
vt 0.3906 0.4688
vt 0.4062 0.4688
vt 0.4062 0.4844
vt 0.3906 0.4844
vt 0.3906 0.5000
vt 0.4062 0.5000
vt 0.5000 0.5000
vt 0.4844 0.5000
vt 0.3906 0.2969
vt 0.4062 0.2969
vt 0.4062 0.5000
vt 0.3906 0.5000
vt 0.2812 0.2969
vt 0.2969 0.2969
vt 0.2969 0.2812
vt 0.2812 0.2812
vt 0.5000 0.2969
vt 0.4844 0.2969
vt 0.4844 0.5000
vt 0.5000 0.5000
vt 0.2969 0.2969
vt 0.2812 0.2969
vt 0.2812 0.2812
vt 0.2969 0.2812
vt 0.3750 0.2969
vt 0.3594 0.2969
vt 0.3594 0.2812
vt 0.3750 0.2812
vt 0.3594 0.2656
vt 0.3594 0.2812
vt 0.3750 0.2812
vt 0.3750 0.2656
vt 0.3750 0.2656
vt 0.3750 0.2812
vt 0.3594 0.2812
vt 0.3594 0.2656
vt 0.3750 0.4844
vt 0.3594 0.4844
vt 0.3594 0.2812
vt 0.3750 0.2812
vt 0.2969 0.5000
vt 0.2812 0.5000
vt 0.3594 0.5000
vt 0.3750 0.5000
vt 0.3750 0.2969
vt 0.3594 0.2969
vt 0.2812 0.5000
vt 0.2969 0.5000
vt 0.3594 0.2969
vt 0.3750 0.2969
vt 0.3750 0.2812
vt 0.3594 0.2812
vt 0.4844 0.2969
vt 0.4844 0.2812
vt 0.5000 0.2812
vt 0.5000 0.2969
vt 0.3750 0.4688
vt 0.3594 0.4688
vt 0.3594 0.4844
vt 0.3750 0.4844
vt 0.4844 0.2812
vt 0.5000 0.2812
vt 0.3750 0.4844
vt 0.3594 0.4844
vt 0.3594 0.4688
vt 0.3750 0.4688
vt 0.3750 0.4844
vt 0.3594 0.4844
vt 0.3594 0.5000
vt 0.3750 0.5000
vt 0.5000 0.5000
vt 0.4844 0.5000
vt 0.3594 0.2969
vt 0.3750 0.2969
vt 0.3750 0.5000
vt 0.3594 0.5000
vt 0.2812 0.2969
vt 0.2969 0.2969
vt 0.2969 0.2812
vt 0.2812 0.2812
vt 0.5000 0.2969
vt 0.4844 0.2969
vt 0.4844 0.5000
vt 0.5000 0.5000
vt 0.2969 0.2969
vt 0.2812 0.2969
vt 0.2812 0.2812
vt 0.2969 0.2812
vt 0.3438 0.2969
vt 0.3281 0.2969
vt 0.3281 0.2812
vt 0.3438 0.2812
vt 0.3281 0.2656
vt 0.3281 0.2812
vt 0.3438 0.2812
vt 0.3438 0.2656
vt 0.3438 0.2812
vt 0.3438 0.2969
vt 0.3281 0.2969
vt 0.3281 0.2812
vt 0.3438 0.4844
vt 0.3281 0.4844
vt 0.3281 0.2812
vt 0.3438 0.2812
vt 0.2969 0.5000
vt 0.2812 0.5000
vt 0.3281 0.5000
vt 0.3438 0.5000
vt 0.3438 0.2969
vt 0.3281 0.2969
vt 0.2812 0.5000
vt 0.2969 0.5000
vt 0.3281 0.2969
vt 0.3438 0.2969
vt 0.3438 0.2812
vt 0.3281 0.2812
vt 0.4844 0.2969
vt 0.4844 0.2812
vt 0.5000 0.2812
vt 0.5000 0.2969
vt 0.3438 0.4688
vt 0.3281 0.4688
vt 0.3281 0.4844
vt 0.3438 0.4844
vt 0.4844 0.2812
vt 0.5000 0.2812
vt 0.3281 0.2812
vt 0.3438 0.2812
vt 0.3438 0.4688
vt 0.3281 0.4688
vt 0.3281 0.4844
vt 0.3438 0.4844
vt 0.3438 0.5000
vt 0.3281 0.5000
vt 0.5000 0.5000
vt 0.4844 0.5000
vt 0.3281 0.2969
vt 0.3438 0.2969
vt 0.3438 0.5000
vt 0.3281 0.5000
vt 0.2812 0.2969
vt 0.2969 0.2969
vt 0.2969 0.2812
vt 0.2812 0.2812
vt 0.5000 0.2969
vt 0.4844 0.2969
vt 0.4844 0.5000
vt 0.5000 0.5000
vt 0.2969 0.2969
vt 0.2812 0.2969
vt 0.2812 0.2812
vt 0.2969 0.2812
vt 0.3125 0.2969
vt 0.2969 0.2969
vt 0.2969 0.2812
vt 0.3125 0.2812
vt 0.2969 0.2656
vt 0.3125 0.2812
vt 0.3125 0.2656
vt 0.3125 0.2656
vt 0.3125 0.2812
vt 0.2969 0.2812
vt 0.2969 0.2656
vt 0.3125 0.4844
vt 0.2969 0.4844
vt 0.2969 0.2812
vt 0.3125 0.2812
vt 0.2969 0.5000
vt 0.2812 0.5000
vt 0.2969 0.5000
vt 0.3125 0.5000
vt 0.3125 0.2969
vt 0.2812 0.5000
vt 0.2969 0.2969
vt 0.3125 0.2969
vt 0.3125 0.2812
vt 0.2969 0.2812
vt 0.4844 0.2969
vt 0.4844 0.2812
vt 0.5000 0.2812
vt 0.5000 0.2969
vt 0.3125 0.4688
vt 0.2969 0.4688
vt 0.2969 0.4844
vt 0.3125 0.4844
vt 0.4844 0.2812
vt 0.5000 0.2812
vt 0.3125 0.4844
vt 0.2969 0.4844
vt 0.2969 0.4688
vt 0.3125 0.4688
vt 0.3125 0.4844
vt 0.2969 0.4844
vt 0.2969 0.5000
vt 0.3125 0.5000
vt 0.5000 0.5000
vt 0.4844 0.5000
vt 0.2969 0.2969
vt 0.3125 0.2969
vt 0.3125 0.5000
vt 0.2969 0.5000
vt 0.2812 0.2969
vt 0.2969 0.2969
vt 0.2969 0.2812
vt 0.2812 0.2812
vt 0.5000 0.2969
vt 0.4844 0.2969
vt 0.4844 0.5000
vt 0.5000 0.5000
vt 0.2969 0.2969
vt 0.2812 0.2969
vt 0.2812 0.2812
vt 0.2969 0.2812
vt 0.2656 0.2969
vt 0.2656 0.2812
vt 0.2656 0.2969
vt 0.2812 0.2969
vt 0.2812 0.2656
vt 0.2812 0.2812
vt 0.2656 0.2812
vt 0.2656 0.2656
vt 0.2812 0.4844
vt 0.2656 0.4844
vt 0.2656 0.2812
vt 0.2812 0.2812
vt 0.2969 0.5000
vt 0.2812 0.5000
vt 0.2656 0.5000
vt 0.2812 0.5000
vt 0.2812 0.2969
vt 0.2656 0.2969
vt 0.2812 0.5000
vt 0.2969 0.5000
vt 0.2656 0.2969
vt 0.2812 0.2969
vt 0.2812 0.2812
vt 0.2656 0.2812
vt 0.4844 0.2969
vt 0.4844 0.2812
vt 0.5000 0.2812
vt 0.5000 0.2969
vt 0.2812 0.4844
vt 0.2656 0.4844
vt 0.2656 0.5000
vt 0.2812 0.5000
vt 0.4844 0.2812
vt 0.5000 0.2812
vt 0.2656 0.2812
vt 0.2812 0.2812
vt 0.2812 0.4688
vt 0.2656 0.4688
vt 0.2656 0.4688
vt 0.2812 0.4688
vt 0.2812 0.4844
vt 0.2656 0.4844
vt 0.2656 0.5000
vt 0.2812 0.5000
vt 0.5000 0.5000
vt 0.4844 0.5000
vt 0.2656 0.2969
vt 0.2812 0.2969
vt 0.2812 0.5000
vt 0.2656 0.5000
vt 0.2656 0.2500
vt 0.2500 0.2500
vt 0.2500 0.0000
vt 0.2656 0.0000
vt 0.2500 0.5156
vt -0.0000 0.5156
vt -0.0000 0.5000
vt 0.2500 0.5000
vt 0.0156 0.5313
vt 0.0156 0.7500
vt 0.0000 0.7500
vt 0.0000 0.5313
vt 0.5000 0.0313
vt 0.5000 0.2500
vt 0.2500 0.2500
vt 0.2500 0.0313
vt 0.0156 0.5313
vt 0.0156 0.7500
vt 0.0000 0.7500
vt 0.0000 0.5313
vt 0.5000 0.2187
vt 0.5000 0.2500
vt 0.2500 0.2500
vt 0.2500 0.2187
vt 0.5000 0.0000
vt 0.2500 0.0000
vt 0.2500 0.5313
vt 0.2500 0.7500
vt 0.2344 0.7500
vt 0.2344 0.5313
vt -0.0000 0.7344
vt 0.2500 0.7344
vt 0.4844 0.2500
vt 0.4844 0.0000
vt 0.5000 0.0000
vt 0.2500 0.5313
vt 0.2500 0.7500
vt 0.2344 0.7500
vt 0.2344 0.5313
vt 0.0156 0.5000
vt 0.2344 0.5000
vt 0.2500 1.0000
vt 0.0000 1.0000
vt 0.0000 0.7812
vt 0.2500 0.7812
vt 0.2344 0.7500
vt 0.2344 1.0000
vt 0.0156 1.0000
vt 0.0156 0.7500
vt 0.2500 0.5000
vt 0.2344 0.5000
vt 0.0000 0.5000
vt -0.0000 1.0000
vt 0.2500 1.0000
vt 0.2500 0.7812
vt -0.0000 0.7812
vt 0.2500 0.5000
vt 0.5000 0.0000
vt 0.0156 0.5000
vt 0.0000 0.5000
vn -1.0000 0.0000 0.0000
vn 1.0000 0.0000 0.0000
vn 0.0000 0.0000 1.0000
vn 0.0000 -1.0000 0.0000
vn 0.0000 1.0000 0.0000
vn 0.0000 0.0000 -1.0000
usemtl Material
s off
f 9/1/1 10/2/1 3/3/1 1/4/1
f 15/5/1 18/6/1 24/7/1 21/8/1
f 11/9/2 12/10/2 5/11/2 7/12/2
f 12/13/3 9/14/3 1/15/3 5/16/3
f 1/17/4 3/18/4 7/19/4 5/20/4
f 6/21/5 8/22/5 4/23/5 2/24/5
f 6/25/3 2/26/3 9/14/3 12/13/3
f 8/27/2 6/28/2 12/10/2 11/9/2
f 4/29/6 8/30/6 11/31/6 10/32/6
f 2/33/1 4/34/1 10/2/1 9/1/1
f 15/35/6 16/36/6 14/37/6 13/38/6
f 17/39/2 19/40/2 14/37/2 16/36/2
f 19/41/4 20/42/4 13/43/4 14/44/4
f 20/45/1 18/6/1 15/5/1 13/46/1
f 3/3/1 10/2/1 18/6/1 20/45/1
f 7/47/4 3/48/4 20/42/4 19/41/4
f 11/9/2 7/12/2 19/40/2 17/39/2
f 10/49/5 11/50/5 17/51/5 18/52/5
f 24/53/5 23/54/5 22/55/5 21/56/5
f 16/57/6 15/58/6 21/59/6 22/60/6
f 17/39/2 16/36/2 22/61/2 23/62/2
f 18/6/3 17/63/3 23/64/3 24/7/3
f 33/65/1 34/66/1 27/67/1 25/68/1
f 39/69/1 42/70/1 48/71/1 45/72/1
f 35/73/2 36/74/2 29/75/2 31/76/2
f 36/77/3 33/78/3 25/79/3 29/80/3
f 25/79/4 27/81/4 31/82/4 29/80/4
f 30/83/5 32/84/5 28/85/5 26/86/5
f 30/87/3 26/88/3 33/89/3 36/90/3
f 32/91/2 30/92/2 36/74/2 35/73/2
f 28/93/6 32/94/6 35/95/6 34/96/6
f 26/97/1 28/98/1 34/66/1 33/65/1
f 39/99/6 40/100/6 38/101/6 37/102/6
f 41/103/2 43/104/2 38/105/2 40/106/2
f 43/107/4 44/108/4 37/109/4 38/110/4
f 44/111/1 42/70/1 39/69/1 37/112/1
f 27/67/1 34/66/1 42/70/1 44/111/1
f 31/82/4 27/81/4 44/108/4 43/107/4
f 35/73/2 31/76/2 43/104/2 41/103/2
f 34/113/5 35/114/5 41/115/5 42/116/5
f 48/117/5 47/118/5 46/119/5 45/120/5
f 40/100/6 39/99/6 45/121/6 46/122/6
f 41/103/2 40/106/2 46/123/2 47/124/2
f 42/125/3 41/126/3 47/127/3 48/128/3
f 57/129/1 58/130/1 51/131/1 49/132/1
f 63/133/1 66/134/1 72/135/1 69/136/1
f 59/137/2 60/138/2 53/139/2 55/140/2
f 60/141/3 57/142/3 49/143/3 53/144/3
f 49/145/4 51/146/4 55/147/4 53/148/4
f 54/149/5 56/150/5 52/151/5 50/152/5
f 54/153/3 50/154/3 57/142/3 60/141/3
f 56/155/2 54/156/2 60/138/2 59/137/2
f 52/157/6 56/158/6 59/159/6 58/160/6
f 50/161/1 52/162/1 58/130/1 57/129/1
f 63/163/6 64/164/6 62/165/6 61/166/6
f 65/167/2 67/168/2 62/169/2 64/170/2
f 67/171/4 68/172/4 61/173/4 62/174/4
f 68/175/1 66/134/1 63/133/1 61/176/1
f 51/131/1 58/130/1 66/134/1 68/175/1
f 55/147/4 51/146/4 68/172/4 67/171/4
f 59/137/2 55/140/2 67/168/2 65/167/2
f 58/177/5 59/178/5 65/179/5 66/180/5
f 72/181/5 71/182/5 70/183/5 69/184/5
f 64/164/6 63/163/6 69/185/6 70/186/6
f 65/167/2 64/170/2 70/187/2 71/188/2
f 66/189/3 65/190/3 71/191/3 72/192/3
f 81/193/1 82/194/1 75/195/1 73/196/1
f 87/197/1 90/198/1 96/199/1 93/200/1
f 83/201/2 84/202/2 77/203/2 79/204/2
f 84/205/3 81/206/3 73/207/3 77/208/3
f 73/207/4 75/209/4 79/210/4 77/208/4
f 78/211/5 80/212/5 76/213/5 74/214/5
f 78/215/3 74/216/3 81/206/3 84/205/3
f 80/217/2 78/218/2 84/202/2 83/201/2
f 76/219/6 80/220/6 83/221/6 82/222/6
f 74/223/1 76/224/1 82/194/1 81/193/1
f 87/225/6 88/226/6 86/227/6 85/228/6
f 89/229/2 91/230/2 86/231/2 88/232/2
f 91/233/4 92/234/4 85/235/4 86/236/4
f 92/237/1 90/198/1 87/197/1 85/238/1
f 75/195/1 82/194/1 90/198/1 92/237/1
f 79/210/4 75/209/4 92/234/4 91/233/4
f 83/201/2 79/204/2 91/230/2 89/229/2
f 82/222/5 83/221/5 89/239/5 90/240/5
f 96/241/5 95/242/5 94/243/5 93/244/5
f 88/226/6 87/225/6 93/245/6 94/246/6
f 89/229/2 88/232/2 94/247/2 95/248/2
f 90/249/3 89/250/3 95/251/3 96/252/3
f 105/253/1 106/254/1 99/255/1 97/256/1
f 111/257/1 114/258/1 120/259/1 117/260/1
f 107/261/2 108/262/2 101/263/2 103/264/2
f 108/265/3 105/266/3 97/267/3 101/268/3
f 97/269/4 99/270/4 103/271/4 101/272/4
f 102/273/5 104/274/5 100/275/5 98/276/5
f 102/277/3 98/278/3 105/279/3 108/280/3
f 104/281/2 102/282/2 108/262/2 107/261/2
f 100/283/6 104/284/6 107/285/6 106/286/6
f 98/287/1 100/288/1 106/254/1 105/253/1
f 111/289/6 112/290/6 110/291/6 109/292/6
f 113/293/2 115/294/2 110/295/2 112/296/2
f 115/297/4 116/298/4 109/299/4 110/300/4
f 116/301/1 114/258/1 111/257/1 109/302/1
f 99/255/1 106/254/1 114/258/1 116/301/1
f 103/271/4 99/270/4 116/298/4 115/297/4
f 107/261/2 103/264/2 115/294/2 113/293/2
f 106/286/5 107/285/5 113/303/5 114/304/5
f 120/305/5 119/306/5 118/307/5 117/308/5
f 112/290/6 111/289/6 117/309/6 118/310/6
f 113/293/2 112/296/2 118/311/2 119/312/2
f 114/313/3 113/314/3 119/315/3 120/316/3
f 129/317/1 130/318/1 123/319/1 121/320/1
f 135/321/1 138/322/1 144/323/1 141/324/1
f 131/325/2 132/326/2 125/327/2 127/328/2
f 132/329/3 129/330/3 121/331/3 125/332/3
f 121/333/4 123/334/4 127/335/4 125/336/4
f 126/337/5 128/338/5 124/339/5 122/340/5
f 126/341/3 122/342/3 129/343/3 132/344/3
f 128/345/2 126/346/2 132/326/2 131/325/2
f 124/347/6 128/348/6 131/349/6 130/350/6
f 122/351/1 124/352/1 130/318/1 129/317/1
f 135/353/6 136/354/6 134/355/6 133/356/6
f 137/357/2 139/358/2 134/359/2 136/360/2
f 139/361/4 140/362/4 133/363/4 134/364/4
f 140/365/1 138/322/1 135/321/1 133/366/1
f 123/319/1 130/318/1 138/322/1 140/365/1
f 127/335/4 123/334/4 140/362/4 139/361/4
f 131/325/2 127/328/2 139/358/2 137/357/2
f 130/367/5 131/368/5 137/369/5 138/370/5
f 144/371/5 143/372/5 142/373/5 141/374/5
f 136/354/6 135/353/6 141/374/6 142/373/6
f 137/357/2 136/360/2 142/375/2 143/376/2
f 138/377/3 137/378/3 143/379/3 144/380/3
f 153/381/1 154/382/1 147/383/1 145/384/1
f 159/385/1 162/386/1 168/387/1 165/388/1
f 155/389/2 156/390/2 149/391/2 151/392/2
f 156/393/3 153/394/3 145/395/3 149/396/3
f 145/397/4 147/383/4 151/398/4 149/399/4
f 150/400/5 152/401/5 148/402/5 146/403/5
f 150/404/3 146/405/3 153/406/3 156/407/3
f 152/408/2 150/409/2 156/390/2 155/389/2
f 148/410/6 152/411/6 155/412/6 154/382/6
f 146/413/1 148/410/1 154/382/1 153/381/1
f 159/414/6 160/415/6 158/416/6 157/417/6
f 161/418/2 163/419/2 158/420/2 160/421/2
f 163/422/4 164/423/4 157/424/4 158/425/4
f 164/426/1 162/386/1 159/385/1 157/427/1
f 147/383/1 154/382/1 162/386/1 164/426/1
f 151/398/4 147/383/4 164/423/4 163/422/4
f 155/389/2 151/392/2 163/419/2 161/418/2
f 154/382/5 155/412/5 161/428/5 162/429/5
f 168/430/5 167/431/5 166/432/5 165/433/5
f 160/415/6 159/414/6 165/434/6 166/435/6
f 161/418/2 160/421/2 166/436/2 167/437/2
f 162/438/3 161/439/3 167/440/3 168/441/3
f 177/442/1 178/443/1 171/444/1 169/445/1
f 183/446/1 186/447/1 192/448/1 189/449/1
f 179/450/2 180/451/2 173/452/2 175/453/2
f 180/451/3 177/454/3 169/455/3 173/452/3
f 169/455/4 171/456/4 175/457/4 173/452/4
f 174/458/5 176/459/5 172/460/5 170/461/5
f 174/462/3 170/463/3 177/464/3 180/465/3
f 176/466/2 174/467/2 180/451/2 179/450/2
f 172/468/6 176/469/6 179/470/6 178/471/6
f 170/472/1 172/473/1 178/443/1 177/442/1
f 183/474/6 184/475/6 182/476/6 181/477/6
f 185/478/2 187/479/2 182/480/2 184/481/2
f 187/482/4 188/483/4 181/484/4 182/485/4
f 188/486/1 186/447/1 183/446/1 181/487/1
f 171/444/1 178/443/1 186/447/1 188/486/1
f 175/457/4 171/456/4 188/483/4 187/482/4
f 179/450/2 175/453/2 187/479/2 185/478/2
f 178/488/5 179/489/5 185/490/5 186/491/5
f 192/492/5 191/493/5 190/494/5 189/495/5
f 184/475/6 183/474/6 189/496/6 190/497/6
f 185/478/2 184/481/2 190/498/2 191/499/2
f 186/500/3 185/501/3 191/502/3 192/503/3
f 205/504/4 194/505/4 195/506/4 207/507/4
f 206/508/5 208/509/5 199/510/5 198/511/5
f 211/512/2 206/513/2 198/514/2 215/515/2
f 215/516/3 198/517/3 199/518/3 216/519/3
f 210/520/1 204/521/1 200/522/1 214/523/1
f 213/524/6 193/525/6 196/526/6 214/527/6
f 197/528/6 213/524/6 214/527/6 200/529/6
f 213/530/2 197/531/2 203/532/2 209/533/2
f 197/531/5 200/522/5 204/534/5 203/535/5
f 193/525/4 201/536/4 202/537/4 196/538/4
f 216/539/1 199/540/1 208/541/1 212/542/1
f 202/543/1 207/544/1 212/542/1 210/520/1
f 203/545/3 204/546/3 210/547/3 209/548/3
f 201/536/4 205/504/4 207/507/4 202/537/4
f 209/549/5 210/550/5 212/551/5 211/552/5
f 193/553/2 213/530/2 209/533/2 201/554/2
f 202/543/1 210/520/1 214/523/1 196/555/1
f 208/556/6 206/557/6 211/558/6 212/559/6
f 195/560/1 216/539/1 212/542/1 207/544/1
f 194/561/3 215/516/3 216/519/3 195/506/3
f 205/562/2 211/512/2 215/515/2 194/563/2
f 201/554/2 209/533/2 211/512/2 205/562/2
