# Blender v2.77 (sub 0) OBJ File: 'oredrill.blend'
# www.blender.org
mtllib oredrill.mtl
o Cube
v 1.000000 0.000000 0.000000
v 1.000000 0.000000 1.000000
v -0.000000 0.000000 1.000000
v 0.000000 0.000000 -0.000000
v 1.000000 0.500000 0.000000
v 1.000000 0.500000 1.000000
v -0.000000 0.500000 1.000000
v 0.000000 0.500000 0.000000
v 0.062500 0.000000 -0.000000
v 0.062500 0.000000 1.000000
v 0.062500 0.500000 0.000000
v 0.062500 0.500000 1.000000
v 0.937500 0.000000 0.000000
v 0.937500 0.000000 1.000000
v 0.937500 0.500000 0.000000
v 0.937500 0.500000 1.000000
v 1.000000 0.000000 0.937500
v 0.000000 0.000000 0.937500
v 1.000000 0.500000 0.937500
v -0.000000 0.500000 0.937500
v 0.062500 0.500000 0.937500
v 0.062500 0.000000 0.937500
v 0.937500 0.000000 0.937500
v 0.937500 0.500000 0.937500
v 0.000000 0.000000 0.062500
v 0.000000 0.500000 0.062500
v 0.062500 0.000000 0.062500
v 0.937500 0.000000 0.062500
v 1.000000 0.000000 0.062500
v 1.000000 0.500000 0.062500
v 0.062500 0.500000 0.062500
v 0.937500 0.500000 0.062500
v 0.250000 0.500000 0.750000
v 0.750000 0.500000 0.750000
v 0.250000 0.500000 0.250000
v 0.750000 0.500000 0.250000
v 0.250000 0.250000 0.750000
v 0.750000 0.250000 0.750000
v 0.250000 0.250000 0.250000
v 0.750000 0.250000 0.250000
v 1.000000 0.937500 0.937500
v 1.000000 0.937500 1.000000
v 0.062500 0.937500 0.000000
v 0.000000 0.937500 0.000000
v 0.062500 0.937500 1.000000
v -0.000000 0.937500 1.000000
v 0.000000 0.937500 0.062500
v 0.062500 0.937500 0.937500
v 1.000000 0.937500 0.000000
v 0.937500 0.937500 0.000000
v 0.937500 0.937500 1.000000
v 0.937500 0.937500 0.937500
v -0.000000 0.937500 0.937500
v 1.000000 0.937500 0.062500
v 0.062500 0.937500 0.062500
v 0.937500 0.937500 0.062500
v 1.000000 1.000000 0.937500
v 1.000000 1.000000 1.000000
v 0.062500 1.000000 0.000000
v 0.000000 1.000000 0.000000
v 0.062500 1.000000 1.000000
v -0.000000 1.000000 1.000000
v 0.000000 1.000000 0.062500
v 0.062500 1.000000 0.937500
v 1.000000 1.000000 0.000000
v 0.937500 1.000000 0.000000
v 0.937500 1.000000 1.000000
v 0.937500 1.000000 0.937500
v -0.000000 1.000000 0.937500
v 1.000000 1.000000 0.062500
v 0.062500 1.000000 0.062500
v 0.937500 1.000000 0.062500
v 0.312500 0.875000 0.687500
v 0.687500 0.875000 0.687500
v 0.312500 0.875000 0.312500
v 0.687500 0.875000 0.312500
v 0.687500 0.937500 0.312500
v 0.312500 0.937500 0.312500
v 0.687500 0.937500 0.687500
v 0.312500 0.937500 0.687500
v 0.312500 0.875000 0.687500
v 0.687500 0.875000 0.687500
v 0.687500 0.937500 0.687500
v 0.312500 0.937500 0.687500
vt 0.0000 0.0000
vt 0.0000 0.0000
vt 0.0000 0.0000
vt 0.0000 0.0000
vt 0.2344 0.8750
vt 0.2500 0.8750
vt 0.2500 0.9844
vt 0.2344 0.9844
vt 0.0156 0.7500
vt 0.0156 0.8750
vt 0.0000 0.8750
vt 0.0000 0.7500
vt 0.2344 1.0000
vt 0.2344 0.8750
vt 0.2500 1.0000
vt 0.0156 0.7500
vt 0.0156 0.8750
vt 0.0000 0.8750
vt 0.0000 0.7500
vt 0.2344 0.8750
vt 0.2344 0.7500
vt 0.2500 0.7500
vt 0.2500 0.8750
vt 0.0156 0.8750
vt 0.0156 0.7500
vt 0.0156 1.0000
vt 0.0156 0.8750
vt 0.2344 0.3756
vt 0.0156 0.3756
vt 0.0156 0.3600
vt 0.2344 0.3600
vt 0.0000 0.0000
vt 0.0000 0.0000
vt 0.0000 0.0000
vt 0.0000 0.0000
vt 0.1410 0.8203
vt 0.1567 0.8203
vt 0.1567 0.9297
vt 0.1410 0.9297
vt 0.0000 1.0000
vt 0.0000 0.8750
vt 0.0000 0.7500
vt 0.2344 0.3913
vt 0.2344 0.4069
vt 0.0156 0.4069
vt 0.0156 0.3913
vt 0.0000 0.0000
vt 0.0000 0.0000
vt 0.0000 0.0000
vt 0.0156 0.5156
vt 0.2344 0.5156
vt 0.1875 0.5625
vt 0.0625 0.5625
vt 0.2500 0.7500
vt 0.2344 0.7500
vt 0.2344 0.7500
vt 0.2344 0.8750
vt 0.2344 0.3757
vt 0.2344 0.3913
vt 0.0156 0.3913
vt 0.0156 0.3757
vt 0.0000 0.0000
vt 0.0000 0.0000
vt 0.0000 0.0000
vt 0.0000 0.7656
vt 0.0156 0.7656
vt 0.2500 0.7500
vt 0.2500 0.8750
vt 0.2344 0.4226
vt 0.0156 0.4226
vt 0.0156 0.4070
vt 0.2344 0.4070
vt 0.0000 0.0000
vt 0.0000 0.0000
vt 0.0156 0.9844
vt 0.0000 0.9844
vt 0.1875 1.0000
vt 0.0625 1.0000
vt 0.0625 0.9375
vt 0.1875 0.9375
vt 0.2344 0.7344
vt 0.1875 0.6875
vt 0.0156 0.7344
vt 0.0625 0.6875
vt 0.0625 0.8125
vt 0.1875 0.8125
vt 0.1875 1.0000
vt 0.0625 1.0000
vt 0.0625 0.9375
vt 0.1875 0.9375
vt 0.1875 1.0000
vt 0.0625 1.0000
vt 0.0625 0.9375
vt 0.1875 0.9375
vt 0.1875 1.0000
vt 0.0625 1.0000
vt 0.0625 0.9375
vt 0.1875 0.9375
vt 0.2344 0.8776
vt 0.2344 0.8932
vt 0.0156 0.8932
vt 0.0156 0.8776
vt 0.0000 0.0000
vt 0.0000 0.0000
vt 0.0000 0.0000
vt 0.0000 0.0000
vt 0.0000 0.7500
vt 0.0156 0.7500
vt 0.0156 1.0000
vt 0.0156 0.9844
vt 0.2344 0.9844
vt 0.2344 1.0000
vt 0.2500 0.9844
vt 0.2344 0.7656
vt 0.2500 0.7656
vt 0.1254 0.8203
vt 0.1410 0.8203
vt 0.1410 0.9297
vt 0.1254 0.9297
vt 0.1254 0.7813
vt 0.1567 0.7813
vt 0.1567 1.0000
vt 0.1254 1.0000
vt 0.0156 0.9844
vt 0.0000 0.9844
vt 0.2500 0.9844
vt 0.2344 0.9844
vt 0.1254 0.8203
vt 0.1410 0.8203
vt 0.1410 0.9297
vt 0.1254 0.9297
vt 0.0941 0.7813
vt 0.1254 0.7813
vt 0.1254 1.0000
vt 0.0941 1.0000
vt 0.1254 0.8203
vt 0.1410 0.8203
vt 0.1410 0.9297
vt 0.1254 0.9297
vt 0.1410 0.8203
vt 0.1567 0.8203
vt 0.1567 0.9297
vt 0.1410 0.9297
vt 0.1410 0.8203
vt 0.1567 0.8203
vt 0.1567 0.9297
vt 0.1410 0.9297
vt 0.0000 0.9844
vt 0.0156 0.7656
vt 0.0000 0.7656
vt 0.0000 0.7500
vt 0.0156 0.7500
vt 0.2500 0.7656
vt 0.2344 0.7656
vt 0.2344 0.7500
vt 0.2500 0.7500
vt 0.0156 1.0000
vt 0.0000 1.0000
vt 0.0000 0.9844
vt 0.0156 0.9844
vt 0.2500 1.0000
vt 0.2344 1.0000
vt 0.2344 0.9844
vt 0.2500 0.9844
vt 0.0156 1.0000
vt 0.0000 1.0000
vt 0.0000 0.0000
vt 0.0000 0.0000
vt 0.0000 0.0000
vt 0.0000 0.0000
vt 0.2500 1.0000
vt 0.2344 1.0000
vt 0.2500 1.0000
vt 0.0156 0.8776
vt 0.0156 0.8619
vt 0.2344 0.8619
vt 0.2344 0.8776
vt 0.2344 0.7500
vt 0.2500 0.7500
vt 0.0156 1.0000
vt 0.2344 1.0000
vt 0.0000 0.0000
vt 0.0000 0.0000
vt 0.0000 0.0000
vt 0.0000 0.0000
vt 0.0000 0.0000
vt 0.0000 0.0000
vt 0.0000 1.0000
vt 0.1875 0.9063
vt 0.0625 0.9063
vt 0.0625 0.8855
vt 0.1875 0.8855
vt 0.0000 0.0000
vt 0.0000 0.0000
vt 0.0625 0.9480
vt 0.1875 0.9480
vt 0.1875 0.9688
vt 0.0625 0.9688
vt 0.2344 0.9089
vt 0.2344 0.9246
vt 0.0156 0.9246
vt 0.0156 0.9089
vt 0.1875 0.9375
vt 0.0625 0.9375
vt 0.0625 0.8125
vt 0.1875 0.8125
vt 0.0156 0.5156
vt 0.2344 0.5156
vt 0.1719 0.5781
vt 0.0781 0.5781
vt 0.2344 0.7344
vt 0.1719 0.6719
vt 0.0156 0.9089
vt 0.0156 0.8933
vt 0.2344 0.8933
vt 0.2344 0.9089
vt 0.0156 0.7344
vt 0.0781 0.6719
vt 0.2344 0.2656
vt 0.2344 0.4844
vt 0.0156 0.4844
vt 0.0156 0.2656
vt 0.0625 0.8855
vt 0.1875 0.8855
vt 0.1875 0.9063
vt 0.0625 0.9063
vt 0.1875 0.9375
vt 0.0625 0.9375
vt 0.0625 0.9167
vt 0.1875 0.9167
vn 0.0000 -1.0000 0.0000
vn -1.0000 0.0000 -0.0000
vn 1.0000 0.0000 0.0000
vn -0.0000 -0.0000 1.0000
vn 0.0000 0.0000 -1.0000
vn 0.0000 1.0000 0.0000
usemtl Material
s off
f 22/1/1 10/2/1 3/3/1 18/4/1
f 20/5/2 7/6/2 46/7/2 53/8/2
f 17/9/3 19/10/3 6/11/3 2/12/3
f 10/13/4 12/14/4 7/6/4 3/15/4
f 25/16/2 26/17/2 8/18/2 4/19/2
f 11/20/5 9/21/5 4/22/5 8/23/5
f 15/24/5 13/25/5 9/21/5 11/20/5
f 14/26/4 16/27/4 12/14/4 10/13/4
f 24/28/6 21/29/6 12/30/6 16/31/6
f 23/32/1 14/33/1 10/2/1 22/1/1
f 17/34/1 2/35/1 14/33/1 23/32/1
f 26/36/4 31/37/4 55/38/4 47/39/4
f 2/40/4 6/11/4 16/27/4 14/26/4
f 5/41/5 1/42/5 13/25/5 15/24/5
f 30/43/6 32/44/6 24/45/6 19/46/6
f 29/47/1 17/34/1 23/32/1 28/48/1
f 28/48/1 23/32/1 22/1/1 27/49/1
f 21/50/6 24/51/6 34/52/6 33/53/6
f 3/54/2 7/6/2 20/5/2 18/55/2
f 29/56/3 30/57/3 19/10/3 17/9/3
f 31/58/6 26/59/6 20/60/6 21/61/6
f 27/49/1 22/1/1 18/4/1 25/62/1
f 9/63/1 27/49/1 25/62/1 4/64/1
f 16/27/4 6/11/4 42/65/4 51/66/4
f 1/67/3 5/68/3 30/57/3 29/56/3
f 15/69/6 11/70/6 31/71/6 32/72/6
f 13/73/1 28/48/1 27/49/1 9/63/1
f 1/74/1 29/47/1 28/48/1 13/73/1
f 6/11/3 19/10/3 41/75/3 42/76/3
f 18/55/2 20/5/2 26/17/2 25/16/2
f 36/77/4 35/78/4 39/79/4 40/80/4
f 24/51/6 32/81/6 36/82/6 34/52/6
f 32/81/6 31/83/6 35/84/6 36/82/6
f 31/83/6 21/50/6 33/53/6 35/84/6
f 40/80/6 39/79/6 37/85/6 38/86/6
f 34/87/2 36/88/2 40/89/2 38/90/2
f 33/91/5 34/92/5 38/93/5 37/94/5
f 35/95/3 33/96/3 37/97/3 39/98/3
f 52/99/1 51/100/1 45/101/1 48/102/1
f 47/103/4 55/104/4 71/105/4 63/106/4
f 51/66/4 42/65/4 58/107/4 67/108/4
f 66/109/5 50/110/5 43/111/5 59/112/5
f 11/20/5 8/23/5 44/113/5 43/111/5
f 7/6/4 12/14/4 45/114/4 46/115/4
f 24/116/2 16/117/2 51/118/2 52/119/2
f 12/120/3 21/121/3 48/122/3 45/123/3
f 8/18/2 26/17/2 47/124/2 44/125/2
f 30/57/3 5/68/3 49/126/3 54/127/3
f 21/128/5 20/129/5 53/130/5 48/131/5
f 31/132/3 11/133/3 43/134/3 55/135/3
f 32/136/4 30/137/4 54/138/4 56/139/4
f 19/140/5 24/141/5 52/142/5 41/143/5
f 15/144/2 32/145/2 56/146/2 50/147/2
f 5/41/5 15/24/5 50/110/5 49/148/5
f 64/149/6 69/150/6 62/151/6 61/152/6
f 57/153/6 68/154/6 67/155/6 58/156/6
f 59/157/6 60/158/6 63/159/6 71/160/6
f 65/161/6 66/162/6 72/163/6 70/164/6
f 42/76/3 41/75/3 57/165/3 58/166/3
f 56/167/4 54/168/4 70/169/4 72/170/4
f 53/8/2 46/7/2 62/171/2 69/172/2
f 43/111/5 44/113/5 60/173/5 59/112/5
f 41/174/1 52/175/1 56/176/1 54/177/1
f 46/115/4 45/114/4 61/178/4 62/179/4
f 69/150/6 64/149/6 71/160/6 63/159/6
f 44/125/2 47/124/2 63/180/2 60/158/2
f 54/127/3 49/126/3 65/161/3 70/181/3
f 45/182/3 48/183/3 64/184/3 61/185/3
f 55/104/3 43/186/3 59/187/3 71/105/3
f 49/148/5 50/110/5 66/109/5 65/188/5
f 77/189/3 79/190/3 74/191/3 76/192/3
f 52/193/4 68/194/4 64/184/4 48/183/4
f 68/154/6 57/153/6 70/164/6 72/163/6
f 57/165/3 41/75/3 54/127/3 70/181/3
f 80/195/2 78/196/2 75/197/2 73/198/2
f 72/163/6 66/162/6 59/157/6 71/160/6
f 56/167/4 72/170/4 71/105/4 55/104/4
f 50/199/1 56/200/1 55/201/1 43/202/1
f 76/203/1 74/204/1 73/205/1 75/206/1
f 51/66/4 67/108/4 61/178/4 45/114/4
f 48/207/1 55/208/1 78/209/1 80/210/1
f 67/155/6 68/154/6 64/149/6 61/152/6
f 55/208/1 56/211/1 77/212/1 78/209/1
f 64/184/3 48/183/3 55/104/3 71/105/3
f 53/8/2 69/172/2 63/180/2 47/124/2
f 48/213/1 53/214/1 47/215/1 55/216/1
f 52/217/1 48/207/1 80/210/1 79/218/1
f 68/219/6 72/220/6 71/221/6 64/222/6
f 56/211/1 52/217/1 79/218/1 77/212/1
f 78/223/5 77/224/5 76/225/5 75/226/5
f 83/227/4 84/228/4 81/229/4 82/230/4
