# Blender v2.78 (sub 0) OBJ File: 'planter.blend'
# www.blender.org
mtllib planter.mtl
o Cube
v 1.000000 0.000000 0.000000
v 1.000000 0.000000 1.000000
v -0.000000 0.000000 1.000000
v 0.000000 0.000000 -0.000000
v 1.000000 0.250000 0.000000
v 1.000000 0.250000 1.000000
v -0.000000 0.250000 1.000000
v 0.000000 0.250000 0.000000
v 1.000000 0.000000 0.875000
v 0.000000 0.000000 0.875000
v 1.000000 0.250000 0.875000
v -0.000000 0.250000 0.875000
v 0.000000 0.000000 0.125000
v 0.000000 0.250000 0.125000
v 1.000000 0.000000 0.125000
v 1.000000 0.250000 0.125000
v 0.125000 0.000000 -0.000000
v 0.125000 0.000000 1.000000
v 0.125000 0.250000 0.000000
v 0.125000 0.250000 1.000000
v 0.125000 0.250000 0.875000
v 0.125000 0.000000 0.875000
v 0.125000 0.000000 0.125000
v 0.125000 0.250000 0.125000
v 0.875000 0.250000 0.875000
v 0.875000 0.250000 0.125000
v 0.875000 0.000000 0.000000
v 0.875000 0.000000 1.000000
v 0.875000 0.250000 0.000000
v 0.875000 0.250000 1.000000
v 0.875000 0.000000 0.875000
v 0.875000 0.000000 0.125000
v 0.125000 1.000000 0.875000
v 0.125000 1.000000 0.125000
v 0.875000 1.000000 0.875000
v 0.875000 1.000000 0.125000
v 1.000000 0.000000 0.562500
v 1.000000 0.250000 0.562500
v 0.000000 0.000000 0.562500
v 0.000000 0.250000 0.562500
v 0.125000 0.000000 0.562500
v 0.125000 0.250000 0.562500
v 0.875000 0.250000 0.562500
v 0.875000 0.000000 0.562500
v 0.125000 1.000000 0.562500
v 0.875000 1.000000 0.562500
v 0.000000 0.000000 0.437500
v 0.000000 0.250000 0.437500
v 0.125000 0.000000 0.437500
v 0.875000 0.000000 0.437500
v 1.000000 0.000000 0.437500
v 1.000000 0.250000 0.437500
v 0.125000 0.250000 0.437500
v 0.875000 0.250000 0.437500
v 0.125000 1.000000 0.437500
v 0.875000 1.000000 0.437500
v 0.437500 0.000000 -0.000000
v 0.437500 0.000000 1.000000
v 0.437500 0.250000 0.000000
v 0.437500 0.250000 1.000000
v 0.437500 0.000000 0.875000
v 0.437500 0.000000 0.125000
v 0.437500 0.250000 0.875000
v 0.437500 0.250000 0.125000
v 0.437500 1.000000 0.875000
v 0.437500 1.000000 0.125000
v 0.437500 1.000000 0.562500
v 0.437500 0.000000 0.562500
v 0.437500 0.000000 0.437500
v 0.437500 1.000000 0.437500
v 0.562500 0.250000 0.875000
v 0.562500 0.250000 0.125000
v 0.562500 1.000000 0.875000
v 0.562500 1.000000 0.125000
v 0.562500 1.000000 0.562500
v 0.562500 1.000000 0.437500
v 0.562500 0.000000 0.000000
v 0.562500 0.000000 1.000000
v 0.562500 0.250000 0.000000
v 0.562500 0.250000 1.000000
v 0.562500 0.000000 0.875000
v 0.562500 0.000000 0.125000
v 0.562500 0.000000 0.562500
v 0.562500 0.000000 0.437500
v 0.125000 0.687500 0.125000
v 0.875000 0.687500 0.125000
v 0.875000 0.687500 0.875000
v 0.125000 0.687500 0.875000
v 0.125000 0.687500 0.562500
v 0.875000 0.687500 0.562500
v 0.125000 0.687500 0.437500
v 0.875000 0.687500 0.437500
v 0.437500 0.687500 0.875000
v 0.437500 0.687500 0.125000
v 0.562500 0.687500 0.125000
v 0.562500 0.687500 0.875000
v 0.875000 0.562500 0.125000
v 0.875000 0.562500 0.875000
v 0.125000 0.562500 0.125000
v 0.125000 0.562500 0.875000
v 0.125000 0.562500 0.562500
v 0.875000 0.562500 0.562500
v 0.125000 0.562500 0.437500
v 0.875000 0.562500 0.437500
v 0.437500 0.562500 0.875000
v 0.437500 0.562500 0.125000
v 0.562500 0.562500 0.125000
v 0.562500 0.562500 0.875000
v 0.437500 0.562500 0.687500
v 0.437500 0.687500 0.687500
v 0.437500 0.562500 0.312500
v 0.437500 0.687500 0.312500
v 0.562500 0.562500 0.312500
v 0.562500 0.687500 0.312500
v 0.562500 0.562500 0.687500
v 0.562500 0.687500 0.687500
v 0.312500 0.562500 0.562500
v 0.312500 0.687500 0.562500
v 0.687500 0.562500 0.562500
v 0.687500 0.687500 0.562500
v 0.312500 0.562500 0.437500
v 0.312500 0.687500 0.437500
v 0.687500 0.562500 0.437500
v 0.687500 0.687500 0.437500
v 0.125000 0.250000 0.875000
v 0.875000 0.250000 0.875000
v 0.125000 1.000000 0.875000
v 0.875000 1.000000 0.875000
v 0.437500 0.250000 0.875000
v 0.437500 1.000000 0.875000
v 0.562500 0.250000 0.875000
v 0.562500 1.000000 0.875000
v 0.875000 0.687500 0.875000
v 0.125000 0.687500 0.875000
v 0.437500 0.687500 0.875000
v 0.562500 0.687500 0.875000
v 0.875000 0.562500 0.875000
v 0.125000 0.562500 0.875000
v 0.437500 0.562500 0.875000
v 0.562500 0.562500 0.875000
vt 0.0313 0.5313
vt 0.0000 0.5313
vt 0.0000 0.5000
vt 0.0313 0.5000
vt 0.0313 0.5313
vt 0.0000 0.5313
vt 0.0000 0.5000
vt 0.0313 0.5000
vt 0.0313 0.5000
vt 0.0313 0.5625
vt 0.0000 0.5625
vt 0.0000 0.5000
vt 0.0313 0.5000
vt 0.0313 0.5625
vt 0.0000 0.5625
vt 0.0313 0.5000
vt 0.0313 0.5625
vt 0.0000 0.5625
vt 0.0000 0.5000
vt 0.2187 0.5625
vt 0.2187 0.5000
vt 0.2500 0.5000
vt 0.2500 0.5625
vt 0.2500 0.5000
vt 0.2500 0.5625
vt 0.2187 0.5625
vt 0.2187 0.5000
vt 0.1094 0.5000
vt 0.1094 0.5625
vt 0.0313 0.6094
vt 0.0000 0.6094
vt 0.1094 0.5313
vt 0.1094 0.5000
vt 0.2500 0.5313
vt 0.2187 0.5313
vt 0.2187 0.5000
vt 0.0313 0.7500
vt 0.0000 0.7500
vt 0.0000 0.7187
vt 0.0313 0.7187
vt 0.2500 0.5000
vt 0.2500 0.5625
vt 0.2187 0.5625
vt 0.2187 0.5000
vt 0.1094 0.5000
vt 0.1094 0.5625
vt 0.1094 0.7500
vt 0.1094 0.7187
vt 0.2500 0.6094
vt 0.2187 0.6094
vt 0.1094 0.6094
vt 0.0313 0.6094
vt 0.1094 0.3906
vt 0.0313 0.3906
vt 0.0313 0.4688
vt 0.1094 0.4688
vt 0.1406 0.5625
vt 0.1406 0.5000
vt 0.1094 0.5000
vt 0.1094 0.5625
vt 0.1094 0.5313
vt 0.1094 0.5000
vt 0.0000 0.6094
vt 0.0313 0.7500
vt 0.0000 0.7500
vt 0.0000 0.7187
vt 0.0313 0.7187
vt 0.2500 0.5313
vt 0.2187 0.5313
vt 0.2187 0.5000
vt 0.2500 0.5000
vt 0.2500 0.5000
vt 0.2500 0.5625
vt 0.2187 0.5625
vt 0.2187 0.5000
vt 0.0000 0.5625
vt 0.0000 0.5000
vt 0.0313 0.5000
vt 0.0313 0.5625
vt 0.2500 0.6094
vt 0.2187 0.6094
vt 0.1094 0.7500
vt 0.1094 0.7187
vt 0.2500 0.7500
vt 0.2187 0.7500
vt 0.2187 0.7187
vt 0.2500 0.7187
vt 0.2500 0.7500
vt 0.2187 0.7500
vt 0.2187 0.7187
vt 0.2500 0.7187
vt 0.3594 0.6094
vt 0.2813 0.6094
vt 0.2813 0.5313
vt 0.3594 0.5313
vt 0.1406 0.3906
vt 0.2187 0.3906
vt 0.2187 0.4688
vt 0.1406 0.4688
vt 0.1094 0.3906
vt 0.0312 0.3906
vt 0.0312 0.4688
vt 0.1094 0.4688
vt 0.1406 0.3906
vt 0.1406 0.4688
vt 0.0312 0.3906
vt 0.1094 0.3906
vt 0.1094 0.4688
vt 0.0312 0.4688
vt 0.3594 0.6406
vt 0.2813 0.6406
vt 0.1406 0.7500
vt 0.1406 0.7187
vt 0.2500 0.6406
vt 0.2187 0.6406
vt 0.1406 0.6094
vt 0.1406 0.5313
vt 0.1406 0.5625
vt 0.1406 0.5000
vt 0.1406 0.5000
vt 0.0313 0.6406
vt 0.0000 0.6406
vt 0.1406 0.5000
vt 0.1406 0.5625
vt 0.3594 0.7187
vt 0.2813 0.7187
vt 0.2187 0.3906
vt 0.2187 0.4688
vt 0.3906 0.7187
vt 0.3906 0.6406
vt 0.2187 0.6406
vt 0.1406 0.6406
vt 0.1094 0.6406
vt 0.3906 0.6094
vt 0.3906 0.5313
vt 0.0313 0.6406
vt 0.0000 0.6406
vt 0.1406 0.5313
vt 0.1406 0.5000
vt 0.1406 0.5000
vt 0.1406 0.5625
vt 0.1094 0.5625
vt 0.1094 0.5000
vt 0.1406 0.3906
vt 0.1406 0.4688
vt 0.2500 0.6406
vt 0.1406 0.7500
vt 0.1406 0.7187
vt 0.2188 0.3906
vt 0.2188 0.4688
vt 0.4687 0.6094
vt 0.4687 0.5313
vt 0.4687 0.6406
vt 0.4687 0.7187
vt 0.1250 0.9375
vt 0.1250 0.9062
vt 0.1719 0.9062
vt 0.1719 0.9375
vt 0.2188 0.3594
vt 0.1406 0.3594
vt 0.1250 0.9062
vt 0.1250 0.8750
vt 0.0781 0.8750
vt 0.0781 0.9062
vt 0.0703 0.7812
vt 0.0703 0.8125
vt 0.1172 0.8125
vt 0.1172 0.7812
vt 0.2187 0.3594
vt 0.1406 0.3594
vt 0.0312 0.3594
vt 0.1094 0.3594
vt 0.0938 0.7812
vt 0.0938 0.8125
vt 0.0469 0.8125
vt 0.0469 0.7812
vt 0.1094 0.3594
vt 0.0312 0.3594
vt 0.1406 0.3594
vt 0.2187 0.3594
vt 0.1094 0.3594
vt 0.0313 0.3594
vt 0.1094 0.2812
vt 0.0313 0.2812
vt 0.1406 0.2812
vt 0.2187 0.2812
vt 0.1094 0.2812
vt 0.0312 0.2812
vt 0.1406 0.2812
vt 0.0312 0.2812
vt 0.1094 0.2812
vt 0.2187 0.2812
vt 0.1406 0.2812
vt 0.2188 0.2812
vt 0.1094 0.3594
vt 0.1406 0.3594
vt 0.1406 0.3906
vt 0.1094 0.3906
vt 0.1406 0.3594
vt 0.1094 0.3594
vt 0.1094 0.3906
vt 0.1406 0.3906
vt 0.1250 0.9062
vt 0.1250 0.9375
vt 0.1719 0.9375
vt 0.1719 0.9062
vt 0.1250 0.8750
vt 0.1250 0.9062
vt 0.0781 0.9062
vt 0.0781 0.8750
vt 0.0781 0.9219
vt 0.1094 0.9219
vt 0.1094 0.9687
vt 0.0781 0.9687
vt 0.1406 0.8281
vt 0.1719 0.8281
vt 0.1719 0.7812
vt 0.1406 0.7812
vt 0.1719 0.8281
vt 0.1406 0.8281
vt 0.1406 0.7812
vt 0.1719 0.7812
vt 0.1094 0.9219
vt 0.0781 0.9219
vt 0.0781 0.9687
vt 0.1094 0.9687
vt 0.1094 0.3594
vt 0.1406 0.3594
vt 0.1406 0.3906
vt 0.1094 0.3906
vt 0.1406 0.3594
vt 0.1094 0.3594
vt 0.1094 0.3906
vt 0.1406 0.3906
vt 0.0703 0.9688
vt 0.0703 0.9375
vt 0.1172 0.9375
vt 0.1172 0.9688
vt 0.0703 0.9375
vt 0.0703 0.9688
vt 0.1172 0.9688
vt 0.1172 0.9375
vt 0.0703 0.8125
vt 0.0703 0.7812
vt 0.1172 0.7812
vt 0.1172 0.8125
vt 0.0938 0.9375
vt 0.0938 0.9687
vt 0.0469 0.9687
vt 0.0469 0.9375
vt 0.0938 0.8125
vt 0.0938 0.7812
vt 0.0469 0.7812
vt 0.0469 0.8125
vt 0.0938 0.9687
vt 0.0938 0.9375
vt 0.0469 0.9375
vt 0.0469 0.9687
vt 0.1406 0.3906
vt 0.2188 0.3906
vt 0.2188 0.4688
vt 0.1406 0.4688
vt 0.0312 0.3906
vt 0.1094 0.3906
vt 0.1094 0.4688
vt 0.0312 0.4688
vt 0.0312 0.3594
vt 0.1094 0.3594
vt 0.1406 0.3594
vt 0.2188 0.3594
vt 0.1406 0.2812
vt 0.2188 0.2812
vt 0.0312 0.2812
vt 0.1094 0.2812
vn 0.0000 -1.0000 0.0000
vn 0.0000 1.0000 0.0000
vn 1.0000 0.0000 0.0000
vn -0.0000 -0.0000 1.0000
vn -1.0000 -0.0000 -0.0000
vn 0.0000 0.0000 -1.0000
usemtl Material
s off
f 22/1/1 18/2/1 3/3/1 10/4/1
f 21/5/2 12/6/2 7/7/2 20/8/2
f 9/9/3 11/10/3 6/11/3 2/12/3
f 18/13/4 20/14/4 7/15/4 3/3/4
f 13/16/5 14/17/5 8/18/5 4/19/5
f 19/20/6 17/21/6 4/22/6 8/23/6
f 3/24/5 7/25/5 12/26/5 10/27/5
f 37/28/3 38/29/3 11/10/3 9/9/3
f 42/30/2 40/31/2 12/6/2 21/5/2
f 41/32/1 22/1/1 10/4/1 39/33/1
f 17/34/1 23/35/1 13/36/1 4/22/1
f 19/37/2 8/38/2 14/39/2 24/40/2
f 1/41/3 5/42/3 16/43/3 15/44/3
f 47/45/5 48/46/5 14/17/5 13/16/5
f 59/47/2 19/37/2 24/40/2 64/48/2
f 57/49/1 62/50/1 23/35/1 17/34/1
f 68/51/1 61/52/1 22/1/1 41/32/1
f 94/53/6 85/54/6 34/55/6 66/56/6
f 59/57/6 57/58/6 17/21/6 19/20/6
f 58/59/4 60/60/4 20/14/4 18/13/4
f 63/61/2 21/5/2 20/8/2 60/62/2
f 61/52/1 58/63/1 18/2/1 22/1/1
f 9/64/1 2/65/1 28/66/1 31/67/1
f 11/68/2 25/69/2 30/70/2 6/71/2
f 2/72/4 6/73/4 30/74/4 28/75/4
f 5/76/6 1/77/6 27/78/6 29/79/6
f 38/80/2 43/81/2 25/69/2 11/68/2
f 37/82/1 9/64/1 31/67/1 44/83/1
f 1/84/1 15/85/1 32/86/1 27/87/1
f 5/88/2 29/89/2 26/90/2 16/91/2
f 67/92/2 45/93/2 33/94/2 65/95/2
f 92/96/3 86/97/3 36/98/3 56/99/3
f 89/100/5 88/101/5 33/102/5 45/103/5
f 91/104/5 89/100/5 45/103/5 55/105/5
f 87/106/3 90/107/3 46/108/3 35/109/3
f 70/110/2 55/111/2 45/93/2 67/92/2
f 51/112/1 37/82/1 44/83/1 50/113/1
f 52/114/2 54/115/2 43/81/2 38/80/2
f 69/116/1 68/51/1 41/32/1 49/117/1
f 10/27/5 12/26/5 40/118/5 39/119/5
f 49/117/1 41/32/1 39/33/1 47/120/1
f 53/121/2 48/122/2 40/31/2 42/30/2
f 51/123/3 52/124/3 38/29/3 37/28/3
f 15/44/3 16/43/3 52/124/3 51/123/3
f 24/40/2 14/39/2 48/122/2 53/121/2
f 23/35/1 49/117/1 47/120/1 13/36/1
f 62/50/1 69/116/1 49/117/1 23/35/1
f 16/91/2 26/90/2 54/115/2 52/114/2
f 15/85/1 51/112/1 50/113/1 32/86/1
f 66/125/2 34/126/2 55/111/2 70/110/2
f 85/127/5 91/104/5 55/105/5 34/128/5
f 90/107/3 92/96/3 56/99/3 46/108/3
f 39/119/5 40/118/5 48/46/5 47/45/5
f 74/129/2 66/125/2 70/110/2 76/130/2
f 82/131/1 84/132/1 69/116/1 62/50/1
f 84/132/1 83/133/1 68/51/1 69/116/1
f 76/130/2 70/110/2 67/92/2 75/134/2
f 75/134/2 67/92/2 65/95/2 73/135/2
f 81/136/1 78/137/1 58/63/1 61/52/1
f 71/138/2 63/61/2 60/62/2 80/139/2
f 78/140/4 80/141/4 60/60/4 58/59/4
f 79/142/6 77/143/6 57/58/6 59/57/6
f 95/144/6 94/53/6 66/56/6 74/145/6
f 83/133/1 81/136/1 61/52/1 68/51/1
f 77/146/1 82/131/1 62/50/1 57/49/1
f 79/147/2 59/47/2 64/48/2 72/148/2
f 29/89/2 79/147/2 72/148/2 26/90/2
f 27/87/1 32/86/1 82/131/1 77/146/1
f 44/83/1 31/67/1 81/136/1 83/133/1
f 86/149/6 95/144/6 74/145/6 36/150/6
f 29/79/6 27/78/6 77/143/6 79/142/6
f 28/75/4 30/74/4 80/141/4 78/140/4
f 25/69/2 71/138/2 80/139/2 30/70/2
f 31/67/1 28/66/1 78/137/1 81/136/1
f 46/151/2 75/134/2 73/135/2 35/152/2
f 56/153/2 76/130/2 75/134/2 46/151/2
f 50/113/1 44/83/1 83/133/1 84/132/1
f 32/86/1 50/113/1 84/132/1 82/131/1
f 36/154/2 74/129/2 76/130/2 56/153/2
f 93/155/3 105/156/3 109/157/3 110/158/3
f 97/159/6 107/160/6 95/144/6 86/149/6
f 95/161/5 107/162/5 113/163/5 114/164/5
f 89/165/1 91/166/1 122/167/1 118/168/1
f 99/169/5 103/170/5 91/104/5 85/127/5
f 98/171/3 102/172/3 90/107/3 87/106/3
f 102/173/2 104/174/2 123/175/2 119/176/2
f 101/177/5 100/178/5 88/101/5 89/100/5
f 104/179/3 97/180/3 86/97/3 92/96/3
f 106/181/6 99/182/6 85/54/6 94/53/6
f 64/183/6 24/184/6 99/182/6 106/181/6
f 54/185/3 26/186/3 97/180/3 104/179/3
f 42/187/5 21/188/5 100/178/5 101/177/5
f 53/189/5 42/187/5 101/177/5 103/170/5
f 25/190/3 43/191/3 102/172/3 98/171/3
f 24/192/5 53/189/5 103/170/5 99/169/5
f 43/191/3 54/185/3 104/179/3 102/172/3
f 72/193/6 64/183/6 106/181/6 107/160/6
f 26/194/6 72/193/6 107/160/6 97/159/6
f 109/195/4 115/196/4 116/197/4 110/198/4
f 113/199/6 111/200/6 112/201/6 114/202/6
f 108/203/5 96/204/5 116/205/5 115/206/5
f 106/207/3 94/208/3 112/209/3 111/210/3
f 105/211/2 108/212/2 115/213/2 109/214/2
f 94/215/1 95/216/1 114/217/1 112/218/1
f 107/219/2 106/220/2 111/221/2 113/222/2
f 96/223/1 93/224/1 110/225/1 116/226/1
f 119/227/3 123/228/3 124/229/3 120/230/3
f 121/231/5 117/232/5 118/233/5 122/234/5
f 91/235/4 103/236/4 121/237/4 122/238/4
f 101/239/6 89/240/6 118/241/6 117/242/6
f 103/243/2 101/244/2 117/245/2 121/246/2
f 104/247/4 92/248/4 124/249/4 123/250/4
f 92/251/1 90/252/1 120/253/1 124/254/1
f 90/255/6 102/256/6 119/257/6 120/258/6
f 136/259/4 133/260/4 128/261/4 132/262/4
f 134/263/4 135/264/4 130/265/4 127/266/4
f 135/264/4 136/259/4 132/262/4 130/265/4
f 138/267/4 139/268/4 135/264/4 134/263/4
f 140/269/4 137/270/4 133/260/4 136/259/4
f 131/271/4 126/272/4 137/270/4 140/269/4
f 125/273/4 129/274/4 139/268/4 138/267/4
f 129/274/4 131/271/4 140/269/4 139/268/4
