# Blender v2.77 (sub 0) OBJ File: 'potionmixer.blend'
# www.blender.org
mtllib potionmixer.mtl
o Cube
v 1.000000 0.000000 0.000000
v 1.000000 0.000000 1.000000
v -0.000000 0.000000 1.000000
v 0.000000 0.000000 -0.000000
v 1.000000 0.062500 0.000000
v 1.000000 0.062500 1.000000
v -0.000000 0.062500 1.000000
v 0.000000 0.062500 0.000000
v 0.375000 0.000000 -0.000000
v 0.375000 0.000000 1.000000
v 0.375000 0.062500 0.000000
v 0.375000 0.062500 1.000000
v 0.625000 0.000000 0.000000
v 0.625000 0.000000 1.000000
v 0.625000 0.062500 0.000000
v 0.625000 0.062500 1.000000
v 1.000000 0.000000 0.625000
v 0.000000 0.000000 0.625000
v 1.000000 0.062500 0.625000
v -0.000000 0.062500 0.625000
v 0.375000 0.062500 0.625000
v 0.375000 0.000000 0.625000
v 0.625000 0.000000 0.625000
v 0.625000 0.062500 0.625000
v 0.000000 0.000000 0.375000
v 0.000000 0.062500 0.375000
v 0.375000 0.000000 0.375000
v 0.625000 0.000000 0.375000
v 1.000000 0.000000 0.375000
v 1.000000 0.062500 0.375000
v 0.375000 0.062500 0.375000
v 0.625000 0.062500 0.375000
v 0.687500 0.000000 0.000000
v 0.687500 0.000000 1.000000
v 0.687500 0.062500 0.000000
v 0.687500 0.062500 1.000000
v 0.687500 0.062500 0.625000
v 0.687500 0.000000 0.625000
v 0.687500 0.000000 0.375000
v 0.687500 0.062500 0.375000
v 0.312500 0.000000 -0.000000
v 0.312500 0.000000 1.000000
v 0.312500 0.062500 0.000000
v 0.312500 0.062500 1.000000
v 0.312500 0.062500 0.625000
v 0.312500 0.000000 0.625000
v 0.312500 0.000000 0.375000
v 0.312500 0.062500 0.375000
v 0.000000 0.000000 0.312500
v 0.000000 0.062500 0.312500
v 0.375000 0.000000 0.312500
v 0.625000 0.000000 0.312500
v 1.000000 0.000000 0.312500
v 1.000000 0.062500 0.312500
v 0.375000 0.062500 0.312500
v 0.625000 0.062500 0.312500
v 0.687500 0.062500 0.312500
v 0.687500 0.000000 0.312500
v 0.312500 0.062500 0.312500
v 0.312500 0.000000 0.312500
v 1.000000 0.000000 0.687500
v 1.000000 0.062500 0.687500
v 0.375000 0.062500 0.687500
v 0.625000 0.062500 0.687500
v 0.000000 0.000000 0.687500
v -0.000000 0.062500 0.687500
v 0.375000 0.000000 0.687500
v 0.625000 0.000000 0.687500
v 0.687500 0.062500 0.687500
v 0.687500 0.000000 0.687500
v 0.312500 0.062500 0.687500
v 0.312500 0.000000 0.687500
v 0.375000 0.562500 0.375000
v 0.375000 0.562500 0.625000
v 0.625000 0.562500 0.375000
v 0.625000 0.562500 0.625000
v 0.312500 0.562500 0.625000
v 0.375000 0.562500 0.312500
v 0.625000 0.562500 0.312500
v 0.312500 0.562500 0.375000
v 0.687500 0.562500 0.625000
v 0.687500 0.562500 0.375000
v 0.687500 0.562500 0.312500
v 0.312500 0.562500 0.312500
v 0.375000 0.562500 0.687500
v 0.625000 0.562500 0.687500
v 0.687500 0.562500 0.687500
v 0.312500 0.562500 0.687500
v 0.812500 0.312500 0.500000
v 0.812500 0.750000 0.500000
v 0.812500 0.312500 0.437500
v 0.812500 0.750000 0.437500
v 0.875000 0.312500 0.500000
v 0.875000 0.750000 0.500000
v 0.875000 0.312500 0.437500
v 0.875000 0.750000 0.437500
v 0.125000 0.312500 0.187500
v 0.125000 0.750000 0.187500
v 0.125000 0.312500 0.125000
v 0.125000 0.750000 0.125000
v 0.187500 0.312500 0.187500
v 0.187500 0.750000 0.187500
v 0.187500 0.312500 0.125000
v 0.187500 0.750000 0.125000
v 0.125000 0.312500 0.875000
v 0.125000 0.750000 0.875000
v 0.125000 0.312500 0.812500
v 0.125000 0.750000 0.812500
v 0.187500 0.312500 0.875000
v 0.187500 0.750000 0.875000
v 0.187500 0.312500 0.812500
v 0.187500 0.750000 0.812500
v 0.812500 0.687500 0.500000
v 0.812500 0.687500 0.437500
v 0.875000 0.687500 0.437500
v 0.875000 0.687500 0.500000
v 0.125000 0.687500 0.187500
v 0.125000 0.687500 0.125000
v 0.187500 0.687500 0.125000
v 0.187500 0.687500 0.187500
v 0.125000 0.687500 0.875000
v 0.125000 0.687500 0.812500
v 0.187500 0.687500 0.812500
v 0.187500 0.687500 0.875000
v 0.500000 0.687500 0.500000
v 0.500000 0.750000 0.500000
v 0.500000 0.750000 0.437500
v 0.500000 0.687500 0.437500
v 0.500000 0.750000 0.125000
v 0.500000 0.750000 0.187500
v 0.500000 0.687500 0.125000
v 0.500000 0.687500 0.187500
v 0.437500 0.687500 0.187500
v 0.437500 0.750000 0.187500
v 0.437500 0.750000 0.125000
v 0.437500 0.687500 0.125000
v 0.500000 0.750000 0.812500
v 0.500000 0.750000 0.875000
v 0.500000 0.687500 0.812500
v 0.500000 0.687500 0.875000
v 0.437500 0.750000 0.812500
v 0.437500 0.687500 0.812500
v 0.437500 0.687500 0.875000
v 0.437500 0.750000 0.875000
v 0.437500 0.687500 0.437500
v 0.437500 0.750000 0.437500
v 0.437500 0.750000 0.500000
v 0.437500 0.687500 0.500000
v 0.500000 0.687500 0.375000
v 0.437500 0.687500 0.375000
v 0.437500 0.750000 0.375000
v 0.500000 0.750000 0.375000
v 0.500000 0.687500 0.562500
v 0.500000 0.750000 0.562500
v 0.437500 0.750000 0.562500
v 0.437500 0.687500 0.562500
v 0.562500 0.750000 0.437500
v 0.562500 0.750000 0.500000
v 0.562500 0.687500 0.500000
v 0.562500 0.687500 0.437500
v 0.500000 0.437500 0.437500
v 0.500000 0.437500 0.500000
v 0.562500 0.437500 0.500000
v 0.437500 0.437500 0.437500
v 0.500000 0.437500 0.375000
v 0.437500 0.437500 0.500000
v 0.500000 0.437500 0.562500
v 0.437500 0.437500 0.375000
v 0.437500 0.437500 0.562500
v 0.562500 0.437500 0.437500
v 0.562500 0.687500 0.562500
v 0.562500 0.750000 0.562500
v 0.562500 0.750000 0.375000
v 0.562500 0.687500 0.375000
v 0.875000 0.312500 0.500000
v 0.875000 0.750000 0.500000
v 0.875000 0.312500 0.437500
v 0.875000 0.750000 0.437500
v 0.875000 0.687500 0.437500
v 0.875000 0.687500 0.500000
vt 0.0781 0.5781
vt 0.0000 0.5781
vt 0.0000 0.5000
vt 0.0781 0.5000
vt 0.0781 0.3281
vt 0.0000 0.3281
vt 0.0000 0.2500
vt 0.0781 0.2500
vt 0.0781 0.7734
vt 0.0781 0.7891
vt -0.0000 0.7891
vt -0.0000 0.7734
vt 0.0781 0.7500
vt 0.0781 0.7656
vt 0.0000 0.7656
vt 0.0000 0.7500
vt 0.1719 0.7656
vt 0.1719 0.7500
vt 0.2500 0.7500
vt 0.2500 0.7656
vt 0.0781 0.7502
vt 0.0781 0.7658
vt 0.0000 0.7658
vt 0.0000 0.7502
vt 0.1563 0.7502
vt 0.1562 0.7658
vt 0.0937 0.7658
vt 0.0938 0.7502
vt 0.1562 0.7500
vt 0.1562 0.7656
vt 0.0938 0.7656
vt 0.0938 0.7500
vt 0.1562 0.3281
vt 0.0938 0.3281
vt 0.0938 0.2500
vt 0.1562 0.2500
vt 0.0781 0.6562
vt 0.0000 0.6562
vt 0.0000 0.5938
vt 0.0781 0.5938
vt 0.0781 0.6719
vt 0.0000 0.6719
vt 0.1719 0.3281
vt 0.1719 0.2500
vt 0.1719 0.7500
vt 0.1719 0.7656
vt 0.1719 0.7502
vt 0.1719 0.7658
vt 0.0938 0.5000
vt 0.0312 0.5000
vt 0.0312 0.6250
vt 0.0938 0.6250
vt 0.1562 0.6719
vt 0.0938 0.6719
vt 0.0938 0.6562
vt 0.1562 0.6562
vt 0.0938 0.5938
vt 0.1562 0.5938
vt 0.1563 0.1562
vt 0.0938 0.1562
vt 0.0937 0.0937
vt 0.1562 0.0937
vt 0.0781 0.7656
vt 0.0781 0.7500
vt 0.0938 0.7500
vt 0.0938 0.7656
vt 0.1562 0.7734
vt 0.1562 0.7891
vt 0.0937 0.7891
vt 0.0937 0.7734
vt 0.0781 0.4062
vt 0.0000 0.4062
vt 0.0000 0.3438
vt 0.0781 0.3438
vt 0.1562 0.5781
vt 0.0938 0.5781
vt 0.0938 0.5000
vt 0.1562 0.5000
vt 0.1719 0.5781
vt 0.1719 0.5000
vt 0.0781 0.4219
vt 0.0000 0.4219
vt 0.1719 0.7734
vt 0.1719 0.7891
vt 0.0937 0.5000
vt 0.0312 0.5000
vt 0.0312 0.6250
vt 0.0937 0.6250
vt 0.1719 0.6562
vt 0.1719 0.5938
vt 0.1719 0.6719
vt 0.2344 0.5000
vt 0.2188 0.5000
vt 0.2188 0.6250
vt 0.2344 0.6250
vt 0.1562 0.7500
vt 0.1562 0.7656
vt 0.2500 0.4219
vt 0.1719 0.4219
vt 0.1719 0.4062
vt 0.2500 0.4062
vt 0.1719 0.7500
vt 0.1562 0.7500
vt 0.0938 0.7500
vt 0.1719 0.3438
vt 0.2500 0.3438
vt 0.2500 0.7502
vt 0.2500 0.7659
vt 0.2500 0.7500
vt 0.2500 0.7656
vt 0.2500 0.3281
vt 0.2500 0.2500
vt 0.0781 0.7500
vt 0.0000 0.7500
vt 0.0312 0.5000
vt 0.0937 0.5000
vt 0.0937 0.6250
vt 0.0312 0.6250
vt 0.1562 0.5000
vt 0.2188 0.5000
vt 0.2188 0.6250
vt 0.1562 0.6250
vt 0.2500 0.5938
vt 0.2500 0.5781
vt 0.0938 0.5000
vt 0.0781 0.5000
vt 0.0938 0.4219
vt 0.2500 0.7500
vt 0.2500 0.6719
vt 0.2500 0.5000
vt 0.1719 0.5000
vt 0.1562 0.5000
vt 0.1562 0.4219
vt 0.2500 0.6562
vt 0.2500 0.7734
vt 0.2500 0.7891
vt 0.0000 0.5000
vt 0.2500 0.5000
vt 0.1406 0.5000
vt 0.1562 0.5000
vt 0.1562 0.6250
vt 0.1406 0.6250
vt 0.0000 0.7656
vt 0.0000 0.7500
vt 0.2187 0.5000
vt 0.2187 0.6250
vt 0.1094 0.5000
vt 0.1094 0.6250
vt 0.1719 0.9062
vt 0.1562 0.9062
vt 0.1562 0.8437
vt 0.1719 0.8437
vt 0.1562 0.9219
vt 0.0938 0.9219
vt 0.0938 0.9062
vt 0.1719 0.9219
vt 0.0781 0.9219
vt 0.0781 0.9062
vt 0.0781 0.8437
vt 0.0938 0.8437
vt 0.0781 0.8281
vt 0.0938 0.8281
vt 0.1562 0.8281
vt 0.1719 0.8281
vt 0.0156 0.5000
vt 0.0156 0.6250
vt 0.2344 0.5000
vt 0.2344 0.6250
vt 0.1562 0.5000
vt 0.1562 0.6250
vt 0.0156 0.5000
vt 0.0156 0.6250
vt 0.1094 0.5000
vt 0.1094 0.6250
vt 0.1406 0.5000
vt 0.1406 0.6250
vt 0.2187 0.5000
vt 0.1562 0.5000
vt 0.1562 0.6250
vt 0.2187 0.6250
vt 0.0312 0.5000
vt 0.0937 0.5000
vt 0.0937 0.6250
vt 0.0312 0.6250
vt 0.2812 0.4219
vt 0.2969 0.4219
vt 0.2969 0.3281
vt 0.2812 0.3281
vt 0.3125 0.5000
vt 0.3281 0.5000
vt 0.3281 0.4062
vt 0.3125 0.4062
vt 0.3281 0.4844
vt 0.3125 0.4844
vt 0.3125 0.3906
vt 0.3281 0.3906
vt 0.2656 0.2656
vt 0.2656 0.2812
vt 0.2812 0.2812
vt 0.2812 0.2656
vt 0.4687 0.3750
vt 0.4687 0.3906
vt 0.4531 0.3906
vt 0.4531 0.3750
vt 0.3281 0.5000
vt 0.3438 0.5000
vt 0.3438 0.4062
vt 0.3281 0.4062
vt 0.2656 0.4844
vt 0.2812 0.4844
vt 0.2812 0.3906
vt 0.2656 0.3906
vt 0.3438 0.4219
vt 0.3281 0.4219
vt 0.3281 0.3281
vt 0.3438 0.3281
vt 0.3828 0.5000
vt 0.3672 0.5000
vt 0.3672 0.4062
vt 0.3828 0.4062
vt 0.3438 0.3438
vt 0.3438 0.3594
vt 0.3594 0.3594
vt 0.3594 0.3438
vt 0.2969 0.4531
vt 0.2969 0.4687
vt 0.2813 0.4687
vt 0.2813 0.4531
vt 0.4062 0.5000
vt 0.4219 0.5000
vt 0.4219 0.4062
vt 0.4062 0.4062
vt 0.3594 0.5000
vt 0.3750 0.5000
vt 0.3750 0.4062
vt 0.3594 0.4062
vt 0.4219 0.4219
vt 0.4062 0.4219
vt 0.4062 0.3281
vt 0.4219 0.3281
vt 0.2812 0.5000
vt 0.2656 0.5000
vt 0.2656 0.4062
vt 0.2812 0.4062
vt 0.3438 0.4219
vt 0.3438 0.4375
vt 0.3594 0.4375
vt 0.3594 0.4219
vt 0.2969 0.2813
vt 0.2969 0.2969
vt 0.2813 0.2969
vt 0.2813 0.2813
vt 0.3281 0.2656
vt 0.3125 0.2656
vt 0.3125 0.2500
vt 0.3281 0.2500
vt 0.3125 0.2656
vt 0.3281 0.2656
vt 0.3281 0.2500
vt 0.3125 0.2500
vt 0.3906 0.3750
vt 0.3906 0.3906
vt 0.3750 0.3906
vt 0.3750 0.3750
vt 0.3828 0.2656
vt 0.3672 0.2656
vt 0.3672 0.2500
vt 0.3828 0.2500
vt 0.3125 0.4688
vt 0.2969 0.4688
vt 0.2969 0.4062
vt 0.3125 0.4062
vt 0.2656 0.2656
vt 0.2812 0.2656
vt 0.2812 0.2500
vt 0.2656 0.2500
vt 0.3281 0.2656
vt 0.3438 0.2656
vt 0.3438 0.2500
vt 0.3281 0.2500
vt 0.2812 0.2656
vt 0.2656 0.2656
vt 0.2656 0.2500
vt 0.2812 0.2500
vt 0.2051 0.4292
vt 0.2051 0.4179
vt 0.2163 0.4179
vt 0.2163 0.4292
vt 0.3594 0.2656
vt 0.3750 0.2656
vt 0.3750 0.2500
vt 0.3594 0.2500
vt 0.4062 0.2656
vt 0.4219 0.2656
vt 0.4219 0.2500
vt 0.4062 0.2500
vt 0.2656 0.2656
vt 0.2812 0.2656
vt 0.2812 0.2500
vt 0.2656 0.2500
vt 0.2969 0.4688
vt 0.2812 0.4688
vt 0.2812 0.4062
vt 0.2969 0.4062
vt 0.2500 0.5312
vt 0.2344 0.5312
vt 0.2344 0.5469
vt 0.2500 0.5469
vt 0.1406 0.6250
vt 0.1250 0.6250
vt 0.1250 0.6094
vt 0.1406 0.6094
vt 0.3594 0.2656
vt 0.3438 0.2656
vt 0.3438 0.2500
vt 0.3594 0.2500
vt 0.3594 0.4687
vt 0.3594 0.4531
vt 0.3750 0.4531
vt 0.3750 0.4687
vt 0.3438 0.4844
vt 0.3438 0.5000
vt 0.3594 0.5000
vt 0.3594 0.4844
vt 0.3594 0.3281
vt 0.3594 0.3438
vt 0.3750 0.3438
vt 0.3750 0.3281
vt 0.2969 0.3281
vt 0.2969 0.3438
vt 0.2812 0.5000
vt 0.4453 0.2500
vt 0.4453 0.2656
vt 0.4375 0.2656
vt 0.4219 0.2656
vt 0.4219 0.2500
vt 0.4375 0.2500
vt 0.3594 0.4062
vt 0.3594 0.4219
vt 0.3750 0.4219
vt 0.3750 0.4062
vt 0.3438 0.2656
vt 0.3438 0.2500
vt 0.3594 0.2500
vt 0.3594 0.2656
vt 0.3594 0.2969
vt 0.3594 0.2813
vt 0.3750 0.2813
vt 0.3750 0.2969
vt 0.2969 0.4062
vt 0.2969 0.4219
vt 0.3750 0.5156
vt 0.4375 0.5156
vt 0.4375 0.5000
vt 0.3281 0.2656
vt 0.3281 0.2500
vt 0.3438 0.2500
vt 0.3438 0.2656
vt 0.2969 0.2656
vt 0.2969 0.2500
vt 0.2812 0.2500
vt 0.2812 0.2656
vt 0.2278 0.4179
vt 0.2278 0.4292
vt 0.2165 0.4292
vt 0.2165 0.4179
vt 0.3750 0.4062
vt 0.3594 0.4062
vt 0.3594 0.3906
vt 0.3281 0.4844
vt 0.3281 0.5000
vt 0.3438 0.5000
vt 0.3438 0.4844
vt 0.3594 0.3594
vt 0.3750 0.3594
vt 0.3594 0.3750
vt 0.2500 0.4844
vt 0.2500 0.5000
vt 0.2656 0.5000
vt 0.2656 0.4844
vt 0.2656 0.5000
vt 0.2812 0.5000
vt 0.2812 0.4375
vt 0.2656 0.4375
vt 0.3438 0.4844
vt 0.3438 0.5000
vt 0.2969 0.5000
vt 0.2969 0.4844
vt 0.3438 0.2656
vt 0.3438 0.2500
vt 0.3750 0.2812
vt 0.3594 0.2812
vt 0.3594 0.4844
vt 0.3750 0.4844
vt 0.2500 0.4844
vt 0.2500 0.5000
vt 0.3125 0.5000
vt 0.3125 0.4844
vt 0.5000 0.2500
vt 0.5000 0.2656
vt 0.3125 0.5000
vt 0.2500 0.5000
vt 0.2500 0.4844
vt 0.2500 0.2500
vt 0.2500 0.2656
vt 0.3125 0.2812
vt 0.3125 0.2656
vt 0.2500 0.2656
vt 0.2500 0.2812
vt 0.8765 0.9438
vt 0.8761 0.9432
vt 0.8771 0.9415
vt 0.8772 0.9433
vt 0.0448 0.8437
vt 0.0436 0.8443
vt 0.0434 0.8432
vt 0.0457 0.8403
vt 0.8345 0.4105
vt 0.8345 0.4105
vt 0.8345 0.4105
vt 0.8345 0.4105
vt 0.3594 0.4688
vt 0.3438 0.4688
vt 0.3438 0.4062
vt 0.3594 0.4062
vt 0.4844 0.5000
vt 0.5000 0.5000
vt 0.5000 0.4375
vt 0.4844 0.4375
vt 0.3438 0.4844
vt 0.3281 0.4844
vt 0.3281 0.4219
vt 0.3438 0.4219
vt 0.2812 0.4688
vt 0.2656 0.4688
vt 0.2656 0.4062
vt 0.2812 0.4062
vt 0.3438 0.4688
vt 0.3594 0.4688
vt 0.3594 0.4062
vt 0.3438 0.4062
vt 0.3438 0.4219
vt 0.3281 0.4219
vt 0.2656 0.4219
vt 0.2500 0.4219
vt 0.2812 0.5000
vt 0.2969 0.5000
vt 0.2969 0.4375
vt 0.2812 0.4375
vt 0.5000 0.4844
vt 0.4844 0.4844
vt 0.4844 0.4219
vt 0.5000 0.4219
vt 0.2031 0.7344
vt 0.2031 0.7500
vt 0.1875 0.7500
vt 0.1875 0.7344
vt 0.0625 0.7344
vt 0.0625 0.7500
vt 0.0469 0.7500
vt 0.0469 0.7344
vt 0.2344 0.5156
vt 0.2500 0.5156
vt 0.2500 0.5000
vt 0.2344 0.5000
vt 0.2031 0.5156
vt 0.2031 0.5000
vt 0.1875 0.5000
vt 0.1875 0.5156
vt 0.1250 0.6406
vt 0.1406 0.6406
vt 0.1406 0.6562
vt 0.1250 0.6562
vt 0.0781 0.5156
vt 0.0781 0.5000
vt 0.0938 0.5000
vt 0.0938 0.5156
vt 0.2656 0.5000
vt 0.2500 0.5000
vt 0.2500 0.4062
vt 0.2656 0.4062
vt 0.2656 0.2656
vt 0.2500 0.2656
vt 0.2500 0.2500
vt 0.2656 0.2500
vn 0.0000 -1.0000 0.0000
vn 0.0000 1.0000 0.0000
vn 1.0000 0.0000 0.0000
vn -0.0000 0.0000 1.0000
vn -1.0000 -0.0000 -0.0000
vn 0.0000 0.0000 -1.0000
usemtl Material
s off
f 72/1/1 42/2/1 3/3/1 65/4/1
f 71/5/2 66/6/2 7/7/2 44/8/2
f 61/9/3 62/10/3 6/11/3 2/12/3
f 42/13/4 44/14/4 7/15/4 3/16/4
f 49/17/5 50/18/5 8/19/5 4/20/5
f 43/21/6 41/22/6 4/23/6 8/24/6
f 15/25/6 13/26/6 9/27/6 11/28/6
f 14/29/4 16/30/4 12/31/4 10/32/4
f 64/33/2 63/34/2 12/35/2 16/36/2
f 68/37/1 14/38/1 10/39/1 67/40/1
f 70/41/1 34/42/1 14/38/1 68/37/1
f 69/43/2 64/33/2 16/36/2 36/44/2
f 34/45/4 36/46/4 16/30/4 14/29/4
f 35/47/6 33/48/6 13/26/6 15/25/6
f 48/49/5 45/50/5 77/51/5 80/52/5
f 39/53/1 38/54/1 23/55/1 28/56/1
f 28/56/1 23/55/1 22/57/1 27/58/1
f 32/59/2 31/60/2 21/61/2 24/62/2
f 65/63/5 66/64/5 20/65/5 18/66/5
f 29/67/3 30/68/3 19/69/3 17/70/3
f 48/71/2 26/72/2 20/73/2 45/74/2
f 47/75/1 46/76/1 18/77/1 25/78/1
f 60/79/1 47/75/1 25/78/1 49/80/1
f 59/81/2 50/82/2 26/72/2 48/71/2
f 53/83/3 54/84/3 30/68/3 29/67/3
f 32/85/5 24/86/5 76/87/5 75/88/5
f 52/89/1 28/56/1 27/58/1 51/90/1
f 58/91/1 39/53/1 28/56/1 52/89/1
f 57/92/6 56/93/6 79/94/6 83/95/6
f 18/66/5 20/65/5 26/96/5 25/97/5
f 54/98/2 57/99/2 40/100/2 30/101/2
f 53/102/1 29/103/1 39/53/1 58/91/1
f 29/103/1 17/104/1 38/54/1 39/53/1
f 30/101/2 40/100/2 37/105/2 19/106/2
f 5/107/6 1/108/6 33/48/6 35/47/6
f 2/109/4 6/110/4 36/46/4 34/45/4
f 62/111/2 69/43/2 36/44/2 6/112/2
f 61/113/1 2/114/1 34/42/1 70/41/1
f 37/115/3 40/116/3 82/117/3 81/118/3
f 51/90/1 27/58/1 47/75/1 60/79/1
f 27/58/1 22/57/1 46/76/1 47/75/1
f 31/119/4 32/120/4 75/121/4 73/122/4
f 11/28/6 9/27/6 41/22/6 43/21/6
f 10/32/4 12/31/4 44/14/4 42/13/4
f 63/34/2 71/5/2 44/8/2 12/35/2
f 67/40/1 10/39/1 42/2/1 72/1/1
f 9/123/1 51/90/1 60/79/1 41/124/1
f 11/125/2 43/126/2 59/81/2 55/127/2
f 1/128/1 53/102/1 58/91/1 33/129/1
f 5/130/2 35/131/2 57/99/2 54/98/2
f 35/131/2 15/132/2 56/133/2 57/99/2
f 33/129/1 58/91/1 52/89/1 13/134/1
f 13/134/1 52/89/1 51/90/1 9/123/1
f 15/132/2 11/125/2 55/127/2 56/133/2
f 1/135/3 5/136/3 54/84/3 53/83/3
f 43/126/2 8/137/2 50/82/2 59/81/2
f 41/124/1 60/79/1 49/80/1 4/138/1
f 25/97/5 26/96/5 50/18/5 49/17/5
f 22/57/1 67/40/1 72/1/1 46/76/1
f 71/139/4 63/140/4 85/141/4 88/142/4
f 17/104/1 61/113/1 70/41/1 38/54/1
f 19/106/2 37/105/2 69/43/2 62/111/2
f 3/143/5 7/144/5 66/64/5 65/63/5
f 63/140/4 64/145/4 86/146/4 85/141/4
f 38/54/1 70/41/1 68/37/1 23/55/1
f 23/55/1 68/37/1 67/40/1 22/57/1
f 59/147/5 48/49/5 80/52/5 84/148/5
f 17/70/3 19/69/3 62/10/3 61/9/3
f 45/74/2 20/73/2 66/6/2 71/5/2
f 46/76/1 72/1/1 65/4/1 18/77/1
f 82/149/2 75/150/2 76/151/2 81/152/2
f 79/153/2 78/154/2 73/155/2 75/150/2
f 83/156/2 79/153/2 75/150/2 82/149/2
f 78/154/2 84/157/2 80/158/2 73/155/2
f 73/155/2 80/158/2 77/159/2 74/160/2
f 74/160/2 77/159/2 88/161/2 85/162/2
f 81/152/2 76/151/2 86/163/2 87/164/2
f 76/151/2 74/160/2 85/162/2 86/163/2
f 69/165/3 37/115/3 81/118/3 87/166/3
f 64/145/4 69/167/4 87/168/4 86/146/4
f 56/93/6 55/169/6 78/170/6 79/94/6
f 45/50/5 71/171/5 88/172/5 77/51/5
f 40/116/3 57/173/3 83/174/3 82/117/3
f 55/169/6 59/175/6 84/176/6 78/170/6
f 24/177/6 21/178/6 74/179/6 76/180/6
f 21/181/3 31/182/3 73/183/3 74/184/3
f 113/185/5 114/186/5 91/187/5 89/188/5
f 114/189/6 115/190/6 95/191/6 91/192/6
f 116/193/4 113/194/4 89/195/4 93/196/4
f 89/197/1 91/198/1 95/199/1 93/200/1
f 94/201/2 96/202/2 92/203/2 90/204/2
f 117/205/5 118/206/5 99/207/5 97/208/5
f 118/209/6 119/210/6 103/211/6 99/212/6
f 119/213/3 120/214/3 101/215/3 103/216/3
f 120/217/4 117/218/4 97/219/4 101/220/4
f 97/221/1 99/222/1 103/223/1 101/224/1
f 102/225/2 104/226/2 100/227/2 98/228/2
f 121/229/5 122/230/5 107/231/5 105/232/5
f 122/233/6 123/234/6 111/235/6 107/236/6
f 123/237/3 124/238/3 109/239/3 111/240/3
f 124/241/4 121/242/4 105/243/4 109/244/4
f 105/245/1 107/246/1 111/247/1 109/248/1
f 110/249/2 112/250/2 108/251/2 106/252/2
f 94/253/4 90/254/4 113/255/4 116/256/4
f 92/257/6 96/258/6 115/259/6 114/260/6
f 158/261/2 157/262/2 127/263/2 126/264/2
f 102/265/4 98/266/4 117/267/4 120/268/4
f 149/269/3 128/270/3 161/271/3 165/272/3
f 100/273/6 104/274/6 119/275/6 118/276/6
f 98/277/5 100/278/5 118/279/5 117/280/5
f 110/281/4 106/282/4 121/283/4 124/284/4
f 154/285/3 153/286/3 125/287/3 126/288/3
f 108/289/6 112/290/6 123/291/6 122/292/6
f 106/293/5 108/294/5 122/295/5 121/296/5
f 126/297/5 127/298/5 128/299/5 125/300/5
f 160/301/3 159/302/3 163/303/3 170/304/3
f 160/305/1 128/306/1 149/307/1 174/308/1
f 158/309/2 126/310/2 154/311/2 172/312/2
f 129/313/3 130/314/3 132/315/3 131/316/3
f 135/317/2 134/318/2 130/319/2 129/320/2
f 136/321/6 135/322/6 129/323/6 131/324/6
f 133/325/1 136/326/1 131/327/1 132/328/1
f 120/329/1 119/330/1 136/326/1 133/325/1
f 119/210/6 104/331/6 135/322/6 136/321/6
f 104/226/2 102/225/2 134/318/2 135/317/2
f 102/265/4 120/268/4 133/332/4 134/333/4
f 137/334/3 138/335/3 140/336/3 139/337/3
f 143/338/1 142/339/1 139/340/1 140/341/1
f 144/342/4 143/343/4 140/344/4 138/345/4
f 141/346/2 144/347/2 138/348/2 137/349/2
f 112/250/2 110/249/2 144/347/2 141/346/2
f 110/281/4 124/284/4 143/343/4 144/342/4
f 124/350/1 123/351/1 142/339/1 143/338/1
f 123/234/6 112/352/6 141/353/6 142/354/6
f 146/355/4 145/356/4 128/357/4 127/358/4
f 151/359/5 150/360/5 145/361/5 146/362/5
f 149/363/3 152/364/3 127/365/3 128/366/3
f 152/367/2 151/368/2 146/369/2 127/263/2
f 148/370/6 147/371/6 126/372/6 125/373/6
f 155/374/2 154/375/2 126/264/2 147/376/2
f 156/377/5 155/378/5 147/379/5 148/380/5
f 125/381/5 128/382/5 161/383/5 162/384/5
f 130/319/2 134/318/2 151/368/2 152/367/2
f 132/385/3 130/386/3 152/387/3 149/388/3
f 134/389/5 133/390/5 150/360/5 151/359/5
f 133/325/1 132/328/1 149/391/1 150/392/1
f 139/340/1 142/339/1 156/393/1 153/394/1
f 142/395/5 141/396/5 155/397/5 156/398/5
f 141/346/2 137/349/2 154/375/2 155/374/2
f 137/334/3 139/337/3 153/399/3 154/400/3
f 113/194/4 90/401/4 158/402/4 159/403/4
f 92/257/6 114/260/6 160/404/6 157/405/6
f 114/406/1 113/407/1 159/408/1 160/409/1
f 90/204/2 92/203/2 157/262/2 158/261/2
f 168/410/1 165/411/1 161/412/1 164/413/1
f 170/414/1 163/415/1 162/416/1 161/417/1
f 167/418/1 169/419/1 166/420/1 162/421/1
f 153/422/4 156/423/4 169/424/4 167/425/4
f 128/426/6 160/427/6 170/428/6 161/429/6
f 128/430/4 145/431/4 164/432/4 161/433/4
f 125/434/3 153/435/3 167/436/3 162/437/3
f 150/438/6 149/439/6 165/440/6 168/441/6
f 148/370/6 125/373/6 162/442/6 166/443/6
f 156/377/5 148/380/5 166/444/5 169/445/5
f 145/446/5 150/447/5 168/448/5 164/449/5
f 159/450/4 125/451/4 162/452/4 163/453/4
f 171/454/4 172/455/4 154/456/4 153/457/4
f 159/458/3 158/459/3 172/460/3 171/461/3
f 125/462/1 159/463/1 171/464/1 153/465/1
f 173/466/6 174/467/6 149/468/6 152/469/6
f 127/470/2 157/471/2 173/472/2 152/473/2
f 157/474/3 160/475/3 174/476/3 173/477/3
f 179/478/3 180/479/3 175/480/3 177/481/3
f 178/482/3 176/483/3 180/484/3 179/485/3
