# Blender v2.78 (sub 0) OBJ File: ''
# www.blender.org
mtllib realelevator.mtl
o Cube
v 0.937500 0.000000 0.062500
v 0.937500 0.000000 0.937500
v 0.062500 0.000000 0.937500
v 0.062500 0.000000 0.062500
v 0.937500 1.000000 0.062500
v 0.937500 1.000000 0.937500
v 0.062500 1.000000 0.937500
v 0.062500 1.000000 0.062500
vt 0.2500 1.0000
vt 0.2500 0.7500
vt 0.0000 0.7500
vt 0.0000 1.0000
vt 0.2500 1.0000
vt 0.0000 1.0000
vt -0.0000 0.7500
vt 0.2500 0.7500
vt 0.9844 0.2500
vt 0.9844 0.5000
vt 0.7656 0.5000
vt 0.7656 0.2500
vt 0.9844 0.2500
vt 0.9844 0.5000
vt 0.7656 0.5000
vt 0.7656 0.2500
vt 0.7656 0.2501
vt 0.7656 0.5001
vt 0.9844 0.5001
vt 0.9844 0.2501
vt 0.7656 0.2500
vt 0.7656 0.5000
vn 0.0000 -1.0000 0.0000
vn 0.0000 1.0000 0.0000
vn 1.0000 0.0000 0.0000
vn -0.0000 -0.0000 1.0000
vn -1.0000 -0.0000 -0.0000
vn 0.0000 0.0000 -1.0000
usemtl Material
s off
f 1/1/1 2/2/1 3/3/1 4/4/1
f 5/5/2 8/6/2 7/7/2 6/8/2
f 1/9/3 5/10/3 6/11/3 2/12/3
f 2/13/4 6/14/4 7/15/4 3/16/4
f 3/17/5 7/18/5 8/19/5 4/20/5
f 5/10/6 1/9/6 4/21/6 8/22/6
