# Blender v2.77 (sub 0) OBJ File: 'scaffold.blend'
# www.blender.org
mtllib scaffold.mtl
o Cube
v 1.000000 0.937500 0.000000
v 1.000000 0.937500 1.000000
v -0.000000 0.937500 1.000000
v 0.000000 0.937500 -0.000000
v 1.000000 1.000000 0.000000
v 1.000000 1.000000 1.000000
v -0.000000 1.000000 1.000000
v 0.000000 1.000000 0.000000
v 0.062500 0.937500 -0.000000
v 0.062500 0.937500 1.000000
v 0.062500 1.000000 0.000000
v 0.062500 1.000000 1.000000
v 0.937500 0.937500 0.000000
v 0.937500 0.937500 1.000000
v 0.937500 1.000000 0.000000
v 0.937500 1.000000 1.000000
v 1.000000 0.937500 0.937500
v 0.000000 0.937500 0.937500
v 1.000000 1.000000 0.937500
v -0.000000 1.000000 0.937500
v 0.062500 1.000000 0.937500
v 0.062500 0.937500 0.937500
v 0.937500 0.937500 0.937500
v 0.937500 1.000000 0.937500
v 0.000000 0.937500 0.062500
v 0.000000 1.000000 0.062500
v 0.062500 0.937500 0.062500
v 0.937500 0.937500 0.062500
v 1.000000 0.937500 0.062500
v 1.000000 1.000000 0.062500
v 0.062500 1.000000 0.062500
v 0.937500 1.000000 0.062500
v 1.000000 0.000000 0.937500
v 1.000000 0.000000 1.000000
v 0.062500 0.000000 -0.000000
v 0.000000 0.000000 -0.000000
v 0.062500 0.000000 1.000000
v -0.000000 0.000000 1.000000
v 0.000000 0.000000 0.062500
v 0.062500 0.000000 0.062500
v 1.000000 0.000000 0.000000
v 0.937500 0.000000 0.000000
v 0.937500 0.000000 1.000000
v 0.937500 0.000000 0.062500
v 0.000000 0.000000 0.937500
v 0.062500 0.000000 0.937500
v 0.937500 0.000000 0.937500
v 1.000000 0.000000 0.062500
v 0.062500 0.500000 0.062500
v 0.062500 0.500000 -0.000000
v 0.000000 0.500000 -0.000000
v 0.000000 0.500000 0.062500
v 0.937500 0.500000 0.000000
v 0.937500 0.500000 0.062500
v 1.000000 0.500000 0.062500
v 1.000000 0.500000 0.000000
v 0.937500 0.500000 0.937500
v 0.937500 0.500000 1.000000
v 1.000000 0.500000 1.000000
v 1.000000 0.500000 0.937500
v -0.000000 0.500000 1.000000
v 0.062500 0.500000 1.000000
v 0.062500 0.500000 0.937500
v 0.000000 0.500000 0.937500
v 0.937500 0.437500 0.000000
v 1.000000 0.437500 0.062500
v 0.937500 0.437500 0.062500
v 1.000000 0.437500 0.000000
v 0.937500 0.437500 0.937500
v 0.937500 0.437500 1.000000
v 1.000000 0.437500 1.000000
v 1.000000 0.437500 0.937500
v -0.000000 0.437500 1.000000
v 0.062500 0.437500 1.000000
v 0.062500 0.437500 0.937500
v 0.000000 0.437500 0.937500
v 0.062500 0.437500 0.062500
v 0.000000 0.437500 -0.000000
v 0.062500 0.437500 -0.000000
v 0.000000 0.437500 0.062500
vt 0.2344 0.7656
vt 0.2500 0.7656
vt 0.2500 0.8750
vt 0.2344 0.8750
vt 0.2344 0.9843
vt 0.2500 0.9843
vt 0.2500 1.0000
vt 0.2344 1.0000
vt 0.2344 1.0000
vt 0.2344 0.9843
vt 0.2500 0.9843
vt 0.2500 1.0000
vt 0.2344 1.0000
vt 0.2344 0.9843
vt 0.2500 0.9843
vt 0.2500 1.0000
vt 0.0156 0.9843
vt 0.0156 1.0000
vt 0.0000 1.0000
vt 0.0000 0.9843
vt 0.2344 1.0000
vt 0.2344 0.9843
vt 0.2500 0.9843
vt 0.2500 1.0000
vt 0.0156 1.0000
vt 0.0156 0.9843
vt 0.0156 1.0000
vt 0.0156 0.9843
vt 0.0156 0.9843
vt 0.0156 1.0000
vt 0.2344 0.7656
vt 0.2500 0.7656
vt 0.2500 0.9843
vt 0.2344 0.9843
vt 0.1094 0.7656
vt 0.1250 0.7656
vt 0.1250 0.8750
vt 0.1094 0.8750
vt 0.0000 0.9843
vt 0.0000 1.0000
vt 0.0000 1.0000
vt 0.0000 0.9843
vt 0.0000 1.0000
vt 0.0000 0.9843
vt 0.0000 0.7656
vt 0.0156 0.7656
vt 0.0156 0.7500
vt 0.2344 0.7500
vt 0.0156 0.7656
vt 0.0156 0.9843
vt 0.0156 0.2656
vt 0.2344 0.2656
vt 0.2344 0.4843
vt 0.0156 0.4843
vt 0.2500 0.9843
vt 0.2344 1.0000
vt 0.2344 0.9843
vt 0.0156 1.0000
vt 0.0156 0.9843
vt 0.2344 0.7656
vt 0.2500 0.7656
vt 0.2344 1.0000
vt 0.0156 1.0000
vt 0.0000 0.7656
vt 0.0156 0.7656
vt 0.0156 0.8750
vt 0.0000 0.8750
vt 0.2344 0.7500
vt 0.2500 0.7500
vt 0.0000 1.0000
vt 0.0000 0.9843
vt 0.0156 0.7500
vt 0.0000 0.7656
vt 0.0000 0.9843
vt 0.1406 0.7656
vt 0.1250 0.7656
vt 0.1250 0.8750
vt 0.1406 0.8750
vt 0.0000 0.7500
vt 0.1250 0.8750
vt 0.1406 0.8750
vt 0.1406 0.8906
vt 0.1250 0.8906
vt 0.1250 0.8594
vt 0.1406 0.8594
vt 0.1406 0.8750
vt 0.1250 0.8750
vt 0.1094 0.8750
vt 0.1250 0.8750
vt 0.1250 0.8906
vt 0.1094 0.8906
vt 0.1094 0.8594
vt 0.1250 0.8594
vt 0.1250 0.8750
vt 0.1094 0.8750
vt 0.1250 0.7656
vt 0.1406 0.7656
vt 0.1406 0.8750
vt 0.1250 0.8750
vt 0.1250 0.7656
vt 0.1094 0.7656
vt 0.1094 0.8750
vt 0.1250 0.8750
vt 0.2500 0.7656
vt 0.2344 0.7656
vt 0.2344 0.8750
vt 0.2500 0.8750
vt 0.1250 0.7500
vt 0.1406 0.7500
vt 0.1406 0.8594
vt 0.0156 0.8750
vt 0.0000 0.8750
vt 0.0000 0.7656
vt 0.0156 0.7656
vt 0.1250 0.7656
vt 0.1250 0.8750
vt 0.0156 0.7656
vt 0.0313 0.7656
vt 0.0313 0.8750
vt 0.0156 0.8750
vt 0.2344 0.7656
vt 0.2188 0.7656
vt 0.2188 0.8750
vt 0.2344 0.8750
vt 0.2188 0.7656
vt 0.2344 0.7656
vt 0.2344 0.8750
vt 0.2188 0.8750
vt 0.1406 0.7656
vt 0.1250 0.7656
vt 0.1250 0.8750
vt 0.1406 0.8750
vt 0.1094 0.7500
vt 0.1250 0.7500
vt 0.1250 0.8594
vt 0.1094 0.8594
vt 0.2500 0.8750
vt 0.2344 0.8750
vt 0.2344 0.7656
vt 0.2500 0.7656
vt 0.2500 0.9999
vt 0.2344 0.9999
vt 0.2344 0.8906
vt 0.2500 0.8906
vt 0.1094 0.8750
vt 0.1250 0.8750
vt 0.1250 0.9844
vt 0.1094 0.9844
vt 0.2500 0.8906
vt 0.2344 0.8906
vt 0.2344 1.0000
vt 0.2500 1.0000
vt 0.1250 0.8906
vt 0.1406 0.8906
vt 0.1406 1.0000
vt 0.1250 1.0000
vt 0.0156 0.9999
vt 0.0000 0.9999
vt 0.0000 0.8906
vt 0.0156 0.8906
vt 0.1250 0.8750
vt 0.1406 0.8750
vt 0.1406 0.9844
vt 0.1250 0.9844
vt 0.1406 0.8906
vt 0.1250 0.8906
vt 0.1250 1.0000
vt 0.1406 1.0000
vt 0.2344 0.8906
vt 0.2500 0.8906
vt 0.2500 1.0000
vt 0.2344 1.0000
vt 0.1406 0.8906
vt 0.1250 0.8906
vt 0.1250 1.0000
vt 0.1406 1.0000
vt 0.2188 0.8906
vt 0.2344 0.8906
vt 0.2344 1.0000
vt 0.2188 1.0000
vt 0.0156 0.8906
vt 0.0313 0.8906
vt 0.0313 1.0000
vt 0.0156 1.0000
vt 0.1250 0.8906
vt 0.1094 0.8906
vt 0.1094 1.0000
vt 0.1250 1.0000
vt 0.2344 0.8906
vt 0.2188 0.8906
vt 0.2188 1.0000
vt 0.2344 1.0000
vt 0.1250 0.8906
vt 0.1094 0.8906
vt 0.1094 1.0000
vt 0.1250 1.0000
vt 0.0000 0.8906
vt 0.0156 0.8906
vt 0.0156 1.0000
vt 0.0000 1.0000
vt 0.1250 0.8906
vt 0.1250 1.0000
vt 0.1563 0.8906
vt 0.0938 0.8906
vt 0.0938 0.8594
vt 0.1563 0.8594
vt 0.0156 0.8984
vt 0.0156 0.9140
vt 0.2344 0.9140
vt 0.2344 0.8984
vt 0.2344 0.7500
vt 0.2500 0.7500
vt 0.0000 0.9687
vt 0.0156 0.9687
vt 0.0156 0.7500
vt 0.0000 0.7500
vt 0.2188 0.7500
vt 0.2344 0.7500
vt 0.0156 0.7500
vt 0.0313 0.7500
vt 0.0156 0.9140
vt 0.0156 0.8984
vt 0.2344 0.8984
vt 0.2344 0.9140
vt 0.2344 0.7500
vt 0.2188 0.7500
vt 0.0156 0.9687
vt 0.0313 0.9687
vt 0.0313 0.7500
vt 0.0156 0.7500
vt 0.0000 0.7500
vt 0.0156 0.7500
vt 0.1563 0.8906
vt 0.0938 0.8906
vt 0.0938 0.8594
vt 0.1563 0.8594
vt 0.1563 0.8906
vt 0.0938 0.8906
vt 0.0938 0.8594
vt 0.1563 0.8594
vt 0.2500 0.7500
vt 0.2344 0.7500
vt 0.1563 0.8906
vt 0.0938 0.8906
vt 0.0938 0.8594
vt 0.1563 0.8594
vt 0.0313 0.9844
vt 0.0313 1.0000
vt 0.2500 1.0000
vt 0.2500 0.9844
vt 0.0313 0.9844
vt 0.2500 0.9844
vt 0.2500 0.9687
vt 0.0313 1.0000
vt 0.0313 0.9844
vt 0.2500 0.9844
vt 0.2500 1.0000
vt 0.0313 0.9844
vt 0.0313 0.9687
vt 0.2500 0.9687
vt 0.2500 0.9844
vt 0.2500 0.7500
vt 0.2500 0.7656
vt 0.0156 0.9687
vt 0.0156 0.7500
vt 0.0313 0.7500
vt 0.2344 0.9140
vt 0.2344 0.8984
vt 0.0156 0.9687
vt 0.0000 0.9687
vt 0.0000 0.7500
vt 0.0156 0.7500
vt 0.0000 0.7500
vt 0.0000 0.7656
vt 0.0000 0.7656
vt 0.0000 0.7500
vt 0.0156 0.9140
vt 0.0156 0.8984
vn 1.0000 0.0000 0.0000
vn 0.0000 1.0000 0.0000
vn -0.0000 -0.0000 1.0000
vn -1.0000 -0.0000 -0.0000
vn 0.0000 0.0000 -1.0000
vn 0.0000 -1.0000 0.0000
usemtl Material
s off
f 68/1/1 66/2/1 48/3/1 41/4/1
f 21/5/2 20/6/2 7/7/2 12/8/2
f 17/9/1 19/10/1 6/11/1 2/12/1
f 10/13/3 12/14/3 7/15/3 3/16/3
f 25/17/4 26/18/4 8/19/4 4/20/4
f 11/21/5 9/22/5 4/23/5 8/24/5
f 15/25/5 13/26/5 9/22/5 11/21/5
f 14/27/3 16/28/3 12/14/3 10/13/3
f 24/29/2 21/5/2 12/8/2 16/30/2
f 23/31/6 14/32/6 10/33/6 22/34/6
f 75/35/1 74/36/1 37/37/1 46/38/1
f 19/39/2 24/29/2 16/30/2 6/40/2
f 2/41/3 6/42/3 16/28/3 14/27/3
f 5/43/5 1/44/5 13/26/5 15/25/5
f 30/45/2 32/46/2 24/29/2 19/39/2
f 29/47/6 17/48/6 23/31/6 28/49/6
f 28/49/6 23/31/6 22/34/6 27/50/6
f 32/51/2 31/52/2 21/53/2 24/54/2
f 3/55/4 7/7/4 20/56/4 18/57/4
f 29/58/1 30/59/1 19/10/1 17/9/1
f 31/60/2 26/61/2 20/6/2 21/5/2
f 27/50/6 22/34/6 18/62/6 25/63/6
f 74/64/3 73/65/3 38/66/3 37/67/3
f 11/68/2 8/69/2 26/61/2 31/60/2
f 1/70/1 5/71/1 30/59/1 29/58/1
f 15/72/2 11/68/2 31/60/2 32/46/2
f 13/73/6 28/49/6 27/50/6 9/74/6
f 67/75/4 65/76/4 42/77/4 44/78/4
f 5/79/2 15/72/2 32/46/2 30/45/2
f 18/57/4 20/56/4 26/18/4 25/17/4
f 46/80/6 37/81/6 38/82/6 45/83/6
f 33/84/6 34/85/6 43/86/6 47/87/6
f 35/88/6 40/89/6 39/90/6 36/91/6
f 41/92/6 48/93/6 44/94/6 42/95/6
f 79/96/1 77/97/1 40/98/1 35/99/1
f 70/100/4 69/101/4 47/102/4 43/103/4
f 80/104/4 78/105/4 36/106/4 39/107/4
f 66/108/3 67/109/3 44/110/3 48/93/3
f 65/111/5 68/112/5 41/113/5 42/114/5
f 76/115/5 75/35/5 46/38/5 45/116/5
f 71/117/3 70/118/3 43/119/3 34/120/3
f 73/121/4 76/122/4 45/123/4 38/124/4
f 72/125/1 71/126/1 34/127/1 33/128/1
f 69/129/5 72/130/5 33/131/5 47/132/5
f 77/133/3 80/134/3 39/135/3 40/136/3
f 78/137/5 79/138/5 35/139/5 36/140/5
f 4/141/5 9/142/5 50/143/5 51/144/5
f 27/145/3 25/146/3 52/147/3 49/148/3
f 25/149/4 4/150/4 51/151/4 52/152/4
f 9/153/1 27/154/1 49/155/1 50/156/1
f 13/157/5 1/158/5 56/159/5 53/160/5
f 29/161/3 28/162/3 54/163/3 55/164/3
f 28/165/4 13/166/4 53/167/4 54/168/4
f 1/169/1 29/170/1 55/171/1 56/172/1
f 23/173/5 17/174/5 60/175/5 57/176/5
f 17/177/1 2/178/1 59/179/1 60/180/1
f 2/181/3 14/182/3 58/183/3 59/184/3
f 14/185/4 23/186/4 57/187/4 58/188/4
f 3/189/4 18/190/4 64/191/4 61/192/4
f 18/193/5 22/194/5 63/195/5 64/196/5
f 10/197/3 3/198/3 61/199/3 62/200/3
f 22/194/1 10/201/1 62/202/1 63/195/1
f 53/160/5 56/159/5 68/112/5 65/111/5
f 55/203/3 54/204/3 67/205/3 66/206/3
f 57/207/5 69/208/5 75/209/5 63/210/5
f 56/211/1 55/212/1 66/2/1 68/1/1
f 75/213/6 76/214/6 80/215/6 77/216/6
f 60/217/1 59/218/1 71/126/1 72/125/1
f 59/219/3 58/220/3 70/118/3 71/117/3
f 67/221/3 54/222/3 49/223/3 77/224/3
f 61/225/4 64/226/4 76/122/4 73/121/4
f 72/227/6 69/228/6 67/229/6 66/230/6
f 62/231/3 61/232/3 73/65/3 74/64/3
f 63/233/1 62/234/1 74/235/1 75/236/1
f 51/144/5 50/143/5 79/138/5 78/137/5
f 49/237/3 52/238/3 80/239/3 77/240/3
f 52/241/4 51/242/4 78/105/4 80/104/4
f 50/243/1 49/244/1 77/245/1 79/246/1
f 65/247/6 67/248/6 77/249/6 79/250/6
f 69/228/6 70/251/6 74/252/6 75/253/6
f 54/254/2 53/255/2 50/256/2 49/257/2
f 58/258/2 57/259/2 63/260/2 62/261/2
f 53/160/5 65/111/5 79/138/5 50/143/5
f 70/118/3 58/220/3 62/262/3 74/263/3
f 57/259/2 60/264/2 55/265/2 54/266/2
f 69/267/4 57/268/4 54/222/4 67/221/4
f 64/269/2 63/270/2 49/271/2 52/272/2
f 76/122/4 64/226/4 52/273/4 80/274/4
f 60/217/1 72/125/1 66/275/1 55/276/1
f 63/210/1 75/209/1 77/277/1 49/278/1
