# Blender v2.77 (sub 0) OBJ File: 'stabilizer.blend'
# www.blender.org
mtllib stabilizer.mtl
o Cube
v 1.000000 0.000000 0.000000
v 1.000000 0.000000 1.000000
v -0.000000 0.000000 1.000000
v 0.000000 0.000000 -0.000000
v 1.000000 0.500000 0.000000
v 1.000000 0.500000 1.000000
v -0.000000 0.500000 1.000000
v 0.000000 0.500000 0.000000
v 0.062500 0.000000 -0.000000
v 0.062500 0.000000 1.000000
v 0.062500 0.500000 0.000000
v 0.062500 0.500000 1.000000
v 0.937500 0.000000 0.000000
v 0.937500 0.000000 1.000000
v 0.937500 0.500000 0.000000
v 0.937500 0.500000 1.000000
v 1.000000 0.000000 0.937500
v 0.000000 0.000000 0.937500
v 1.000000 0.500000 0.937500
v -0.000000 0.500000 0.937500
v 0.062500 0.500000 0.937500
v 0.062500 0.000000 0.937500
v 0.937500 0.000000 0.937500
v 0.937500 0.500000 0.937500
v 0.000000 0.000000 0.062500
v 0.000000 0.500000 0.062500
v 0.062500 0.000000 0.062500
v 0.937500 0.000000 0.062500
v 1.000000 0.000000 0.062500
v 1.000000 0.500000 0.062500
v 0.062500 0.500000 0.062500
v 0.937500 0.500000 0.062500
v 1.000000 1.000000 0.937500
v 1.000000 1.000000 1.000000
v 0.062500 1.000000 0.000000
v 0.000000 1.000000 0.000000
v 0.062500 1.000000 1.000000
v -0.000000 1.000000 1.000000
v 0.000000 1.000000 0.062500
v 0.062500 1.000000 0.937500
v 1.000000 1.000000 0.000000
v 0.937500 1.000000 0.000000
v 0.937500 1.000000 1.000000
v 0.937500 1.000000 0.937500
v -0.000000 1.000000 0.937500
v 1.000000 1.000000 0.062500
v 0.062500 1.000000 0.062500
v 0.937500 1.000000 0.062500
vt 0.2656 0.0156
vt 0.2500 0.0156
vt 0.2500 0.0000
vt 0.2656 0.0000
vt 0.4844 0.3750
vt 0.5000 0.3750
vt 0.5000 0.5000
vt 0.4844 0.5000
vt 0.2656 0.2500
vt 0.2656 0.3750
vt 0.2500 0.3750
vt 0.2500 0.2500
vt 0.2656 0.2500
vt 0.2656 0.3750
vt 0.2500 0.3750
vt 0.2500 0.2500
vt 0.2656 0.2500
vt 0.2656 0.3750
vt 0.2500 0.3750
vt 0.2500 0.2500
vt 0.4844 0.3750
vt 0.4844 0.2500
vt 0.5000 0.2500
vt 0.5000 0.3750
vt 0.2656 0.1250
vt 0.2656 0.0000
vt 0.4844 0.0000
vt 0.4844 0.1250
vt 0.4844 0.0000
vt 0.4844 0.1250
vt 0.2656 0.1250
vt 0.2656 0.0000
vt 0.2656 0.2344
vt 0.4844 0.2344
vt 0.4844 0.2500
vt 0.2656 0.2500
vt 0.2656 0.2344
vt 0.2500 0.2344
vt 0.2500 0.2500
vt 0.2656 0.2500
vt 0.2656 0.5000
vt 0.2500 0.5000
vt 0.5000 0.2500
vt 0.5000 0.3750
vt 0.4844 0.3750
vt 0.4844 0.2500
vt 0.2500 0.3750
vt 0.2500 0.2500
vt 0.2656 0.2500
vt 0.2656 0.3750
vt 0.2500 0.0156
vt 0.2656 0.0156
vt 0.2500 0.2344
vt 0.4844 0.2500
vt 0.4844 0.2344
vt 0.4844 0.0156
vt 0.0156 0.7656
vt 0.2344 0.7656
vt 0.2344 0.9844
vt 0.0156 0.9844
vt 0.5000 0.2500
vt 0.4844 0.2500
vt 0.4823 0.0000
vt 0.4823 0.1178
vt 0.2748 0.1178
vt 0.2748 0.0000
vt 0.4844 0.0156
vt 0.5000 0.0156
vt 0.5000 0.2344
vt 0.4844 0.0000
vt 0.5000 0.0156
vt 0.5000 0.0000
vt 0.5000 0.5000
vt 0.4844 0.5000
vt 0.5000 0.2500
vt 0.5000 0.3750
vt 0.4844 0.3750
vt 0.2656 0.0000
vt 0.4844 0.0000
vt 0.5000 0.2344
vt 0.2656 0.5000
vt 0.2500 0.5000
vt 0.4849 0.0000
vt 0.4849 0.1250
vt 0.2662 0.1250
vt 0.2662 0.0000
vt 0.0156 0.7656
vt 0.0000 0.7656
vt 0.0000 0.7500
vt 0.0156 0.7500
vt 0.2500 0.7656
vt 0.2344 0.7656
vt 0.2344 0.7500
vt 0.2500 0.7500
vt 0.0156 1.0000
vt 0.0000 1.0000
vt 0.0000 0.9844
vt 0.0156 0.9844
vt 0.2500 1.0000
vt 0.2344 1.0000
vt 0.2344 0.9844
vt 0.2500 0.9844
vt 0.5000 0.5000
vt 0.4844 0.5000
vt 0.2656 0.5000
vt 0.2500 0.5000
vt 0.4844 0.2500
vt 0.5000 0.2500
vt 0.5000 0.5000
vt 0.4844 0.5000
vt 0.2500 0.2500
vt 0.2656 0.2500
vt 0.2656 0.5000
vt 0.2500 0.5000
vt 0.2656 0.5000
vt 0.2500 0.5000
vt 0.5000 0.5000
vt 0.4844 0.5000
vt 0.2500 0.2500
vt 0.2500 0.5000
vt 0.4844 0.2500
vt 0.5000 0.2500
vt 0.5000 0.5000
vt 0.4844 0.5000
vt 0.4844 0.2500
vt 0.5000 0.2500
vt 0.5000 0.5000
vt 0.4844 0.5000
vt 0.5000 0.2500
vt 0.5000 0.5000
vt 0.2500 0.2500
vt 0.2656 0.2500
vt 0.2656 0.5000
vt 0.2500 0.5000
vt 0.2656 0.5000
vt 0.2500 0.5000
vn 0.0000 -1.0000 0.0000
vn -1.0000 0.0000 -0.0000
vn 1.0000 0.0000 0.0000
vn -0.0000 -0.0000 1.0000
vn 0.0000 0.0000 -1.0000
vn 0.0000 1.0000 0.0000
usemtl Material
s off
f 22/1/1 10/2/1 3/3/1 18/4/1
f 20/5/2 7/6/2 38/7/2 45/8/2
f 17/9/3 19/10/3 6/11/3 2/12/3
f 10/13/4 12/14/4 7/15/4 3/16/4
f 25/17/2 26/18/2 8/19/2 4/20/2
f 11/21/5 9/22/5 4/23/5 8/24/5
f 15/25/5 13/26/5 9/27/5 11/28/5
f 14/29/4 16/30/4 12/31/4 10/32/4
f 24/33/6 21/34/6 12/35/6 16/36/6
f 23/37/1 14/38/1 10/2/1 22/1/1
f 17/9/1 2/12/1 14/38/1 23/37/1
f 26/39/4 31/40/4 47/41/4 39/42/4
f 2/43/4 6/44/4 16/45/4 14/46/4
f 5/47/5 1/48/5 13/49/5 15/50/5
f 30/51/6 32/52/6 24/33/6 19/53/6
f 29/54/1 17/9/1 23/37/1 28/55/1
f 28/55/1 23/37/1 22/1/1 27/56/1
f 32/57/6 31/58/6 21/59/6 24/60/6
f 3/61/2 7/6/2 20/5/2 18/62/2
f 29/63/3 30/64/3 19/65/3 17/66/3
f 31/67/6 26/68/6 20/69/6 21/34/6
f 27/56/1 22/1/1 18/4/1 25/70/1
f 9/71/1 27/56/1 25/70/1 4/72/1
f 16/45/4 6/44/4 34/73/4 43/74/4
f 1/75/3 5/76/3 30/77/3 29/54/3
f 15/78/6 11/79/6 31/67/6 32/52/6
f 13/80/1 28/55/1 27/56/1 9/71/1
f 1/75/1 29/54/1 28/55/1 13/80/1
f 6/11/3 19/10/3 33/81/3 34/82/3
f 18/83/2 20/84/2 26/85/2 25/86/2
f 40/87/6 45/88/6 38/89/6 37/90/6
f 33/91/6 44/92/6 43/93/6 34/94/6
f 35/95/6 36/96/6 39/97/6 47/98/6
f 41/99/6 42/100/6 48/101/6 46/102/6
f 11/21/5 8/24/5 36/103/5 35/104/5
f 7/15/4 12/14/4 37/105/4 38/106/4
f 24/107/2 16/108/2 43/109/2 44/110/2
f 12/111/3 21/112/3 40/113/3 37/114/3
f 8/19/2 26/18/2 39/115/2 36/116/2
f 30/77/3 5/76/3 41/117/3 46/118/3
f 21/112/5 20/119/5 45/120/5 40/113/5
f 31/121/3 11/122/3 35/123/3 47/124/3
f 32/125/4 30/126/4 46/127/4 48/128/4
f 19/129/5 24/107/5 44/110/5 33/130/5
f 15/131/2 32/132/2 48/133/2 42/134/2
f 5/47/5 15/50/5 42/135/5 41/136/5
