# Blender v2.78 (sub 0) OBJ File: 'stackmover.blend'
# www.blender.org
mtllib stackmover.mtl
o Cube
v 1.000000 0.000000 1.000000
v 0.000000 0.000000 1.000000
v 0.000000 0.000000 -0.000000
v 1.000000 0.000000 0.000000
v 1.000000 1.000000 1.000000
v -0.000000 1.000000 1.000000
v 0.000000 1.000000 -0.000000
v 1.000000 1.000000 0.000000
v 1.000000 0.000000 0.125000
v 0.000000 0.000000 0.125000
v 1.000000 1.000000 0.125000
v -0.000000 1.000000 0.125000
v 1.000000 0.000000 0.875000
v 0.000000 0.000000 0.875000
v 1.000000 1.000000 0.875000
v -0.000000 1.000000 0.875000
v 0.875000 0.125000 0.875000
v 0.875000 0.125000 0.125000
v 0.125000 0.125000 0.875000
v 0.125000 0.125000 0.125000
v 0.875000 0.875000 0.875000
v 0.875000 0.875000 0.125000
v 0.125000 0.875000 0.875000
v 0.125000 0.875000 0.125000
v 0.875000 0.125000 0.250000
v 0.125000 0.125000 0.250000
v 0.875000 0.875000 0.250000
v 0.125000 0.875000 0.250000
v 0.875000 0.125000 0.750000
v 0.125000 0.125000 0.750000
v 0.875000 0.875000 0.750000
v 0.125000 0.875000 0.750000
v 0.687500 0.312500 0.750000
v 0.687500 0.312500 0.250000
v 0.312500 0.312500 0.750000
v 0.312500 0.312500 0.250000
v 0.687500 0.687500 0.750000
v 0.687500 0.687500 0.250000
v 0.312500 0.687500 0.750000
v 0.312500 0.687500 0.250000
v 0.687500 0.312500 0.750000
v 0.687500 0.312500 0.250000
v 0.687500 0.687500 0.750000
v 0.687500 0.687500 0.250000
vt 0.2500 0.3754
vt 0.0000 0.3754
vt 0.0000 0.3442
vt 0.2500 0.3442
vt 0.2500 0.3129
vt 0.2500 0.3441
vt 0.0000 0.3441
vt 0.0000 0.3129
vt 0.7500 0.5000
vt 0.7500 0.7500
vt 0.5000 0.7500
vt 0.5000 0.5000
vt 0.1254 0.2500
vt 0.1254 0.5000
vt 0.0942 0.5000
vt 0.0942 0.2500
vt 0.5000 1.0000
vt 0.5000 0.7500
vt 0.7500 0.7500
vt 0.7500 1.0000
vt 0.0313 0.5000
vt 0.0313 0.2500
vt 0.0000 0.2500
vt 0.0000 0.5000
vt 0.0000 0.2500
vt 0.2500 0.2500
vt 0.2187 0.2813
vt 0.0313 0.2813
vt 0.2500 0.5000
vt 0.0000 0.5000
vt 0.0313 0.4687
vt 0.2187 0.4687
vt 0.2500 0.5000
vt 0.2187 0.4687
vt 0.0000 0.5000
vt 0.0313 0.4687
vt 0.2500 0.3441
vt 0.0000 0.3441
vt 0.0000 0.3129
vt 0.2500 0.3129
vt 0.2500 0.3442
vt 0.2500 0.3754
vt 0.0000 0.3754
vt 0.0000 0.3442
vt 0.0941 0.2500
vt 0.0941 0.5000
vt 0.0629 0.5000
vt 0.0629 0.2500
vt 0.2500 0.5000
vt 0.2500 0.2500
vt 0.2188 0.2500
vt 0.2188 0.5000
vt 0.1875 0.4688
vt 0.1875 0.2812
vt 0.1563 0.2812
vt 0.1563 0.4688
vt 0.1880 0.2500
vt 0.1880 0.4375
vt 0.1568 0.4375
vt 0.1568 0.2500
vt 0.1875 0.3755
vt 0.1875 0.4067
vt 0.0000 0.4067
vt 0.0000 0.3755
vt 0.1875 0.4380
vt 0.0000 0.4380
vt 0.0000 0.4068
vt 0.1875 0.4068
vt 0.2500 0.2500
vt 0.2187 0.2813
vt 0.0000 0.2500
vt 0.0313 0.2813
vt 0.2187 0.2813
vt 0.2187 0.4687
vt 0.1719 0.4219
vt 0.1719 0.3281
vt 0.2187 0.4687
vt 0.0313 0.4687
vt 0.0781 0.4219
vt 0.1719 0.4219
vt 0.0313 0.2813
vt 0.0781 0.3281
vt 0.2187 0.2813
vt 0.1719 0.3281
vt 0.0938 0.4688
vt 0.0938 0.2812
vt 0.0625 0.2812
vt 0.0625 0.4688
vt 0.1567 0.2500
vt 0.1567 0.4375
vt 0.1255 0.4375
vt 0.1255 0.2500
vt 0.1875 0.4068
vt 0.1875 0.4380
vt 0.0000 0.4380
vt 0.0000 0.4068
vt 0.1875 0.4067
vt 0.0000 0.4067
vt 0.0000 0.3755
vt 0.1875 0.3755
vt 0.9219 0.3750
vt 0.8281 0.3750
vt 0.8281 0.5000
vt 0.9219 0.5000
vt 0.9219 0.3750
vt 0.9219 0.5000
vt 0.8281 0.5000
vt 0.8281 0.3750
vt 0.9219 0.3750
vt 0.9219 0.5000
vt 0.0313 0.4687
vt 0.0781 0.4219
vt 0.0313 0.2813
vt 0.0781 0.3281
vt 0.9219 0.3750
vt 0.8281 0.3750
vt 0.8281 0.5000
vt 0.9219 0.5000
vn 0.0000 -1.0000 0.0000
vn 0.0000 1.0000 0.0000
vn -0.0000 0.0000 1.0000
vn -1.0000 -0.0000 -0.0000
vn 0.0000 -0.0000 -1.0000
vn 1.0000 0.0000 0.0000
usemtl Material
s off
f 9/1/1 10/2/1 3/3/1 4/4/1
f 11/5/2 8/6/2 7/7/2 12/8/2
f 1/9/3 5/10/3 6/11/3 2/12/3
f 10/13/4 12/14/4 7/15/4 3/16/4
f 3/17/5 7/18/5 8/19/5 4/20/5
f 11/21/6 9/22/6 4/23/6 8/24/6
f 15/25/5 13/26/5 17/27/5 21/28/5
f 11/29/3 12/30/3 24/31/3 22/32/3
f 13/26/5 14/33/5 19/34/5 17/27/5
f 14/33/5 16/35/5 23/36/5 19/34/5
f 1/37/1 2/38/1 14/39/1 13/40/1
f 5/41/2 15/42/2 16/43/2 6/44/2
f 2/45/4 6/46/4 16/47/4 14/48/4
f 5/49/6 1/50/6 13/51/6 15/52/6
f 27/53/6 25/54/6 18/55/6 22/56/6
f 26/57/4 28/58/4 24/59/4 20/60/4
f 27/61/2 22/62/2 24/63/2 28/64/2
f 25/65/1 26/66/1 20/67/1 18/68/1
f 9/69/3 11/29/3 22/32/3 18/70/3
f 16/35/5 15/25/5 21/28/5 23/36/5
f 10/71/3 9/69/3 18/70/3 20/72/3
f 12/30/3 10/71/3 20/72/3 24/31/3
f 25/73/3 27/74/3 38/75/3 34/76/3
f 30/77/5 32/78/5 39/79/5 35/80/5
f 26/81/3 25/73/3 34/76/3 36/82/3
f 29/83/5 30/77/5 35/80/5 33/84/5
f 21/85/6 17/86/6 29/87/6 31/88/6
f 19/89/4 23/90/4 32/91/4 30/92/4
f 21/93/2 31/94/2 32/95/2 23/96/2
f 17/97/1 19/98/1 30/99/1 29/100/1
f 33/101/1 35/102/1 36/103/1 34/104/1
f 37/105/2 38/106/2 40/107/2 39/108/2
f 35/102/4 39/109/4 40/110/4 36/103/4
f 27/74/3 28/111/3 40/112/3 38/75/3
f 32/78/5 31/113/5 37/114/5 39/79/5
f 31/113/5 29/83/5 33/84/5 37/114/5
f 28/111/3 26/81/3 36/82/3 40/112/3
f 43/115/6 41/116/6 42/117/6 44/118/6
