# Blender v2.78 (sub 0) OBJ File: 'teslacoil.blend'
# www.blender.org
mtllib teslacoil.mtl
o Cube
v 1.000000 0.000000 0.000000
v 1.000000 0.000000 1.000000
v -0.000000 0.000000 1.000000
v 0.000000 0.000000 -0.000000
v 1.000000 0.062500 0.000000
v 1.000000 0.062500 1.000000
v -0.000000 0.062500 1.000000
v 0.000000 0.062500 0.000000
v 1.000000 0.000000 0.125000
v 0.000000 0.000000 0.125000
v 1.000000 0.062500 0.125000
v -0.000000 0.062500 0.125000
v 1.000000 0.000000 0.875000
v 1.000000 0.062500 0.875000
v 0.000000 0.000000 0.875000
v -0.000000 0.062500 0.875000
v 0.875000 0.000000 -0.000000
v 0.875000 0.000000 1.000000
v 0.875000 0.062500 0.000000
v 0.875000 0.062500 1.000000
v 0.875000 0.062500 0.125000
v 0.875000 0.000000 0.125000
v 0.875000 0.062500 0.875000
v 0.875000 0.000000 0.875000
v 0.125000 0.000000 -0.000000
v 0.125000 0.000000 1.000000
v 0.125000 0.062500 0.000000
v 0.125000 0.062500 1.000000
v 0.125000 0.000000 0.125000
v 0.125000 0.000000 0.875000
v 0.125000 0.062500 0.125000
v 0.125000 0.062500 0.875000
v 0.875000 1.000000 0.125000
v 0.875000 1.000000 0.875000
v 0.125000 1.000000 0.125000
v 0.125000 1.000000 0.875000
v 0.875000 0.121094 0.875000
v 0.875000 0.179688 0.875000
v 0.875000 0.238281 0.875000
v 0.875000 0.296875 0.875000
v 0.875000 0.355469 0.875000
v 0.875000 0.414062 0.875000
v 0.875000 0.472656 0.875000
v 0.875000 0.531250 0.875000
v 0.875000 0.589844 0.875000
v 0.875000 0.648438 0.875000
v 0.875000 0.707031 0.875000
v 0.875000 0.765625 0.875000
v 0.875000 0.824219 0.875000
v 0.875000 0.882812 0.875000
v 0.875000 0.941406 0.875000
v 0.125000 0.941406 0.875000
v 0.125000 0.882812 0.875000
v 0.125000 0.824219 0.875000
v 0.125000 0.765625 0.875000
v 0.125000 0.707031 0.875000
v 0.125000 0.648438 0.875000
v 0.125000 0.589844 0.875000
v 0.125000 0.531250 0.875000
v 0.125000 0.472656 0.875000
v 0.125000 0.414062 0.875000
v 0.125000 0.355469 0.875000
v 0.125000 0.296875 0.875000
v 0.125000 0.238281 0.875000
v 0.125000 0.179688 0.875000
v 0.125000 0.121094 0.875000
v 0.125000 0.121094 0.125000
v 0.125000 0.179688 0.125000
v 0.125000 0.238281 0.125000
v 0.125000 0.296875 0.125000
v 0.125000 0.355469 0.125000
v 0.125000 0.414062 0.125000
v 0.125000 0.472656 0.125000
v 0.125000 0.531250 0.125000
v 0.125000 0.589844 0.125000
v 0.125000 0.648438 0.125000
v 0.125000 0.707031 0.125000
v 0.125000 0.765625 0.125000
v 0.125000 0.824219 0.125000
v 0.125000 0.882812 0.125000
v 0.125000 0.941406 0.125000
v 0.875000 0.941406 0.125000
v 0.875000 0.882812 0.125000
v 0.875000 0.824219 0.125000
v 0.875000 0.765625 0.125000
v 0.875000 0.707031 0.125000
v 0.875000 0.648438 0.125000
v 0.875000 0.589844 0.125000
v 0.875000 0.531250 0.125000
v 0.875000 0.472656 0.125000
v 0.875000 0.414062 0.125000
v 0.875000 0.355469 0.125000
v 0.875000 0.296875 0.125000
v 0.875000 0.238281 0.125000
v 0.875000 0.179688 0.125000
v 0.875000 0.121094 0.125000
v 0.937500 0.179688 0.937500
v 0.937500 0.238281 0.937500
v 0.937500 0.296875 0.937500
v 0.937500 0.355469 0.937500
v 0.937500 0.414062 0.937500
v 0.937500 0.472656 0.937500
v 0.937500 0.531250 0.937500
v 0.937500 0.589844 0.937500
v 0.937500 0.648438 0.937500
v 0.937500 0.707031 0.937500
v 0.937500 0.765625 0.937500
v 0.937500 0.824219 0.937500
v 0.937500 0.882812 0.937500
v 0.937500 0.941406 0.937500
v 0.062500 0.941406 0.937500
v 0.062500 0.882812 0.937500
v 0.062500 0.824219 0.937500
v 0.062500 0.765625 0.937500
v 0.062500 0.707031 0.937500
v 0.062500 0.648438 0.937500
v 0.062500 0.589844 0.937500
v 0.062500 0.531250 0.937500
v 0.062500 0.472656 0.937500
v 0.062500 0.414062 0.937500
v 0.062500 0.355469 0.937500
v 0.062500 0.296875 0.937500
v 0.062500 0.238281 0.937500
v 0.062500 0.179688 0.937500
v 0.062500 0.179688 0.062500
v 0.062500 0.238281 0.062500
v 0.062500 0.296875 0.062500
v 0.062500 0.355469 0.062500
v 0.062500 0.414062 0.062500
v 0.062500 0.472656 0.062500
v 0.062500 0.531250 0.062500
v 0.062500 0.589844 0.062500
v 0.062500 0.648438 0.062500
v 0.062500 0.707031 0.062500
v 0.062500 0.765625 0.062500
v 0.062500 0.824219 0.062500
v 0.062500 0.882812 0.062500
v 0.062500 0.941406 0.062500
v 0.937500 0.941406 0.062500
v 0.937500 0.882812 0.062500
v 0.937500 0.824219 0.062500
v 0.937500 0.765625 0.062500
v 0.937500 0.707031 0.062500
v 0.937500 0.648438 0.062500
v 0.937500 0.589844 0.062500
v 0.937500 0.531250 0.062500
v 0.937500 0.472656 0.062500
v 0.937500 0.414062 0.062500
v 0.937500 0.355469 0.062500
v 0.937500 0.296875 0.062500
v 0.937500 0.238281 0.062500
v 0.937500 0.179688 0.062500
vt 0.0313 0.5313
vt 0.0000 0.5313
vt 0.0000 0.5000
vt 0.0313 0.5000
vt 0.0313 0.7813
vt 0.0000 0.7813
vt 0.0000 0.7500
vt 0.0313 0.7500
vt 0.0312 0.7500
vt 0.0312 0.7656
vt 0.0000 0.7656
vt 0.0000 0.7500
vt 0.0312 0.7500
vt 0.0312 0.7656
vt 0.0000 0.7656
vt 0.0000 0.7500
vt 0.2188 0.7500
vt 0.2188 0.7656
vt 0.2500 0.7656
vt 0.2500 0.7500
vt 0.0312 0.7656
vt 0.0312 0.7500
vt 0.0000 0.7500
vt 0.0000 0.7656
vt 0.0312 0.7500
vt 0.0312 0.7656
vt 0.2500 0.7500
vt 0.2500 0.7656
vt 0.2187 0.7656
vt 0.2187 0.7500
vt 0.0313 1.0000
vt 0.0000 1.0000
vt 0.0000 0.9687
vt 0.0313 0.9687
vt 0.2500 0.5313
vt 0.2187 0.5313
vt 0.2187 0.5000
vt 0.2500 0.5000
vt 0.0313 0.7500
vt 0.0313 0.7187
vt 0.2187 0.7187
vt 0.2500 0.9687
vt 0.2187 0.9687
vt 0.2187 0.7813
vt 0.2500 0.7813
vt 0.2500 0.7187
vt 0.2500 1.0000
vt 0.2187 1.0000
vt 0.2188 0.7500
vt 0.2188 0.7656
vt 0.2500 0.7500
vt 0.2500 0.7656
vt 0.2187 0.7656
vt 0.2187 0.7500
vt 0.2187 0.7500
vt 0.2500 0.7500
vt 0.0000 0.7187
vt 0.4219 0.2354
vt 0.4688 0.2354
vt 0.4688 0.2500
vt 0.4219 0.2500
vt 0.4687 0.2187
vt 0.2813 0.2187
vt 0.2813 0.0313
vt 0.4687 0.0313
vt 0.3281 0.2354
vt 0.3750 0.2354
vt 0.3750 0.2500
vt 0.3281 0.2500
vt 0.2812 0.2354
vt 0.2812 0.2500
vt 0.3750 0.0156
vt 0.4219 0.0156
vt 0.4219 0.0303
vt 0.3750 0.0303
vt 0.4219 0.0449
vt 0.3750 0.0449
vt 0.2812 0.4062
vt 0.4687 0.4062
vt 0.4844 0.4219
vt 0.2656 0.4219
vt 0.3750 0.0596
vt 0.4219 0.0596
vt 0.4219 0.0742
vt 0.3750 0.0742
vt 0.2656 0.4687
vt 0.4531 0.4687
vt 0.4687 0.4531
vt 0.2500 0.4531
vt 0.3750 0.0889
vt 0.4219 0.0889
vt 0.4219 0.1035
vt 0.3750 0.1035
vt 0.3906 0.4687
vt 0.3906 0.2812
vt 0.3750 0.2656
vt 0.3750 0.4844
vt 0.3750 0.1182
vt 0.4219 0.1182
vt 0.4219 0.1328
vt 0.3750 0.1328
vt 0.4531 0.4062
vt 0.2656 0.4062
vt 0.2500 0.4219
vt 0.4687 0.4219
vt 0.3750 0.1475
vt 0.4219 0.1475
vt 0.4219 0.1621
vt 0.3750 0.1621
vt 0.4531 0.4687
vt 0.2656 0.4687
vt 0.2500 0.4531
vt 0.4687 0.4531
vt 0.3750 0.1768
vt 0.4219 0.1768
vt 0.4219 0.1914
vt 0.3750 0.1914
vt 0.3906 0.2812
vt 0.3906 0.4687
vt 0.3750 0.4844
vt 0.3750 0.2656
vt 0.3750 0.2061
vt 0.4219 0.2061
vt 0.4219 0.2207
vt 0.3750 0.2207
vt 0.2656 0.4687
vt 0.4531 0.4687
vt 0.4687 0.4531
vt 0.2500 0.4531
vt 0.2812 0.0156
vt 0.3281 0.0156
vt 0.3281 0.0303
vt 0.2812 0.0303
vt 0.3281 0.0449
vt 0.2812 0.0449
vt 0.3906 0.4687
vt 0.3906 0.2812
vt 0.3750 0.2656
vt 0.3750 0.4844
vt 0.2812 0.0596
vt 0.3281 0.0596
vt 0.3281 0.0742
vt 0.2812 0.0742
vt 0.3281 0.4687
vt 0.3281 0.2812
vt 0.3437 0.2656
vt 0.3437 0.4844
vt 0.2812 0.0889
vt 0.3281 0.0889
vt 0.3281 0.1035
vt 0.2812 0.1035
vt 0.4531 0.4687
vt 0.2656 0.4687
vt 0.2500 0.4531
vt 0.4687 0.4531
vt 0.2812 0.1182
vt 0.3281 0.1182
vt 0.3281 0.1328
vt 0.2812 0.1328
vt 0.3906 0.2812
vt 0.3906 0.4687
vt 0.3750 0.4844
vt 0.3750 0.2656
vt 0.2812 0.1475
vt 0.3281 0.1475
vt 0.3281 0.1621
vt 0.2812 0.1621
vt 0.3281 0.2812
vt 0.3281 0.4687
vt 0.3437 0.4844
vt 0.3437 0.2656
vt 0.2812 0.1768
vt 0.3281 0.1768
vt 0.3281 0.1914
vt 0.2812 0.1914
vt 0.2656 0.4687
vt 0.4531 0.4687
vt 0.4687 0.4531
vt 0.2500 0.4531
vt 0.2812 0.2061
vt 0.3281 0.2061
vt 0.3281 0.2207
vt 0.2812 0.2207
vt 0.3906 0.4687
vt 0.3906 0.2812
vt 0.3750 0.2656
vt 0.3750 0.4844
vt 0.3281 0.4687
vt 0.3281 0.2812
vt 0.3437 0.2656
vt 0.3437 0.4844
vt 0.4531 0.4687
vt 0.2656 0.4687
vt 0.2500 0.4531
vt 0.4687 0.4531
vt 0.3281 0.2812
vt 0.3281 0.4687
vt 0.3437 0.4844
vt 0.3437 0.2656
vt 0.2656 0.4687
vt 0.4531 0.4687
vt 0.4687 0.4531
vt 0.2500 0.4531
vt 0.3281 0.4687
vt 0.3281 0.2812
vt 0.3437 0.2656
vt 0.3437 0.4844
vt 0.4531 0.4687
vt 0.2656 0.4687
vt 0.2500 0.4531
vt 0.4687 0.4531
vt 0.3281 0.2812
vt 0.3281 0.4687
vt 0.3437 0.4844
vt 0.3437 0.2656
vt 0.4688 0.0156
vt 0.4688 0.0303
vt 0.4688 0.0449
vt 0.2656 0.4687
vt 0.4531 0.4687
vt 0.4687 0.4531
vt 0.2500 0.4531
vt 0.4688 0.0596
vt 0.4688 0.0742
vt 0.3281 0.4687
vt 0.3281 0.2812
vt 0.3437 0.2656
vt 0.3437 0.4844
vt 0.4688 0.0889
vt 0.4688 0.1035
vt 0.4531 0.4687
vt 0.2656 0.4687
vt 0.2500 0.4531
vt 0.4687 0.4531
vt 0.4688 0.1182
vt 0.4688 0.1328
vt 0.3281 0.2812
vt 0.3281 0.4687
vt 0.3437 0.4844
vt 0.3437 0.2656
vt 0.4688 0.1475
vt 0.4688 0.1621
vt 0.2656 0.4687
vt 0.4531 0.4687
vt 0.4687 0.4531
vt 0.2500 0.4531
vt 0.4688 0.1768
vt 0.4688 0.1914
vt 0.3281 0.4687
vt 0.3281 0.2812
vt 0.3437 0.2656
vt 0.3437 0.4844
vt 0.4688 0.2061
vt 0.4688 0.2207
vt 0.4531 0.4687
vt 0.2656 0.4687
vt 0.2500 0.4531
vt 0.4687 0.4531
vt 0.4687 0.3574
vt 0.2500 0.3574
vt 0.2500 0.3721
vt 0.4687 0.3721
vt 0.4687 0.3867
vt 0.2500 0.3867
vt 0.2500 0.4014
vt 0.4687 0.4014
vt 0.4687 0.4160
vt 0.2500 0.4160
vt 0.2500 0.4307
vt 0.4687 0.4307
vt 0.4687 0.4453
vt 0.2500 0.4453
vt 0.2500 0.4600
vt 0.4687 0.4600
vt 0.4687 0.4590
vt 0.2500 0.4590
vt 0.2500 0.4736
vt 0.4687 0.4736
vt 0.4687 0.2695
vt 0.2500 0.2695
vt 0.2500 0.2842
vt 0.4687 0.2842
vt 0.4687 0.2832
vt 0.2500 0.2832
vt 0.2500 0.2979
vt 0.4687 0.2979
vt 0.2500 0.3574
vt 0.4687 0.3574
vt 0.4687 0.3721
vt 0.2500 0.3721
vt 0.2500 0.3867
vt 0.4687 0.3867
vt 0.4687 0.4014
vt 0.2500 0.4014
vt 0.2500 0.4160
vt 0.4687 0.4160
vt 0.4687 0.4307
vt 0.2500 0.4307
vt 0.2500 0.4453
vt 0.4687 0.4453
vt 0.4687 0.4600
vt 0.2500 0.4600
vt 0.2500 0.4590
vt 0.4687 0.4590
vt 0.4687 0.4736
vt 0.2500 0.4736
vt 0.2500 0.2695
vt 0.4687 0.2695
vt 0.4687 0.2842
vt 0.2500 0.2842
vt 0.2500 0.2832
vt 0.4687 0.2832
vt 0.4687 0.2979
vt 0.2500 0.2979
vt 0.2500 0.3574
vt 0.2500 0.3721
vt 0.2500 0.3867
vt 0.2500 0.4014
vt 0.2500 0.4160
vt 0.2500 0.4307
vt 0.2500 0.4453
vt 0.2500 0.4600
vt 0.2500 0.4590
vt 0.2500 0.4736
vt 0.2500 0.2695
vt 0.2500 0.2842
vt 0.2500 0.2832
vt 0.2500 0.2979
vt 0.2656 0.3574
vt 0.4844 0.3574
vt 0.4844 0.3721
vt 0.2656 0.3721
vt 0.2656 0.3867
vt 0.4844 0.3867
vt 0.4844 0.4014
vt 0.2656 0.4014
vt 0.2656 0.4160
vt 0.4844 0.4160
vt 0.4844 0.4307
vt 0.2656 0.4307
vt 0.4687 0.4453
vt 0.4687 0.4600
vt 0.2656 0.4590
vt 0.4844 0.4590
vt 0.4844 0.4736
vt 0.2656 0.4736
vt 0.2656 0.2539
vt 0.4844 0.2539
vt 0.4844 0.2686
vt 0.2656 0.2686
vt 0.2656 0.2832
vt 0.4844 0.2832
vt 0.4844 0.2979
vt 0.2656 0.2979
vt 0.3906 0.2812
vt 0.3906 0.4687
vt 0.3750 0.4844
vt 0.3750 0.2656
vt 0.4531 0.4687
vt 0.2656 0.4687
vt 0.2500 0.4531
vt 0.4687 0.4531
vt 0.4531 0.4062
vt 0.2656 0.4062
vt 0.2500 0.4219
vt 0.4687 0.4219
vt 0.3906 0.4687
vt 0.3906 0.2812
vt 0.3750 0.2656
vt 0.3750 0.4844
vt 0.2656 0.4062
vt 0.4531 0.4062
vt 0.4687 0.4219
vt 0.2500 0.4219
vt 0.3906 0.2812
vt 0.3906 0.4687
vt 0.3750 0.4844
vt 0.3750 0.2656
vt 0.4531 0.4062
vt 0.2656 0.4062
vt 0.2500 0.4219
vt 0.4687 0.4219
vt 0.3906 0.4687
vt 0.3906 0.2812
vt 0.3750 0.2656
vt 0.3750 0.4844
vt 0.2656 0.4062
vt 0.4531 0.4062
vt 0.4687 0.4219
vt 0.2500 0.4219
vt 0.3906 0.2812
vt 0.3906 0.4687
vt 0.3750 0.4844
vt 0.3750 0.2656
vt 0.4531 0.4062
vt 0.2656 0.4062
vt 0.2500 0.4219
vt 0.4687 0.4219
vt 0.3906 0.4687
vt 0.3906 0.2812
vt 0.3750 0.2656
vt 0.3750 0.4844
vt 0.2656 0.4062
vt 0.4531 0.4062
vt 0.4687 0.4219
vt 0.2500 0.4219
vt 0.3906 0.2812
vt 0.3906 0.4687
vt 0.3750 0.4844
vt 0.3750 0.2656
vt 0.4531 0.4062
vt 0.2656 0.4062
vt 0.2500 0.4219
vt 0.4687 0.4219
vt 0.3906 0.4687
vt 0.3906 0.2812
vt 0.3750 0.2656
vt 0.3750 0.4844
vt 0.2656 0.4062
vt 0.4531 0.4062
vt 0.4687 0.4219
vt 0.2500 0.4219
vt 0.3906 0.2812
vt 0.3906 0.4687
vt 0.3750 0.4844
vt 0.3750 0.2656
vt 0.4531 0.4062
vt 0.2656 0.4062
vt 0.2500 0.4219
vt 0.4687 0.4219
vt 0.2656 0.4062
vt 0.4531 0.4062
vt 0.4687 0.4219
vt 0.2500 0.4219
vt 0.3281 0.2812
vt 0.3281 0.4687
vt 0.3437 0.4844
vt 0.3437 0.2656
vt 0.4531 0.4062
vt 0.2656 0.4062
vt 0.2500 0.4219
vt 0.4687 0.4219
vt 0.3281 0.4687
vt 0.3281 0.2812
vt 0.3437 0.2656
vt 0.3437 0.4844
vt 0.2656 0.4062
vt 0.4531 0.4062
vt 0.4687 0.4219
vt 0.2500 0.4219
vt 0.3281 0.2812
vt 0.3281 0.4687
vt 0.3437 0.4844
vt 0.3437 0.2656
vt 0.3281 0.4687
vt 0.3281 0.2812
vt 0.3437 0.2656
vt 0.3437 0.4844
vt 0.2812 0.4687
vt 0.4687 0.4687
vt 0.4844 0.4531
vt 0.2656 0.4531
vt 0.3281 0.2812
vt 0.3281 0.4687
vt 0.3437 0.4844
vt 0.3437 0.2656
vn 0.0000 -1.0000 0.0000
vn 0.0000 1.0000 0.0000
vn 1.0000 0.0000 0.0000
vn -0.0000 0.0000 1.0000
vn -1.0000 -0.0000 -0.0000
vn 0.0000 0.0000 -1.0000
usemtl Material
s off
f 30/1/1 26/2/1 3/3/1 15/4/1
f 32/5/2 16/6/2 7/7/2 28/8/2
f 13/9/3 14/10/3 6/11/3 2/12/3
f 26/13/4 28/14/4 7/15/4 3/16/4
f 10/17/5 12/18/5 8/19/5 4/20/5
f 27/21/6 25/22/6 4/23/6 8/24/6
f 15/25/5 16/26/5 12/18/5 10/17/5
f 1/27/3 5/28/3 11/29/3 9/30/3
f 27/31/2 8/32/2 12/33/2 31/34/2
f 25/35/1 29/36/1 10/37/1 4/38/1
f 3/16/5 7/15/5 16/26/5 15/25/5
f 9/30/3 11/29/3 14/10/3 13/9/3
f 31/34/2 12/33/2 16/6/2 32/5/2
f 29/36/1 30/1/1 15/4/1 10/37/1
f 9/30/1 13/39/1 24/40/1 22/41/1
f 11/42/2 21/43/2 23/44/2 14/45/2
f 1/27/1 9/30/1 22/41/1 17/46/1
f 5/47/2 19/48/2 21/43/2 11/42/2
f 5/28/6 1/27/6 17/49/6 19/50/6
f 2/51/4 6/52/4 20/53/4 18/54/4
f 14/45/2 23/44/2 20/55/2 6/56/2
f 13/39/1 2/12/1 18/57/1 24/40/1
f 22/41/1 24/40/1 30/1/1 29/36/1
f 52/58/4 51/59/4 34/60/4 36/61/4
f 17/46/1 22/41/1 29/36/1 25/35/1
f 19/48/2 27/31/2 31/34/2 21/43/2
f 19/50/6 17/49/6 25/22/6 27/21/6
f 18/54/4 20/53/4 28/14/4 26/13/4
f 23/44/2 32/5/2 28/8/2 20/55/2
f 24/40/1 18/57/1 26/2/1 30/1/1
f 33/62/2 35/63/2 36/64/2 34/65/2
f 82/66/6 81/67/6 35/68/6 33/69/6
f 51/70/3 82/66/3 33/69/3 34/71/3
f 81/67/5 52/58/5 36/61/5 35/68/5
f 31/72/5 32/73/5 66/74/5 67/75/5
f 67/75/5 66/74/5 65/76/5 68/77/5
f 69/78/2 94/79/2 151/80/2 126/81/2
f 69/82/5 64/83/5 63/84/5 70/85/5
f 53/86/1 50/87/1 109/88/1 112/89/1
f 71/90/5 62/91/5 61/92/5 72/93/5
f 72/94/1 61/95/1 120/96/1 129/97/1
f 73/98/5 60/99/5 59/100/5 74/101/5
f 95/102/1 68/103/1 125/104/1 152/105/1
f 75/106/5 58/107/5 57/108/5 76/109/5
f 49/110/2 54/111/2 113/112/2 108/113/2
f 77/114/5 56/115/5 55/116/5 78/117/5
f 62/118/2 71/119/2 128/120/2 121/121/2
f 79/122/5 54/123/5 53/124/5 80/125/5
f 55/126/1 48/127/1 107/128/1 114/129/1
f 23/130/3 21/131/3 96/132/3 37/133/3
f 37/133/3 96/132/3 95/134/3 38/135/3
f 70/136/1 63/137/1 122/138/1 127/139/1
f 39/140/3 94/141/3 93/142/3 40/143/3
f 82/144/2 51/145/2 110/146/2 139/147/2
f 41/148/3 92/149/3 91/150/3 42/151/3
f 47/152/2 56/153/2 115/154/2 106/155/2
f 43/156/3 90/157/3 89/158/3 44/159/3
f 64/160/2 69/161/2 126/162/2 123/163/2
f 45/164/3 88/165/3 87/166/3 46/167/3
f 50/168/1 83/169/1 140/170/1 109/171/1
f 47/172/3 86/173/3 85/174/3 48/175/3
f 57/176/1 46/177/1 105/178/1 116/179/1
f 49/180/3 84/181/3 83/182/3 50/183/3
f 68/184/1 65/185/1 124/186/1 125/187/1
f 21/131/6 31/72/6 67/75/6 96/132/6
f 96/132/6 67/75/6 68/77/6 95/134/6
f 84/188/2 49/189/2 108/190/2 141/191/2
f 94/141/6 69/82/6 70/85/6 93/142/6
f 45/192/2 58/193/2 117/194/2 104/195/2
f 92/149/6 71/90/6 72/93/6 91/150/6
f 48/196/1 85/197/1 142/198/1 107/199/1
f 90/157/6 73/98/6 74/101/6 89/158/6
f 59/200/1 44/201/1 103/202/1 118/203/1
f 88/165/6 75/106/6 76/109/6 87/166/6
f 86/204/2 47/205/2 106/206/2 143/207/2
f 86/173/6 77/114/6 78/117/6 85/174/6
f 43/208/2 60/209/2 119/210/2 102/211/2
f 84/181/6 79/122/6 80/125/6 83/182/6
f 46/212/1 87/213/1 144/214/1 105/215/1
f 32/73/4 23/216/4 37/217/4 66/74/4
f 66/74/4 37/217/4 38/218/4 65/76/4
f 61/219/1 42/220/1 101/221/1 120/222/1
f 64/83/4 39/223/4 40/224/4 63/84/4
f 88/225/2 45/226/2 104/227/2 145/228/2
f 62/91/4 41/229/4 42/230/4 61/92/4
f 41/231/2 62/232/2 121/233/2 100/234/2
f 60/99/4 43/235/4 44/236/4 59/100/4
f 44/237/1 89/238/1 146/239/1 103/240/1
f 58/107/4 45/241/4 46/242/4 57/108/4
f 63/243/1 40/244/1 99/245/1 122/246/1
f 56/115/4 47/247/4 48/248/4 55/116/4
f 90/249/2 43/250/2 102/251/2 147/252/2
f 54/123/4 49/253/4 50/254/4 53/124/4
f 39/255/2 64/256/2 123/257/2 98/258/2
f 125/259/5 124/260/5 123/261/5 126/262/5
f 127/263/5 122/264/5 121/265/5 128/266/5
f 129/267/5 120/268/5 119/269/5 130/270/5
f 131/271/5 118/272/5 117/273/5 132/274/5
f 133/275/5 116/276/5 115/277/5 134/278/5
f 135/279/5 114/280/5 113/281/5 136/282/5
f 137/283/5 112/284/5 111/285/5 138/286/5
f 97/287/3 152/288/3 151/289/3 98/290/3
f 99/291/3 150/292/3 149/293/3 100/294/3
f 101/295/3 148/296/3 147/297/3 102/298/3
f 103/299/3 146/300/3 145/301/3 104/302/3
f 105/303/3 144/304/3 143/305/3 106/306/3
f 107/307/3 142/308/3 141/309/3 108/310/3
f 109/311/3 140/312/3 139/313/3 110/314/3
f 152/288/6 125/315/6 126/316/6 151/289/6
f 150/292/6 127/317/6 128/318/6 149/293/6
f 148/296/6 129/319/6 130/320/6 147/297/6
f 146/300/6 131/321/6 132/322/6 145/301/6
f 144/304/6 133/323/6 134/324/6 143/305/6
f 142/308/6 135/325/6 136/326/6 141/309/6
f 140/312/6 137/327/6 138/328/6 139/313/6
f 124/329/4 97/330/4 98/331/4 123/332/4
f 122/333/4 99/334/4 100/335/4 121/336/4
f 120/337/4 101/338/4 102/339/4 119/340/4
f 118/272/4 103/341/4 104/342/4 117/273/4
f 116/343/4 105/344/4 106/345/4 115/346/4
f 114/347/4 107/348/4 108/349/4 113/350/4
f 112/351/4 109/352/4 110/353/4 111/354/4
f 60/355/2 73/356/2 130/357/2 119/358/2
f 51/359/2 52/360/2 111/361/2 110/362/2
f 93/363/1 70/364/1 127/365/1 150/366/1
f 74/367/1 59/368/1 118/369/1 131/370/1
f 71/371/2 92/372/2 149/373/2 128/374/2
f 58/375/2 75/376/2 132/377/2 117/378/2
f 91/379/1 72/380/1 129/381/1 148/382/1
f 76/383/1 57/384/1 116/385/1 133/386/1
f 73/387/2 90/388/2 147/389/2 130/390/2
f 56/391/2 77/392/2 134/393/2 115/394/2
f 89/395/1 74/396/1 131/397/1 146/398/1
f 78/399/1 55/400/1 114/401/1 135/402/1
f 75/403/2 88/404/2 145/405/2 132/406/2
f 54/407/2 79/408/2 136/409/2 113/410/2
f 87/411/1 76/412/1 133/413/1 144/414/1
f 80/415/1 53/416/1 112/417/1 137/418/1
f 77/419/2 86/420/2 143/421/2 134/422/2
f 52/423/2 81/424/2 138/425/2 111/426/2
f 85/427/1 78/428/1 135/429/1 142/430/1
f 79/431/2 84/432/2 141/433/2 136/434/2
f 38/435/1 95/436/1 152/437/1 97/438/1
f 83/439/1 80/440/1 137/441/1 140/442/1
f 94/443/2 39/444/2 98/445/2 151/446/2
f 81/447/2 82/448/2 139/449/2 138/450/2
f 40/451/1 93/452/1 150/453/1 99/454/1
f 92/455/2 41/456/2 100/457/2 149/458/2
f 65/459/1 38/460/1 97/461/1 124/462/1
f 42/463/1 91/464/1 148/465/1 101/466/1
